M48
; DRILL file {KiCad 6.0.9-8da3e8f707~117~ubuntu22.04.1} date Fri 16 Dec 2022 10:17:58 AM PST
; FORMAT={-:-/ absolute / inch / decimal}
; #@! TF.CreationDate,2022-12-16T10:17:58-08:00
; #@! TF.GenerationSoftware,Kicad,Pcbnew,6.0.9-8da3e8f707~117~ubuntu22.04.1
; #@! TF.FileFunction,MixedPlating,1,4
FMAT,2
INCH
; #@! TA.AperFunction,Plated,PTH,ViaDrill
T1C0.0079
; #@! TA.AperFunction,NonPlated,NPTH,ComponentDrill
T2C0.1457
%
G90
G05
T1
X3.8346Y-4.9728
X3.835Y-5.0098
X3.8858Y-4.5583
X3.8858Y-4.637
X3.8858Y-4.7157
X3.8858Y-4.7945
X3.8858Y-4.8732
X3.8858Y-4.9519
X3.8858Y-5.0306
X3.8858Y-5.1094
X3.8858Y-5.1881
X3.8858Y-5.2668
X3.8858Y-5.3455
X3.8858Y-5.4242
X3.8858Y-5.503
X3.8858Y-5.5817
X3.8858Y-5.6604
X3.8858Y-4.4792
X3.8872Y-5.7459
X3.8879Y-4.3917
X3.8917Y-5.8317
X3.8939Y-4.3045
X3.8994Y-5.9172
X3.9038Y-4.2176
X3.9101Y-6.0024
X3.9175Y-4.1312
X3.9239Y-6.0872
X3.935Y-4.0455
X3.9409Y-6.1714
X3.9563Y-3.9607
X3.9608Y-6.2549
X3.9814Y-3.8769
X3.9838Y-6.3376
X4.0098Y-6.4195
X4.0102Y-3.7943
X4.0387Y-6.5003
X4.0426Y-3.713
X4.0706Y-6.5801
X4.0786Y-3.6333
X4.1053Y-6.6586
X4.1181Y-3.5553
X4.1429Y-6.7359
X4.161Y-3.4791
X4.1832Y-6.8117
X4.2073Y-3.4049
X4.2263Y-6.886
X4.2568Y-3.3328
X4.272Y-6.9586
X4.2795Y-4.5189
X4.2795Y-4.5976
X4.2795Y-4.6763
X4.2795Y-4.7551
X4.2795Y-4.8338
X4.2795Y-4.9125
X4.2795Y-4.9912
X4.2795Y-5.07
X4.2795Y-5.1487
X4.2795Y-5.2274
X4.2795Y-5.3061
X4.2795Y-5.3849
X4.2795Y-5.4636
X4.2795Y-5.5423
X4.2795Y-5.621
X4.2797Y-5.6965
X4.2799Y-4.445
X4.2822Y-5.768
X4.2832Y-4.3751
X4.2873Y-5.8394
X4.2895Y-4.3054
X4.2949Y-5.9106
X4.299Y-4.236
X4.3052Y-5.9814
X4.3095Y-3.2629
X4.3115Y-4.1672
X4.318Y-6.0518
X4.3204Y-7.0296
X4.327Y-4.099
X4.3334Y-6.1217
X4.3433Y-5.0697
X4.3456Y-4.0315
X4.3465Y-4.9528
X4.3513Y-6.191
X4.3652Y-3.1955
X4.3671Y-3.9649
X4.3713Y-7.0988
X4.3717Y-6.2596
X4.3916Y-3.8994
X4.3946Y-6.3274
X4.419Y-3.835
X4.4199Y-6.3943
X4.4239Y-3.1307
X4.4247Y-7.166
X4.4476Y-6.4603
X4.4492Y-3.7719
X4.4778Y-6.5252
X4.4805Y-7.2313
X4.4822Y-3.7102
X4.4854Y-3.0685
X4.5102Y-6.589
X4.5179Y-3.65
X4.5386Y-7.2945
X4.545Y-6.6515
X4.5496Y-3.009
X4.5562Y-3.5914
X4.582Y-6.7128
X4.5971Y-3.5347
X4.599Y-7.3556
X4.6163Y-2.9526
X4.6212Y-6.7726
X4.6404Y-3.4798
X4.6616Y-7.4144
X4.6626Y-6.831
X4.6855Y-2.8991
X4.6862Y-3.4268
X4.706Y-6.8879
X4.7262Y-7.4709
X4.7343Y-3.376
X4.7515Y-6.9431
X4.757Y-2.8487
X4.7846Y-3.3273
X4.7929Y-7.525
X4.799Y-6.9967
X4.8307Y-2.8016
X4.837Y-3.281
X4.8484Y-7.0484
X4.8615Y-7.5767
X4.8914Y-3.237
X4.8997Y-7.0984
X4.9064Y-2.7578
X4.9319Y-7.6258
X4.9477Y-3.1954
X4.9527Y-7.1465
X4.984Y-2.7174
X5.0041Y-7.6723
X5.0058Y-3.1564
X5.0074Y-7.1926
X5.0633Y-2.6805
X5.0638Y-7.2367
X5.0655Y-3.12
X5.0779Y-7.7162
X5.1217Y-7.2787
X5.1268Y-3.0863
X5.1442Y-2.6471
X5.1533Y-7.7574
X5.1811Y-7.3185
X5.1896Y-3.0554
X5.2264Y-2.6174
X5.2301Y-7.7958
X5.242Y-7.3562
X5.2537Y-3.0273
X5.3041Y-7.3917
X5.3082Y-7.8314
X5.3099Y-2.5913
X5.319Y-3.002
X5.3676Y-7.4248
X5.3853Y-2.9797
X5.3876Y-7.8641
X5.3945Y-2.569
X5.4321Y-7.4557
X5.4525Y-2.9604
X5.4681Y-7.8939
X5.4799Y-2.5505
X5.4978Y-7.4841
X5.5205Y-2.944
X5.5497Y-7.9208
X5.5644Y-7.5102
X5.5661Y-2.5358
X5.5892Y-2.9307
X5.6087Y-5.8783
X5.632Y-7.5338
X5.6322Y-7.9447
X5.6476Y-5.7283
X5.6476Y-5.8268
X5.6529Y-2.5249
X5.6584Y-2.9205
X5.7004Y-7.555
X5.7155Y-7.9656
X5.7281Y-2.9133
X5.7401Y-2.5179
X5.752Y-6.6988
X5.7695Y-7.5736
X5.7898Y-5.7681
X5.7898Y-5.8311
X5.7979Y-2.9093
X5.7995Y-7.9834
X5.8275Y-2.5147
X5.837Y-5.7681
X5.837Y-5.8311
X5.8392Y-7.5898
X5.8679Y-2.9083
X5.8841Y-7.9982
X5.9094Y-7.6033
X5.915Y-2.5155
X5.9378Y-2.9105
X5.9685Y-5.8248
X5.9692Y-8.0099
X5.9801Y-7.6144
X6.0023Y-2.5201
X6.0076Y-2.9157
X6.0512Y-7.6228
X6.0546Y-8.0185
X6.0575Y-6.0319
X6.077Y-2.9241
X6.0894Y-2.5287
X6.1225Y-7.6287
X6.1403Y-8.0239
X6.1461Y-2.9355
X6.176Y-2.541
X6.194Y-7.6319
X6.2145Y-2.95
X6.2262Y-8.0263
X6.2346Y-6.1681
X6.2619Y-2.5572
X6.2673Y-7.6327
X6.2823Y-2.9675
X6.3067Y-8.0264
X6.3461Y-7.6327
X6.3471Y-2.5772
X6.3492Y-2.9881
X6.3854Y-8.0264
X6.4151Y-3.0115
X6.4248Y-7.6327
X6.4312Y-2.601
X6.4641Y-8.0264
X6.4799Y-3.0379
X6.5035Y-7.6327
X6.5143Y-2.6285
X6.5429Y-8.0264
X6.5435Y-3.0671
X6.561Y-5.0689
X6.5822Y-7.6327
X6.596Y-2.6596
X6.6047Y-4.8862
X6.6047Y-4.9335
X6.6057Y-3.0991
X6.6216Y-8.0264
X6.661Y-7.6327
X6.6614Y-4.752
X6.6614Y-5.0748
X6.6664Y-3.1339
X6.6677Y-4.8862
X6.6677Y-4.9335
X6.6763Y-2.6944
X6.7003Y-8.0264
X6.7256Y-3.1713
X6.7397Y-7.6327
X6.7549Y-2.7327
X6.7567Y-6.1701
X6.779Y-8.0264
X6.783Y-3.2113
X6.813Y-5.5512
X6.8184Y-7.6327
X6.8318Y-2.7744
X6.8386Y-3.2538
X6.8567Y-5.3626
X6.8567Y-5.4098
X6.8578Y-8.0264
X6.8922Y-3.2987
X6.8971Y-7.6327
X6.9067Y-2.8195
X6.9134Y-5.2303
X6.9134Y-5.5531
X6.9197Y-5.3626
X6.9197Y-5.4098
X6.9365Y-8.0264
X6.9438Y-3.346
X6.9759Y-7.6327
X6.9796Y-2.8679
X6.9932Y-3.3955
X7.0152Y-8.0264
X7.0404Y-3.4472
X7.0502Y-2.9195
X7.0546Y-7.6327
X7.0853Y-3.5009
X7.0939Y-8.0264
X7.1185Y-2.9742
X7.1306Y-3.5598
X7.1333Y-7.6327
X7.1727Y-8.0264
X7.1783Y-3.6224
X7.1842Y-3.0318
X7.212Y-7.6327
X7.2228Y-6.0004
X7.2261Y-3.685
X7.2272Y-5.1531
X7.2283Y-5.1921
X7.2307Y-5.2248
X7.2382Y-6.6988
X7.2474Y-3.0923
X7.2514Y-8.0264
X7.2575Y-6.1803
X7.2701Y-5.5752
X7.2778Y-3.7516
X7.2907Y-7.6327
X7.3078Y-3.1556
X7.3189Y-5.2992
X7.3301Y-8.0264
X7.3342Y-3.8183
X7.3653Y-3.2214
X7.3695Y-7.6327
X7.3936Y-3.8826
X7.3976Y-5.3307
X7.4088Y-8.0264
X7.4199Y-3.2898
X7.4398Y-5.1531
X7.4398Y-5.1933
X7.4482Y-7.6327
X7.4508Y-5.8425
X7.4512Y-5.0516
X7.4558Y-3.9441
X7.4676Y-3.3524
X7.4736Y-5.3598
X7.4803Y-5.8661
X7.4876Y-8.0264
X7.5024Y-4.776
X7.5079Y-5.7657
X7.5153Y-3.415
X7.5206Y-4.0028
X7.5236Y-6.0315
X7.5269Y-7.6327
X7.5311Y-5.0346
X7.5311Y-5.3535
X7.5623Y-3.4767
X7.5663Y-8.0264
X7.588Y-4.0586
X7.6056Y-7.6327
X7.6063Y-3.5311
X7.6319Y-6.2343
X7.645Y-8.0264
X7.6527Y-3.5835
X7.6578Y-4.1113
X7.6844Y-7.6327
X7.685Y-5.4272
X7.7008Y-6.0285
X7.7013Y-3.6338
X7.7047Y-5.3307
X7.7067Y-5.2933
X7.7237Y-8.0264
X7.7298Y-4.1608
X7.7343Y-5.4843
X7.7521Y-3.682
X7.7598Y-6.0285
X7.7631Y-7.6327
X7.8025Y-8.0264
X7.804Y-4.2072
X7.805Y-3.7278
X7.8268Y-5.6713
X7.8268Y-5.7047
X7.8418Y-7.6327
X7.8599Y-3.7712
X7.8802Y-4.2501
X7.8812Y-8.0264
X7.8839Y-5.8819
X7.9166Y-3.8121
X7.9205Y-7.6327
X7.9547Y-5.9941
X7.9582Y-4.2897
X7.9599Y-8.0264
X7.9752Y-3.8504
X7.9764Y-5.6083
X7.9992Y-7.6327
X8.0248Y-6.1732
X8.0276Y-6.6949
X8.0315Y-5.8071
X8.0325Y-5.9094
X8.0353Y-3.8862
X8.0379Y-4.3257
X8.0386Y-8.0264
X8.0506Y-5.7136
X8.078Y-7.6327
X8.097Y-3.9192
X8.1174Y-8.0264
X8.1191Y-4.3582
X8.1567Y-7.6327
X8.1601Y-3.9494
X8.1961Y-8.0264
X8.2017Y-4.387
X8.2245Y-3.9768
X8.2354Y-7.6327
X8.2748Y-8.0264
X8.2855Y-4.4122
X8.29Y-4.0014
X8.3141Y-7.6327
X8.3189Y-5.8071
X8.3248Y-5.8839
X8.3535Y-8.0264
X8.3566Y-4.023
X8.3703Y-4.4335
X8.3929Y-7.6327
X8.424Y-4.0416
X8.4322Y-8.0264
X8.456Y-4.4511
X8.4716Y-7.6327
X8.4922Y-4.0572
X8.511Y-8.0264
X8.5232Y-6.1669
X8.5423Y-4.4649
X8.5503Y-7.6327
X8.5611Y-4.0697
X8.5866Y-5.7126
X8.5897Y-8.0264
X8.629Y-7.6327
X8.6292Y-4.4748
X8.6304Y-4.0792
X8.6684Y-8.0264
X8.7001Y-4.0856
X8.7078Y-7.6327
X8.7165Y-4.4809
X8.7471Y-8.0264
X8.77Y-4.0889
X8.7865Y-7.6327
X8.7992Y-2.4803
X8.7992Y-2.5197
X8.7992Y-2.5591
X8.7992Y-2.5984
X8.7992Y-2.6378
X8.8039Y-4.4831
X8.8258Y-8.0264
X8.8438Y-4.0894
X8.8567Y-4.5949
X8.8652Y-7.6327
X8.8831Y-4.4831
X8.8937Y-2.6713
X8.9046Y-8.0264
X8.9225Y-4.0894
X8.9232Y-4.5945
X8.9439Y-7.6327
X8.9619Y-4.4831
X8.9833Y-8.0264
X8.9921Y-2.4843
X8.9921Y-2.5236
X8.9921Y-2.563
X8.9921Y-2.6024
X8.9921Y-2.6417
X9.0012Y-4.0894
X9.002Y-4.5945
X9.0227Y-7.6327
X9.0406Y-4.4831
X9.0476Y-6.1677
X9.062Y-8.0264
X9.0654Y-4.5949
X9.08Y-4.0894
X9.1014Y-7.6327
X9.1063Y-2.8346
X9.1063Y-2.8819
X9.1063Y-2.9252
X9.1193Y-4.4831
X9.1407Y-8.0264
X9.1575Y-2.9843
X9.1587Y-4.0894
X9.1801Y-7.6327
X9.1894Y-3.026
X9.198Y-4.4831
X9.2195Y-8.0264
X9.2205Y-2.9843
X9.2374Y-4.0894
X9.2588Y-7.6327
X9.2661Y-5.8587
X9.2736Y-2.8366
X9.2736Y-2.8819
X9.2736Y-2.9291
X9.2768Y-4.4831
X9.2982Y-8.0264
X9.3161Y-4.0894
X9.3346Y-2.4803
X9.3346Y-2.5197
X9.3346Y-2.5591
X9.3346Y-2.5984
X9.3346Y-2.6339
X9.3376Y-7.6327
X9.3555Y-4.4831
X9.3769Y-8.0264
X9.3949Y-4.0894
X9.4163Y-7.6327
X9.4213Y-2.6693
X9.4342Y-4.4831
X9.4556Y-8.0264
X9.4736Y-4.0894
X9.495Y-7.6327
X9.5079Y-2.4843
X9.5079Y-2.5236
X9.5079Y-2.563
X9.5079Y-2.5984
X9.5079Y-2.6339
X9.5129Y-4.4831
X9.5344Y-8.0264
X9.5394Y-6.6811
X9.5523Y-4.0894
X9.5737Y-7.6327
X9.5917Y-4.4831
X9.6131Y-8.0264
X9.631Y-4.0894
X9.6525Y-7.6327
X9.6704Y-4.4831
X9.6918Y-8.0264
X9.7098Y-4.0894
X9.7312Y-7.6327
X9.7491Y-4.4831
X9.7705Y-8.0264
X9.7885Y-4.0894
X9.8078Y-7.6326
X9.8238Y-4.4834
X9.8557Y-8.0253
X9.8756Y-4.0912
X9.8777Y-7.6303
X9.8937Y-4.4864
X9.943Y-8.0205
X9.9475Y-7.6249
X9.9629Y-4.0969
X9.9634Y-4.4925
X10.017Y-7.6164
X10.0301Y-8.0118
X10.0328Y-4.5017
X10.0498Y-4.1064
X10.086Y-7.6049
X10.1016Y-4.514
X10.1166Y-7.9993
X10.1362Y-4.1198
X10.1544Y-7.5902
X10.1699Y-4.5293
X10.2025Y-7.9829
X10.222Y-4.1371
X10.2221Y-7.5726
X10.2374Y-4.5476
X10.2876Y-7.9628
X10.289Y-7.552
X10.3041Y-4.5689
X10.3069Y-4.1581
X10.3549Y-7.5284
X10.3697Y-4.5931
X10.3718Y-7.9388
X10.3908Y-4.1829
X10.4196Y-7.5019
X10.4342Y-4.6203
X10.4547Y-7.9112
X10.4735Y-4.2114
X10.4831Y-7.4726
X10.4974Y-4.6503
X10.5364Y-7.8799
X10.5453Y-7.4404
X10.5548Y-4.2435
X10.5593Y-4.683
X10.606Y-7.4056
X10.6166Y-7.845
X10.6196Y-4.7185
X10.6347Y-4.2792
X10.665Y-7.3681
X10.6783Y-4.7566
X10.6952Y-7.8066
X10.7128Y-4.3184
X10.7224Y-7.3279
X10.7352Y-4.7973
X10.772Y-7.7647
X10.7779Y-7.2853
X10.7892Y-4.3611
X10.7903Y-4.8405
X10.8314Y-7.2403
X10.8433Y-4.886
X10.8468Y-7.7194
X10.8636Y-4.4071
X10.8829Y-7.1929
X10.8944Y-4.9339
X10.9196Y-7.6709
X10.9323Y-7.1433
X10.9358Y-4.4563
X10.9432Y-4.984
X10.9793Y-7.0916
X10.9898Y-5.0363
X10.9901Y-7.6192
X11.0059Y-4.5088
X11.0241Y-7.0378
X11.0339Y-5.0905
X11.0583Y-7.5644
X11.0664Y-6.982
X11.0735Y-4.5642
X11.0757Y-5.1467
X11.1062Y-6.9245
X11.1149Y-5.2046
X11.124Y-7.5066
X11.1386Y-4.6227
X11.1434Y-6.8652
X11.1515Y-5.2643
X11.1779Y-6.8044
X11.1854Y-5.3255
X11.187Y-7.446
X11.201Y-4.6839
X11.2097Y-6.742
X11.2166Y-5.3881
X11.2387Y-6.6783
X11.2449Y-5.4521
X11.2473Y-7.3826
X11.2606Y-4.7479
X11.2648Y-6.6134
X11.2704Y-5.5173
X11.2881Y-6.5474
X11.2929Y-5.5835
X11.3047Y-7.3167
X11.3083Y-6.4805
X11.3125Y-5.6507
X11.3174Y-4.8145
X11.3256Y-6.4127
X11.3291Y-5.7186
X11.3398Y-6.3442
X11.3427Y-5.7873
X11.351Y-6.2751
X11.3531Y-5.8565
X11.3591Y-7.2482
X11.3591Y-6.2056
X11.3606Y-5.9261
X11.3642Y-6.1358
X11.3649Y-5.9959
X11.3661Y-6.0659
X11.3711Y-4.8835
X11.4104Y-7.1774
X11.4217Y-4.9548
X11.4586Y-7.1043
X11.4691Y-5.0283
X11.5034Y-7.0293
X11.5132Y-5.1039
X11.5449Y-6.9522
X11.5538Y-5.1813
X11.5829Y-6.8735
X11.591Y-5.2605
X11.6173Y-6.7931
X11.6247Y-5.3412
X11.6482Y-6.7112
X11.6547Y-5.4233
X11.6754Y-6.6281
X11.6811Y-5.5068
X11.6989Y-6.5439
X11.7037Y-5.5912
X11.7186Y-6.4586
X11.7225Y-5.6766
X11.7345Y-6.3726
X11.7375Y-5.7628
X11.7465Y-6.286
X11.7487Y-5.8496
X11.7547Y-6.1989
X11.756Y-5.9367
X11.7591Y-6.1116
X11.7595Y-6.0241
T2
X3.8386Y-2.4409
X3.8386Y-8.0512
X11.811Y-2.4409
X11.811Y-8.0512
T0
M30
