%TF.GenerationSoftware,KiCad,Pcbnew,6.0.9-8da3e8f707~117~ubuntu22.04.1*%
%TF.CreationDate,2022-12-16T10:19:31-08:00*%
%TF.ProjectId,GaussSpeedway,47617573-7353-4706-9565-647761792e6b,rev?*%
%TF.SameCoordinates,Original*%
%TF.FileFunction,Copper,L1,Top*%
%TF.FilePolarity,Positive*%
%FSLAX46Y46*%
G04 Gerber Fmt 4.6, Leading zero omitted, Abs format (unit mm)*
G04 Created by KiCad (PCBNEW 6.0.9-8da3e8f707~117~ubuntu22.04.1) date 2022-12-16 10:19:31*
%MOMM*%
%LPD*%
G01*
G04 APERTURE LIST*
G04 Aperture macros list*
%AMRoundRect*
0 Rectangle with rounded corners*
0 $1 Rounding radius*
0 $2 $3 $4 $5 $6 $7 $8 $9 X,Y pos of 4 corners*
0 Add a 4 corners polygon primitive as box body*
4,1,4,$2,$3,$4,$5,$6,$7,$8,$9,$2,$3,0*
0 Add four circle primitives for the rounded corners*
1,1,$1+$1,$2,$3*
1,1,$1+$1,$4,$5*
1,1,$1+$1,$6,$7*
1,1,$1+$1,$8,$9*
0 Add four rect primitives between the rounded corners*
20,1,$1+$1,$2,$3,$4,$5,0*
20,1,$1+$1,$4,$5,$6,$7,0*
20,1,$1+$1,$6,$7,$8,$9,0*
20,1,$1+$1,$8,$9,$2,$3,0*%
%AMFreePoly0*
4,1,45,11.483368,7.200035,11.483383,7.200000,11.483383,7.050000,11.483373,7.049972,11.483368,7.049965,11.483342,7.049951,1.600050,5.199959,1.600050,4.400041,11.483342,2.550049,11.483368,2.550035,11.483383,2.550000,11.483383,2.250000,11.483373,2.249972,11.483368,2.249965,11.483342,2.249951,1.600050,0.399959,1.600050,-0.399959,11.483342,-2.249951,11.483368,-2.249965,11.483383,-2.250000,
11.483383,-2.550000,11.483373,-2.550028,11.483368,-2.550035,11.483342,-2.550049,1.600050,-4.400041,1.600050,-5.199959,11.483342,-7.049951,11.483368,-7.049965,11.483383,-7.050000,11.483383,-7.200000,11.483368,-7.200035,11.483333,-7.200050,0.000000,-7.200050,-0.000035,-7.200035,-0.000050,-7.200000,-0.000050,-0.049979,-0.035355,-0.035355,-0.050000,0.000000,-0.035355,0.035355,-0.000050,0.049979,
-0.000050,7.200000,-0.000035,7.200035,0.000000,7.200050,11.483333,7.200050,11.483368,7.200035,11.483368,7.200035,$1*%
%AMFreePoly1*
4,1,70,11.483368,7.200035,11.483383,7.200000,11.483383,7.050000,11.483373,7.049972,11.483368,7.049965,11.483342,7.049951,1.600050,5.199959,1.600050,4.400041,11.483342,2.550049,11.483368,2.550035,11.483383,2.550000,11.483383,2.250000,11.483373,2.249972,11.483368,2.249965,11.483342,2.249951,1.600050,0.399959,1.600050,-0.399959,11.483342,-2.249951,11.483368,-2.249965,11.483383,-2.250000,
11.483383,-2.550000,11.483373,-2.550028,11.483368,-2.550035,11.483342,-2.550049,1.600050,-4.400041,1.600050,-5.199959,11.483342,-7.049951,11.483368,-7.049965,11.483383,-7.050000,11.483383,-7.200000,11.483368,-7.200035,11.483333,-7.200050,-1.600000,-7.200050,-1.600035,-7.200035,-1.600050,-7.200000,-1.600050,-6.800042,-11.483342,-4.950049,-11.483368,-4.950035,-11.483374,-4.950028,-11.483383,-4.950000,
-11.483383,-4.650000,-11.483374,-4.649972,-11.483368,-4.649965,-11.483342,-4.649951,-1.600050,-2.799958,-1.600050,-2.000042,-11.483342,-0.150049,-11.483368,-0.150035,-11.483374,-0.150028,-11.483383,-0.150000,-11.483383,0.150000,-11.483374,0.150028,-11.483368,0.150035,-11.483342,0.150049,-1.600050,2.000042,-1.600050,2.799958,-11.483342,4.649951,-11.483368,4.649965,-11.483374,4.649972,-11.483383,4.650000,
-11.483383,4.950000,-11.483374,4.950028,-11.483368,4.950035,-11.483342,4.950049,-1.600050,6.800042,-1.600050,7.200000,-1.600035,7.200035,-1.600000,7.200050,11.483333,7.200050,11.483368,7.200035,11.483368,7.200035,$1*%
%AMFreePoly2*
4,1,48,0.000035,7.200035,0.000050,7.200000,0.000050,0.049979,0.035355,0.035355,0.050000,0.000000,0.035355,-0.035355,0.000050,-0.049979,0.000050,-7.200000,0.000035,-7.200035,0.000000,-7.200050,-1.600000,-7.200050,-1.600035,-7.200035,-1.600050,-7.200000,-1.600050,-6.800042,-11.483342,-4.950049,-11.483368,-4.950035,-11.483374,-4.950028,-11.483383,-4.950000,-11.483383,-4.650000,-11.483374,-4.649972,
-11.483368,-4.649965,-11.483342,-4.649951,-1.600050,-2.799958,-1.600050,-2.000042,-11.483342,-0.150049,-11.483368,-0.150035,-11.483374,-0.150028,-11.483383,-0.150000,-11.483383,0.150000,-11.483374,0.150028,-11.483368,0.150035,-11.483342,0.150049,-1.600050,2.000042,-1.600050,2.799958,-11.483342,4.649951,-11.483368,4.649965,-11.483374,4.649972,-11.483383,4.650000,-11.483383,4.950000,-11.483374,4.950028,
-11.483368,4.950035,-11.483342,4.950049,-1.600050,6.800042,-1.600050,7.200000,-1.600035,7.200035,-1.600000,7.200050,0.000000,7.200050,0.000035,7.200035,0.000035,7.200035,$1*%
G04 Aperture macros list end*
%TA.AperFunction,EtchedComponent*%
%ADD10C,0.200000*%
%TD*%
%TA.AperFunction,SMDPad,CuDef*%
%ADD11FreePoly0,180.000000*%
%TD*%
%TA.AperFunction,SMDPad,CuDef*%
%ADD12FreePoly1,180.000000*%
%TD*%
%TA.AperFunction,SMDPad,CuDef*%
%ADD13FreePoly2,180.000000*%
%TD*%
%TA.AperFunction,SMDPad,CuDef*%
%ADD14RoundRect,2.000000X-2.000000X-2.000000X2.000000X-2.000000X2.000000X2.000000X-2.000000X2.000000X0*%
%TD*%
%TA.AperFunction,ViaPad*%
%ADD15C,0.450000*%
%TD*%
%TA.AperFunction,Conductor*%
%ADD16C,0.200000*%
%TD*%
%TA.AperFunction,Conductor*%
%ADD17C,1.250000*%
%TD*%
G04 APERTURE END LIST*
%TO.C,T2*%
G36*
X199900000Y-161100000D02*
G01*
X199900000Y-166300000D01*
X196600000Y-169500000D01*
X191600000Y-169500000D01*
X188200000Y-166400000D01*
X188200000Y-161100000D01*
X191600000Y-157900000D01*
X196600000Y-157900000D01*
X199900000Y-161100000D01*
G37*
D10*
X199900000Y-161100000D02*
X199900000Y-166300000D01*
X196600000Y-169500000D01*
X191600000Y-169500000D01*
X188200000Y-166400000D01*
X188200000Y-161100000D01*
X191600000Y-157900000D01*
X196600000Y-157900000D01*
X199900000Y-161100000D01*
%TD*%
D11*
%TO.P,T1,1,1*%
%TO.N,/FWD1*%
X185033333Y-163550000D03*
D12*
%TO.P,T1,2,2*%
%TO.N,/FWD2*%
X171700000Y-163550000D03*
%TO.P,T1,3,3*%
%TO.N,/FWD3*%
X158366666Y-163550000D03*
D13*
%TO.P,T1,4,4*%
%TO.N,/FWD1*%
X145033333Y-163550000D03*
%TD*%
D14*
%TO.P,T2,1,Pin_1*%
%TO.N,/STOP*%
X194100000Y-163700000D03*
%TD*%
D11*
%TO.P,T3,1,1*%
%TO.N,/REV1*%
X243200001Y-163500000D03*
D12*
%TO.P,T3,2,2*%
%TO.N,/REV2*%
X229866668Y-163500000D03*
%TO.P,T3,3,3*%
%TO.N,/REV3*%
X216533334Y-163500000D03*
D13*
%TO.P,T3,4,4*%
%TO.N,/REV1*%
X203200001Y-163500000D03*
%TD*%
D15*
%TO.N,/STOP*%
X193850000Y-158350000D03*
%TO.N,GND*%
X167760000Y-125310000D03*
X223500000Y-66000000D03*
X200250000Y-149400000D03*
X166650000Y-128750000D03*
X225900000Y-67850000D03*
X237100000Y-63000000D03*
X224960000Y-116710000D03*
X228400000Y-66100000D03*
X235360000Y-148810000D03*
X198800000Y-144050000D03*
X241500000Y-65100000D03*
X202600000Y-142450000D03*
X195600000Y-153125000D03*
X175760000Y-137410000D03*
X228400000Y-65100000D03*
X230260000Y-116710000D03*
X167760000Y-124110000D03*
X223500000Y-65000000D03*
X148260000Y-148110000D03*
X237100000Y-64000000D03*
X241500000Y-66900000D03*
X175760000Y-136210000D03*
X148260000Y-146510000D03*
X223500000Y-67000000D03*
X211300000Y-147500000D03*
X204025000Y-150100000D03*
X237100000Y-66900000D03*
X241500000Y-66000000D03*
X241500000Y-63100000D03*
X169360000Y-125310000D03*
X173050000Y-141000000D03*
X223500000Y-64000000D03*
X239300000Y-67800000D03*
X191100000Y-153200000D03*
X147060000Y-146510000D03*
X223500000Y-63000000D03*
X228400000Y-64100000D03*
X147060000Y-148110000D03*
X241500000Y-64100000D03*
X228400000Y-63100000D03*
X143450000Y-145500000D03*
X237100000Y-65000000D03*
X190700000Y-146450000D03*
X169360000Y-124110000D03*
X189250000Y-148400000D03*
X174160000Y-137410000D03*
X174160000Y-136210000D03*
X228400000Y-67100000D03*
X195200000Y-137850000D03*
X237100000Y-66000000D03*
%TO.N,VBUS*%
X235550000Y-73200000D03*
X175600000Y-132850000D03*
X235550000Y-72050000D03*
X233410000Y-76860000D03*
X234200000Y-75800000D03*
X235550000Y-74400000D03*
X231300000Y-72000000D03*
X169200000Y-120700000D03*
X175600000Y-141050000D03*
X169200000Y-128900000D03*
X211450000Y-149450000D03*
X143450000Y-148000000D03*
X231300000Y-74300000D03*
X151600000Y-147950000D03*
X232600000Y-75800000D03*
X231300000Y-73200000D03*
%TO.N,VCC*%
X198800000Y-144900000D03*
X190000000Y-149000000D03*
X196450000Y-139300000D03*
X204000000Y-147500000D03*
X204485000Y-145125000D03*
X218100000Y-145100000D03*
%TO.N,/SWDIO*%
X185900000Y-134600000D03*
X195750000Y-134450000D03*
%TO.N,/1A_P*%
X192083642Y-88307934D03*
X116813805Y-186831311D03*
X178186737Y-203870000D03*
X285681434Y-187519084D03*
X205663968Y-99547427D03*
X226631908Y-103870000D03*
X238629364Y-103870000D03*
X242173172Y-203870000D03*
X296554801Y-168353514D03*
X213969746Y-102655792D03*
X232630212Y-103870000D03*
X240628517Y-103870000D03*
X184185041Y-203870000D03*
X98752349Y-111549592D03*
X289825375Y-182305510D03*
X109461335Y-82878927D03*
X266025843Y-106968376D03*
X105228617Y-171090838D03*
X277357388Y-194841536D03*
X190889287Y-86742047D03*
X210565984Y-101634661D03*
X198246650Y-94684862D03*
X98698478Y-135775796D03*
X139190692Y-64782303D03*
X274045339Y-110770852D03*
X99949474Y-102755387D03*
X298679883Y-155233440D03*
X155963969Y-203807655D03*
X128607395Y-68084103D03*
X102682604Y-94311386D03*
X106865624Y-86483647D03*
X98734413Y-145946301D03*
X107347437Y-174903379D03*
X166189280Y-203870000D03*
X162190020Y-203870000D03*
X204096687Y-98708617D03*
X226176563Y-203870000D03*
X234174868Y-203870000D03*
X261305861Y-202254438D03*
X101848395Y-163055103D03*
X112386567Y-182017175D03*
X263925799Y-106245126D03*
X198182498Y-203870000D03*
X222177411Y-203870000D03*
X177280742Y-72844957D03*
X161215384Y-65462077D03*
X196182498Y-203870000D03*
X242628517Y-103870000D03*
X281266195Y-115931317D03*
X170188432Y-203870000D03*
X298055159Y-161864868D03*
X284504848Y-118971522D03*
X294205013Y-174586059D03*
X111030319Y-180308258D03*
X143057676Y-201795516D03*
X164189280Y-203870000D03*
X220981550Y-103774049D03*
X288521948Y-184103940D03*
X216178259Y-203870000D03*
X123481511Y-192447415D03*
X265550377Y-200944552D03*
X101128311Y-98472623D03*
X272106255Y-109687697D03*
X279549168Y-114522384D03*
X106253146Y-173015964D03*
X234630212Y-103870000D03*
X295267064Y-135666522D03*
X125270854Y-193695636D03*
X277770495Y-113190549D03*
X105690163Y-88369317D03*
X287139334Y-185843434D03*
X219211938Y-103611689D03*
X206180802Y-203870000D03*
X128978904Y-195992423D03*
X175429782Y-71615564D03*
X250840425Y-103915901D03*
X250334255Y-203843235D03*
X208901827Y-101011864D03*
X132844013Y-198013760D03*
X215702650Y-103052046D03*
X202181650Y-203870000D03*
X149456360Y-203153921D03*
X115558885Y-76429816D03*
X98698478Y-127777491D03*
X120828705Y-72357643D03*
X297150811Y-166213877D03*
X99155398Y-107125875D03*
X134828687Y-198917553D03*
X153787627Y-203668692D03*
X188184193Y-203870000D03*
X98698478Y-117780016D03*
X294412301Y-133615464D03*
X295080487Y-172543755D03*
X108123153Y-84652829D03*
X238174020Y-203870000D03*
X109737630Y-178551918D03*
X196903295Y-93521808D03*
X184083913Y-78544783D03*
X159052269Y-64953755D03*
X98698478Y-141774948D03*
X132750322Y-66481644D03*
X201082212Y-96826798D03*
X100491183Y-100601361D03*
X293467673Y-131605252D03*
X298361630Y-159664065D03*
X194183346Y-203870000D03*
X214179107Y-203870000D03*
X147307166Y-202778726D03*
X98698478Y-119779187D03*
X126593821Y-69021543D03*
X176186737Y-203870000D03*
X173526846Y-70470091D03*
X98698478Y-137775796D03*
X226650000Y-116700000D03*
X156869634Y-64542197D03*
X224631908Y-103870000D03*
X236174020Y-203870000D03*
X98698478Y-143774100D03*
X117254338Y-74994994D03*
X193200199Y-89690177D03*
X185617828Y-80151139D03*
X186185041Y-203870000D03*
X98698478Y-133776644D03*
X230631060Y-103870000D03*
X290110997Y-125852093D03*
X134871527Y-65819866D03*
X293240093Y-176586610D03*
X244172324Y-203870000D03*
X296698904Y-139871466D03*
X297273233Y-142017025D03*
X98698478Y-115780016D03*
X98698478Y-125778339D03*
X263443123Y-201646515D03*
X120045523Y-189760622D03*
X118403379Y-188325653D03*
X180185889Y-203870000D03*
X236629364Y-103870000D03*
X298133529Y-146374961D03*
X163352878Y-66065727D03*
X194377553Y-91022023D03*
X298417715Y-148578753D03*
X297751891Y-144186897D03*
X188464842Y-83560988D03*
X248171476Y-203870000D03*
X160190020Y-203870000D03*
X212179107Y-203870000D03*
X268092563Y-107784542D03*
X182185889Y-203870000D03*
X174187585Y-203870000D03*
X143584899Y-64132174D03*
X244627669Y-103870000D03*
X292186814Y-178543153D03*
X103392368Y-167134443D03*
X292434245Y-129638151D03*
X271657994Y-198286895D03*
X98698478Y-139774948D03*
X171574078Y-69409828D03*
X136845755Y-199748963D03*
X212256881Y-102183152D03*
X261794798Y-105615608D03*
X253056822Y-104060314D03*
X297651401Y-164048960D03*
X259144621Y-202766606D03*
X130661493Y-67236673D03*
X165462342Y-66764025D03*
X98849509Y-148124520D03*
X246172324Y-203870000D03*
X280880642Y-192136281D03*
X252552595Y-203721237D03*
X273607939Y-197223416D03*
X295864044Y-170465460D03*
X183600000Y-131880000D03*
X101859059Y-96375177D03*
X291048147Y-180450170D03*
X259638851Y-105081598D03*
X291314933Y-127719711D03*
X168188432Y-203870000D03*
X103596623Y-92287073D03*
X255265554Y-104303141D03*
X279149446Y-193527767D03*
X124623040Y-70047936D03*
X140962981Y-201188864D03*
X141380106Y-64408485D03*
X172187585Y-203870000D03*
X110876393Y-81166944D03*
X104274334Y-169128912D03*
X113928150Y-77939174D03*
X189677176Y-85151663D03*
X112366732Y-79518810D03*
X232174868Y-203870000D03*
X267625250Y-200149340D03*
X145798850Y-63954149D03*
X108509115Y-176748989D03*
X296029552Y-137752640D03*
X99503793Y-104932272D03*
X182479477Y-77007498D03*
X145173934Y-202325853D03*
X152459392Y-64011646D03*
X282919644Y-117415759D03*
X137019123Y-65253206D03*
X158144847Y-203867446D03*
X99043750Y-150297554D03*
X127103608Y-194877492D03*
X254763671Y-203500771D03*
X284149891Y-189129002D03*
X98698478Y-123778339D03*
X282549026Y-190668646D03*
X121739458Y-191135536D03*
X130892675Y-197038011D03*
X151616855Y-203450623D03*
X188970000Y-131910000D03*
X222757213Y-103857667D03*
X270120128Y-108691323D03*
X101188492Y-160975600D03*
X202568861Y-97801399D03*
X217450704Y-103370798D03*
X167537825Y-67555003D03*
X100097769Y-156752427D03*
X298569950Y-157452759D03*
X98698478Y-121779187D03*
X208179954Y-203870000D03*
X195612382Y-92299713D03*
X275935197Y-111939569D03*
X228175715Y-203870000D03*
X218178259Y-203870000D03*
X98904681Y-109333724D03*
X99316732Y-152461174D03*
X169576988Y-68437767D03*
X122700613Y-71160387D03*
X246627669Y-103870000D03*
X190184193Y-203870000D03*
X180809047Y-75543621D03*
X148019465Y-63874611D03*
X230175715Y-203870000D03*
X224176563Y-203870000D03*
X275509525Y-196073882D03*
X200181650Y-203870000D03*
X150240480Y-63893784D03*
X179074504Y-74154801D03*
X104600086Y-90304519D03*
X138890843Y-200506187D03*
X207266284Y-100315465D03*
X192183346Y-203870000D03*
X98698576Y-113770981D03*
X228650000Y-116700000D03*
X298603649Y-150792054D03*
X269661887Y-199263121D03*
X199640934Y-95787562D03*
X210179954Y-203870000D03*
X248627654Y-103870000D03*
X113803434Y-183674963D03*
X286020022Y-120596855D03*
X99668326Y-154614355D03*
X98698478Y-131776644D03*
X102583137Y-165108375D03*
X257460388Y-104643697D03*
X98698478Y-129777491D03*
X240173172Y-203870000D03*
X100604857Y-158874376D03*
X228631060Y-103870000D03*
X287460892Y-122287171D03*
X115280247Y-185280836D03*
X204180802Y-203870000D03*
X298691121Y-153012371D03*
X119012598Y-73636326D03*
X187079493Y-81824756D03*
X154669940Y-64227864D03*
X220177411Y-203870000D03*
X256961838Y-203182441D03*
X288825834Y-124040565D03*
%TO.N,/1B_P*%
X157328193Y-193851220D03*
X263013480Y-191220779D03*
X274072391Y-122948091D03*
X261339856Y-191819908D03*
X221398531Y-113814654D03*
X186289231Y-96985801D03*
X161268887Y-75896525D03*
X124240431Y-82218713D03*
X254831957Y-114343042D03*
X287338180Y-143527209D03*
X211179107Y-193870000D03*
X231631060Y-113870000D03*
X163189280Y-193870000D03*
X288369988Y-148754223D03*
X159570045Y-75375728D03*
X108698478Y-140774948D03*
X157849016Y-74930719D03*
X288667472Y-152295382D03*
X277956868Y-126594616D03*
X233630212Y-113870000D03*
X179965355Y-88922408D03*
X257921797Y-192792107D03*
X179185889Y-193870000D03*
X271227841Y-120818106D03*
X225176563Y-193870000D03*
X259641991Y-192343881D03*
X165189280Y-193870000D03*
X108698478Y-128777491D03*
X108897039Y-148321600D03*
X189184193Y-193870000D03*
X109352031Y-151927802D03*
X135101422Y-76251918D03*
X108698478Y-130776644D03*
X235630212Y-113870000D03*
X108698478Y-132776644D03*
X109511327Y-105847083D03*
X275420629Y-124105481D03*
X166204779Y-77904331D03*
X247171476Y-193870000D03*
X239173172Y-193870000D03*
X207179954Y-193870000D03*
X183185041Y-193870000D03*
X281086393Y-177343876D03*
X270891622Y-187148586D03*
X227631908Y-113870000D03*
X121527801Y-84514348D03*
X282318368Y-132197370D03*
X127146101Y-80172892D03*
X108698478Y-138774948D03*
X260030732Y-115508822D03*
X116382783Y-170504226D03*
X286716620Y-166304660D03*
X288031954Y-161141696D03*
X223619885Y-113869830D03*
X173699289Y-82645660D03*
X280262179Y-129299028D03*
X252667181Y-193672630D03*
X112969831Y-164091052D03*
X210451200Y-112068856D03*
X288522116Y-157622030D03*
X223176563Y-193870000D03*
X122858898Y-83336148D03*
X113009568Y-95806177D03*
X189376196Y-100179916D03*
X112242548Y-97408979D03*
X155512000Y-193768361D03*
X275118085Y-183903386D03*
X144789020Y-191896316D03*
X249523612Y-113878512D03*
X108698478Y-116780016D03*
X127188281Y-182691482D03*
X191023383Y-101671302D03*
X171187585Y-193870000D03*
X111040572Y-158993626D03*
X108705226Y-144691468D03*
X227175715Y-193870000D03*
X182329967Y-92008668D03*
X145492780Y-73998663D03*
X231174868Y-193870000D03*
X143052920Y-191359120D03*
X108792689Y-111126274D03*
X147266668Y-73895634D03*
X177627789Y-86245827D03*
X112265199Y-162415906D03*
X177186737Y-193870000D03*
X265029144Y-117355492D03*
X288649493Y-155848968D03*
X113735211Y-165740177D03*
X197182498Y-193870000D03*
X267850462Y-188986968D03*
X258315893Y-115043395D03*
X217178259Y-193870000D03*
X286126608Y-167981520D03*
X119029620Y-87041677D03*
X273757619Y-185047547D03*
X175186737Y-193870000D03*
X128619875Y-183810927D03*
X202138886Y-108958134D03*
X278875200Y-180125768D03*
X191183346Y-193870000D03*
X287759389Y-145253441D03*
X193183346Y-193870000D03*
X241173172Y-193870000D03*
X108698478Y-142774100D03*
X283248080Y-133712497D03*
X108698478Y-118779187D03*
X184855487Y-95289437D03*
X194507519Y-104426755D03*
X283041959Y-174376712D03*
X245627669Y-113870000D03*
X162943628Y-76492525D03*
X250894839Y-193809655D03*
X268205474Y-118948989D03*
X108698478Y-124778339D03*
X279139815Y-127921496D03*
X247627669Y-113870000D03*
X138493802Y-75193591D03*
X110067802Y-155491422D03*
X287670202Y-162881360D03*
X136785494Y-75685176D03*
X136336337Y-188590629D03*
X277679381Y-181440041D03*
X116765606Y-89780755D03*
X156110655Y-74562754D03*
X115727286Y-91222693D03*
X253069725Y-114109565D03*
X123149460Y-179030594D03*
X187797552Y-98617495D03*
X288558106Y-150521872D03*
X269737104Y-119849769D03*
X288697963Y-154072751D03*
X109091706Y-150128455D03*
X241628517Y-113870000D03*
X117867421Y-88385771D03*
X108698478Y-134775796D03*
X110522249Y-157250995D03*
X173187585Y-193870000D03*
X121895197Y-177715510D03*
X208322866Y-111430376D03*
X284109206Y-135266768D03*
X167188432Y-193870000D03*
X212604880Y-112611933D03*
X205180802Y-193870000D03*
X146544242Y-192370253D03*
X199181650Y-193870000D03*
X229631060Y-113870000D03*
X204162618Y-109873439D03*
X233174868Y-193870000D03*
X141336767Y-190758922D03*
X161190020Y-193870000D03*
X148314779Y-192779905D03*
X214781482Y-113058997D03*
X109193685Y-107595339D03*
X192734467Y-103087447D03*
X137976265Y-189373735D03*
X108953914Y-109356725D03*
X239629364Y-113870000D03*
X130091837Y-184878049D03*
X237629364Y-113870000D03*
X181185889Y-193870000D03*
X249118436Y-193867796D03*
X108698478Y-136775796D03*
X113847383Y-94238363D03*
X125797732Y-181520245D03*
X133146570Y-186847902D03*
X281322694Y-130725661D03*
X209179954Y-193870000D03*
X183542078Y-93599052D03*
X141966725Y-74440525D03*
X149044136Y-73871494D03*
X256184127Y-193163321D03*
X108698478Y-120779187D03*
X108698478Y-126777491D03*
X195182498Y-193870000D03*
X111547188Y-99044965D03*
X283919154Y-172830587D03*
X139644281Y-190097022D03*
X108698478Y-114780016D03*
X243628517Y-113870000D03*
X131600974Y-185890534D03*
X120250895Y-85749988D03*
X221177411Y-193870000D03*
X286840495Y-141820667D03*
X114559677Y-167359707D03*
X134725274Y-187748076D03*
X120689052Y-176355129D03*
X206225885Y-110698296D03*
X276716673Y-125322134D03*
X110925449Y-100709518D03*
X263390685Y-116665981D03*
X109906480Y-104113927D03*
X117379061Y-172025032D03*
X284900776Y-136858431D03*
X108698478Y-122778339D03*
X200156969Y-107953412D03*
X169188432Y-193870000D03*
X216974863Y-113408786D03*
X219182553Y-113660905D03*
X109677447Y-153715741D03*
X140221528Y-74778552D03*
X133443484Y-76893181D03*
X284726462Y-171247694D03*
X150099794Y-193125077D03*
X154356922Y-74272248D03*
X170829369Y-80549982D03*
X287231345Y-164603968D03*
X266271986Y-189802879D03*
X215178259Y-193870000D03*
X164589544Y-77162045D03*
X286267739Y-140138631D03*
X264658142Y-190548183D03*
X237174020Y-193870000D03*
X276425831Y-182700432D03*
X280011939Y-178759095D03*
X176371884Y-84987781D03*
X167784778Y-78717288D03*
X181117633Y-90417993D03*
X119533642Y-174952401D03*
X254430940Y-193457105D03*
X201181650Y-193870000D03*
X251299612Y-113954664D03*
X151895414Y-193405021D03*
X108768121Y-146508095D03*
X272673480Y-121851268D03*
X150820168Y-73926309D03*
X110378032Y-102400762D03*
X282097350Y-175881707D03*
X125670844Y-81163302D03*
X219177411Y-193870000D03*
X143724469Y-74180465D03*
X118429513Y-173507991D03*
X213179107Y-193870000D03*
X245172324Y-193870000D03*
X172287917Y-81566156D03*
X198222460Y-106862106D03*
X229175715Y-193870000D03*
X185185041Y-193870000D03*
X269391790Y-188101371D03*
X153700788Y-193619604D03*
X130221878Y-78393032D03*
X225631908Y-113870000D03*
X159190020Y-193870000D03*
X288103649Y-146997419D03*
X256581337Y-114654436D03*
X178826062Y-87557862D03*
X285620558Y-138482995D03*
X187184193Y-193870000D03*
X288316193Y-159386936D03*
X235174020Y-193870000D03*
X115442840Y-168948871D03*
X243172324Y-193870000D03*
X175061892Y-83787275D03*
X152592764Y-74060020D03*
X169327759Y-79600002D03*
X285462973Y-169629817D03*
X266634677Y-118116781D03*
X131816358Y-77607153D03*
X272348268Y-186129686D03*
X128664540Y-79248600D03*
X114753629Y-92709961D03*
X108710192Y-112901990D03*
X203180802Y-193870000D03*
X124451246Y-180299756D03*
X111621647Y-160715535D03*
X196337537Y-105685448D03*
X261723922Y-116050193D03*
%TO.N,/G1_P*%
X110320000Y-128770000D03*
X97410000Y-127250000D03*
X97400000Y-126310000D03*
X110400000Y-125800000D03*
%TO.N,/FWD1*%
X184340000Y-156980000D03*
X146100000Y-170150000D03*
X183850000Y-170150000D03*
X183460000Y-152410000D03*
%TO.N,/FWD3*%
X158360000Y-156670000D03*
%TO.N,/FWD2*%
X197100000Y-153125000D03*
X171620000Y-156720000D03*
%TO.N,/REV1*%
X203900000Y-170050000D03*
X202050000Y-152250000D03*
X203830000Y-156800000D03*
X242300000Y-169700000D03*
%TO.N,/REV3*%
X216490000Y-156640000D03*
%TO.N,/REV2*%
X229810000Y-156660000D03*
%TO.N,/B_IN2*%
X153860000Y-153210000D03*
X142460000Y-149310000D03*
%TO.N,/A_IN1*%
X184660000Y-141610000D03*
X183660000Y-132710000D03*
%TO.N,/G_IN1*%
X191290000Y-127880000D03*
X190560000Y-121310000D03*
X191290000Y-135980000D03*
%TO.N,/G_IN2*%
X189830000Y-136140000D03*
X189260000Y-128310000D03*
%TO.N,Net-(C8-Pad2)*%
X183570000Y-130890000D03*
X188970000Y-130890000D03*
%TO.N,Net-(R12-Pad2)*%
X187900000Y-135400000D03*
X195700000Y-135400000D03*
%TD*%
D16*
%TO.N,/STOP*%
X193850000Y-163450000D02*
X194100000Y-163700000D01*
X193850000Y-158350000D02*
X193850000Y-163450000D01*
D17*
%TO.N,/G1_P*%
X248627669Y-105245000D02*
X223750460Y-105245000D01*
D16*
X97410000Y-127250000D02*
X97730000Y-127250000D01*
X99187691Y-127010000D02*
X100077691Y-127900000D01*
D17*
X248698477Y-105245000D02*
X248627669Y-105245000D01*
X190843368Y-88950150D02*
X189795920Y-87575817D01*
X100073478Y-117779187D02*
X100073478Y-125777491D01*
X107323478Y-127913478D02*
X107323478Y-143870000D01*
X184029723Y-91970526D02*
X181605570Y-88789850D01*
X162189280Y-202495000D02*
X248698477Y-202495000D01*
D16*
X97970000Y-127010000D02*
X99187691Y-127010000D01*
D17*
X158698478Y-195245000D02*
X162189280Y-195245000D01*
D16*
X110320000Y-128630000D02*
X109590000Y-127900000D01*
X110320000Y-128770000D02*
X110320000Y-128630000D01*
D17*
X162189280Y-195245000D02*
X248698477Y-195245000D01*
D16*
X97400000Y-126310000D02*
X99367691Y-126310000D01*
D17*
X100073478Y-113870000D02*
X100073478Y-117779187D01*
D16*
X99367691Y-126310000D02*
X100077691Y-125600000D01*
D17*
X107323478Y-117779187D02*
X107323478Y-125777491D01*
D16*
X110400000Y-125800000D02*
X107527691Y-125800000D01*
D17*
X248627669Y-112495000D02*
X223750460Y-112495000D01*
D16*
X109590000Y-127900000D02*
X107327691Y-127900000D01*
D17*
X185077171Y-93344859D02*
X184029723Y-91970526D01*
X107323478Y-113870000D02*
X107323478Y-117779187D01*
X189795920Y-87575817D02*
X187371767Y-84395141D01*
D16*
X97730000Y-127250000D02*
X97970000Y-127010000D01*
D17*
X248698477Y-112495000D02*
X248627669Y-112495000D01*
X100073478Y-127913478D02*
X100073478Y-143870000D01*
X158698478Y-202495000D02*
X162189280Y-202495000D01*
X295238489Y-167956095D02*
G75*
G02*
X293804638Y-172031077I-46540189J14086195D01*
G01*
X129160736Y-69342843D02*
G75*
G02*
X133189765Y-67784532I19537564J-44526857D01*
G01*
X110859126Y-177756388D02*
G75*
G02*
X108523765Y-174191423I47839274J33886288D01*
G01*
X150198991Y-65268158D02*
G75*
G02*
X154506634Y-65593134I-1500491J-48601442D01*
G01*
X194645690Y-93277533D02*
G75*
G03*
X197370557Y-95744619I29104410J29407133D01*
G01*
X287079296Y-169323255D02*
G75*
G02*
X285556309Y-172668689I-38380196J15452955D01*
G01*
X149975264Y-72514707D02*
G75*
G02*
X153640636Y-72791226I-1276764J-41355293D01*
G01*
X248698477Y-112495003D02*
G75*
G02*
X252305784Y-112652553I23J-41375097D01*
G01*
X289606101Y-147668626D02*
G75*
G02*
X289995055Y-151323778I-40907801J-6201374D01*
G01*
X103147466Y-96855427D02*
G75*
G02*
X104837320Y-92879777I45550834J-17014473D01*
G01*
X269673677Y-118205850D02*
G75*
G02*
X272756206Y-120208208I-20975077J-35663950D01*
G01*
X279301345Y-181715190D02*
G75*
G02*
X276709232Y-184321407I-30602545J27844790D01*
G01*
X158698478Y-202495000D02*
G75*
G02*
X158156631Y-202492496I-78J58606300D01*
G01*
X200303631Y-97960133D02*
G75*
G03*
X203421768Y-99906577I23446769J34090133D01*
G01*
X269531862Y-109934129D02*
G75*
G02*
X273349090Y-111956544I-20833462J-43935971D01*
G01*
X189545758Y-98430516D02*
G75*
G03*
X192748097Y-101329900I34204842J34560716D01*
G01*
X192748095Y-101329902D02*
G75*
G03*
X196195126Y-103933627I31002405J37460002D01*
G01*
X119326142Y-187306267D02*
G75*
G02*
X116274625Y-184331183I39372458J43436467D01*
G01*
X100108574Y-145898289D02*
G75*
G02*
X100073478Y-143870000I58586026J2028189D01*
G01*
X112914550Y-167177137D02*
G75*
G02*
X111342315Y-163789449I45783750J23307037D01*
G01*
X288299360Y-165855854D02*
G75*
G02*
X287079298Y-169323256I-39600560J11985754D01*
G01*
X139034569Y-73639418D02*
G75*
G02*
X142643296Y-72940483I9663831J-40230382D01*
G01*
X197370557Y-95744619D02*
G75*
G03*
X200303633Y-97960130I26380443J31875319D01*
G01*
X121595884Y-73498720D02*
G75*
G02*
X125285918Y-71252602I27102316J-40370880D01*
G01*
X282967776Y-130685826D02*
G75*
G02*
X284890202Y-133818827I-34269376J-23184174D01*
G01*
X213634291Y-103989240D02*
G75*
G03*
X217234919Y-104728760I10116309J40119740D01*
G01*
X252937881Y-105430160D02*
G75*
G02*
X257220337Y-105997581I-4239481J-48440340D01*
G01*
X145879504Y-65326785D02*
G75*
G02*
X150198991Y-65268159I2818996J-48543315D01*
G01*
X275648854Y-122476248D02*
G75*
G02*
X278328793Y-124992068I-26950454J-31393852D01*
G01*
X111917100Y-82065586D02*
G75*
G02*
X114884992Y-78926634I36781500J-31804514D01*
G01*
X107494180Y-110115456D02*
G75*
G02*
X107990015Y-106473263I41204920J-3754644D01*
G01*
X263036769Y-200332931D02*
G75*
G02*
X258856456Y-201422140I-14338269J46462831D01*
G01*
X101020940Y-154367241D02*
G75*
G02*
X100410741Y-150149357I57677360J10497241D01*
G01*
X101935947Y-158529650D02*
G75*
G02*
X101020939Y-154367241I56763253J14659850D01*
G01*
X100073575Y-113772788D02*
G75*
G02*
X100274094Y-109457560I48624825J-97212D01*
G01*
X137341196Y-66589956D02*
G75*
G02*
X141582267Y-65768543I11357304J-47280044D01*
G01*
X276971761Y-114309765D02*
G75*
G02*
X280371277Y-116975228I-28273561J-39560535D01*
G01*
X295937647Y-142343870D02*
G75*
G02*
X296774202Y-146581981I-47239347J-11526130D01*
G01*
X129659193Y-194797504D02*
G75*
G02*
X126036153Y-192553295I29039107J50927204D01*
G01*
X146299814Y-72564591D02*
G75*
G02*
X149975264Y-72514705I2398686J-41305309D01*
G01*
X111377033Y-96009427D02*
G75*
G02*
X113109496Y-92767514I37320767J-17860173D01*
G01*
X104837324Y-92879779D02*
G75*
G02*
X106873359Y-89069797I43861076J-20990121D01*
G01*
X157267003Y-73391967D02*
G75*
G02*
X160825739Y-74312192I-8568603J-40478233D01*
G01*
X136559877Y-190230255D02*
G75*
G02*
X133250405Y-188499433I22138423J46359855D01*
G01*
X211861668Y-111019203D02*
G75*
G03*
X216093224Y-111888301I11888732J47149003D01*
G01*
X153640635Y-72791230D02*
G75*
G02*
X157267002Y-73391970I-4942135J-41078870D01*
G01*
X294728241Y-138196735D02*
G75*
G02*
X295937644Y-142343871I-46030041J-15673365D01*
G01*
X116274627Y-184331181D02*
G75*
G02*
X113447308Y-181142270I42423473J40460881D01*
G01*
X160825739Y-74312192D02*
G75*
G02*
X164288759Y-75544634I-12127339J-39558008D01*
G01*
X125285919Y-71252603D02*
G75*
G02*
X129160738Y-69342848I23412481J-42617197D01*
G01*
X124195212Y-181934622D02*
G75*
G02*
X121521072Y-179327454I34503588J38064922D01*
G01*
X286395508Y-123156407D02*
G75*
G02*
X288972666Y-126623344I-37697108J-30713593D01*
G01*
X106453555Y-170466223D02*
G75*
G02*
X104659450Y-166600467I52245245J26596323D01*
G01*
X100073479Y-113870000D02*
G75*
G02*
X100073576Y-113772788I47720221J1000D01*
G01*
X290058067Y-154999026D02*
G75*
G02*
X289794645Y-158665363I-41359867J1129026D01*
G01*
X192150539Y-90578339D02*
G75*
G03*
X194645690Y-93277533I31600061J26708439D01*
G01*
X296305009Y-163769935D02*
G75*
G02*
X295238487Y-167956094I-47606509J9899935D01*
G01*
X253716650Y-194939553D02*
G75*
G02*
X250051796Y-195222861I-5018250J41069953D01*
G01*
X278328793Y-124992068D02*
G75*
G02*
X280774868Y-127735813I-29630193J-28877832D01*
G01*
X286526984Y-137110083D02*
G75*
G02*
X287865192Y-140533622I-37828584J-16759917D01*
G01*
X259536434Y-113939697D02*
G75*
G02*
X263037603Y-115059177I-10837934J-39930303D01*
G01*
X164288758Y-75544635D02*
G75*
G02*
X167628730Y-77079566I-15590358J-38325565D01*
G01*
X250288934Y-202468981D02*
G75*
G02*
X248698477Y-202495000I-1590434J48595381D01*
G01*
X274771445Y-194913763D02*
G75*
G02*
X271025793Y-197065850I-26072845J41043463D01*
G01*
X132073819Y-75981856D02*
G75*
G02*
X135502118Y-74655886I16624681J-37888244D01*
G01*
X254595968Y-202136038D02*
G75*
G02*
X250288934Y-202468982I-5897468J48266038D01*
G01*
X100856811Y-105177158D02*
G75*
G02*
X101817127Y-100965366I47841689J-8692842D01*
G01*
X119043399Y-176532909D02*
G75*
G02*
X116775294Y-173565746I39655001J32662809D01*
G01*
X158156631Y-202492499D02*
G75*
G02*
X153899267Y-202298230I541869J58621799D01*
G01*
X117401212Y-86807631D02*
G75*
G02*
X119926592Y-84136700I31297788J-27062869D01*
G01*
X174695444Y-72778052D02*
G75*
G02*
X178239891Y-75247526I-25996944J-41091948D01*
G01*
X184603165Y-81079082D02*
G75*
G02*
X187371766Y-84395142I-35904865J-32791018D01*
G01*
X289206860Y-162293851D02*
G75*
G02*
X288299358Y-165855854I-40508460J8423851D01*
G01*
X207723947Y-109777969D02*
G75*
G03*
X211861668Y-111019202I16026353J45907469D01*
G01*
X185077171Y-93344859D02*
G75*
G03*
X186613391Y-95258353I38673529J29475059D01*
G01*
X272756208Y-120208205D02*
G75*
G02*
X275648854Y-122476248I-24057708J-33661695D01*
G01*
X291231958Y-130305327D02*
G75*
G02*
X293155542Y-134173301I-42533758J-23564773D01*
G01*
X107323479Y-113870000D02*
G75*
G02*
X107323561Y-113787282I41852421J-100D01*
G01*
X284890206Y-133818825D02*
G75*
G02*
X286526982Y-137110084I-36191406J-20050975D01*
G01*
X127051692Y-184340631D02*
G75*
G02*
X124195213Y-181934621I31646608J40470331D01*
G01*
X145482992Y-200986033D02*
G75*
G02*
X141368556Y-199875040I13215408J57115933D01*
G01*
X206700351Y-101568596D02*
G75*
G03*
X210113504Y-102933078I17050149J37698596D01*
G01*
X126036153Y-192553295D02*
G75*
G02*
X122585724Y-190051811I32662047J48682895D01*
G01*
X173835259Y-81006147D02*
G75*
G02*
X176652829Y-83366807I-25136959J-32864053D01*
G01*
X108523761Y-174191426D02*
G75*
G02*
X106453559Y-170466222I50174639J30321326D01*
G01*
X109939130Y-99392303D02*
G75*
G02*
X111377030Y-96009425I38759070J-14477597D01*
G01*
X142643295Y-72940479D02*
G75*
G02*
X146299814Y-72564589I6055205J-40930121D01*
G01*
X297305370Y-155196862D02*
G75*
G02*
X296995787Y-159505638I-48606770J1326862D01*
G01*
X297231313Y-150877612D02*
G75*
G02*
X297305369Y-155196862I-48533013J-2992388D01*
G01*
X133250406Y-188499431D02*
G75*
G02*
X130075417Y-186532759I25448294J44629831D01*
G01*
X170819291Y-78904871D02*
G75*
G02*
X173835259Y-81006147I-22121091J-34965529D01*
G01*
X288894273Y-144062420D02*
G75*
G02*
X289606099Y-147668626I-40195373J-9807480D01*
G01*
X281617460Y-189657301D02*
G75*
G02*
X278311317Y-192437736I-32918760J35787001D01*
G01*
X178239892Y-75247524D02*
G75*
G02*
X181551175Y-78021836I-29541292J-38622276D01*
G01*
X293804641Y-172031078D02*
G75*
G02*
X292014783Y-175962719I-45106541J18161278D01*
G01*
X250051796Y-195222861D02*
G75*
G02*
X248698477Y-195245000I-1353296J41350861D01*
G01*
X116775297Y-173565744D02*
G75*
G02*
X114728740Y-170441653I41923103J29695744D01*
G01*
X122585726Y-190051808D02*
G75*
G02*
X119326139Y-187306271I36112774J46181908D01*
G01*
X125636888Y-79518089D02*
G75*
G02*
X128776736Y-77606867I23061812J-34352311D01*
G01*
X176652832Y-83366803D02*
G75*
G02*
X179249764Y-85968218I-27954332J-30503097D01*
G01*
X216093225Y-111888298D02*
G75*
G03*
X220385215Y-112378408I7657275J48018298D01*
G01*
X130075420Y-186532756D02*
G75*
G02*
X127051694Y-184340628I28623280J42663156D01*
G01*
X283742417Y-175865753D02*
G75*
G02*
X281651928Y-178889206I-35044017J21995853D01*
G01*
X141368556Y-199875041D02*
G75*
G02*
X137345705Y-198468074I17329944J56005041D01*
G01*
X139986347Y-191716073D02*
G75*
G02*
X136559878Y-190230252I18712553J47847073D01*
G01*
X273349092Y-111956539D02*
G75*
G02*
X276971760Y-114309768I-24650492J-41913161D01*
G01*
X217234919Y-104728758D02*
G75*
G03*
X220886974Y-105145792I6515581J40858858D01*
G01*
X137345704Y-198468076D02*
G75*
G02*
X133435696Y-196772575I21353196J54598976D01*
G01*
X190843367Y-88950151D02*
G75*
G03*
X192150537Y-90578341I32907533J25080551D01*
G01*
X114728741Y-170441652D02*
G75*
G02*
X112914551Y-167177137I43969859J26571752D01*
G01*
X266425597Y-116484982D02*
G75*
G02*
X269673677Y-118205850I-17727297J-37385418D01*
G01*
X141582267Y-65768542D02*
G75*
G02*
X145879504Y-65326783I7116233J-48101858D01*
G01*
X133435696Y-196772575D02*
G75*
G02*
X129659193Y-194797502I25263104J52903175D01*
G01*
X271025791Y-197065848D02*
G75*
G02*
X267103915Y-198877004I-22327491J43196148D01*
G01*
X108153772Y-153069074D02*
G75*
G02*
X107619033Y-149372806I50545128J9199174D01*
G01*
X133189764Y-67784529D02*
G75*
G02*
X137341196Y-66589954I15508736J-46085671D01*
G01*
X135502119Y-74655889D02*
G75*
G02*
X139034570Y-73639422I13196381J-39214111D01*
G01*
X264359661Y-192166452D02*
G75*
G02*
X260898926Y-193405296I-15661161J38296552D01*
G01*
X280371276Y-116975230D02*
G75*
G02*
X283520811Y-119931888I-31672576J-36894570D01*
G01*
X107323561Y-113787282D02*
G75*
G02*
X107494181Y-110115456I41375039J-82718D01*
G01*
X284663787Y-186594413D02*
G75*
G02*
X281617462Y-189657303I-35965587J32724713D01*
G01*
X162950759Y-67380609D02*
G75*
G02*
X167020591Y-68829010I-14252259J-46489191D01*
G01*
X186613388Y-95258356D02*
G75*
G03*
X189545760Y-98430514I37137112J31388456D01*
G01*
X276709231Y-184321406D02*
G75*
G02*
X273896035Y-186687276I-28010431J30451006D01*
G01*
X100410737Y-150149357D02*
G75*
G02*
X100108575Y-145898289I58288463J6279357D01*
G01*
X118119764Y-76063481D02*
G75*
G02*
X121595885Y-73498722I30578636J-37806419D01*
G01*
X278311317Y-192437736D02*
G75*
G02*
X274771448Y-194913766I-29612917J38567836D01*
G01*
X258856455Y-201422137D02*
G75*
G02*
X254595968Y-202136036I-10157955J47551737D01*
G01*
X261435533Y-106942844D02*
G75*
G02*
X265550200Y-108258489I-12737033J-46927056D01*
G01*
X167628728Y-77079569D02*
G75*
G02*
X170819291Y-78904871I-18930128J-36790331D01*
G01*
X210113505Y-102933076D02*
G75*
G03*
X213634290Y-103989244I13637095J39063476D01*
G01*
X289995055Y-151323778D02*
G75*
G02*
X290058069Y-154999026I-41296755J-2546222D01*
G01*
X158768435Y-66299140D02*
G75*
G02*
X162950758Y-67380614I-10069935J-47570660D01*
G01*
X108955619Y-156716729D02*
G75*
G02*
X108153768Y-153069075I49743181J12846829D01*
G01*
X143511703Y-192949040D02*
G75*
G02*
X139986346Y-191716073I15186797J49079240D01*
G01*
X150784132Y-194631736D02*
G75*
G02*
X147117316Y-193922645I7914268J50761236D01*
G01*
X292014785Y-175962720D02*
G75*
G02*
X289883044Y-179719991I-43316785J22093020D01*
G01*
X248698477Y-105245002D02*
G75*
G02*
X252937881Y-105430160I23J-48624998D01*
G01*
X104659453Y-166600466D02*
G75*
G02*
X103150921Y-162614588I54038647J22730366D01*
G01*
X203712718Y-108174396D02*
G75*
G03*
X207723947Y-109777967I20037582J44303996D01*
G01*
X147117317Y-193922643D02*
G75*
G02*
X143511702Y-192949042I11581183J50052843D01*
G01*
X114884991Y-78926633D02*
G75*
G02*
X118119764Y-76063481I33813109J-34942967D01*
G01*
X293155539Y-134173302D02*
G75*
G02*
X294728242Y-138196734I-44457239J-19696798D01*
G01*
X149667265Y-201795193D02*
G75*
G02*
X145482991Y-200986035I9031135J57924693D01*
G01*
X199859638Y-106221147D02*
G75*
G03*
X203712718Y-108174395I23890962J42351547D01*
G01*
X108807149Y-102889450D02*
G75*
G02*
X109939131Y-99392303I39891651J-10980650D01*
G01*
X289883044Y-179719991D02*
G75*
G02*
X287426248Y-183273237I-41184844J25850191D01*
G01*
X181551174Y-78021837D02*
G75*
G02*
X184603163Y-81079084I-32852774J-35848263D01*
G01*
X107354235Y-145647456D02*
G75*
G02*
X107323478Y-143870000I51338265J1777356D01*
G01*
X260898925Y-193405293D02*
G75*
G02*
X257341898Y-194332104I-12200225J39534293D01*
G01*
X267103915Y-198877005D02*
G75*
G02*
X263036769Y-200332930I-18405415J45007005D01*
G01*
X267696784Y-190625339D02*
G75*
G02*
X264359660Y-192166448I-18998584J36755939D01*
G01*
X288972668Y-126623343D02*
G75*
G02*
X291231956Y-130305328I-40274568J-27246857D01*
G01*
X154506634Y-65593130D02*
G75*
G02*
X158768435Y-66299142I-5808134J-48276470D01*
G01*
X103150925Y-162614587D02*
G75*
G02*
X101935943Y-158529651I55547675J18744687D01*
G01*
X107619032Y-149372806D02*
G75*
G02*
X107354236Y-145647456I51079768J5502806D01*
G01*
X158223640Y-195242802D02*
G75*
G02*
X154492773Y-195072565I474760J51372002D01*
G01*
X115122851Y-89692159D02*
G75*
G02*
X117401212Y-86807631I33576249J-24178341D01*
G01*
X154492773Y-195072567D02*
G75*
G02*
X150784132Y-194631734I4205627J51201567D01*
G01*
X170945816Y-70632898D02*
G75*
G02*
X174695445Y-72778051I-22247116J-43236602D01*
G01*
X111342312Y-163789450D02*
G75*
G02*
X110020343Y-160296494I47355788J19919250D01*
G01*
X119926589Y-84136697D02*
G75*
G02*
X122679058Y-81700442I28772111J-29733603D01*
G01*
X109239513Y-85455560D02*
G75*
G02*
X111917100Y-82065586I39458887J-28414340D01*
G01*
X255949725Y-113135371D02*
G75*
G02*
X259536435Y-113939695I-7251325J-40734929D01*
G01*
X296995789Y-159505638D02*
G75*
G02*
X296305009Y-163769935I-48297189J5635638D01*
G01*
X280774869Y-127735812D02*
G75*
G02*
X282967773Y-130685827I-32076969J-26134588D01*
G01*
X281651926Y-178889204D02*
G75*
G02*
X279301349Y-181715193I-32953126J25018904D01*
G01*
X220886974Y-105145791D02*
G75*
G03*
X223750460Y-105245000I2863526J41275991D01*
G01*
X257220337Y-105997580D02*
G75*
G02*
X261435533Y-106942844I-8521837J-47872220D01*
G01*
X113447306Y-181142271D02*
G75*
G02*
X110859128Y-177756387I45251194J37272271D01*
G01*
X252305784Y-112652549D02*
G75*
G02*
X255949725Y-113135371I-3607384J-41217651D01*
G01*
X270883958Y-188794126D02*
G75*
G02*
X267696784Y-190625339I-22185258J34923626D01*
G01*
X287426249Y-183273238D02*
G75*
G02*
X284663785Y-186594411I-38727849J29403338D01*
G01*
X113109497Y-92767515D02*
G75*
G02*
X115122852Y-89692159I35588403J-21102085D01*
G01*
X153899267Y-202298229D02*
G75*
G02*
X149667265Y-201795192I4799133J58427929D01*
G01*
X121521074Y-179327453D02*
G75*
G02*
X119043402Y-176532906I37177926J35457953D01*
G01*
X283520809Y-119931890D02*
G75*
G02*
X286395505Y-123156409I-34821809J-33937710D01*
G01*
X100274096Y-109457560D02*
G75*
G02*
X100856810Y-105177158I48424604J-4412440D01*
G01*
X220385215Y-112378406D02*
G75*
G03*
X223750460Y-112495000I3365285J48508106D01*
G01*
X179249766Y-85968217D02*
G75*
G02*
X181605570Y-88789850I-30551666J-27902083D01*
G01*
X110020345Y-160296493D02*
G75*
G02*
X108955617Y-156716730I48677955J16426493D01*
G01*
X273896034Y-186687276D02*
G75*
G02*
X270883961Y-188794130I-25197634J32817376D01*
G01*
X289794648Y-158665363D02*
G75*
G02*
X289206863Y-162293852I-41096648J4795463D01*
G01*
X285556312Y-172668690D02*
G75*
G02*
X283742413Y-175865751I-36857412J18798490D01*
G01*
X287865192Y-140533622D02*
G75*
G02*
X288894271Y-144062420I-39166392J-13336278D01*
G01*
X122679058Y-81700442D02*
G75*
G02*
X125636888Y-79518090I26019642J-32169858D01*
G01*
X296774203Y-146581981D02*
G75*
G02*
X297231312Y-150877612I-48075903J-7288019D01*
G01*
X203421770Y-99906574D02*
G75*
G03*
X206700350Y-101568599I20328430J36035974D01*
G01*
X263037604Y-115059173D02*
G75*
G02*
X266425598Y-116484980I-14339004J-38810427D01*
G01*
X265550200Y-108258488D02*
G75*
G02*
X269531861Y-109934131I-16851900J-45611912D01*
G01*
X167020591Y-68829009D02*
G75*
G02*
X170945814Y-70632903I-18322091J-45040891D01*
G01*
X196195124Y-103933631D02*
G75*
G03*
X199859640Y-106221144I27555776J40064431D01*
G01*
X101817130Y-100965367D02*
G75*
G02*
X103147463Y-96855426I46881470J-12904633D01*
G01*
X128776737Y-77606869D02*
G75*
G02*
X132073820Y-75981857I19921863J-36263331D01*
G01*
X257341898Y-194332104D02*
G75*
G02*
X253716651Y-194939558I-8643398J40461904D01*
G01*
X107990018Y-106473263D02*
G75*
G02*
X108807148Y-102889450I40708582J-7396737D01*
G01*
X158698478Y-195245000D02*
G75*
G02*
X158223640Y-195242806I-78J51365400D01*
G01*
X106873362Y-89069799D02*
G75*
G02*
X109239510Y-85455558I41825338J-24800301D01*
G01*
D16*
%TO.N,/FWD1*%
X183850000Y-170150000D02*
X184750000Y-169250000D01*
X183850000Y-170150000D02*
X183850000Y-170050000D01*
X183850000Y-170050000D02*
X184100000Y-169800000D01*
%TD*%
M02*
