M48
; DRILL file {KiCad 6.0.2+dfsg-1} date Fri 18 Nov 2022 11:13:13 AM PST
; FORMAT={-:-/ absolute / inch / decimal}
; #@! TF.CreationDate,2022-11-18T11:13:13-08:00
; #@! TF.GenerationSoftware,Kicad,Pcbnew,6.0.2+dfsg-1
; #@! TF.FileFunction,MixedPlating,1,4
FMAT,2
INCH
; #@! TA.AperFunction,Plated,PTH,ViaDrill
T1C0.0079
; #@! TA.AperFunction,NonPlated,NPTH,ComponentDrill
T2C0.1378
%
G90
G05
T1
X3.8307Y-4.9921
X3.8859Y-4.558
X3.8859Y-4.6368
X3.8859Y-4.7155
X3.8859Y-4.7942
X3.8859Y-4.8729
X3.8859Y-4.9517
X3.8859Y-5.0304
X3.8859Y-5.1091
X3.8859Y-5.1878
X3.8859Y-5.2666
X3.8859Y-5.3453
X3.8859Y-5.424
X3.8859Y-5.5027
X3.8859Y-5.5815
X3.8859Y-5.6602
X3.8859Y-4.479
X3.8873Y-5.7457
X3.8881Y-4.3915
X3.8919Y-5.8315
X3.8941Y-4.3043
X3.8995Y-5.917
X3.9039Y-4.2173
X3.9103Y-6.0022
X3.9176Y-4.131
X3.9241Y-6.087
X3.9352Y-4.0453
X3.941Y-6.1711
X3.9565Y-3.9605
X3.961Y-6.2547
X3.9816Y-3.8767
X3.984Y-6.3374
X4.0099Y-6.4193
X4.0104Y-3.7941
X4.0389Y-6.5001
X4.0428Y-3.7128
X4.0707Y-6.5799
X4.0788Y-3.6331
X4.1055Y-6.6584
X4.1183Y-3.5551
X4.143Y-6.7356
X4.1612Y-3.4789
X4.1834Y-6.8114
X4.2075Y-3.4046
X4.2264Y-6.8857
X4.257Y-3.3326
X4.2722Y-6.9584
X4.2796Y-4.5187
X4.2796Y-4.5974
X4.2796Y-4.6761
X4.2796Y-4.7549
X4.2796Y-4.8336
X4.2796Y-4.9123
X4.2796Y-4.991
X4.2796Y-5.0698
X4.2796Y-5.1485
X4.2796Y-5.2272
X4.2796Y-5.3059
X4.2796Y-5.3847
X4.2796Y-5.4634
X4.2796Y-5.5421
X4.2796Y-5.6208
X4.2799Y-5.6963
X4.2801Y-4.4447
X4.2824Y-5.7678
X4.2833Y-4.3748
X4.2875Y-5.8392
X4.2897Y-4.3052
X4.2951Y-5.9103
X4.2991Y-4.2358
X4.3054Y-5.9812
X4.3097Y-3.2627
X4.3116Y-4.167
X4.3182Y-6.0516
X4.3205Y-7.0294
X4.3272Y-4.0988
X4.3335Y-6.1215
X4.3458Y-4.0313
X4.3465Y-4.9528
X4.3514Y-6.1908
X4.3654Y-3.1953
X4.3673Y-3.9647
X4.3714Y-7.0985
X4.3718Y-6.2594
X4.3918Y-3.8992
X4.3947Y-6.3272
X4.4192Y-3.8348
X4.4201Y-6.3941
X4.4241Y-3.1304
X4.4248Y-7.1658
X4.4478Y-6.4601
X4.4494Y-3.7717
X4.4779Y-6.525
X4.4806Y-7.2311
X4.4823Y-3.7099
X4.4855Y-3.0682
X4.5104Y-6.5887
X4.518Y-3.6498
X4.5388Y-7.2943
X4.5452Y-6.6513
X4.5497Y-3.0088
X4.5564Y-3.5912
X4.5822Y-6.7125
X4.5972Y-3.5345
X4.5991Y-7.3553
X4.6165Y-2.9523
X4.6214Y-6.7724
X4.6406Y-3.4795
X4.6617Y-7.4142
X4.6627Y-6.8308
X4.6857Y-2.8988
X4.6864Y-3.4266
X4.7062Y-6.8877
X4.7264Y-7.4707
X4.7345Y-3.3758
X4.7517Y-6.9429
X4.7572Y-2.8485
X4.7847Y-3.3271
X4.7931Y-7.5248
X4.7992Y-6.9965
X4.8309Y-2.8014
X4.8371Y-3.2807
X4.8486Y-7.0482
X4.8616Y-7.5764
X4.8915Y-3.2367
X4.8998Y-7.0982
X4.9066Y-2.7576
X4.9321Y-7.6256
X4.9478Y-3.1952
X4.9528Y-7.1462
X4.9842Y-2.7172
X5.0042Y-7.6721
X5.0059Y-3.1562
X5.0076Y-7.1924
X5.0634Y-2.6803
X5.0639Y-7.2364
X5.0657Y-3.1198
X5.0781Y-7.716
X5.1219Y-7.2784
X5.127Y-3.0861
X5.1443Y-2.6469
X5.1534Y-7.7572
X5.1813Y-7.3183
X5.1898Y-3.0552
X5.2266Y-2.6172
X5.2302Y-7.7956
X5.2422Y-7.356
X5.2538Y-3.0271
X5.3043Y-7.3914
X5.3084Y-7.8312
X5.3101Y-2.5911
X5.3191Y-3.0018
X5.3677Y-7.4246
X5.3854Y-2.9795
X5.3878Y-7.8639
X5.3946Y-2.5688
X5.4323Y-7.4554
X5.4527Y-2.9602
X5.4683Y-7.8937
X5.4801Y-2.5503
X5.498Y-7.4839
X5.5207Y-2.9438
X5.5499Y-7.9206
X5.5646Y-7.51
X5.5663Y-2.5355
X5.5894Y-2.9305
X5.6322Y-7.5336
X5.6324Y-7.9445
X5.6476Y-5.7283
X5.6476Y-5.8268
X5.6531Y-2.5247
X5.6586Y-2.9203
X5.7005Y-7.5548
X5.7157Y-7.9654
X5.7282Y-2.9131
X5.7403Y-2.5177
X5.752Y-6.6988
X5.7696Y-7.5734
X5.7981Y-2.9091
X5.7997Y-7.9832
X5.811Y-5.8012
X5.8277Y-2.5145
X5.8393Y-7.5895
X5.868Y-2.9081
X5.8843Y-7.998
X5.9096Y-7.6031
X5.9151Y-2.5153
X5.938Y-2.9103
X5.9685Y-5.8248
X5.9693Y-8.0096
X5.9803Y-7.6141
X6.0025Y-2.5199
X6.0078Y-2.9155
X6.0514Y-7.6226
X6.0548Y-8.0182
X6.0772Y-2.9239
X6.0895Y-2.5284
X6.1227Y-7.6285
X6.1405Y-8.0237
X6.1463Y-2.9353
X6.1761Y-2.5408
X6.1942Y-7.6317
X6.2147Y-2.9498
X6.2263Y-8.0261
X6.2346Y-6.1681
X6.2621Y-2.557
X6.2675Y-7.6325
X6.2825Y-2.9673
X6.3069Y-8.0262
X6.3462Y-7.6325
X6.3472Y-2.577
X6.3493Y-2.9878
X6.3856Y-8.0262
X6.4153Y-3.0113
X6.4249Y-7.6325
X6.4314Y-2.6008
X6.4643Y-8.0262
X6.4801Y-3.0377
X6.5037Y-7.6325
X6.5144Y-2.6283
X6.5431Y-8.0262
X6.5437Y-3.0669
X6.561Y-5.0689
X6.5824Y-7.6325
X6.5961Y-2.6594
X6.6059Y-3.0989
X6.6218Y-8.0262
X6.6398Y-4.9114
X6.6611Y-7.6325
X6.6614Y-4.752
X6.6614Y-5.0748
X6.6666Y-3.1336
X6.6764Y-2.6942
X6.7005Y-8.0262
X6.7257Y-3.171
X6.7398Y-7.6325
X6.7551Y-2.7324
X6.7567Y-6.1701
X6.7792Y-8.0262
X6.7832Y-3.211
X6.813Y-5.5512
X6.8186Y-7.6325
X6.8319Y-2.7742
X6.8387Y-3.2535
X6.8579Y-8.0262
X6.8878Y-5.3858
X6.8924Y-3.2985
X6.8973Y-7.6325
X6.9069Y-2.8193
X6.9134Y-5.2303
X6.9134Y-5.5531
X6.9367Y-8.0262
X6.9439Y-3.3458
X6.976Y-7.6325
X6.9797Y-2.8677
X6.9934Y-3.3953
X7.0154Y-8.0262
X7.0406Y-3.4469
X7.0503Y-2.9193
X7.0547Y-7.6325
X7.0854Y-3.5007
X7.0941Y-8.0262
X7.1186Y-2.9739
X7.1308Y-3.5595
X7.1335Y-7.6325
X7.1728Y-8.0262
X7.1785Y-3.6222
X7.1844Y-3.0316
X7.2122Y-7.6325
X7.2262Y-3.6848
X7.2272Y-5.1531
X7.2283Y-5.1921
X7.2382Y-6.6988
X7.2476Y-3.0921
X7.2515Y-8.0262
X7.2575Y-6.1803
X7.2728Y-5.7957
X7.2779Y-3.7513
X7.2909Y-7.6325
X7.308Y-3.1553
X7.3189Y-5.2992
X7.3303Y-8.0262
X7.3344Y-3.8181
X7.3655Y-3.2212
X7.3696Y-7.6325
X7.3938Y-3.8824
X7.3976Y-5.3307
X7.409Y-8.0262
X7.42Y-3.2896
X7.4398Y-5.1531
X7.4398Y-5.1933
X7.4484Y-7.6325
X7.4508Y-5.8425
X7.4559Y-3.9439
X7.4678Y-3.3522
X7.4803Y-5.8661
X7.4877Y-8.0262
X7.5079Y-5.7657
X7.5155Y-3.4148
X7.5208Y-4.0026
X7.5236Y-6.0315
X7.5271Y-7.6325
X7.5625Y-3.4765
X7.5664Y-8.0262
X7.5881Y-4.0583
X7.6058Y-7.6325
X7.6065Y-3.5309
X7.6319Y-6.2343
X7.6452Y-8.0262
X7.6528Y-3.5833
X7.6579Y-4.1111
X7.6845Y-7.6325
X7.685Y-5.4272
X7.7008Y-6.0285
X7.7014Y-3.6336
X7.7047Y-5.3307
X7.7067Y-5.2933
X7.7239Y-8.0262
X7.73Y-4.1606
X7.7343Y-5.4843
X7.7523Y-3.6817
X7.7598Y-6.0285
X7.7633Y-7.6325
X7.8026Y-8.0262
X7.8042Y-4.2069
X7.8052Y-3.7275
X7.8268Y-5.6713
X7.8268Y-5.7047
X7.842Y-7.6325
X7.86Y-3.7709
X7.8804Y-4.2499
X7.8813Y-8.0262
X7.8839Y-5.8819
X7.9168Y-3.8119
X7.9207Y-7.6325
X7.9547Y-5.9941
X7.9584Y-4.2895
X7.9601Y-8.0262
X7.9753Y-3.8502
X7.9764Y-5.6083
X7.9994Y-7.6325
X8.0248Y-6.1732
X8.0276Y-6.6949
X8.0315Y-5.8071
X8.0325Y-5.9094
X8.0355Y-3.8859
X8.0381Y-4.3255
X8.0388Y-8.0262
X8.0782Y-7.6325
X8.0945Y-5.7126
X8.0972Y-3.919
X8.1175Y-8.0262
X8.1193Y-4.358
X8.1569Y-7.6325
X8.1603Y-3.9492
X8.1962Y-8.0262
X8.2019Y-4.3868
X8.2246Y-3.9766
X8.2356Y-7.6325
X8.275Y-8.0262
X8.2856Y-4.4119
X8.2902Y-4.0011
X8.3143Y-7.6325
X8.3189Y-5.8071
X8.3248Y-5.8839
X8.3537Y-8.0262
X8.3567Y-4.0227
X8.3704Y-4.4333
X8.393Y-7.6325
X8.4242Y-4.0413
X8.4324Y-8.0262
X8.4561Y-4.4509
X8.4718Y-7.6325
X8.4924Y-4.0569
X8.5111Y-8.0262
X8.5232Y-6.1669
X8.5425Y-4.4647
X8.5505Y-7.6325
X8.5612Y-4.0695
X8.5866Y-5.7126
X8.5899Y-8.0262
X8.6292Y-7.6325
X8.6294Y-4.4746
X8.6306Y-4.079
X8.6686Y-8.0262
X8.7002Y-4.0854
X8.7079Y-7.6325
X8.7166Y-4.4807
X8.7473Y-8.0262
X8.7701Y-4.0887
X8.7866Y-7.6325
X8.7992Y-2.4803
X8.7992Y-2.5197
X8.7992Y-2.5591
X8.7992Y-2.5984
X8.7992Y-2.6378
X8.8041Y-4.4828
X8.826Y-8.0262
X8.8439Y-4.0891
X8.8654Y-7.6325
X8.8833Y-4.4828
X8.8937Y-2.6713
X8.9048Y-8.0262
X8.9227Y-4.0891
X8.9232Y-4.5945
X8.9441Y-7.6325
X8.9621Y-4.4828
X8.9835Y-8.0262
X8.9921Y-2.4843
X8.9921Y-2.5236
X8.9921Y-2.563
X8.9921Y-2.6024
X8.9921Y-2.6417
X9.0014Y-4.0891
X9.002Y-4.5945
X9.0228Y-7.6325
X9.0408Y-4.4828
X9.0476Y-6.1677
X9.0622Y-8.0262
X9.0801Y-4.0891
X9.1015Y-7.6325
X9.1063Y-2.8346
X9.1063Y-2.8819
X9.1063Y-2.9252
X9.1195Y-4.4828
X9.1409Y-8.0262
X9.1575Y-2.9843
X9.1588Y-4.0891
X9.1803Y-7.6325
X9.1894Y-3.026
X9.1982Y-4.4828
X9.2196Y-8.0262
X9.2205Y-2.9843
X9.2376Y-4.0891
X9.259Y-7.6325
X9.2736Y-2.8366
X9.2736Y-2.8819
X9.2736Y-2.9291
X9.2769Y-4.4828
X9.2984Y-8.0262
X9.3163Y-4.0891
X9.3346Y-2.4803
X9.3346Y-2.5197
X9.3346Y-2.5591
X9.3346Y-2.5984
X9.3346Y-2.6339
X9.3377Y-7.6325
X9.3557Y-4.4828
X9.3771Y-8.0262
X9.395Y-4.0891
X9.4164Y-7.6325
X9.4213Y-2.6693
X9.4344Y-4.4828
X9.4558Y-8.0262
X9.4737Y-4.0891
X9.4952Y-7.6325
X9.5079Y-2.4843
X9.5079Y-2.5236
X9.5079Y-2.563
X9.5079Y-2.5984
X9.5079Y-2.6339
X9.5131Y-4.4828
X9.5345Y-8.0262
X9.5394Y-6.6811
X9.5525Y-4.0891
X9.5739Y-7.6325
X9.5918Y-4.4828
X9.6132Y-8.0262
X9.6312Y-4.0891
X9.6526Y-7.6325
X9.6705Y-4.4828
X9.692Y-8.0262
X9.7099Y-4.0891
X9.7313Y-7.6325
X9.7493Y-4.4828
X9.7707Y-8.0262
X9.7887Y-4.0891
X9.808Y-7.6324
X9.8239Y-4.4832
X9.8558Y-8.0251
X9.8758Y-4.091
X9.8779Y-7.6301
X9.8939Y-4.4862
X9.9432Y-8.0203
X9.9477Y-7.6247
X9.963Y-4.0966
X9.9635Y-4.4923
X10.0171Y-7.6162
X10.0302Y-8.0116
X10.0329Y-4.5015
X10.05Y-4.1062
X10.0862Y-7.6046
X10.1018Y-4.5137
X10.1168Y-7.9991
X10.1364Y-4.1196
X10.1546Y-7.59
X10.1701Y-4.529
X10.2027Y-7.9827
X10.2222Y-4.1368
X10.2223Y-7.5724
X10.2376Y-4.5474
X10.2878Y-7.9626
X10.2891Y-7.5517
X10.3043Y-4.5687
X10.307Y-4.1579
X10.355Y-7.5282
X10.3699Y-4.5929
X10.3719Y-7.9386
X10.3909Y-4.1827
X10.4198Y-7.5017
X10.4344Y-4.6201
X10.4549Y-7.911
X10.4736Y-4.2111
X10.4833Y-7.4723
X10.4976Y-4.65
X10.5366Y-7.8797
X10.5455Y-7.4402
X10.555Y-4.2433
X10.5594Y-4.6828
X10.6061Y-7.4053
X10.6168Y-7.8448
X10.6197Y-4.7183
X10.6348Y-4.279
X10.6652Y-7.3678
X10.6784Y-4.7564
X10.6954Y-7.8063
X10.713Y-4.3182
X10.7225Y-7.3277
X10.7353Y-4.7971
X10.7721Y-7.7645
X10.778Y-7.2851
X10.7894Y-4.3608
X10.7904Y-4.8403
X10.8316Y-7.2401
X10.8435Y-4.8858
X10.847Y-7.7192
X10.8638Y-4.4068
X10.8831Y-7.1927
X10.8945Y-4.9337
X10.9197Y-7.6707
X10.9324Y-7.1431
X10.936Y-4.4561
X10.9433Y-4.9838
X10.9795Y-7.0913
X10.9899Y-5.0361
X10.9903Y-7.619
X11.006Y-4.5085
X11.0243Y-7.0375
X11.0341Y-5.0903
X11.0585Y-7.5642
X11.0666Y-6.9818
X11.0736Y-4.564
X11.0759Y-5.1465
X11.1064Y-6.9243
X11.1151Y-5.2044
X11.1241Y-7.5064
X11.1387Y-4.6224
X11.1436Y-6.865
X11.1517Y-5.264
X11.1781Y-6.8041
X11.1856Y-5.3252
X11.1872Y-7.4458
X11.2011Y-4.6837
X11.2099Y-6.7418
X11.2167Y-5.3879
X11.2389Y-6.6781
X11.2451Y-5.4519
X11.2475Y-7.3824
X11.2608Y-4.7477
X11.265Y-6.6132
X11.2705Y-5.517
X11.2882Y-6.5472
X11.2931Y-5.5833
X11.3049Y-7.3164
X11.3085Y-6.4802
X11.3127Y-5.6505
X11.3175Y-4.8142
X11.3258Y-6.4124
X11.3293Y-5.7184
X11.34Y-6.3439
X11.3428Y-5.7871
X11.3512Y-6.2749
X11.3533Y-5.8562
X11.3593Y-7.248
X11.3593Y-6.2054
X11.3607Y-5.9258
X11.3643Y-6.1356
X11.365Y-5.9957
X11.3662Y-6.0656
X11.3713Y-4.8833
X11.4106Y-7.1772
X11.4219Y-4.9546
X11.4588Y-7.1041
X11.4693Y-5.0281
X11.5036Y-7.029
X11.5133Y-5.1036
X11.5451Y-6.952
X11.554Y-5.1811
X11.583Y-6.8732
X11.5912Y-5.2602
X11.6175Y-6.7928
X11.6249Y-5.341
X11.6484Y-6.711
X11.6549Y-5.4231
X11.6756Y-6.6279
X11.6812Y-5.5065
X11.699Y-6.5436
X11.7038Y-5.591
X11.7187Y-6.4584
X11.7227Y-5.6764
X11.7346Y-6.3724
X11.7377Y-5.7626
X11.7467Y-6.2858
X11.7489Y-5.8493
X11.7549Y-6.1987
X11.7562Y-5.9365
X11.7592Y-6.1113
X11.7597Y-6.0239
T2
X3.8386Y-2.4409
X3.8386Y-8.0512
X11.811Y-2.4409
X11.811Y-8.0512
T0
M30
