%TF.GenerationSoftware,KiCad,Pcbnew,6.0.2+dfsg-1*%
%TF.CreationDate,2022-11-18T11:13:07-08:00*%
%TF.ProjectId,slot_track,736c6f74-5f74-4726-9163-6b2e6b696361,rev?*%
%TF.SameCoordinates,Original*%
%TF.FileFunction,Legend,Bot*%
%TF.FilePolarity,Positive*%
%FSLAX46Y46*%
G04 Gerber Fmt 4.6, Leading zero omitted, Abs format (unit mm)*
G04 Created by KiCad (PCBNEW 6.0.2+dfsg-1) date 2022-11-18 11:13:07*
%MOMM*%
%LPD*%
G01*
G04 APERTURE LIST*
%ADD10C,0.300000*%
%ADD11C,0.150000*%
%ADD12C,0.100000*%
%ADD13C,0.120000*%
G04 APERTURE END LIST*
D10*
X257678571Y-182875000D02*
X257964285Y-182732142D01*
X258392857Y-182732142D01*
X258821428Y-182875000D01*
X259107142Y-183160714D01*
X259250000Y-183446428D01*
X259392857Y-184017857D01*
X259392857Y-184446428D01*
X259250000Y-185017857D01*
X259107142Y-185303571D01*
X258821428Y-185589285D01*
X258392857Y-185732142D01*
X258107142Y-185732142D01*
X257678571Y-185589285D01*
X257535714Y-185446428D01*
X257535714Y-184446428D01*
X258107142Y-184446428D01*
X254964285Y-185732142D02*
X254964285Y-184160714D01*
X255107142Y-183875000D01*
X255392857Y-183732142D01*
X255964285Y-183732142D01*
X256250000Y-183875000D01*
X254964285Y-185589285D02*
X255250000Y-185732142D01*
X255964285Y-185732142D01*
X256250000Y-185589285D01*
X256392857Y-185303571D01*
X256392857Y-185017857D01*
X256250000Y-184732142D01*
X255964285Y-184589285D01*
X255250000Y-184589285D01*
X254964285Y-184446428D01*
X252250000Y-183732142D02*
X252250000Y-185732142D01*
X253535714Y-183732142D02*
X253535714Y-185303571D01*
X253392857Y-185589285D01*
X253107142Y-185732142D01*
X252678571Y-185732142D01*
X252392857Y-185589285D01*
X252250000Y-185446428D01*
X250964285Y-185589285D02*
X250678571Y-185732142D01*
X250107142Y-185732142D01*
X249821428Y-185589285D01*
X249678571Y-185303571D01*
X249678571Y-185160714D01*
X249821428Y-184875000D01*
X250107142Y-184732142D01*
X250535714Y-184732142D01*
X250821428Y-184589285D01*
X250964285Y-184303571D01*
X250964285Y-184160714D01*
X250821428Y-183875000D01*
X250535714Y-183732142D01*
X250107142Y-183732142D01*
X249821428Y-183875000D01*
X248535714Y-185589285D02*
X248250000Y-185732142D01*
X247678571Y-185732142D01*
X247392857Y-185589285D01*
X247250000Y-185303571D01*
X247250000Y-185160714D01*
X247392857Y-184875000D01*
X247678571Y-184732142D01*
X248107142Y-184732142D01*
X248392857Y-184589285D01*
X248535714Y-184303571D01*
X248535714Y-184160714D01*
X248392857Y-183875000D01*
X248107142Y-183732142D01*
X247678571Y-183732142D01*
X247392857Y-183875000D01*
X243821428Y-185589285D02*
X243392857Y-185732142D01*
X242678571Y-185732142D01*
X242392857Y-185589285D01*
X242250000Y-185446428D01*
X242107142Y-185160714D01*
X242107142Y-184875000D01*
X242250000Y-184589285D01*
X242392857Y-184446428D01*
X242678571Y-184303571D01*
X243250000Y-184160714D01*
X243535714Y-184017857D01*
X243678571Y-183875000D01*
X243821428Y-183589285D01*
X243821428Y-183303571D01*
X243678571Y-183017857D01*
X243535714Y-182875000D01*
X243250000Y-182732142D01*
X242535714Y-182732142D01*
X242107142Y-182875000D01*
X240821428Y-183732142D02*
X240821428Y-186732142D01*
X240821428Y-183875000D02*
X240535714Y-183732142D01*
X239964285Y-183732142D01*
X239678571Y-183875000D01*
X239535714Y-184017857D01*
X239392857Y-184303571D01*
X239392857Y-185160714D01*
X239535714Y-185446428D01*
X239678571Y-185589285D01*
X239964285Y-185732142D01*
X240535714Y-185732142D01*
X240821428Y-185589285D01*
X236964285Y-185589285D02*
X237250000Y-185732142D01*
X237821428Y-185732142D01*
X238107142Y-185589285D01*
X238250000Y-185303571D01*
X238250000Y-184160714D01*
X238107142Y-183875000D01*
X237821428Y-183732142D01*
X237250000Y-183732142D01*
X236964285Y-183875000D01*
X236821428Y-184160714D01*
X236821428Y-184446428D01*
X238250000Y-184732142D01*
X234392857Y-185589285D02*
X234678571Y-185732142D01*
X235250000Y-185732142D01*
X235535714Y-185589285D01*
X235678571Y-185303571D01*
X235678571Y-184160714D01*
X235535714Y-183875000D01*
X235250000Y-183732142D01*
X234678571Y-183732142D01*
X234392857Y-183875000D01*
X234250000Y-184160714D01*
X234250000Y-184446428D01*
X235678571Y-184732142D01*
X231678571Y-185732142D02*
X231678571Y-182732142D01*
X231678571Y-185589285D02*
X231964285Y-185732142D01*
X232535714Y-185732142D01*
X232821428Y-185589285D01*
X232964285Y-185446428D01*
X233107142Y-185160714D01*
X233107142Y-184303571D01*
X232964285Y-184017857D01*
X232821428Y-183875000D01*
X232535714Y-183732142D01*
X231964285Y-183732142D01*
X231678571Y-183875000D01*
X230535714Y-183732142D02*
X229964285Y-185732142D01*
X229392857Y-184303571D01*
X228821428Y-185732142D01*
X228250000Y-183732142D01*
X225821428Y-185732142D02*
X225821428Y-184160714D01*
X225964285Y-183875000D01*
X226250000Y-183732142D01*
X226821428Y-183732142D01*
X227107142Y-183875000D01*
X225821428Y-185589285D02*
X226107142Y-185732142D01*
X226821428Y-185732142D01*
X227107142Y-185589285D01*
X227250000Y-185303571D01*
X227250000Y-185017857D01*
X227107142Y-184732142D01*
X226821428Y-184589285D01*
X226107142Y-184589285D01*
X225821428Y-184446428D01*
X224678571Y-183732142D02*
X223964285Y-185732142D01*
X223250000Y-183732142D02*
X223964285Y-185732142D01*
X224250000Y-186446428D01*
X224392857Y-186589285D01*
X224678571Y-186732142D01*
X218107142Y-185732142D02*
X219107142Y-184303571D01*
X219821428Y-185732142D02*
X219821428Y-182732142D01*
X218678571Y-182732142D01*
X218392857Y-182875000D01*
X218250000Y-183017857D01*
X218107142Y-183303571D01*
X218107142Y-183732142D01*
X218250000Y-184017857D01*
X218392857Y-184160714D01*
X218678571Y-184303571D01*
X219821428Y-184303571D01*
X215678571Y-185589285D02*
X215964285Y-185732142D01*
X216535714Y-185732142D01*
X216821428Y-185589285D01*
X216964285Y-185303571D01*
X216964285Y-184160714D01*
X216821428Y-183875000D01*
X216535714Y-183732142D01*
X215964285Y-183732142D01*
X215678571Y-183875000D01*
X215535714Y-184160714D01*
X215535714Y-184446428D01*
X216964285Y-184732142D01*
X214535714Y-183732142D02*
X213821428Y-185732142D01*
X213107142Y-183732142D01*
X209821428Y-183017857D02*
X209678571Y-182875000D01*
X209392857Y-182732142D01*
X208678571Y-182732142D01*
X208392857Y-182875000D01*
X208250000Y-183017857D01*
X208107142Y-183303571D01*
X208107142Y-183589285D01*
X208250000Y-184017857D01*
X209964285Y-185732142D01*
X208107142Y-185732142D01*
D11*
X234875000Y-149313095D02*
X234827380Y-149217857D01*
X234827380Y-149075000D01*
X234875000Y-148932142D01*
X234970238Y-148836904D01*
X235065476Y-148789285D01*
X235255952Y-148741666D01*
X235398809Y-148741666D01*
X235589285Y-148789285D01*
X235684523Y-148836904D01*
X235779761Y-148932142D01*
X235827380Y-149075000D01*
X235827380Y-149170238D01*
X235779761Y-149313095D01*
X235732142Y-149360714D01*
X235398809Y-149360714D01*
X235398809Y-149170238D01*
X235827380Y-149789285D02*
X234827380Y-149789285D01*
X235827380Y-150360714D01*
X234827380Y-150360714D01*
X235827380Y-150836904D02*
X234827380Y-150836904D01*
X234827380Y-151075000D01*
X234875000Y-151217857D01*
X234970238Y-151313095D01*
X235065476Y-151360714D01*
X235255952Y-151408333D01*
X235398809Y-151408333D01*
X235589285Y-151360714D01*
X235684523Y-151313095D01*
X235779761Y-151217857D01*
X235827380Y-151075000D01*
X235827380Y-150836904D01*
X232877380Y-148713095D02*
X232877380Y-149284523D01*
X233877380Y-148998809D02*
X232877380Y-148998809D01*
X232877380Y-149522619D02*
X233877380Y-150189285D01*
X232877380Y-150189285D02*
X233877380Y-149522619D01*
X231852380Y-149283333D02*
X231376190Y-148950000D01*
X231852380Y-148711904D02*
X230852380Y-148711904D01*
X230852380Y-149092857D01*
X230900000Y-149188095D01*
X230947619Y-149235714D01*
X231042857Y-149283333D01*
X231185714Y-149283333D01*
X231280952Y-149235714D01*
X231328571Y-149188095D01*
X231376190Y-149092857D01*
X231376190Y-148711904D01*
X230852380Y-149616666D02*
X231852380Y-150283333D01*
X230852380Y-150283333D02*
X231852380Y-149616666D01*
X227085714Y-148678571D02*
X227752380Y-148678571D01*
X227180952Y-148678571D02*
X227133333Y-148726190D01*
X227085714Y-148821428D01*
X227085714Y-148964285D01*
X227133333Y-149059523D01*
X227228571Y-149107142D01*
X227752380Y-149107142D01*
X227752380Y-150154761D02*
X227276190Y-149821428D01*
X227752380Y-149583333D02*
X226752380Y-149583333D01*
X226752380Y-149964285D01*
X226800000Y-150059523D01*
X226847619Y-150107142D01*
X226942857Y-150154761D01*
X227085714Y-150154761D01*
X227180952Y-150107142D01*
X227228571Y-150059523D01*
X227276190Y-149964285D01*
X227276190Y-149583333D01*
X227704761Y-150535714D02*
X227752380Y-150678571D01*
X227752380Y-150916666D01*
X227704761Y-151011904D01*
X227657142Y-151059523D01*
X227561904Y-151107142D01*
X227466666Y-151107142D01*
X227371428Y-151059523D01*
X227323809Y-151011904D01*
X227276190Y-150916666D01*
X227228571Y-150726190D01*
X227180952Y-150630952D01*
X227133333Y-150583333D01*
X227038095Y-150535714D01*
X226942857Y-150535714D01*
X226847619Y-150583333D01*
X226800000Y-150630952D01*
X226752380Y-150726190D01*
X226752380Y-150964285D01*
X226800000Y-151107142D01*
X226752380Y-151392857D02*
X226752380Y-151964285D01*
X227752380Y-151678571D02*
X226752380Y-151678571D01*
X225804761Y-148638095D02*
X225852380Y-148780952D01*
X225852380Y-149019047D01*
X225804761Y-149114285D01*
X225757142Y-149161904D01*
X225661904Y-149209523D01*
X225566666Y-149209523D01*
X225471428Y-149161904D01*
X225423809Y-149114285D01*
X225376190Y-149019047D01*
X225328571Y-148828571D01*
X225280952Y-148733333D01*
X225233333Y-148685714D01*
X225138095Y-148638095D01*
X225042857Y-148638095D01*
X224947619Y-148685714D01*
X224900000Y-148733333D01*
X224852380Y-148828571D01*
X224852380Y-149066666D01*
X224900000Y-149209523D01*
X224852380Y-149542857D02*
X225852380Y-149780952D01*
X225138095Y-149971428D01*
X225852380Y-150161904D01*
X224852380Y-150400000D01*
X225757142Y-151352380D02*
X225804761Y-151304761D01*
X225852380Y-151161904D01*
X225852380Y-151066666D01*
X225804761Y-150923809D01*
X225709523Y-150828571D01*
X225614285Y-150780952D01*
X225423809Y-150733333D01*
X225280952Y-150733333D01*
X225090476Y-150780952D01*
X224995238Y-150828571D01*
X224900000Y-150923809D01*
X224852380Y-151066666D01*
X224852380Y-151161904D01*
X224900000Y-151304761D01*
X224947619Y-151352380D01*
X225852380Y-152257142D02*
X225852380Y-151780952D01*
X224852380Y-151780952D01*
X225852380Y-152590476D02*
X224852380Y-152590476D01*
X225852380Y-153161904D02*
X225280952Y-152733333D01*
X224852380Y-153161904D02*
X225423809Y-152590476D01*
X220852380Y-148666666D02*
X221852380Y-149000000D01*
X220852380Y-149333333D01*
X221757142Y-150238095D02*
X221804761Y-150190476D01*
X221852380Y-150047619D01*
X221852380Y-149952380D01*
X221804761Y-149809523D01*
X221709523Y-149714285D01*
X221614285Y-149666666D01*
X221423809Y-149619047D01*
X221280952Y-149619047D01*
X221090476Y-149666666D01*
X220995238Y-149714285D01*
X220900000Y-149809523D01*
X220852380Y-149952380D01*
X220852380Y-150047619D01*
X220900000Y-150190476D01*
X220947619Y-150238095D01*
X221757142Y-151238095D02*
X221804761Y-151190476D01*
X221852380Y-151047619D01*
X221852380Y-150952380D01*
X221804761Y-150809523D01*
X221709523Y-150714285D01*
X221614285Y-150666666D01*
X221423809Y-150619047D01*
X221280952Y-150619047D01*
X221090476Y-150666666D01*
X220995238Y-150714285D01*
X220900000Y-150809523D01*
X220852380Y-150952380D01*
X220852380Y-151047619D01*
X220900000Y-151190476D01*
X220947619Y-151238095D01*
X223804761Y-148680952D02*
X223852380Y-148823809D01*
X223852380Y-149061904D01*
X223804761Y-149157142D01*
X223757142Y-149204761D01*
X223661904Y-149252380D01*
X223566666Y-149252380D01*
X223471428Y-149204761D01*
X223423809Y-149157142D01*
X223376190Y-149061904D01*
X223328571Y-148871428D01*
X223280952Y-148776190D01*
X223233333Y-148728571D01*
X223138095Y-148680952D01*
X223042857Y-148680952D01*
X222947619Y-148728571D01*
X222900000Y-148776190D01*
X222852380Y-148871428D01*
X222852380Y-149109523D01*
X222900000Y-149252380D01*
X222852380Y-149585714D02*
X223852380Y-149823809D01*
X223138095Y-150014285D01*
X223852380Y-150204761D01*
X222852380Y-150442857D01*
X223852380Y-150823809D02*
X222852380Y-150823809D01*
X222852380Y-151061904D01*
X222900000Y-151204761D01*
X222995238Y-151300000D01*
X223090476Y-151347619D01*
X223280952Y-151395238D01*
X223423809Y-151395238D01*
X223614285Y-151347619D01*
X223709523Y-151300000D01*
X223804761Y-151204761D01*
X223852380Y-151061904D01*
X223852380Y-150823809D01*
X223852380Y-151823809D02*
X222852380Y-151823809D01*
X222852380Y-152490476D02*
X222852380Y-152680952D01*
X222900000Y-152776190D01*
X222995238Y-152871428D01*
X223185714Y-152919047D01*
X223519047Y-152919047D01*
X223709523Y-152871428D01*
X223804761Y-152776190D01*
X223852380Y-152680952D01*
X223852380Y-152490476D01*
X223804761Y-152395238D01*
X223709523Y-152300000D01*
X223519047Y-152252380D01*
X223185714Y-152252380D01*
X222995238Y-152300000D01*
X222900000Y-152395238D01*
X222852380Y-152490476D01*
D12*
%TO.C,R12*%
X219550000Y-149286666D02*
X219783333Y-148953333D01*
X219950000Y-149286666D02*
X219950000Y-148586666D01*
X219683333Y-148586666D01*
X219616666Y-148620000D01*
X219583333Y-148653333D01*
X219550000Y-148720000D01*
X219550000Y-148820000D01*
X219583333Y-148886666D01*
X219616666Y-148920000D01*
X219683333Y-148953333D01*
X219950000Y-148953333D01*
X218883333Y-149286666D02*
X219283333Y-149286666D01*
X219083333Y-149286666D02*
X219083333Y-148586666D01*
X219150000Y-148686666D01*
X219216666Y-148753333D01*
X219283333Y-148786666D01*
X218616666Y-148653333D02*
X218583333Y-148620000D01*
X218516666Y-148586666D01*
X218350000Y-148586666D01*
X218283333Y-148620000D01*
X218250000Y-148653333D01*
X218216666Y-148720000D01*
X218216666Y-148786666D01*
X218250000Y-148886666D01*
X218650000Y-149286666D01*
X218216666Y-149286666D01*
%TO.C,R11*%
X216600000Y-152091666D02*
X216833333Y-151758333D01*
X217000000Y-152091666D02*
X217000000Y-151391666D01*
X216733333Y-151391666D01*
X216666666Y-151425000D01*
X216633333Y-151458333D01*
X216600000Y-151525000D01*
X216600000Y-151625000D01*
X216633333Y-151691666D01*
X216666666Y-151725000D01*
X216733333Y-151758333D01*
X217000000Y-151758333D01*
X215933333Y-152091666D02*
X216333333Y-152091666D01*
X216133333Y-152091666D02*
X216133333Y-151391666D01*
X216200000Y-151491666D01*
X216266666Y-151558333D01*
X216333333Y-151591666D01*
X215266666Y-152091666D02*
X215666666Y-152091666D01*
X215466666Y-152091666D02*
X215466666Y-151391666D01*
X215533333Y-151491666D01*
X215600000Y-151558333D01*
X215666666Y-151591666D01*
%TO.C,R10*%
X216600000Y-150591666D02*
X216833333Y-150258333D01*
X217000000Y-150591666D02*
X217000000Y-149891666D01*
X216733333Y-149891666D01*
X216666666Y-149925000D01*
X216633333Y-149958333D01*
X216600000Y-150025000D01*
X216600000Y-150125000D01*
X216633333Y-150191666D01*
X216666666Y-150225000D01*
X216733333Y-150258333D01*
X217000000Y-150258333D01*
X215933333Y-150591666D02*
X216333333Y-150591666D01*
X216133333Y-150591666D02*
X216133333Y-149891666D01*
X216200000Y-149991666D01*
X216266666Y-150058333D01*
X216333333Y-150091666D01*
X215500000Y-149891666D02*
X215433333Y-149891666D01*
X215366666Y-149925000D01*
X215333333Y-149958333D01*
X215300000Y-150025000D01*
X215266666Y-150158333D01*
X215266666Y-150325000D01*
X215300000Y-150458333D01*
X215333333Y-150525000D01*
X215366666Y-150558333D01*
X215433333Y-150591666D01*
X215500000Y-150591666D01*
X215566666Y-150558333D01*
X215600000Y-150525000D01*
X215633333Y-150458333D01*
X215666666Y-150325000D01*
X215666666Y-150158333D01*
X215633333Y-150025000D01*
X215600000Y-149958333D01*
X215566666Y-149925000D01*
X215500000Y-149891666D01*
%TO.C,R9*%
X215916666Y-149091666D02*
X216150000Y-148758333D01*
X216316666Y-149091666D02*
X216316666Y-148391666D01*
X216050000Y-148391666D01*
X215983333Y-148425000D01*
X215950000Y-148458333D01*
X215916666Y-148525000D01*
X215916666Y-148625000D01*
X215950000Y-148691666D01*
X215983333Y-148725000D01*
X216050000Y-148758333D01*
X216316666Y-148758333D01*
X215583333Y-149091666D02*
X215450000Y-149091666D01*
X215383333Y-149058333D01*
X215350000Y-149025000D01*
X215283333Y-148925000D01*
X215250000Y-148791666D01*
X215250000Y-148525000D01*
X215283333Y-148458333D01*
X215316666Y-148425000D01*
X215383333Y-148391666D01*
X215516666Y-148391666D01*
X215583333Y-148425000D01*
X215616666Y-148458333D01*
X215650000Y-148525000D01*
X215650000Y-148691666D01*
X215616666Y-148758333D01*
X215583333Y-148791666D01*
X215516666Y-148825000D01*
X215383333Y-148825000D01*
X215316666Y-148791666D01*
X215283333Y-148758333D01*
X215250000Y-148691666D01*
%TO.C,R8*%
X215941666Y-147666666D02*
X216175000Y-147333333D01*
X216341666Y-147666666D02*
X216341666Y-146966666D01*
X216075000Y-146966666D01*
X216008333Y-147000000D01*
X215975000Y-147033333D01*
X215941666Y-147100000D01*
X215941666Y-147200000D01*
X215975000Y-147266666D01*
X216008333Y-147300000D01*
X216075000Y-147333333D01*
X216341666Y-147333333D01*
X215541666Y-147266666D02*
X215608333Y-147233333D01*
X215641666Y-147200000D01*
X215675000Y-147133333D01*
X215675000Y-147100000D01*
X215641666Y-147033333D01*
X215608333Y-147000000D01*
X215541666Y-146966666D01*
X215408333Y-146966666D01*
X215341666Y-147000000D01*
X215308333Y-147033333D01*
X215275000Y-147100000D01*
X215275000Y-147133333D01*
X215308333Y-147200000D01*
X215341666Y-147233333D01*
X215408333Y-147266666D01*
X215541666Y-147266666D01*
X215608333Y-147300000D01*
X215641666Y-147333333D01*
X215675000Y-147400000D01*
X215675000Y-147533333D01*
X215641666Y-147600000D01*
X215608333Y-147633333D01*
X215541666Y-147666666D01*
X215408333Y-147666666D01*
X215341666Y-147633333D01*
X215308333Y-147600000D01*
X215275000Y-147533333D01*
X215275000Y-147400000D01*
X215308333Y-147333333D01*
X215341666Y-147300000D01*
X215408333Y-147266666D01*
%TO.C,J2*%
X240433333Y-142966666D02*
X240433333Y-143466666D01*
X240466666Y-143566666D01*
X240533333Y-143633333D01*
X240633333Y-143666666D01*
X240700000Y-143666666D01*
X240133333Y-143033333D02*
X240100000Y-143000000D01*
X240033333Y-142966666D01*
X239866666Y-142966666D01*
X239800000Y-143000000D01*
X239766666Y-143033333D01*
X239733333Y-143100000D01*
X239733333Y-143166666D01*
X239766666Y-143266666D01*
X240166666Y-143666666D01*
X239733333Y-143666666D01*
%TO.C,C14*%
X183400000Y-148625000D02*
X183433333Y-148658333D01*
X183533333Y-148691666D01*
X183600000Y-148691666D01*
X183700000Y-148658333D01*
X183766666Y-148591666D01*
X183800000Y-148525000D01*
X183833333Y-148391666D01*
X183833333Y-148291666D01*
X183800000Y-148158333D01*
X183766666Y-148091666D01*
X183700000Y-148025000D01*
X183600000Y-147991666D01*
X183533333Y-147991666D01*
X183433333Y-148025000D01*
X183400000Y-148058333D01*
X182733333Y-148691666D02*
X183133333Y-148691666D01*
X182933333Y-148691666D02*
X182933333Y-147991666D01*
X183000000Y-148091666D01*
X183066666Y-148158333D01*
X183133333Y-148191666D01*
X182133333Y-148225000D02*
X182133333Y-148691666D01*
X182300000Y-147958333D02*
X182466666Y-148458333D01*
X182033333Y-148458333D01*
%TO.C,C13*%
X191375000Y-153900000D02*
X191408333Y-153866666D01*
X191441666Y-153766666D01*
X191441666Y-153700000D01*
X191408333Y-153600000D01*
X191341666Y-153533333D01*
X191275000Y-153500000D01*
X191141666Y-153466666D01*
X191041666Y-153466666D01*
X190908333Y-153500000D01*
X190841666Y-153533333D01*
X190775000Y-153600000D01*
X190741666Y-153700000D01*
X190741666Y-153766666D01*
X190775000Y-153866666D01*
X190808333Y-153900000D01*
X191441666Y-154566666D02*
X191441666Y-154166666D01*
X191441666Y-154366666D02*
X190741666Y-154366666D01*
X190841666Y-154300000D01*
X190908333Y-154233333D01*
X190941666Y-154166666D01*
X190741666Y-154800000D02*
X190741666Y-155233333D01*
X191008333Y-155000000D01*
X191008333Y-155100000D01*
X191041666Y-155166666D01*
X191075000Y-155200000D01*
X191141666Y-155233333D01*
X191308333Y-155233333D01*
X191375000Y-155200000D01*
X191408333Y-155166666D01*
X191441666Y-155100000D01*
X191441666Y-154900000D01*
X191408333Y-154833333D01*
X191375000Y-154800000D01*
%TO.C,C12*%
X195900000Y-153900000D02*
X195933333Y-153866666D01*
X195966666Y-153766666D01*
X195966666Y-153700000D01*
X195933333Y-153600000D01*
X195866666Y-153533333D01*
X195800000Y-153500000D01*
X195666666Y-153466666D01*
X195566666Y-153466666D01*
X195433333Y-153500000D01*
X195366666Y-153533333D01*
X195300000Y-153600000D01*
X195266666Y-153700000D01*
X195266666Y-153766666D01*
X195300000Y-153866666D01*
X195333333Y-153900000D01*
X195966666Y-154566666D02*
X195966666Y-154166666D01*
X195966666Y-154366666D02*
X195266666Y-154366666D01*
X195366666Y-154300000D01*
X195433333Y-154233333D01*
X195466666Y-154166666D01*
X195333333Y-154833333D02*
X195300000Y-154866666D01*
X195266666Y-154933333D01*
X195266666Y-155100000D01*
X195300000Y-155166666D01*
X195333333Y-155200000D01*
X195400000Y-155233333D01*
X195466666Y-155233333D01*
X195566666Y-155200000D01*
X195966666Y-154800000D01*
X195966666Y-155233333D01*
%TO.C,C11*%
X199070000Y-147150000D02*
X199103333Y-147116666D01*
X199136666Y-147016666D01*
X199136666Y-146950000D01*
X199103333Y-146850000D01*
X199036666Y-146783333D01*
X198970000Y-146750000D01*
X198836666Y-146716666D01*
X198736666Y-146716666D01*
X198603333Y-146750000D01*
X198536666Y-146783333D01*
X198470000Y-146850000D01*
X198436666Y-146950000D01*
X198436666Y-147016666D01*
X198470000Y-147116666D01*
X198503333Y-147150000D01*
X199136666Y-147816666D02*
X199136666Y-147416666D01*
X199136666Y-147616666D02*
X198436666Y-147616666D01*
X198536666Y-147550000D01*
X198603333Y-147483333D01*
X198636666Y-147416666D01*
X199136666Y-148483333D02*
X199136666Y-148083333D01*
X199136666Y-148283333D02*
X198436666Y-148283333D01*
X198536666Y-148216666D01*
X198603333Y-148150000D01*
X198636666Y-148083333D01*
%TO.C,C10*%
X140060000Y-136700000D02*
X140093333Y-136666666D01*
X140126666Y-136566666D01*
X140126666Y-136500000D01*
X140093333Y-136400000D01*
X140026666Y-136333333D01*
X139960000Y-136300000D01*
X139826666Y-136266666D01*
X139726666Y-136266666D01*
X139593333Y-136300000D01*
X139526666Y-136333333D01*
X139460000Y-136400000D01*
X139426666Y-136500000D01*
X139426666Y-136566666D01*
X139460000Y-136666666D01*
X139493333Y-136700000D01*
X140126666Y-137366666D02*
X140126666Y-136966666D01*
X140126666Y-137166666D02*
X139426666Y-137166666D01*
X139526666Y-137100000D01*
X139593333Y-137033333D01*
X139626666Y-136966666D01*
X139426666Y-137800000D02*
X139426666Y-137866666D01*
X139460000Y-137933333D01*
X139493333Y-137966666D01*
X139560000Y-138000000D01*
X139693333Y-138033333D01*
X139860000Y-138033333D01*
X139993333Y-138000000D01*
X140060000Y-137966666D01*
X140093333Y-137933333D01*
X140126666Y-137866666D01*
X140126666Y-137800000D01*
X140093333Y-137733333D01*
X140060000Y-137700000D01*
X139993333Y-137666666D01*
X139860000Y-137633333D01*
X139693333Y-137633333D01*
X139560000Y-137666666D01*
X139493333Y-137700000D01*
X139460000Y-137733333D01*
X139426666Y-137800000D01*
%TO.C,U1*%
X193483333Y-137416666D02*
X193483333Y-137983333D01*
X193450000Y-138050000D01*
X193416666Y-138083333D01*
X193350000Y-138116666D01*
X193216666Y-138116666D01*
X193150000Y-138083333D01*
X193116666Y-138050000D01*
X193083333Y-137983333D01*
X193083333Y-137416666D01*
X192383333Y-138116666D02*
X192783333Y-138116666D01*
X192583333Y-138116666D02*
X192583333Y-137416666D01*
X192650000Y-137516666D01*
X192716666Y-137583333D01*
X192783333Y-137616666D01*
%TO.C,U5*%
X171266666Y-135966666D02*
X171833333Y-135966666D01*
X171900000Y-136000000D01*
X171933333Y-136033333D01*
X171966666Y-136100000D01*
X171966666Y-136233333D01*
X171933333Y-136300000D01*
X171900000Y-136333333D01*
X171833333Y-136366666D01*
X171266666Y-136366666D01*
X171266666Y-137033333D02*
X171266666Y-136700000D01*
X171600000Y-136666666D01*
X171566666Y-136700000D01*
X171533333Y-136766666D01*
X171533333Y-136933333D01*
X171566666Y-137000000D01*
X171600000Y-137033333D01*
X171666666Y-137066666D01*
X171833333Y-137066666D01*
X171900000Y-137033333D01*
X171933333Y-137000000D01*
X171966666Y-136933333D01*
X171966666Y-136766666D01*
X171933333Y-136700000D01*
X171900000Y-136666666D01*
%TO.C,R3*%
X189916666Y-153933333D02*
X189583333Y-153700000D01*
X189916666Y-153533333D02*
X189216666Y-153533333D01*
X189216666Y-153800000D01*
X189250000Y-153866666D01*
X189283333Y-153900000D01*
X189350000Y-153933333D01*
X189450000Y-153933333D01*
X189516666Y-153900000D01*
X189550000Y-153866666D01*
X189583333Y-153800000D01*
X189583333Y-153533333D01*
X189216666Y-154166666D02*
X189216666Y-154600000D01*
X189483333Y-154366666D01*
X189483333Y-154466666D01*
X189516666Y-154533333D01*
X189550000Y-154566666D01*
X189616666Y-154600000D01*
X189783333Y-154600000D01*
X189850000Y-154566666D01*
X189883333Y-154533333D01*
X189916666Y-154466666D01*
X189916666Y-154266666D01*
X189883333Y-154200000D01*
X189850000Y-154166666D01*
%TO.C,C4*%
X201650000Y-144233333D02*
X201683333Y-144200000D01*
X201716666Y-144100000D01*
X201716666Y-144033333D01*
X201683333Y-143933333D01*
X201616666Y-143866666D01*
X201550000Y-143833333D01*
X201416666Y-143800000D01*
X201316666Y-143800000D01*
X201183333Y-143833333D01*
X201116666Y-143866666D01*
X201050000Y-143933333D01*
X201016666Y-144033333D01*
X201016666Y-144100000D01*
X201050000Y-144200000D01*
X201083333Y-144233333D01*
X201250000Y-144833333D02*
X201716666Y-144833333D01*
X200983333Y-144666666D02*
X201483333Y-144500000D01*
X201483333Y-144933333D01*
%TO.C,C7*%
X188350000Y-151283333D02*
X188383333Y-151250000D01*
X188416666Y-151150000D01*
X188416666Y-151083333D01*
X188383333Y-150983333D01*
X188316666Y-150916666D01*
X188250000Y-150883333D01*
X188116666Y-150850000D01*
X188016666Y-150850000D01*
X187883333Y-150883333D01*
X187816666Y-150916666D01*
X187750000Y-150983333D01*
X187716666Y-151083333D01*
X187716666Y-151150000D01*
X187750000Y-151250000D01*
X187783333Y-151283333D01*
X187716666Y-151516666D02*
X187716666Y-151983333D01*
X188416666Y-151683333D01*
%TO.C,L1*%
X160116666Y-144316666D02*
X160450000Y-144316666D01*
X160450000Y-143616666D01*
X159516666Y-144316666D02*
X159916666Y-144316666D01*
X159716666Y-144316666D02*
X159716666Y-143616666D01*
X159783333Y-143716666D01*
X159850000Y-143783333D01*
X159916666Y-143816666D01*
%TO.C,U2*%
X206733333Y-150491666D02*
X206733333Y-151058333D01*
X206700000Y-151125000D01*
X206666666Y-151158333D01*
X206600000Y-151191666D01*
X206466666Y-151191666D01*
X206400000Y-151158333D01*
X206366666Y-151125000D01*
X206333333Y-151058333D01*
X206333333Y-150491666D01*
X206033333Y-150558333D02*
X206000000Y-150525000D01*
X205933333Y-150491666D01*
X205766666Y-150491666D01*
X205700000Y-150525000D01*
X205666666Y-150558333D01*
X205633333Y-150625000D01*
X205633333Y-150691666D01*
X205666666Y-150791666D01*
X206066666Y-151191666D01*
X205633333Y-151191666D01*
%TO.C,C5*%
X197850000Y-136083333D02*
X197883333Y-136050000D01*
X197916666Y-135950000D01*
X197916666Y-135883333D01*
X197883333Y-135783333D01*
X197816666Y-135716666D01*
X197750000Y-135683333D01*
X197616666Y-135650000D01*
X197516666Y-135650000D01*
X197383333Y-135683333D01*
X197316666Y-135716666D01*
X197250000Y-135783333D01*
X197216666Y-135883333D01*
X197216666Y-135950000D01*
X197250000Y-136050000D01*
X197283333Y-136083333D01*
X197216666Y-136716666D02*
X197216666Y-136383333D01*
X197550000Y-136350000D01*
X197516666Y-136383333D01*
X197483333Y-136450000D01*
X197483333Y-136616666D01*
X197516666Y-136683333D01*
X197550000Y-136716666D01*
X197616666Y-136750000D01*
X197783333Y-136750000D01*
X197850000Y-136716666D01*
X197883333Y-136683333D01*
X197916666Y-136616666D01*
X197916666Y-136450000D01*
X197883333Y-136383333D01*
X197850000Y-136350000D01*
%TO.C,C3*%
X232516666Y-80950000D02*
X232550000Y-80983333D01*
X232650000Y-81016666D01*
X232716666Y-81016666D01*
X232816666Y-80983333D01*
X232883333Y-80916666D01*
X232916666Y-80850000D01*
X232950000Y-80716666D01*
X232950000Y-80616666D01*
X232916666Y-80483333D01*
X232883333Y-80416666D01*
X232816666Y-80350000D01*
X232716666Y-80316666D01*
X232650000Y-80316666D01*
X232550000Y-80350000D01*
X232516666Y-80383333D01*
X232283333Y-80316666D02*
X231850000Y-80316666D01*
X232083333Y-80583333D01*
X231983333Y-80583333D01*
X231916666Y-80616666D01*
X231883333Y-80650000D01*
X231850000Y-80716666D01*
X231850000Y-80883333D01*
X231883333Y-80950000D01*
X231916666Y-80983333D01*
X231983333Y-81016666D01*
X232183333Y-81016666D01*
X232250000Y-80983333D01*
X232283333Y-80950000D01*
%TO.C,R4*%
X201041666Y-153883333D02*
X200708333Y-153650000D01*
X201041666Y-153483333D02*
X200341666Y-153483333D01*
X200341666Y-153750000D01*
X200375000Y-153816666D01*
X200408333Y-153850000D01*
X200475000Y-153883333D01*
X200575000Y-153883333D01*
X200641666Y-153850000D01*
X200675000Y-153816666D01*
X200708333Y-153750000D01*
X200708333Y-153483333D01*
X200575000Y-154483333D02*
X201041666Y-154483333D01*
X200308333Y-154316666D02*
X200808333Y-154150000D01*
X200808333Y-154583333D01*
%TO.C,R2*%
X192916666Y-153933333D02*
X192583333Y-153700000D01*
X192916666Y-153533333D02*
X192216666Y-153533333D01*
X192216666Y-153800000D01*
X192250000Y-153866666D01*
X192283333Y-153900000D01*
X192350000Y-153933333D01*
X192450000Y-153933333D01*
X192516666Y-153900000D01*
X192550000Y-153866666D01*
X192583333Y-153800000D01*
X192583333Y-153533333D01*
X192283333Y-154200000D02*
X192250000Y-154233333D01*
X192216666Y-154300000D01*
X192216666Y-154466666D01*
X192250000Y-154533333D01*
X192283333Y-154566666D01*
X192350000Y-154600000D01*
X192416666Y-154600000D01*
X192516666Y-154566666D01*
X192916666Y-154166666D01*
X192916666Y-154600000D01*
%TO.C,U3*%
X148183333Y-143696666D02*
X148183333Y-144263333D01*
X148150000Y-144330000D01*
X148116666Y-144363333D01*
X148050000Y-144396666D01*
X147916666Y-144396666D01*
X147850000Y-144363333D01*
X147816666Y-144330000D01*
X147783333Y-144263333D01*
X147783333Y-143696666D01*
X147516666Y-143696666D02*
X147083333Y-143696666D01*
X147316666Y-143963333D01*
X147216666Y-143963333D01*
X147150000Y-143996666D01*
X147116666Y-144030000D01*
X147083333Y-144096666D01*
X147083333Y-144263333D01*
X147116666Y-144330000D01*
X147150000Y-144363333D01*
X147216666Y-144396666D01*
X147416666Y-144396666D01*
X147483333Y-144363333D01*
X147516666Y-144330000D01*
%TO.C,U4*%
X164886666Y-124166666D02*
X165453333Y-124166666D01*
X165520000Y-124200000D01*
X165553333Y-124233333D01*
X165586666Y-124300000D01*
X165586666Y-124433333D01*
X165553333Y-124500000D01*
X165520000Y-124533333D01*
X165453333Y-124566666D01*
X164886666Y-124566666D01*
X165120000Y-125200000D02*
X165586666Y-125200000D01*
X164853333Y-125033333D02*
X165353333Y-124866666D01*
X165353333Y-125300000D01*
%TO.C,L2*%
X152916666Y-144016666D02*
X153250000Y-144016666D01*
X153250000Y-143316666D01*
X152716666Y-143383333D02*
X152683333Y-143350000D01*
X152616666Y-143316666D01*
X152450000Y-143316666D01*
X152383333Y-143350000D01*
X152350000Y-143383333D01*
X152316666Y-143450000D01*
X152316666Y-143516666D01*
X152350000Y-143616666D01*
X152750000Y-144016666D01*
X152316666Y-144016666D01*
%TO.C,C2*%
X209950000Y-150883333D02*
X209983333Y-150850000D01*
X210016666Y-150750000D01*
X210016666Y-150683333D01*
X209983333Y-150583333D01*
X209916666Y-150516666D01*
X209850000Y-150483333D01*
X209716666Y-150450000D01*
X209616666Y-150450000D01*
X209483333Y-150483333D01*
X209416666Y-150516666D01*
X209350000Y-150583333D01*
X209316666Y-150683333D01*
X209316666Y-150750000D01*
X209350000Y-150850000D01*
X209383333Y-150883333D01*
X209383333Y-151150000D02*
X209350000Y-151183333D01*
X209316666Y-151250000D01*
X209316666Y-151416666D01*
X209350000Y-151483333D01*
X209383333Y-151516666D01*
X209450000Y-151550000D01*
X209516666Y-151550000D01*
X209616666Y-151516666D01*
X210016666Y-151116666D01*
X210016666Y-151550000D01*
%TO.C,R6*%
X198941666Y-153908333D02*
X198608333Y-153675000D01*
X198941666Y-153508333D02*
X198241666Y-153508333D01*
X198241666Y-153775000D01*
X198275000Y-153841666D01*
X198308333Y-153875000D01*
X198375000Y-153908333D01*
X198475000Y-153908333D01*
X198541666Y-153875000D01*
X198575000Y-153841666D01*
X198608333Y-153775000D01*
X198608333Y-153508333D01*
X198241666Y-154508333D02*
X198241666Y-154375000D01*
X198275000Y-154308333D01*
X198308333Y-154275000D01*
X198408333Y-154208333D01*
X198541666Y-154175000D01*
X198808333Y-154175000D01*
X198875000Y-154208333D01*
X198908333Y-154241666D01*
X198941666Y-154308333D01*
X198941666Y-154441666D01*
X198908333Y-154508333D01*
X198875000Y-154541666D01*
X198808333Y-154575000D01*
X198641666Y-154575000D01*
X198575000Y-154541666D01*
X198541666Y-154508333D01*
X198508333Y-154441666D01*
X198508333Y-154308333D01*
X198541666Y-154241666D01*
X198575000Y-154208333D01*
X198641666Y-154175000D01*
%TO.C,R7*%
X197441666Y-153908333D02*
X197108333Y-153675000D01*
X197441666Y-153508333D02*
X196741666Y-153508333D01*
X196741666Y-153775000D01*
X196775000Y-153841666D01*
X196808333Y-153875000D01*
X196875000Y-153908333D01*
X196975000Y-153908333D01*
X197041666Y-153875000D01*
X197075000Y-153841666D01*
X197108333Y-153775000D01*
X197108333Y-153508333D01*
X196741666Y-154141666D02*
X196741666Y-154608333D01*
X197441666Y-154308333D01*
%TO.C,R1*%
X194416666Y-153958333D02*
X194083333Y-153725000D01*
X194416666Y-153558333D02*
X193716666Y-153558333D01*
X193716666Y-153825000D01*
X193750000Y-153891666D01*
X193783333Y-153925000D01*
X193850000Y-153958333D01*
X193950000Y-153958333D01*
X194016666Y-153925000D01*
X194050000Y-153891666D01*
X194083333Y-153825000D01*
X194083333Y-153558333D01*
X194416666Y-154625000D02*
X194416666Y-154225000D01*
X194416666Y-154425000D02*
X193716666Y-154425000D01*
X193816666Y-154358333D01*
X193883333Y-154291666D01*
X193916666Y-154225000D01*
%TO.C,C1*%
X201966666Y-140020000D02*
X202000000Y-140053333D01*
X202100000Y-140086666D01*
X202166666Y-140086666D01*
X202266666Y-140053333D01*
X202333333Y-139986666D01*
X202366666Y-139920000D01*
X202400000Y-139786666D01*
X202400000Y-139686666D01*
X202366666Y-139553333D01*
X202333333Y-139486666D01*
X202266666Y-139420000D01*
X202166666Y-139386666D01*
X202100000Y-139386666D01*
X202000000Y-139420000D01*
X201966666Y-139453333D01*
X201300000Y-140086666D02*
X201700000Y-140086666D01*
X201500000Y-140086666D02*
X201500000Y-139386666D01*
X201566666Y-139486666D01*
X201633333Y-139553333D01*
X201700000Y-139586666D01*
%TO.C,C9*%
X146350000Y-119783333D02*
X146383333Y-119750000D01*
X146416666Y-119650000D01*
X146416666Y-119583333D01*
X146383333Y-119483333D01*
X146316666Y-119416666D01*
X146250000Y-119383333D01*
X146116666Y-119350000D01*
X146016666Y-119350000D01*
X145883333Y-119383333D01*
X145816666Y-119416666D01*
X145750000Y-119483333D01*
X145716666Y-119583333D01*
X145716666Y-119650000D01*
X145750000Y-119750000D01*
X145783333Y-119783333D01*
X146416666Y-120116666D02*
X146416666Y-120250000D01*
X146383333Y-120316666D01*
X146350000Y-120350000D01*
X146250000Y-120416666D01*
X146116666Y-120450000D01*
X145850000Y-120450000D01*
X145783333Y-120416666D01*
X145750000Y-120383333D01*
X145716666Y-120316666D01*
X145716666Y-120183333D01*
X145750000Y-120116666D01*
X145783333Y-120083333D01*
X145850000Y-120050000D01*
X146016666Y-120050000D01*
X146083333Y-120083333D01*
X146116666Y-120116666D01*
X146150000Y-120183333D01*
X146150000Y-120316666D01*
X146116666Y-120383333D01*
X146083333Y-120416666D01*
X146016666Y-120450000D01*
%TO.C,C8*%
X192750000Y-133083333D02*
X192783333Y-133050000D01*
X192816666Y-132950000D01*
X192816666Y-132883333D01*
X192783333Y-132783333D01*
X192716666Y-132716666D01*
X192650000Y-132683333D01*
X192516666Y-132650000D01*
X192416666Y-132650000D01*
X192283333Y-132683333D01*
X192216666Y-132716666D01*
X192150000Y-132783333D01*
X192116666Y-132883333D01*
X192116666Y-132950000D01*
X192150000Y-133050000D01*
X192183333Y-133083333D01*
X192416666Y-133483333D02*
X192383333Y-133416666D01*
X192350000Y-133383333D01*
X192283333Y-133350000D01*
X192250000Y-133350000D01*
X192183333Y-133383333D01*
X192150000Y-133416666D01*
X192116666Y-133483333D01*
X192116666Y-133616666D01*
X192150000Y-133683333D01*
X192183333Y-133716666D01*
X192250000Y-133750000D01*
X192283333Y-133750000D01*
X192350000Y-133716666D01*
X192383333Y-133683333D01*
X192416666Y-133616666D01*
X192416666Y-133483333D01*
X192450000Y-133416666D01*
X192483333Y-133383333D01*
X192550000Y-133350000D01*
X192683333Y-133350000D01*
X192750000Y-133383333D01*
X192783333Y-133416666D01*
X192816666Y-133483333D01*
X192816666Y-133616666D01*
X192783333Y-133683333D01*
X192750000Y-133716666D01*
X192683333Y-133750000D01*
X192550000Y-133750000D01*
X192483333Y-133716666D01*
X192450000Y-133683333D01*
X192416666Y-133616666D01*
%TO.C,L3*%
X159516666Y-128016666D02*
X159850000Y-128016666D01*
X159850000Y-127316666D01*
X159350000Y-127316666D02*
X158916666Y-127316666D01*
X159150000Y-127583333D01*
X159050000Y-127583333D01*
X158983333Y-127616666D01*
X158950000Y-127650000D01*
X158916666Y-127716666D01*
X158916666Y-127883333D01*
X158950000Y-127950000D01*
X158983333Y-127983333D01*
X159050000Y-128016666D01*
X159250000Y-128016666D01*
X159316666Y-127983333D01*
X159350000Y-127950000D01*
%TO.C,C6*%
X203000000Y-150883333D02*
X203033333Y-150850000D01*
X203066666Y-150750000D01*
X203066666Y-150683333D01*
X203033333Y-150583333D01*
X202966666Y-150516666D01*
X202900000Y-150483333D01*
X202766666Y-150450000D01*
X202666666Y-150450000D01*
X202533333Y-150483333D01*
X202466666Y-150516666D01*
X202400000Y-150583333D01*
X202366666Y-150683333D01*
X202366666Y-150750000D01*
X202400000Y-150850000D01*
X202433333Y-150883333D01*
X202366666Y-151483333D02*
X202366666Y-151350000D01*
X202400000Y-151283333D01*
X202433333Y-151250000D01*
X202533333Y-151183333D01*
X202666666Y-151150000D01*
X202933333Y-151150000D01*
X203000000Y-151183333D01*
X203033333Y-151216666D01*
X203066666Y-151283333D01*
X203066666Y-151416666D01*
X203033333Y-151483333D01*
X203000000Y-151516666D01*
X202933333Y-151550000D01*
X202766666Y-151550000D01*
X202700000Y-151516666D01*
X202666666Y-151483333D01*
X202633333Y-151416666D01*
X202633333Y-151283333D01*
X202666666Y-151216666D01*
X202700000Y-151183333D01*
X202766666Y-151150000D01*
%TO.C,R5*%
X183491666Y-146241666D02*
X183725000Y-145908333D01*
X183891666Y-146241666D02*
X183891666Y-145541666D01*
X183625000Y-145541666D01*
X183558333Y-145575000D01*
X183525000Y-145608333D01*
X183491666Y-145675000D01*
X183491666Y-145775000D01*
X183525000Y-145841666D01*
X183558333Y-145875000D01*
X183625000Y-145908333D01*
X183891666Y-145908333D01*
X182858333Y-145541666D02*
X183191666Y-145541666D01*
X183225000Y-145875000D01*
X183191666Y-145841666D01*
X183125000Y-145808333D01*
X182958333Y-145808333D01*
X182891666Y-145841666D01*
X182858333Y-145875000D01*
X182825000Y-145941666D01*
X182825000Y-146108333D01*
X182858333Y-146175000D01*
X182891666Y-146208333D01*
X182958333Y-146241666D01*
X183125000Y-146241666D01*
X183191666Y-146208333D01*
X183225000Y-146175000D01*
D13*
%TO.C,R12*%
X219337258Y-150922500D02*
X218862742Y-150922500D01*
X219337258Y-149877500D02*
X218862742Y-149877500D01*
%TO.C,R11*%
X213062742Y-151227500D02*
X213537258Y-151227500D01*
X213062742Y-152272500D02*
X213537258Y-152272500D01*
%TO.C,R10*%
X213537258Y-150772500D02*
X213062742Y-150772500D01*
X213537258Y-149727500D02*
X213062742Y-149727500D01*
%TO.C,R9*%
X213062742Y-148227500D02*
X213537258Y-148227500D01*
X213062742Y-149272500D02*
X213537258Y-149272500D01*
%TO.C,R8*%
X213537258Y-147772500D02*
X213062742Y-147772500D01*
X213537258Y-146727500D02*
X213062742Y-146727500D01*
%TO.C,J2*%
X237340000Y-146710000D02*
X237340000Y-145110000D01*
X218240000Y-142460000D02*
X218240000Y-146710000D01*
X218240000Y-146710000D02*
X219260000Y-146710000D01*
X219260000Y-145110000D02*
X220540000Y-145110000D01*
X238360000Y-142460000D02*
X238360000Y-146710000D01*
X219260000Y-146710000D02*
X219260000Y-145110000D01*
X220540000Y-145110000D02*
X220540000Y-148000000D01*
X237340000Y-145110000D02*
X236060000Y-145110000D01*
X219960000Y-138890000D02*
X236640000Y-138890000D01*
X238360000Y-146710000D02*
X237340000Y-146710000D01*
%TO.C,C14*%
X185590580Y-148860000D02*
X185309420Y-148860000D01*
X185590580Y-147840000D02*
X185309420Y-147840000D01*
%TO.C,C13*%
X191610000Y-151309420D02*
X191610000Y-151590580D01*
X190590000Y-151309420D02*
X190590000Y-151590580D01*
%TO.C,C12*%
X196110000Y-151309420D02*
X196110000Y-151590580D01*
X195090000Y-151309420D02*
X195090000Y-151590580D01*
%TO.C,C11*%
X200760000Y-147459420D02*
X200760000Y-147740580D01*
X199740000Y-147459420D02*
X199740000Y-147740580D01*
%TO.C,C10*%
X137395000Y-137411252D02*
X137395000Y-136888748D01*
X138865000Y-137411252D02*
X138865000Y-136888748D01*
%TO.C,U1*%
X196110000Y-140040000D02*
X196560000Y-140040000D01*
X196110000Y-147260000D02*
X196560000Y-147260000D01*
X189790000Y-140040000D02*
X189340000Y-140040000D01*
X189340000Y-140040000D02*
X189340000Y-140490000D01*
X189340000Y-147260000D02*
X189340000Y-146810000D01*
X196560000Y-147260000D02*
X196560000Y-146810000D01*
X196560000Y-140490000D02*
X197850000Y-140490000D01*
X189790000Y-147260000D02*
X189340000Y-147260000D01*
X196560000Y-140040000D02*
X196560000Y-140490000D01*
D11*
%TO.C,U5*%
X177525000Y-134725000D02*
X177525000Y-138875000D01*
X172375000Y-133625000D02*
X172375000Y-138875000D01*
D13*
%TO.C,R3*%
X189077500Y-151687258D02*
X189077500Y-151212742D01*
X190122500Y-151687258D02*
X190122500Y-151212742D01*
%TO.C,C4*%
X199740000Y-144209420D02*
X199740000Y-144490580D01*
X200760000Y-144209420D02*
X200760000Y-144490580D01*
%TO.C,C7*%
X187590000Y-149240580D02*
X187590000Y-148959420D01*
X188610000Y-149240580D02*
X188610000Y-148959420D01*
%TO.C,L1*%
X157670000Y-131000000D02*
X157670000Y-142500000D01*
X169820000Y-143150000D02*
X167070000Y-143150000D01*
X169820000Y-130350000D02*
X167070000Y-130350000D01*
X161070000Y-143150000D02*
X158320000Y-143150000D01*
X170470000Y-142500000D02*
X170470000Y-131000000D01*
X161070000Y-130350000D02*
X158320000Y-130350000D01*
X170470000Y-131000000D02*
G75*
G03*
X169820000Y-130350000I-650001J-1D01*
G01*
X169820000Y-143150000D02*
G75*
G03*
X170470000Y-142500000I-1J650001D01*
G01*
X157670000Y-142500000D02*
G75*
G03*
X158320000Y-143150000I650001J1D01*
G01*
X158320000Y-130350000D02*
G75*
G03*
X157670000Y-131000000I1J-650001D01*
G01*
%TO.C,U2*%
X206200000Y-150035000D02*
X206850000Y-150035000D01*
X206200000Y-146915000D02*
X206850000Y-146915000D01*
X206200000Y-146915000D02*
X205550000Y-146915000D01*
X206200000Y-150035000D02*
X204525000Y-150035000D01*
%TO.C,C5*%
X197040000Y-138259420D02*
X197040000Y-138540580D01*
X198060000Y-138259420D02*
X198060000Y-138540580D01*
%TO.C,C3*%
X232721252Y-78395000D02*
X232198748Y-78395000D01*
X232721252Y-79865000D02*
X232198748Y-79865000D01*
%TO.C,R4*%
X201222500Y-151212742D02*
X201222500Y-151687258D01*
X200177500Y-151212742D02*
X200177500Y-151687258D01*
%TO.C,R2*%
X192077500Y-151687258D02*
X192077500Y-151212742D01*
X193122500Y-151687258D02*
X193122500Y-151212742D01*
D11*
%TO.C,U3*%
X149725000Y-149955000D02*
X145575000Y-149955000D01*
X150825000Y-144805000D02*
X145575000Y-144805000D01*
%TO.C,U4*%
X171145000Y-122625000D02*
X171145000Y-126775000D01*
X165995000Y-121525000D02*
X165995000Y-126775000D01*
D13*
%TO.C,L2*%
X153295000Y-130120000D02*
X150545000Y-130120000D01*
X141145000Y-130770000D02*
X141145000Y-142270000D01*
X144545000Y-142920000D02*
X141795000Y-142920000D01*
X144545000Y-130120000D02*
X141795000Y-130120000D01*
X153295000Y-142920000D02*
X150545000Y-142920000D01*
X153945000Y-142270000D02*
X153945000Y-130770000D01*
X141795000Y-130120000D02*
G75*
G03*
X141145000Y-130770000I1J-650001D01*
G01*
X153295000Y-142920000D02*
G75*
G03*
X153945000Y-142270000I-1J650001D01*
G01*
X141145000Y-142270000D02*
G75*
G03*
X141795000Y-142920000I650001J1D01*
G01*
X153945000Y-130770000D02*
G75*
G03*
X153295000Y-130120000I-650001J-1D01*
G01*
%TO.C,C2*%
X209015000Y-148761252D02*
X209015000Y-148238748D01*
X210485000Y-148761252D02*
X210485000Y-148238748D01*
%TO.C,R6*%
X198077500Y-151212742D02*
X198077500Y-151687258D01*
X199122500Y-151212742D02*
X199122500Y-151687258D01*
%TO.C,R7*%
X197622500Y-151212742D02*
X197622500Y-151687258D01*
X196577500Y-151212742D02*
X196577500Y-151687258D01*
%TO.C,R1*%
X193577500Y-151687258D02*
X193577500Y-151212742D01*
X194622500Y-151687258D02*
X194622500Y-151212742D01*
%TO.C,C1*%
X201990580Y-140690000D02*
X201709420Y-140690000D01*
X201990580Y-141710000D02*
X201709420Y-141710000D01*
%TO.C,C9*%
X145515000Y-117461252D02*
X145515000Y-116938748D01*
X146985000Y-117461252D02*
X146985000Y-116938748D01*
%TO.C,C8*%
X191795000Y-131051252D02*
X191795000Y-130528748D01*
X193265000Y-131051252D02*
X193265000Y-130528748D01*
%TO.C,L3*%
X160480000Y-114130000D02*
X157730000Y-114130000D01*
X151730000Y-114130000D02*
X148980000Y-114130000D01*
X161130000Y-126280000D02*
X161130000Y-114780000D01*
X148330000Y-114780000D02*
X148330000Y-126280000D01*
X151730000Y-126930000D02*
X148980000Y-126930000D01*
X160480000Y-126930000D02*
X157730000Y-126930000D01*
X161130000Y-114780000D02*
G75*
G03*
X160480000Y-114130000I-650001J-1D01*
G01*
X148980000Y-114130000D02*
G75*
G03*
X148330000Y-114780000I1J-650001D01*
G01*
X148330000Y-126280000D02*
G75*
G03*
X148980000Y-126930000I650001J1D01*
G01*
X160480000Y-126930000D02*
G75*
G03*
X161130000Y-126280000I-1J650001D01*
G01*
%TO.C,C6*%
X201990000Y-148188748D02*
X201990000Y-148711252D01*
X203460000Y-148188748D02*
X203460000Y-148711252D01*
%TO.C,R5*%
X185787258Y-145377500D02*
X185312742Y-145377500D01*
X185787258Y-146422500D02*
X185312742Y-146422500D01*
%TD*%
M02*
