%TF.GenerationSoftware,KiCad,Pcbnew,6.0.2+dfsg-1*%
%TF.CreationDate,2022-11-03T12:06:54-07:00*%
%TF.ProjectId,slot_track,736c6f74-5f74-4726-9163-6b2e6b696361,rev?*%
%TF.SameCoordinates,Original*%
%TF.FileFunction,Copper,L1,Top*%
%TF.FilePolarity,Positive*%
%FSLAX46Y46*%
G04 Gerber Fmt 4.6, Leading zero omitted, Abs format (unit mm)*
G04 Created by KiCad (PCBNEW 6.0.2+dfsg-1) date 2022-11-03 12:06:54*
%MOMM*%
%LPD*%
G01*
G04 APERTURE LIST*
G04 Aperture macros list*
%AMRoundRect*
0 Rectangle with rounded corners*
0 $1 Rounding radius*
0 $2 $3 $4 $5 $6 $7 $8 $9 X,Y pos of 4 corners*
0 Add a 4 corners polygon primitive as box body*
4,1,4,$2,$3,$4,$5,$6,$7,$8,$9,$2,$3,0*
0 Add four circle primitives for the rounded corners*
1,1,$1+$1,$2,$3*
1,1,$1+$1,$4,$5*
1,1,$1+$1,$6,$7*
1,1,$1+$1,$8,$9*
0 Add four rect primitives between the rounded corners*
20,1,$1+$1,$2,$3,$4,$5,0*
20,1,$1+$1,$4,$5,$6,$7,0*
20,1,$1+$1,$6,$7,$8,$9,0*
20,1,$1+$1,$8,$9,$2,$3,0*%
%AMFreePoly0*
4,1,66,0.000035,7.200035,0.000050,7.200000,0.000050,0.049979,0.035355,0.035355,0.050000,0.000000,0.035355,-0.035355,0.000050,-0.049979,0.000050,-7.200000,0.000035,-7.200035,0.000000,-7.200050,-1.600000,-7.200050,-1.600035,-7.200035,-1.600050,-7.200000,-1.600050,-6.800042,-11.483342,-4.950049,-11.483355,-4.950041,-11.483368,-4.950035,-11.483370,-4.950031,-11.483374,-4.950028,-11.483377,-4.950014,
-11.483383,-4.950000,-11.483383,-4.650000,-11.483377,-4.649986,-11.483374,-4.649972,-11.483370,-4.649969,-11.483368,-4.649965,-11.483355,-4.649959,-11.483342,-4.649951,-1.600050,-2.799958,-1.600050,-2.000042,-11.483342,-0.150049,-11.483355,-0.150041,-11.483368,-0.150035,-11.483370,-0.150031,-11.483374,-0.150028,-11.483377,-0.150014,-11.483383,-0.150000,-11.483383,0.150000,-11.483377,0.150014,-11.483374,0.150028,
-11.483370,0.150031,-11.483368,0.150035,-11.483355,0.150041,-11.483342,0.150049,-1.600050,2.000042,-1.600050,2.799958,-11.483342,4.649951,-11.483355,4.649959,-11.483368,4.649965,-11.483370,4.649969,-11.483374,4.649972,-11.483377,4.649986,-11.483383,4.650000,-11.483383,4.950000,-11.483377,4.950014,-11.483374,4.950028,-11.483370,4.950031,-11.483368,4.950035,-11.483355,4.950041,-11.483342,4.950049,
-1.600050,6.800042,-1.600050,7.200000,-1.600035,7.200035,-1.600000,7.200050,0.000000,7.200050,0.000035,7.200035,0.000035,7.200035,$1*%
%AMFreePoly1*
4,1,109,11.483368,7.200035,11.483383,7.200000,11.483383,7.050000,11.483376,7.049983,11.483373,7.049972,11.483370,7.049970,11.483368,7.049965,11.483353,7.049959,11.483342,7.049951,1.600050,5.199959,1.600050,4.400041,11.483342,2.550049,11.483353,2.550041,11.483368,2.550035,11.483370,2.550030,11.483373,2.550028,11.483376,2.550017,11.483383,2.550000,11.483383,2.250000,11.483376,2.249983,
11.483373,2.249972,11.483370,2.249970,11.483368,2.249965,11.483353,2.249959,11.483342,2.249951,1.600050,0.399959,1.600050,-0.399959,11.483342,-2.249951,11.483353,-2.249959,11.483368,-2.249965,11.483370,-2.249970,11.483373,-2.249972,11.483376,-2.249983,11.483383,-2.250000,11.483383,-2.550000,11.483376,-2.550017,11.483373,-2.550028,11.483370,-2.550030,11.483368,-2.550035,11.483353,-2.550041,
11.483342,-2.550049,1.600050,-4.400041,1.600050,-5.199959,11.483342,-7.049951,11.483353,-7.049959,11.483368,-7.049965,11.483370,-7.049970,11.483373,-7.049972,11.483376,-7.049983,11.483383,-7.050000,11.483383,-7.200000,11.483368,-7.200035,11.483333,-7.200050,-1.600000,-7.200050,-1.600035,-7.200035,-1.600050,-7.200000,-1.600050,-6.800042,-11.483342,-4.950049,-11.483355,-4.950041,-11.483368,-4.950035,
-11.483370,-4.950031,-11.483374,-4.950028,-11.483377,-4.950014,-11.483383,-4.950000,-11.483383,-4.650000,-11.483377,-4.649986,-11.483374,-4.649972,-11.483370,-4.649969,-11.483368,-4.649965,-11.483355,-4.649959,-11.483342,-4.649951,-1.600050,-2.799958,-1.600050,-2.000042,-11.483342,-0.150049,-11.483355,-0.150041,-11.483368,-0.150035,-11.483370,-0.150031,-11.483374,-0.150028,-11.483377,-0.150014,-11.483383,-0.150000,
-11.483383,0.150000,-11.483377,0.150014,-11.483374,0.150028,-11.483370,0.150031,-11.483368,0.150035,-11.483355,0.150041,-11.483342,0.150049,-1.600050,2.000042,-1.600050,2.799958,-11.483342,4.649951,-11.483355,4.649959,-11.483368,4.649965,-11.483370,4.649969,-11.483374,4.649972,-11.483377,4.649986,-11.483383,4.650000,-11.483383,4.950000,-11.483377,4.950014,-11.483374,4.950028,-11.483370,4.950031,
-11.483368,4.950035,-11.483355,4.950041,-11.483342,4.950049,-1.600050,6.800042,-1.600050,7.200000,-1.600035,7.200035,-1.600000,7.200050,11.483333,7.200050,11.483368,7.200035,11.483368,7.200035,$1*%
%AMFreePoly2*
4,1,66,11.483368,7.200035,11.483383,7.200000,11.483383,7.050000,11.483376,7.049983,11.483373,7.049972,11.483370,7.049970,11.483368,7.049965,11.483353,7.049959,11.483342,7.049951,1.600050,5.199959,1.600050,4.400041,11.483342,2.550049,11.483353,2.550041,11.483368,2.550035,11.483370,2.550030,11.483373,2.550028,11.483376,2.550017,11.483383,2.550000,11.483383,2.250000,11.483376,2.249983,
11.483373,2.249972,11.483370,2.249970,11.483368,2.249965,11.483353,2.249959,11.483342,2.249951,1.600050,0.399959,1.600050,-0.399959,11.483342,-2.249951,11.483353,-2.249959,11.483368,-2.249965,11.483370,-2.249970,11.483373,-2.249972,11.483376,-2.249983,11.483383,-2.250000,11.483383,-2.550000,11.483376,-2.550017,11.483373,-2.550028,11.483370,-2.550030,11.483368,-2.550035,11.483353,-2.550041,
11.483342,-2.550049,1.600050,-4.400041,1.600050,-5.199959,11.483342,-7.049951,11.483353,-7.049959,11.483368,-7.049965,11.483370,-7.049970,11.483373,-7.049972,11.483376,-7.049983,11.483383,-7.050000,11.483383,-7.200000,11.483368,-7.200035,11.483333,-7.200050,0.000000,-7.200050,-0.000035,-7.200035,-0.000050,-7.200000,-0.000050,-0.049979,-0.035355,-0.035355,-0.050000,0.000000,-0.035355,0.035355,
-0.000050,0.049979,-0.000050,7.200000,-0.000035,7.200035,0.000000,7.200050,11.483333,7.200050,11.483368,7.200035,11.483368,7.200035,$1*%
G04 Aperture macros list end*
%TA.AperFunction,EtchedComponent*%
%ADD10C,0.200000*%
%TD*%
%TA.AperFunction,SMDPad,CuDef*%
%ADD11RoundRect,2.000000X2.000000X2.000000X-2.000000X2.000000X-2.000000X-2.000000X2.000000X-2.000000X0*%
%TD*%
%TA.AperFunction,SMDPad,CuDef*%
%ADD12FreePoly0,0.000000*%
%TD*%
%TA.AperFunction,SMDPad,CuDef*%
%ADD13FreePoly1,0.000000*%
%TD*%
%TA.AperFunction,SMDPad,CuDef*%
%ADD14FreePoly2,0.000000*%
%TD*%
%TA.AperFunction,ViaPad*%
%ADD15C,0.600000*%
%TD*%
%TA.AperFunction,Conductor*%
%ADD16C,0.300000*%
%TD*%
%TA.AperFunction,Conductor*%
%ADD17C,0.200000*%
%TD*%
G04 APERTURE END LIST*
D10*
%TO.C,T2*%
X192766666Y-114400000D02*
X192766666Y-109200000D01*
X192766666Y-109200000D02*
X196066666Y-106000000D01*
X196066666Y-106000000D02*
X201066666Y-106000000D01*
X201066666Y-106000000D02*
X204466666Y-109100000D01*
X204466666Y-109100000D02*
X204466666Y-114400000D01*
X204466666Y-114400000D02*
X201066666Y-117600000D01*
X201066666Y-117600000D02*
X196066666Y-117600000D01*
X196066666Y-117600000D02*
X192766666Y-114400000D01*
G36*
X204466666Y-109100000D02*
G01*
X204466666Y-114400000D01*
X201066666Y-117600000D01*
X196066666Y-117600000D01*
X192766666Y-114400000D01*
X192766666Y-109200000D01*
X196066666Y-106000000D01*
X201066666Y-106000000D01*
X204466666Y-109100000D01*
G37*
X204466666Y-109100000D02*
X204466666Y-114400000D01*
X201066666Y-117600000D01*
X196066666Y-117600000D01*
X192766666Y-114400000D01*
X192766666Y-109200000D01*
X196066666Y-106000000D01*
X201066666Y-106000000D01*
X204466666Y-109100000D01*
%TD*%
D11*
%TO.P,T2,1,Pin_1*%
%TO.N,/STOP*%
X198566666Y-111800000D03*
%TD*%
D12*
%TO.P,T1,4,4*%
%TO.N,/FWD1*%
X247466667Y-111950000D03*
D13*
%TO.P,T1,3,3*%
%TO.N,/FWD3*%
X234133334Y-111950000D03*
%TO.P,T1,2,2*%
%TO.N,/FWD2*%
X220800000Y-111950000D03*
D14*
%TO.P,T1,1,1*%
%TO.N,/FWD1*%
X207466667Y-111950000D03*
%TD*%
D12*
%TO.P,T3,4,4*%
%TO.N,/REV1*%
X189299999Y-112000000D03*
D13*
%TO.P,T3,3,3*%
%TO.N,/REV3*%
X175966666Y-112000000D03*
%TO.P,T3,2,2*%
%TO.N,/REV2*%
X162633332Y-112000000D03*
D14*
%TO.P,T3,1,1*%
%TO.N,/REV1*%
X149299999Y-112000000D03*
%TD*%
D15*
%TO.N,VBUS*%
X158300000Y-199700000D03*
X159090000Y-198640000D03*
%TO.N,GND*%
X151000000Y-212400000D03*
X151000000Y-208600000D03*
X153200000Y-207700000D03*
X164100000Y-211400000D03*
%TO.N,VBUS*%
X161200000Y-202300000D03*
X161200000Y-201200000D03*
%TO.N,GND*%
X155400000Y-209500000D03*
X155400000Y-210500000D03*
X164100000Y-212400000D03*
%TO.N,VBUS*%
X156950000Y-202300000D03*
X156950000Y-201100000D03*
%TO.N,GND*%
X169000000Y-212500000D03*
X169000000Y-211500000D03*
X155400000Y-212500000D03*
%TO.N,VBUS*%
X161200000Y-203500000D03*
X159900000Y-199700000D03*
%TO.N,GND*%
X155400000Y-211500000D03*
X155400000Y-208600000D03*
X166600000Y-207650000D03*
X169000000Y-210500000D03*
X164100000Y-209400000D03*
X151000000Y-209500000D03*
%TO.N,VBUS*%
X156950000Y-203450000D03*
%TO.N,GND*%
X151000000Y-210400000D03*
X164100000Y-208400000D03*
X169000000Y-209500000D03*
X151000000Y-211400000D03*
X169000000Y-208500000D03*
X164100000Y-210400000D03*
%TO.N,VCC*%
X177200000Y-130400000D03*
X186900000Y-130400000D03*
%TO.N,/SWDIO*%
X206600000Y-140900000D03*
%TO.N,/SWCLK*%
X204600000Y-140100000D03*
%TO.N,/SWDIO*%
X200300000Y-140900000D03*
%TO.N,/SWCLK*%
X199100000Y-140800000D03*
%TO.N,/1B_P*%
X213355064Y-187201879D03*
X212055701Y-185681466D03*
%TO.N,/1A_P*%
X206402678Y-194458899D03*
X205103316Y-192938486D03*
%TO.N,/1B_P*%
X210749351Y-184152876D03*
X209449988Y-182632463D03*
%TO.N,/1A_P*%
X203796965Y-191409896D03*
X202497603Y-189889483D03*
%TO.N,/1B_P*%
X208145186Y-181105685D03*
X206845824Y-179585272D03*
%TO.N,/1A_P*%
X201192801Y-188362705D03*
X199893438Y-186842291D03*
%TO.N,/1B_P*%
X205367346Y-177923831D03*
X203817956Y-176331083D03*
%TO.N,/1A_P*%
X198644436Y-185393108D03*
X197433543Y-184091681D03*
%TO.N,/1B_P*%
X202190443Y-174800756D03*
X200505432Y-173352241D03*
%TO.N,/1A_P*%
X196159058Y-182838790D03*
X194837131Y-181650311D03*
%TO.N,/1B_P*%
X198748166Y-171972852D03*
X196940910Y-170680070D03*
%TO.N,/1A_P*%
X193456185Y-180515835D03*
X192033719Y-179449738D03*
%TO.N,/1B_P*%
X195067839Y-169462571D03*
X193152687Y-168335783D03*
%TO.N,/1A_P*%
X190557275Y-178442683D03*
X189045561Y-177507431D03*
%TO.N,/1B_P*%
X191178681Y-167289839D03*
X189170836Y-166337991D03*
%TO.N,/1A_P*%
X187485340Y-176635792D03*
X185896380Y-175838810D03*
%TO.N,/1B_P*%
X187111566Y-165471904D03*
X185026966Y-164702553D03*
%TO.N,/1A_P*%
X184264767Y-175109505D03*
X182611175Y-174457120D03*
%TO.N,/1B_P*%
X182898779Y-164023200D03*
X180753974Y-163442452D03*
%TO.N,/1A_P*%
X180921122Y-173875940D03*
X179216025Y-173373330D03*
%TO.N,/1B_P*%
X178573766Y-162955225D03*
X176385781Y-162567692D03*
%TO.N,/1A_P*%
X177480950Y-172944888D03*
X175737884Y-172596044D03*
%TO.N,/1B_P*%
X174170858Y-162276459D03*
X171957064Y-162085217D03*
%TO.N,/1A_P*%
X173971560Y-172323742D03*
X172204362Y-172131433D03*
%TO.N,/1B_P*%
X169731365Y-161992413D03*
%TO.N,/1A_P*%
X170425892Y-172017643D03*
%TO.N,/1B_P*%
X167628735Y-161983009D03*
%TO.N,/1A_P*%
X168628735Y-171983009D03*
%TO.N,/1B_P*%
X165617979Y-161983009D03*
X163617979Y-161983009D03*
%TO.N,/1A_P*%
X166617979Y-171983009D03*
X164617979Y-171983009D03*
%TO.N,/1B_P*%
X161607223Y-161983009D03*
X159607223Y-161983009D03*
%TO.N,/1A_P*%
X162607223Y-171983009D03*
X160607223Y-171983009D03*
%TO.N,/1B_P*%
X157596468Y-161983009D03*
X155596468Y-161983009D03*
%TO.N,/1A_P*%
X158596468Y-171983009D03*
X156596468Y-171983009D03*
%TO.N,/1B_P*%
X153585712Y-161983009D03*
X151585712Y-161983009D03*
%TO.N,/1A_P*%
X154585712Y-171983009D03*
X152585712Y-171983009D03*
%TO.N,/1B_P*%
X149574957Y-161983009D03*
X147574957Y-161983009D03*
%TO.N,/1A_P*%
X150574957Y-171983009D03*
X148574957Y-171983009D03*
%TO.N,/1B_P*%
X145564201Y-161983009D03*
X143564201Y-161983009D03*
%TO.N,/1A_P*%
X146564201Y-171983009D03*
X144564201Y-171983009D03*
%TO.N,/1B_P*%
X141555769Y-161983009D03*
X139555769Y-161983009D03*
%TO.N,/1A_P*%
X142555769Y-171983009D03*
X140555769Y-171983009D03*
%TO.N,/1B_P*%
X137777957Y-161944470D03*
X136032665Y-161818709D03*
%TO.N,/1A_P*%
X138433106Y-171972186D03*
X136185818Y-171866637D03*
%TO.N,/1B_P*%
X134286529Y-161604498D03*
X132562591Y-161304664D03*
%TO.N,/1A_P*%
X133934603Y-171647429D03*
X131709168Y-171317455D03*
%TO.N,/1B_P*%
X130846669Y-160916739D03*
X129161404Y-160445842D03*
%TO.N,/1A_P*%
X129491203Y-170873999D03*
X127309977Y-170322914D03*
%TO.N,/1B_P*%
X127492931Y-159888101D03*
X125863268Y-159250873D03*
%TO.N,/1A_P*%
X125147543Y-169659665D03*
X123032436Y-168893005D03*
%TO.N,/1B_P*%
X124259006Y-158528917D03*
X122701316Y-157731759D03*
%TO.N,/1A_P*%
X120947255Y-168016626D03*
X118919515Y-167042092D03*
%TO.N,/1B_P*%
X121177380Y-156852840D03*
X119707309Y-155903760D03*
%TO.N,/1A_P*%
X116932534Y-165961386D03*
X115012531Y-164788768D03*
%TO.N,/1B_P*%
X118279009Y-154876709D03*
X116911326Y-153785240D03*
%TO.N,/1A_P*%
X113143709Y-163514592D03*
X111350730Y-162155670D03*
%TO.N,/1B_P*%
X115593008Y-152620373D03*
X114341451Y-151397480D03*
%TO.N,/1A_P*%
X109618841Y-160700822D03*
X107970896Y-159169246D03*
%TO.N,/1B_P*%
X113146359Y-150106499D03*
X112023502Y-148764466D03*
%TO.N,/1A_P*%
X106393338Y-157548343D03*
X104906983Y-155859499D03*
%TO.N,/1B_P*%
X110963641Y-147360340D03*
X109980762Y-145912648D03*
%TO.N,/1A_P*%
X103499603Y-154088821D03*
X102189768Y-152259674D03*
%TO.N,/1B_P*%
X109066779Y-144409482D03*
X108233752Y-142870674D03*
%TO.N,/1A_P*%
X100966703Y-150357010D03*
X99846546Y-148405935D03*
%TO.N,/1B_P*%
X107474828Y-141283567D03*
X106800021Y-139669102D03*
%TO.N,/1A_P*%
X98820083Y-146390397D03*
X97900857Y-144336993D03*
%TO.N,/1B_P*%
X106203780Y-138013997D03*
X105693972Y-136340092D03*
%TO.N,/1A_P*%
X97081307Y-142228828D03*
X96372246Y-140093722D03*
%TO.N,/1B_P*%
X105266403Y-134633616D03*
X104926715Y-132917086D03*
%TO.N,/1A_P*%
X95767841Y-137914109D03*
X95276067Y-135718749D03*
%TO.N,/1B_P*%
X104672114Y-131176381D03*
X104505958Y-129434470D03*
%TO.N,/1A_P*%
X94892879Y-133489582D03*
X94623334Y-131256022D03*
%TO.N,/1B_P*%
X104426882Y-127677022D03*
X104435928Y-125927228D03*
%TO.N,/1A_P*%
X94465212Y-128999694D03*
X94420602Y-126750371D03*
%TO.N,/1B_P*%
X104533171Y-124170691D03*
X104717328Y-122430591D03*
%TO.N,/1A_P*%
X94489135Y-124489547D03*
X94669908Y-122247056D03*
%TO.N,/1B_P*%
X104989913Y-120692612D03*
X105347331Y-118979686D03*
%TO.N,/1A_P*%
X94964408Y-120004448D03*
X95368749Y-117791316D03*
%TO.N,/1B_P*%
X105792521Y-117277722D03*
X106319609Y-115609177D03*
%TO.N,/1A_P*%
X95886257Y-115589452D03*
X96510103Y-113427911D03*
%TO.N,/1B_P*%
X106932931Y-113960326D03*
X107624394Y-112352924D03*
%TO.N,/1A_P*%
X97245420Y-111288909D03*
X98082506Y-109200672D03*
%TO.N,/1B_P*%
X108399687Y-110773748D03*
X109248580Y-109243636D03*
%TO.N,/1A_P*%
X99028246Y-107146020D03*
X100070161Y-105152065D03*
%TO.N,/1B_P*%
X110178056Y-107749999D03*
X111175851Y-106312547D03*
%TO.N,/1A_P*%
X101216824Y-103202402D03*
X102453103Y-101322759D03*
%TO.N,/1B_P*%
X112250173Y-104919455D03*
X113386846Y-103589103D03*
%TO.N,/1A_P*%
X103789169Y-99497671D03*
X105207392Y-97751221D03*
%TO.N,/1B_P*%
X114594351Y-102311424D03*
X115858442Y-101101492D03*
%TO.N,/1A_P*%
X106718349Y-96070196D03*
X108304215Y-94474428D03*
%TO.N,/1B_P*%
X117316365Y-99802257D03*
X118811180Y-98473525D03*
%TO.N,/1A_P*%
X109925298Y-92992548D03*
X111420113Y-91663816D03*
%TO.N,/1B_P*%
X120314033Y-97137648D03*
X121808848Y-95808916D03*
%TO.N,/1A_P*%
X112922967Y-90327938D03*
X114417782Y-88999207D03*
%TO.N,/1B_P*%
X123309078Y-94475371D03*
%TO.N,/1A_P*%
X115918012Y-87665662D03*
X117412827Y-86336930D03*
%TO.N,/1B_P*%
X124783984Y-93165487D03*
X126167596Y-91999246D03*
X127589214Y-90895357D03*
%TO.N,/1A_P*%
X119029557Y-84925466D03*
X120739760Y-83541790D03*
%TO.N,/1B_P*%
X129061827Y-89843734D03*
X130567327Y-88857308D03*
%TO.N,/1A_P*%
X122513556Y-82220735D03*
X124329133Y-80978545D03*
%TO.N,/1B_P*%
X132119471Y-87927065D03*
X133699171Y-87064445D03*
%TO.N,/1A_P*%
X126203080Y-79803871D03*
X128112355Y-78711156D03*
%TO.N,/1B_P*%
X135320863Y-86261566D03*
X136964606Y-85528299D03*
%TO.N,/1A_P*%
X130074402Y-77690416D03*
X132065095Y-76754203D03*
%TO.N,/1B_P*%
X138645417Y-84857946D03*
X140342629Y-84258749D03*
%TO.N,/1A_P*%
X134102624Y-75893963D03*
X136161934Y-75120273D03*
%TO.N,/1B_P*%
X142071751Y-83725234D03*
X143811519Y-83263960D03*
%TO.N,/1A_P*%
X138261842Y-74426064D03*
X140376524Y-73819873D03*
%TO.N,/1B_P*%
X145577831Y-82870713D03*
X147348967Y-82550328D03*
%TO.N,/1A_P*%
X142525306Y-73296160D03*
X144681764Y-72861366D03*
%TO.N,/1B_P*%
X149141109Y-82299879D03*
X150932222Y-82122444D03*
%TO.N,/1A_P*%
X146865601Y-72511517D03*
X149049963Y-72250916D03*
%TO.N,/1B_P*%
X152736081Y-82016502D03*
%TO.N,/1A_P*%
X151251650Y-72077366D03*
X153449866Y-71992507D03*
%TO.N,/1B_P*%
X154545608Y-81983009D03*
X156556363Y-81983009D03*
X158556363Y-81983009D03*
%TO.N,/1A_P*%
X155556363Y-71983009D03*
X157556363Y-71983009D03*
%TO.N,/1B_P*%
X160567119Y-81983009D03*
X162567119Y-81983009D03*
%TO.N,/1A_P*%
X159567119Y-71983009D03*
X161567119Y-71983009D03*
%TO.N,/1B_P*%
X164577875Y-81983009D03*
X166577875Y-81983009D03*
%TO.N,/1A_P*%
X163577875Y-71983009D03*
X165577875Y-71983009D03*
%TO.N,/1B_P*%
X168588630Y-81983009D03*
X170588630Y-81983009D03*
%TO.N,/1A_P*%
X167588630Y-71983009D03*
X169588630Y-71983009D03*
%TO.N,/1B_P*%
X172599386Y-81983009D03*
X174599386Y-81983009D03*
%TO.N,/1A_P*%
X171599386Y-71983009D03*
X173599386Y-71983009D03*
%TO.N,/1B_P*%
X176610141Y-81983009D03*
X178610141Y-81983009D03*
%TO.N,/1A_P*%
X175610141Y-71983009D03*
X177610141Y-71983009D03*
%TO.N,/1B_P*%
X180620897Y-81983009D03*
X182620897Y-81983009D03*
%TO.N,/1A_P*%
X179620897Y-71983009D03*
X181620897Y-71983009D03*
%TO.N,/1B_P*%
X184631653Y-81983009D03*
X186631653Y-81983009D03*
%TO.N,/1A_P*%
X183631653Y-71983009D03*
X185631653Y-71983009D03*
%TO.N,/1B_P*%
X188642408Y-81983009D03*
X190642408Y-81983009D03*
%TO.N,/1A_P*%
X187642408Y-71983009D03*
X189642408Y-71983009D03*
%TO.N,/1B_P*%
X192653164Y-81983009D03*
X194653164Y-81983009D03*
%TO.N,/1A_P*%
X191653164Y-71983009D03*
X193653164Y-71983009D03*
%TO.N,/1B_P*%
X196663920Y-81983009D03*
X198663920Y-81983009D03*
%TO.N,/1A_P*%
X195663920Y-71983009D03*
X197663920Y-71983009D03*
%TO.N,/1B_P*%
X200674675Y-81983009D03*
X202674675Y-81983009D03*
%TO.N,/1A_P*%
X199674675Y-71983009D03*
X201674675Y-71983009D03*
%TO.N,/1B_P*%
X204685431Y-81983009D03*
X206685431Y-81983009D03*
%TO.N,/1A_P*%
X203685431Y-71983009D03*
X205685431Y-71983009D03*
%TO.N,/1B_P*%
X208696186Y-81983009D03*
X210696186Y-81983009D03*
%TO.N,/1A_P*%
X207696186Y-71983009D03*
X209696186Y-71983009D03*
%TO.N,/1B_P*%
X212706942Y-81983009D03*
X214706942Y-81983009D03*
%TO.N,/1A_P*%
X211706942Y-71983009D03*
X213706942Y-71983009D03*
%TO.N,/1B_P*%
X216717698Y-81983009D03*
X218717698Y-81983009D03*
%TO.N,/1A_P*%
X215717698Y-71983009D03*
X217717698Y-71983009D03*
%TO.N,/1B_P*%
X220728453Y-81983009D03*
X222728453Y-81983009D03*
%TO.N,/1A_P*%
X219728453Y-71983009D03*
X221728453Y-71983009D03*
%TO.N,/1B_P*%
X224739209Y-81983009D03*
X226739209Y-81983009D03*
%TO.N,/1A_P*%
X223739209Y-71983009D03*
X225739209Y-71983009D03*
%TO.N,/1B_P*%
X228749964Y-81983009D03*
X230749964Y-81983009D03*
%TO.N,/1A_P*%
X227749964Y-71983009D03*
X229749964Y-71983009D03*
%TO.N,/1B_P*%
X232757125Y-81983009D03*
%TO.N,/1A_P*%
X231757125Y-71983009D03*
X233757125Y-71983009D03*
%TO.N,/1B_P*%
X234729744Y-81983969D03*
X236557054Y-82028700D03*
X238371761Y-82139418D03*
%TO.N,/1A_P*%
X235894189Y-72001122D03*
X238073893Y-72094371D03*
%TO.N,/1B_P*%
X240190956Y-82317165D03*
X241992774Y-82559806D03*
%TO.N,/1A_P*%
X240260444Y-72267943D03*
X242427562Y-72519752D03*
%TO.N,/1B_P*%
X243794184Y-82869624D03*
X245573534Y-83242896D03*
%TO.N,/1A_P*%
X244595655Y-72852171D03*
X246738667Y-73261204D03*
%TO.N,/1B_P*%
X247347583Y-83683138D03*
X249095009Y-84185059D03*
%TO.N,/1A_P*%
X248876779Y-73750703D03*
X250984294Y-74314785D03*
%TO.N,/1B_P*%
X250832268Y-84753385D03*
X252538481Y-85381286D03*
%TO.N,/1A_P*%
X253081059Y-74958762D03*
X255141875Y-75674894D03*
%TO.N,/1B_P*%
X254229716Y-86074675D03*
X255885646Y-86825219D03*
%TO.N,/1A_P*%
X257186149Y-76469926D03*
X259189311Y-77334302D03*
%TO.N,/1B_P*%
X257521867Y-87639986D03*
X259118713Y-88509183D03*
%TO.N,/1A_P*%
X261170228Y-78276164D03*
X263105089Y-79284190D03*
%TO.N,/1B_P*%
X260691223Y-89440997D03*
X262220497Y-90424228D03*
%TO.N,/1A_P*%
X265012119Y-80367874D03*
X266868395Y-81514191D03*
%TO.N,/1B_P*%
X263720937Y-91468135D03*
X265174510Y-92560173D03*
%TO.N,/1A_P*%
X268691401Y-82733938D03*
X270459225Y-84012454D03*
%TO.N,/1B_P*%
X266594906Y-93710625D03*
X267965052Y-94905665D03*
%TO.N,/1A_P*%
X272188518Y-85361780D03*
X273858493Y-86765699D03*
%TO.N,/1B_P*%
X269297853Y-96156548D03*
X270577289Y-97448238D03*
%TO.N,/1A_P*%
X275484880Y-88237432D03*
X277048131Y-89759291D03*
%TO.N,/1B_P*%
X271815410Y-98792901D03*
X272997336Y-100174376D03*
%TO.N,/1A_P*%
X278562967Y-91345608D03*
X280011183Y-92977318D03*
%TO.N,/1B_P*%
X274134197Y-101605673D03*
X275212329Y-103069590D03*
%TO.N,/1A_P*%
X281406417Y-94669787D03*
X282731901Y-96402675D03*
%TO.N,/1B_P*%
X276241887Y-104579913D03*
X277210496Y-106118489D03*
%TO.N,/1A_P*%
X284000117Y-98192301D03*
X285195822Y-100017156D03*
%TO.N,/1B_P*%
X278127278Y-107699810D03*
X278981215Y-109304868D03*
%TO.N,/1A_P*%
X286330279Y-101894425D03*
X287389851Y-103801547D03*
%TO.N,/1B_P*%
X279780348Y-110948781D03*
X280515074Y-112611790D03*
%TO.N,/1A_P*%
X288384518Y-105756482D03*
X289302325Y-107735733D03*
%TO.N,/1B_P*%
X281192311Y-114309558D03*
X281803920Y-116021678D03*
%TO.N,/1A_P*%
X290151915Y-109757942D03*
X290923078Y-111798803D03*
%TO.N,/1B_P*%
X282355661Y-117764276D03*
X282840902Y-119516406D03*
%TO.N,/1A_P*%
X291623075Y-113877538D03*
X292243495Y-115969160D03*
%TO.N,/1B_P*%
X283264214Y-121294571D03*
X283620509Y-123077399D03*
%TO.N,/1A_P*%
X292790180Y-118093370D03*
X293256558Y-120224637D03*
%TO.N,/1B_P*%
X283913142Y-124881680D03*
X284138596Y-126685729D03*
%TO.N,/1A_P*%
X293647024Y-122383032D03*
X293956883Y-124542614D03*
%TO.N,/1B_P*%
X284298994Y-128506535D03*
X284392410Y-130322216D03*
%TO.N,/1A_P*%
X294189054Y-126723721D03*
X294340746Y-128900139D03*
X294413250Y-131083053D03*
%TO.N,/1B_P*%
X284420000Y-132166556D03*
X284420000Y-134166556D03*
%TO.N,/1A_P*%
X294420000Y-133166556D03*
%TO.N,/1B_P*%
X284420000Y-136177311D03*
X284420000Y-138177311D03*
%TO.N,/1A_P*%
X294420000Y-135177311D03*
X294420000Y-137177311D03*
%TO.N,/1B_P*%
X284420000Y-140188067D03*
X284420000Y-142188067D03*
%TO.N,/1A_P*%
X294420000Y-139188067D03*
X294420000Y-141188067D03*
%TO.N,/1B_P*%
X284420000Y-144198822D03*
X284420000Y-146198822D03*
%TO.N,/1A_P*%
X294420000Y-143198822D03*
X294420000Y-145198822D03*
%TO.N,/1B_P*%
X284420000Y-148209578D03*
X284420000Y-150209578D03*
%TO.N,/1A_P*%
X294420000Y-147209578D03*
X294420000Y-149209578D03*
%TO.N,/1B_P*%
X284420000Y-152220334D03*
X284420000Y-154220334D03*
%TO.N,/1A_P*%
X294420000Y-151220334D03*
X294420000Y-153220334D03*
%TO.N,/1B_P*%
X284420000Y-156231089D03*
X284420000Y-158231089D03*
%TO.N,/1A_P*%
X294420000Y-155231089D03*
X294420000Y-157231089D03*
%TO.N,/1B_P*%
X284420000Y-160238469D03*
%TO.N,/1A_P*%
X294420000Y-159238469D03*
X294420000Y-161238469D03*
%TO.N,/1B_P*%
X284419338Y-162213084D03*
X284369136Y-163999569D03*
X284240091Y-165772510D03*
%TO.N,/1A_P*%
X294400101Y-163393479D03*
X294288079Y-165612693D03*
%TO.N,/1B_P*%
X284031073Y-167547435D03*
X283744731Y-169301853D03*
%TO.N,/1A_P*%
X294076171Y-167836607D03*
X293767062Y-170037041D03*
%TO.N,/1B_P*%
X283378557Y-171051128D03*
X282937191Y-172773095D03*
%TO.N,/1A_P*%
X293358045Y-172233266D03*
X292854302Y-174397452D03*
%TO.N,/1B_P*%
X282416768Y-174482833D03*
X281823882Y-176158679D03*
%TO.N,/1A_P*%
X292251422Y-176548552D03*
X291557044Y-178659310D03*
%TO.N,/1B_P*%
X281153340Y-177815308D03*
X280413640Y-179431730D03*
%TO.N,/1A_P*%
X290765088Y-180748210D03*
X289885588Y-182788783D03*
%TO.N,/1B_P*%
X279598304Y-181022099D03*
X278717662Y-182566263D03*
%TO.N,/1A_P*%
X288910843Y-184798900D03*
X287853203Y-186753090D03*
%TO.N,/1B_P*%
X277764003Y-184077746D03*
X276749411Y-185537396D03*
%TO.N,/1A_P*%
X286703406Y-188668466D03*
X285476021Y-190520758D03*
%TO.N,/1B_P*%
X275665001Y-186957995D03*
X274524513Y-188321542D03*
%TO.N,/1A_P*%
X284160301Y-192326188D03*
X282772916Y-194061878D03*
%TO.N,/1B_P*%
X273317959Y-189639978D03*
X272060629Y-190896598D03*
%TO.N,/1A_P*%
X281301716Y-195743030D03*
X279765344Y-197348340D03*
%TO.N,/1B_P*%
X270741510Y-192102406D03*
X269377319Y-193242124D03*
%TO.N,/1A_P*%
X278150345Y-198891867D03*
X276477183Y-200354053D03*
%TO.N,/1B_P*%
X267956107Y-194325731D03*
X266495885Y-195339498D03*
%TO.N,/1A_P*%
X274731205Y-201747702D03*
X272934535Y-203055156D03*
%TO.N,/1B_P*%
X264983862Y-196292302D03*
X263439200Y-197172070D03*
%TO.N,/1A_P*%
X271071439Y-204287865D03*
X269165524Y-205430207D03*
%TO.N,/1B_P*%
X261848371Y-197986508D03*
X260231532Y-198725294D03*
%TO.N,/1A_P*%
X267200099Y-206492189D03*
X265200070Y-207460352D03*
%TO.N,/1B_P*%
X258574523Y-199394899D03*
X256898343Y-199986838D03*
%TO.N,/1A_P*%
X263147920Y-208343176D03*
X261069652Y-209129473D03*
%TO.N,/1B_P*%
X255188310Y-200506294D03*
X253466094Y-200946687D03*
%TO.N,/1A_P*%
X258947068Y-209826131D03*
X256807061Y-210424321D03*
%TO.N,/1B_P*%
X251716612Y-201311872D03*
X249962033Y-201597222D03*
%TO.N,/1A_P*%
X254630892Y-210929283D03*
X252446135Y-211334617D03*
%TO.N,/1B_P*%
X248186990Y-201805237D03*
X246413976Y-201933279D03*
%TO.N,/1A_P*%
X250233657Y-211643873D03*
X248021493Y-211853133D03*
%TO.N,/1B_P*%
X244627464Y-201982471D03*
X242850090Y-201952190D03*
%TO.N,/1A_P*%
X245790270Y-211964230D03*
X243568261Y-211975754D03*
%TO.N,/1B_P*%
X241066290Y-201842169D03*
X239298667Y-201653804D03*
%TO.N,/1A_P*%
X241336006Y-211887809D03*
X239121790Y-211701507D03*
%TO.N,/1B_P*%
X237531740Y-201385444D03*
X235787899Y-201040491D03*
%TO.N,/1A_P*%
X236906223Y-211415217D03*
X234717379Y-211032568D03*
%TO.N,/1B_P*%
X234051873Y-200615922D03*
X232345658Y-200117119D03*
%TO.N,/1A_P*%
X232536089Y-210550207D03*
X230389993Y-209974247D03*
%TO.N,/1B_P*%
X230654313Y-199539712D03*
X228999269Y-198891018D03*
%TO.N,/1A_P*%
X228260296Y-209299645D03*
X226173984Y-208534947D03*
%TO.N,/1B_P*%
X227366033Y-198165356D03*
X225775298Y-197371922D03*
%TO.N,/1A_P*%
X224112787Y-207673458D03*
X222102822Y-206726094D03*
%TO.N,/1B_P*%
X224213136Y-196503766D03*
X222699339Y-195571890D03*
%TO.N,/1A_P*%
X220126487Y-205684557D03*
X218208825Y-204562046D03*
%TO.N,/1B_P*%
X221220651Y-194568132D03*
X219795809Y-193505212D03*
%TO.N,/1A_P*%
X216333042Y-203348730D03*
X214522906Y-202059983D03*
%TO.N,/1B_P*%
X218412335Y-192373821D03*
X217087760Y-191188294D03*
%TO.N,/1A_P*%
X212762566Y-200684520D03*
X211074326Y-199239768D03*
%TO.N,/1B_P*%
X215810482Y-189938251D03*
X214596688Y-188639530D03*
%TO.N,/1A_P*%
X209443403Y-197713077D03*
X207890462Y-196123790D03*
%TO.N,/G1_P*%
X295750000Y-150400000D03*
X279800000Y-151300000D03*
%TO.N,/1A_P*%
X164300000Y-158550000D03*
X162350000Y-158450000D03*
%TO.N,VBUS*%
X181050000Y-126050000D03*
%TO.N,GND*%
X181200000Y-128000000D03*
X188500000Y-126100000D03*
X217550000Y-138700000D03*
X223850000Y-150750000D03*
X225850000Y-146750000D03*
%TO.N,VBUS*%
X223300000Y-154800000D03*
X223300000Y-146600000D03*
X216900000Y-142650000D03*
%TO.N,GND*%
X219450000Y-134500000D03*
%TO.N,VBUS*%
X216900000Y-134450000D03*
%TO.N,GND*%
X249050000Y-130000000D03*
X244900000Y-128150000D03*
%TO.N,VBUS*%
X249050000Y-127500000D03*
X240900000Y-127550000D03*
%TO.N,GND*%
X189900000Y-133050000D03*
X193700000Y-131450000D03*
%TO.N,VCC*%
X193700000Y-130600000D03*
%TO.N,GND*%
X197300000Y-137650000D03*
%TO.N,VCC*%
X196050000Y-136200000D03*
%TO.N,GND*%
X203250000Y-127100000D03*
X201800000Y-129050000D03*
%TO.N,VCC*%
X202500000Y-126500000D03*
X188500000Y-128000000D03*
%TO.N,Net-(C8-Pad2)*%
X203530000Y-144610000D03*
X208930000Y-144610000D03*
%TO.N,/1A_P*%
X203530000Y-143590000D03*
X208900000Y-143620000D03*
%TO.N,/REV1*%
X188670000Y-118700000D03*
%TO.N,/FWD1*%
X208160000Y-118520000D03*
%TO.N,/REV2*%
X162690000Y-118840000D03*
%TO.N,/REV1*%
X150200000Y-105800000D03*
X188600000Y-105450000D03*
%TO.N,/FWD1*%
X246400000Y-105350000D03*
X208650000Y-105350000D03*
X207770000Y-128290000D03*
%TO.N,/FWD2*%
X197450000Y-122200000D03*
%TO.N,/STOP*%
X198650000Y-117150000D03*
%TO.N,/REV1*%
X191200000Y-123350000D03*
%TO.N,/REV3*%
X176010000Y-118860000D03*
%TO.N,/FWD3*%
X234140000Y-118830000D03*
%TO.N,/FWD2*%
X220880000Y-118780000D03*
%TD*%
D16*
%TO.N,/1A_P*%
X162620000Y-161340000D02*
X162620000Y-158720000D01*
X162620000Y-158720000D02*
X162350000Y-158450000D01*
X164610000Y-161350000D02*
X164610000Y-158860000D01*
X164610000Y-158860000D02*
X164300000Y-158550000D01*
%TO.N,/1B_P*%
X205264103Y-194127118D02*
X205915532Y-194889368D01*
X213355064Y-187201879D02*
X205258863Y-194120985D01*
X203959500Y-192600572D02*
X212055701Y-185681466D01*
X203309819Y-191840365D02*
X203961247Y-192602616D01*
%TO.N,/1A_P*%
X213199517Y-186019380D02*
X205103316Y-192938486D01*
X211900154Y-184498966D02*
X213203011Y-186023468D01*
X203803953Y-191418072D02*
X211900154Y-184498966D01*
%TO.N,/1B_P*%
X202658390Y-191078115D02*
X203309819Y-191840365D01*
X210749351Y-184152876D02*
X202653150Y-191071982D01*
X201353787Y-189551569D02*
X209449988Y-182632463D01*
X200704106Y-188791362D02*
X201355534Y-189553613D01*
%TO.N,/1A_P*%
X210593804Y-182970377D02*
X202497603Y-189889483D01*
X209294441Y-181449963D02*
X210597298Y-182974465D01*
X201198240Y-188369069D02*
X209294441Y-181449963D01*
%TO.N,/1B_P*%
X200052677Y-188029111D02*
X200704106Y-188791362D01*
X208145186Y-181105685D02*
X200048985Y-188024791D01*
X198749623Y-186504378D02*
X206845824Y-179585272D01*
X198675846Y-186418049D02*
X198749821Y-186504610D01*
%TO.N,/1A_P*%
X207989639Y-179923185D02*
X199893438Y-186842291D01*
X207266181Y-179076650D02*
X207991585Y-179925462D01*
%TO.N,/1B_P*%
X198675845Y-186418049D02*
G75*
G03*
X198165092Y-185832221I-29919063J-25569314D01*
G01*
%TO.N,/1A_P*%
X207266180Y-179076650D02*
G75*
G03*
X206608756Y-178322592I-38508629J-32910014D01*
G01*
X198650790Y-185400251D02*
X206608757Y-178322591D01*
%TO.N,/1B_P*%
X198165093Y-185832221D02*
G75*
G03*
X197575151Y-185183601I-29398090J-26145969D01*
G01*
X205367346Y-177923831D02*
X197570347Y-185178436D01*
X196350976Y-183924943D02*
X203817956Y-176331083D01*
X196352653Y-183926592D02*
G75*
G03*
X195720703Y-183318827I-27589011J-28054439D01*
G01*
%TO.N,/1A_P*%
X205067417Y-176665615D02*
X197433543Y-184091681D01*
X205071638Y-176669954D02*
G75*
G03*
X203462420Y-175087435I-36310758J-35313921D01*
G01*
X196166023Y-182845340D02*
X203462420Y-175087435D01*
%TO.N,/1B_P*%
X195720703Y-183318827D02*
G75*
G03*
X195075369Y-182725292I-26967167J-28673052D01*
G01*
X202190443Y-174800756D02*
X195070124Y-182720576D01*
X193744020Y-181580594D02*
X200505432Y-173352241D01*
X193745836Y-181582088D02*
G75*
G03*
X193062297Y-181032985I-24987427J-30405063D01*
G01*
%TO.N,/1A_P*%
X201779711Y-173574230D02*
X194837131Y-181650311D01*
X201784301Y-173578176D02*
G75*
G03*
X200040611Y-172145175I-33022077J-38404224D01*
G01*
X193463706Y-180521739D02*
X200040611Y-172145175D01*
%TO.N,/1B_P*%
X193062298Y-181032985D02*
G75*
G03*
X192366695Y-180499248I-24273114J-30914254D01*
G01*
X198748166Y-171972852D02*
X192361051Y-180495016D01*
X190938741Y-179477596D02*
X196940910Y-170680070D01*
X190940683Y-179478922D02*
G75*
G03*
X190210983Y-178992840I-22180026J-32505663D01*
G01*
%TO.N,/1A_P*%
X198229890Y-170787755D02*
X192033719Y-179449738D01*
X198234813Y-170791277D02*
G75*
G03*
X196370493Y-169519169I-29473005J-41191580D01*
G01*
X190565291Y-178447894D02*
X196370493Y-169519169D01*
%TO.N,/1B_P*%
X190210982Y-178992840D02*
G75*
G03*
X189470633Y-178523137I-21442075J-32978863D01*
G01*
X195067839Y-169462571D02*
X189464635Y-178519424D01*
X187957410Y-177632642D02*
X193152687Y-168335783D01*
X187959462Y-177633790D02*
G75*
G03*
X187189392Y-177214588I-19199813J-34352963D01*
G01*
%TO.N,/1A_P*%
X194446136Y-168328308D02*
X189045561Y-177507431D01*
X194451353Y-168331379D02*
G75*
G03*
X192481203Y-167230264I-25691257J-43654528D01*
G01*
X187493788Y-176640268D02*
X192481203Y-167230263D01*
%TO.N,/1B_P*%
X187189392Y-177214588D02*
G75*
G03*
X186410172Y-176812648I-18412044J-34738177D01*
G01*
X191178681Y-167289839D02*
X186403867Y-176809484D01*
X184823693Y-176060380D02*
X189170836Y-166337991D01*
X184825839Y-176061341D02*
G75*
G03*
X184021512Y-175712347I-16065014J-35923698D01*
G01*
%TO.N,/1A_P*%
X190458485Y-166215416D02*
X185896380Y-175838810D01*
X190463955Y-166218010D02*
G75*
G03*
X188403614Y-165296628I-21701362J-45763028D01*
G01*
X184273580Y-175113212D02*
X188403614Y-165296628D01*
%TO.N,/1B_P*%
X184021512Y-175712346D02*
G75*
G03*
X183209609Y-175381359I-15271366J-36299004D01*
G01*
X187111566Y-165471904D02*
X183203047Y-175378770D01*
X181562467Y-174773290D02*
X185026966Y-164702553D01*
X181564690Y-174774055D02*
G75*
G03*
X180732492Y-174498040I-12801696J-37205140D01*
G01*
%TO.N,/1A_P*%
X186298594Y-164465851D02*
X182611175Y-174457120D01*
X186304272Y-164467949D02*
G75*
G03*
X184170098Y-163733615I-17542143J-47513819D01*
G01*
X180930230Y-173878847D02*
X184170098Y-163733614D01*
%TO.N,/1B_P*%
X180732492Y-174498040D02*
G75*
G03*
X179894350Y-174240634I-11978515J-37510107D01*
G01*
X182898779Y-164023200D02*
X179887584Y-174238639D01*
X178199622Y-173781591D02*
X180753974Y-163442452D01*
X178201905Y-173782156D02*
G75*
G03*
X177348441Y-173581310I-9439511J-38197987D01*
G01*
%TO.N,/1A_P*%
X181999486Y-163093503D02*
X179216025Y-173373330D01*
X182005328Y-163095085D02*
G75*
G03*
X179814262Y-162553629I-13243913J-48889134D01*
G01*
X177490281Y-172946973D02*
X179814262Y-162553629D01*
%TO.N,/1B_P*%
X177348441Y-173581310D02*
G75*
G03*
X176490715Y-173399529I-8580951J-38374393D01*
G01*
X178573766Y-162955225D02*
X176483798Y-173398143D01*
X174761854Y-173093155D02*
X176385781Y-162567692D01*
X174764178Y-173093513D02*
G75*
G03*
X173896225Y-172969431I-6003773J-38898656D01*
G01*
%TO.N,/1A_P*%
X177595289Y-162109265D02*
X175737884Y-172596044D01*
X177601249Y-162110321D02*
G75*
G03*
X175370685Y-161766040I-8839391J-49871628D01*
G01*
X173981039Y-172324988D02*
X175370685Y-161766040D01*
%TO.N,/1B_P*%
X173896225Y-172969431D02*
G75*
G03*
X173025723Y-172864718I-5138466J-39046493D01*
G01*
X174170858Y-162276459D02*
X173018711Y-172863954D01*
X171276454Y-172713446D02*
X171957064Y-162085217D01*
X171278801Y-172713597D02*
G75*
G03*
X170403248Y-172667264I-2517134J-39270383D01*
G01*
%TO.N,/1A_P*%
X173120967Y-161520950D02*
X172204362Y-172131433D01*
X173126997Y-161521473D02*
G75*
G03*
X170874642Y-161377101I-4365408J-50463220D01*
G01*
X170430364Y-172017830D02*
X170874642Y-161377100D01*
%TO.N,/1B_P*%
X170403248Y-172667264D02*
G75*
G03*
X169526881Y-172640450I-1641318J-39308853D01*
G01*
X169731365Y-161992413D02*
X169524829Y-172640410D01*
X167628735Y-172633009D02*
X167628735Y-161983009D01*
X166628735Y-172633009D02*
X167631424Y-172633009D01*
%TO.N,/1A_P*%
X168628735Y-161333009D02*
X168628735Y-171983009D01*
X166628735Y-161333009D02*
X168634112Y-161333009D01*
X166628735Y-171983009D02*
X166628735Y-161333009D01*
%TO.N,/1B_P*%
X165626046Y-172633009D02*
X166628735Y-172633009D01*
X165617979Y-161983009D02*
X165617979Y-172633009D01*
X163617979Y-172633009D02*
X163617979Y-161983009D01*
X162617979Y-172633009D02*
X163620668Y-172633009D01*
%TO.N,/1A_P*%
X164617979Y-161333009D02*
X164617979Y-171983009D01*
X162617979Y-171983009D02*
X162617979Y-161333009D01*
%TO.N,/1B_P*%
X161615290Y-172633009D02*
X162617979Y-172633009D01*
X161607223Y-161983009D02*
X161607223Y-172633009D01*
X159607223Y-172633009D02*
X159607223Y-161983009D01*
X158607223Y-172633009D02*
X159609912Y-172633009D01*
%TO.N,/1A_P*%
X160607223Y-161333009D02*
X160607223Y-171983009D01*
X158607223Y-161333009D02*
X160612601Y-161333009D01*
X158607223Y-171983009D02*
X158607223Y-161333009D01*
%TO.N,/1B_P*%
X157604534Y-172633009D02*
X158607223Y-172633009D01*
X157596468Y-161983009D02*
X157596468Y-172633009D01*
X155596468Y-172633009D02*
X155596468Y-161983009D01*
X154596468Y-172633009D02*
X155599157Y-172633009D01*
%TO.N,/1A_P*%
X156596468Y-161333009D02*
X156596468Y-171983009D01*
X154596468Y-161333009D02*
X156601846Y-161333009D01*
X154596468Y-171983009D02*
X154596468Y-161333009D01*
%TO.N,/1B_P*%
X153593779Y-172633009D02*
X154596468Y-172633009D01*
X153585712Y-161983009D02*
X153585712Y-172633009D01*
X151585712Y-172633009D02*
X151585712Y-161983009D01*
X150585712Y-172633009D02*
X151588401Y-172633009D01*
%TO.N,/1A_P*%
X152585712Y-161333009D02*
X152585712Y-171983009D01*
X150585712Y-161333009D02*
X152591090Y-161333009D01*
X150585712Y-171983009D02*
X150585712Y-161333009D01*
%TO.N,/1B_P*%
X149583023Y-172633009D02*
X150585712Y-172633009D01*
X149574957Y-161983009D02*
X149574957Y-172633009D01*
X147574957Y-172633009D02*
X147574957Y-161983009D01*
X146574957Y-172633009D02*
X147577645Y-172633009D01*
%TO.N,/1A_P*%
X148574957Y-161333009D02*
X148574957Y-171983009D01*
X146574957Y-161333009D02*
X148580334Y-161333009D01*
X146574957Y-171983009D02*
X146574957Y-161333009D01*
%TO.N,/1B_P*%
X145572268Y-172633009D02*
X146574957Y-172633009D01*
X145564201Y-161983009D02*
X145564201Y-172633009D01*
X143564201Y-172633009D02*
X143564201Y-161983009D01*
X142564201Y-172633009D02*
X143566890Y-172633009D01*
%TO.N,/1A_P*%
X144564201Y-161333009D02*
X144564201Y-171983009D01*
X142564201Y-161333009D02*
X144569579Y-161333009D01*
X142564201Y-171983009D02*
X142564201Y-161333009D01*
%TO.N,/1B_P*%
X141561512Y-172633009D02*
X142564201Y-172633009D01*
X141555769Y-161983009D02*
X141555769Y-172633009D01*
X139555769Y-172633009D02*
X139555769Y-161983009D01*
X139420000Y-172633009D02*
X139556134Y-172633009D01*
%TO.N,/1A_P*%
X140555769Y-161333009D02*
X140555769Y-171983009D01*
X139420000Y-161333009D02*
X140558823Y-161333009D01*
%TO.N,/1B_P*%
X139420000Y-172633009D02*
G75*
G02*
X138431123Y-172622298I-34J45650486D01*
G01*
%TO.N,/1A_P*%
X139420000Y-161333008D02*
G75*
G02*
X138675905Y-161324948I-153J34337167D01*
G01*
X138445203Y-171972450D02*
X138675905Y-161324949D01*
%TO.N,/1B_P*%
X138431123Y-172622298D02*
G75*
G02*
X137287503Y-172583173I989492J45656263D01*
G01*
X137777957Y-161944470D02*
X137278307Y-172582742D01*
X135001947Y-172418715D02*
X136032665Y-161818709D01*
X135005001Y-172419012D02*
G75*
G02*
X133867553Y-172294077I4414970J45435600D01*
G01*
%TO.N,/1A_P*%
X136951241Y-161244179D02*
X136185818Y-171866637D01*
X136955847Y-161244509D02*
G75*
G02*
X135241982Y-161077974I2464261J34262735D01*
G01*
X133946613Y-171648903D02*
X135241982Y-161077975D01*
%TO.N,/1B_P*%
X133867553Y-172294076D02*
G75*
G02*
X132733594Y-172140671I5542952J45240886D01*
G01*
X134286529Y-161604498D02*
X132724487Y-172139322D01*
X130475980Y-171748253D02*
X132562591Y-161304664D01*
X130478989Y-171748854D02*
G75*
G02*
X129359760Y-171510687I8942287J44771801D01*
G01*
%TO.N,/1A_P*%
X133534065Y-160824970D02*
X131709168Y-171317455D01*
X133538615Y-160825760D02*
G75*
G02*
X131850028Y-160488501I5881318J33842394D01*
G01*
X129503006Y-170876667D02*
X131850028Y-160488502D01*
%TO.N,/1B_P*%
X129359760Y-171510686D02*
G75*
G02*
X128246852Y-171244541I10064700J44546332D01*
G01*
X130846669Y-160916739D02*
X128237927Y-171242288D01*
X126039859Y-170628105D02*
X129161404Y-160445842D01*
X126042793Y-170629004D02*
G75*
G02*
X124953027Y-170279997I13376010J43642159D01*
G01*
%TO.N,/1A_P*%
X130176016Y-160065803D02*
X127309977Y-170322914D01*
X130180464Y-160067045D02*
G75*
G02*
X128534118Y-159562451I9239836J33085017D01*
G01*
X125159019Y-169663501D02*
X128534118Y-159562452D01*
%TO.N,/1B_P*%
X124953027Y-170279997D02*
G75*
G02*
X123872350Y-169903786I14396252J43093894D01*
G01*
X127492931Y-159888101D02*
X123863695Y-169900650D01*
X121738148Y-169069523D02*
X125863268Y-159250873D01*
X121740977Y-169070710D02*
G75*
G02*
X120691620Y-168614370I17679664J42089180D01*
G01*
%TO.N,/1A_P*%
X126910826Y-158974306D02*
X123032436Y-168893005D01*
X126915127Y-158975988D02*
G75*
G02*
X125327561Y-158309127I12505800J31995149D01*
G01*
X120958289Y-168021592D02*
X125327561Y-158309127D01*
%TO.N,/1B_P*%
X120691620Y-168614371D02*
G75*
G02*
X119654031Y-168131873I18702451J41575623D01*
G01*
X124259006Y-158528917D02*
X119645733Y-168127886D01*
X117614059Y-167088164D02*
X122701316Y-157731759D01*
X117616755Y-167089628D02*
G75*
G02*
X116618348Y-166530539I21802183J40104796D01*
G01*
%TO.N,/1A_P*%
X123771297Y-157561442D02*
X118919515Y-167042092D01*
X123775408Y-157563545D02*
G75*
G02*
X122262569Y-156741117I15644611J30580563D01*
G01*
X116943016Y-165967431D02*
X122262569Y-156741118D01*
%TO.N,/1B_P*%
X116618348Y-166530539D02*
G75*
G02*
X115634269Y-165946600I22869993J39662666D01*
G01*
X121177380Y-156852840D02*
X115626411Y-165941803D01*
X113709019Y-164703931D02*
X119707309Y-155903760D01*
X113711556Y-164705658D02*
G75*
G02*
X112774130Y-164049435I25702411J37714018D01*
G01*
%TO.N,/1A_P*%
X120788965Y-155841405D02*
X115012531Y-164788768D01*
X120792845Y-155843910D02*
G75*
G02*
X119369930Y-154874176I18627648J28861621D01*
G01*
X113153533Y-163521656D02*
X119369930Y-154874176D01*
%TO.N,/1B_P*%
X112774129Y-164049435D02*
G75*
G02*
X111853445Y-163369922I26510953J36883632D01*
G01*
X118279009Y-154876709D02*
X111846107Y-163364363D01*
X110062258Y-161940776D02*
X116911326Y-153785240D01*
X110064608Y-161942749D02*
G75*
G02*
X109197578Y-161195985I29350585J34954198D01*
G01*
%TO.N,/1A_P*%
X117993790Y-153831473D02*
X111350730Y-162155670D01*
X117997401Y-153834353D02*
G75*
G02*
X116678705Y-152727055I21423635J26852569D01*
G01*
X109627908Y-160708834D02*
X116678704Y-152727056D01*
%TO.N,/1B_P*%
X109197578Y-161195985D02*
G75*
G02*
X108349539Y-160427724I30218659J34208816D01*
G01*
X115593008Y-152620373D02*
X108342795Y-160421457D01*
X106710407Y-158826455D02*
X114341451Y-151397480D01*
X106712549Y-158828652D02*
G75*
G02*
X105924626Y-157998848I32707660J31845853D01*
G01*
%TO.N,/1A_P*%
X115413851Y-151551837D02*
X107970896Y-159169246D01*
X115417154Y-151555064D02*
G75*
G02*
X114215924Y-150321325I24003314J24572506D01*
G01*
X106401558Y-157557222D02*
X114215923Y-150321325D01*
%TO.N,/1B_P*%
X105924625Y-157998849D02*
G75*
G02*
X105157749Y-157149557I33503452J31023124D01*
G01*
X113146359Y-150106499D02*
X105151666Y-157142647D01*
X103687139Y-155392252D02*
X112023502Y-148764466D01*
X103689050Y-155394654D02*
G75*
G02*
X102988149Y-154490147I35731313J28411954D01*
G01*
%TO.N,/1A_P*%
X113075064Y-149025396D02*
X104906983Y-155859499D01*
X113078028Y-149028938D02*
G75*
G02*
X112006328Y-147681151I26340835J22045033D01*
G01*
X103506892Y-154098479D02*
X112006328Y-147681151D01*
%TO.N,/1B_P*%
X102988149Y-154490147D02*
G75*
G02*
X102310139Y-153568355I36407173J27488985D01*
G01*
X110963641Y-147360340D02*
X102304777Y-153560871D01*
X101022822Y-151672667D02*
X109980762Y-145912648D01*
X101024482Y-151675248D02*
G75*
G02*
X100417644Y-150705123I38390860J24689324D01*
G01*
%TO.N,/1A_P*%
X111000923Y-146277530D02*
X102189768Y-152259674D01*
X111003518Y-146281350D02*
G75*
G02*
X110072116Y-144833055I28417290J19298856D01*
G01*
X100972989Y-150367349D02*
X110072115Y-144833055D01*
%TO.N,/1B_P*%
X100417644Y-150705123D02*
G75*
G02*
X99835312Y-149720091I38973970J23705310D01*
G01*
X109066779Y-144409482D02*
X99830727Y-149712108D01*
X98744222Y-147705064D02*
X108233752Y-142870674D01*
X98745616Y-147707798D02*
G75*
G02*
X98238936Y-146681800I40672313J20723770D01*
G01*
%TO.N,/1A_P*%
X109212264Y-143335842D02*
X99846546Y-148405935D01*
X109214463Y-143339903D02*
G75*
G02*
X108432715Y-141805648I30204603J16356422D01*
G01*
X98825303Y-146401313D02*
X108432715Y-141805648D01*
%TO.N,/1B_P*%
X98238935Y-146681800D02*
G75*
G02*
X97758130Y-145643424I41249887J19730667D01*
G01*
X107474828Y-141283567D02*
X97754368Y-145635022D01*
X96874227Y-143529298D02*
X106800021Y-139669102D01*
X96875341Y-143532158D02*
G75*
G02*
X96473909Y-142460594I42543581J16548758D01*
G01*
%TO.N,/1A_P*%
X107727054Y-140229883D02*
X97900857Y-144336993D01*
X107728836Y-140234144D02*
G75*
G02*
X107104595Y-138629341I31688473J13250087D01*
G01*
X97085408Y-142240212D02*
X107104595Y-138629341D01*
%TO.N,/1B_P*%
X96473909Y-142460594D02*
G75*
G02*
X96099462Y-141379305I42874818J15452895D01*
G01*
X106203780Y-138013997D02*
X96096558Y-141370568D01*
X95431623Y-139187318D02*
X105693972Y-136340092D01*
X95432445Y-139190275D02*
G75*
G02*
X95140294Y-138083910I43988900J12207634D01*
G01*
%TO.N,/1A_P*%
X106560214Y-136990854D02*
X96372246Y-140093722D01*
X106561561Y-136995271D02*
G75*
G02*
X106101098Y-135336042I32858133J10012173D01*
G01*
X95770781Y-137925846D02*
X106101097Y-135336042D01*
%TO.N,/1B_P*%
X95140293Y-138083910D02*
G75*
G02*
X94875964Y-136970569I44358078J11119527D01*
G01*
X105266403Y-134633616D02*
X94873951Y-136961586D01*
X94430901Y-134722741D02*
X104926715Y-132917086D01*
X94431422Y-134725765D02*
G75*
G02*
X94251486Y-133595712I44988216J7742732D01*
G01*
%TO.N,/1A_P*%
X105723465Y-133651291D02*
X95276067Y-135718749D01*
X105724363Y-133655821D02*
G75*
G02*
X105432302Y-131958832I33695318J6672774D01*
G01*
X94894631Y-133501555D02*
X105432301Y-131958832D01*
%TO.N,/1B_P*%
X94251486Y-133595712D02*
G75*
G02*
X94099932Y-132461504I45382396J6641270D01*
G01*
X104672114Y-131176381D02*
X94098828Y-132452364D01*
X93882114Y-130180414D02*
X104505958Y-129434470D01*
X93882330Y-130183475D02*
G75*
G02*
X93816418Y-129041086I45538890J3200537D01*
G01*
%TO.N,/1A_P*%
X105225211Y-130244742D02*
X94623334Y-131256022D01*
X105225650Y-130249340D02*
G75*
G02*
X105104927Y-128531639I34195384J3266404D01*
G01*
X94465756Y-129011782D02*
X105104927Y-128531639D01*
%TO.N,/1B_P*%
X93816418Y-129041086D02*
G75*
G02*
X93779160Y-127897404I45564824J2056824D01*
G01*
X104426882Y-127677022D02*
X93778976Y-127888200D01*
X93790775Y-125605968D02*
X104435928Y-125927228D01*
X93790682Y-125609036D02*
G75*
G02*
X93839455Y-124465787I45631960J-1374074D01*
G01*
%TO.N,/1A_P*%
X105070460Y-126805429D02*
X94420602Y-126750371D01*
X105070436Y-126810047D02*
G75*
G02*
X105122263Y-125088889I34349349J-172958D01*
G01*
X94488466Y-124501629D02*
X105122263Y-125088889D01*
%TO.N,/1B_P*%
X93839456Y-124465787D02*
G75*
G02*
X93916869Y-123324119I45667669J-2523126D01*
G01*
X104533171Y-124170691D02*
X93917607Y-123314943D01*
X94157800Y-121045355D02*
X104717328Y-122430591D01*
X94157401Y-121048398D02*
G75*
G02*
X94320370Y-119915774I45262605J-5934629D01*
G01*
%TO.N,/1A_P*%
X105260764Y-123367898D02*
X94669908Y-122247056D01*
X105260279Y-123372491D02*
G75*
G02*
X105484135Y-121665166I34158704J-3610382D01*
G01*
X94962533Y-120016402D02*
X105484134Y-121665166D01*
%TO.N,/1B_P*%
X94320370Y-119915774D02*
G75*
G02*
X94511676Y-118787590I45003083J-7050854D01*
G01*
X104989913Y-120692612D02*
X94513330Y-118778533D01*
X94979504Y-116544389D02*
X105347331Y-118979686D01*
X94978803Y-116547376D02*
G75*
G02*
X95254330Y-115436754I44433136J-10433640D01*
G01*
%TO.N,/1A_P*%
X105794212Y-119966684D02*
X95368749Y-117791316D01*
X105793270Y-119971205D02*
G75*
G02*
X106186906Y-118294863I33626531J-7011742D01*
G01*
X95883195Y-115601159D02*
X106186905Y-118294863D01*
%TO.N,/1B_P*%
X95254331Y-115436754D02*
G75*
G02*
X95557608Y-114333387I44158913J-11544377D01*
G01*
X105792521Y-117277722D02*
X95560159Y-114324541D01*
X96247632Y-112148283D02*
X106319609Y-115609177D01*
X96246635Y-112151185D02*
G75*
G02*
X96631952Y-111073722I43172270J-14831425D01*
G01*
%TO.N,/1A_P*%
X106665445Y-116635951D02*
X96510103Y-113427911D01*
X106664055Y-116640355D02*
G75*
G02*
X107223517Y-115011837I32755001J-10342314D01*
G01*
X97241202Y-111300250D02*
X107223517Y-115011837D01*
%TO.N,/1B_P*%
X96631952Y-111073722D02*
G75*
G02*
X97044155Y-110006254I42857135J-15935972D01*
G01*
X106932931Y-113960326D02*
X97047579Y-109997709D01*
X97949445Y-107901198D02*
X107624394Y-112352924D01*
X97948163Y-107903986D02*
G75*
G02*
X98439401Y-106870505I41469576J-19077983D01*
G01*
%TO.N,/1A_P*%
X107865713Y-113409159D02*
X98082506Y-109200672D01*
X107863889Y-113413401D02*
G75*
G02*
X108583558Y-111849066I31557666J-13570329D01*
G01*
X99022913Y-107156882D02*
X108583557Y-111849066D01*
%TO.N,/1B_P*%
X98439400Y-106870505D02*
G75*
G02*
X98956386Y-105849661I40933783J-20088764D01*
G01*
X108399687Y-110773748D02*
X98960649Y-105841501D01*
X100067848Y-103845798D02*
X109248580Y-109243636D01*
X100066293Y-103848443D02*
G75*
G02*
X100658516Y-102869327I39354364J-23135013D01*
G01*
%TO.N,/1A_P*%
X109382956Y-110318722D02*
X100070161Y-105152065D01*
X109380717Y-110322760D02*
G75*
G02*
X110253363Y-108838321I30038672J-16659891D01*
G01*
X101210431Y-103212676D02*
X110253362Y-108838321D01*
%TO.N,/1B_P*%
X100658515Y-102869327D02*
G75*
G02*
X101275092Y-101905361I38593179J-24006000D01*
G01*
X110178056Y-107749999D02*
X101280150Y-101897669D01*
X102581559Y-100022821D02*
X111175851Y-106312547D01*
X102579747Y-100025298D02*
G75*
G02*
X103267005Y-99110381I36845094J-26961339D01*
G01*
%TO.N,/1A_P*%
X111201935Y-107395685D02*
X102453103Y-101322759D01*
X111199302Y-107399479D02*
G75*
G02*
X112216158Y-106009849I28221393J-19584032D01*
G01*
X103781780Y-99507253D02*
X112216158Y-106009849D01*
%TO.N,/1B_P*%
X103267005Y-99110381D02*
G75*
G02*
X103976980Y-98212977I36228238J-27932173D01*
G01*
X112250173Y-104919455D02*
X103982782Y-98205830D01*
X105465329Y-96470671D02*
X113386846Y-103589103D01*
X105463278Y-96472954D02*
G75*
G02*
X106238668Y-95631427I33957012J-30510285D01*
G01*
%TO.N,/1A_P*%
X113304376Y-104669411D02*
X105207392Y-97751221D01*
X113301378Y-104672923D02*
G75*
G02*
X114452230Y-103392061I26119497J-22310867D01*
G01*
X106711130Y-96077836D02*
X114452229Y-103392060D01*
%TO.N,/1B_P*%
X106238668Y-95631427D02*
G75*
G02*
X107034908Y-94809600I33194555J-31364428D01*
G01*
X114594351Y-102311424D02*
X107040260Y-94804213D01*
X108688996Y-93226116D02*
X115858442Y-101101492D01*
X108687919Y-93227097D02*
G75*
G02*
X109091698Y-92863857I30704716J-33725441D01*
G01*
%TO.N,/1A_P*%
X115668284Y-102168126D02*
X108304215Y-94474428D01*
X115665824Y-102170480D02*
G75*
G02*
X116599032Y-101309562I23752661J-24810893D01*
G01*
%TO.N,/1B_P*%
X109485422Y-92513878D02*
X109091698Y-92863857D01*
%TO.N,/1A_P*%
X116992756Y-100959583D02*
X116599032Y-101309562D01*
X109917259Y-92999693D02*
X116992756Y-100959583D01*
%TO.N,/1B_P*%
X110234839Y-91847726D02*
X109485422Y-92513878D01*
X117316365Y-99802257D02*
X110240868Y-91842367D01*
X111735683Y-90513635D02*
X118811180Y-98473525D01*
X112483090Y-89849269D02*
X111733673Y-90515422D01*
%TO.N,/1A_P*%
X118495610Y-99623706D02*
X111420113Y-91663816D01*
X119990425Y-98294974D02*
X118491591Y-99627279D01*
X112914928Y-90335084D02*
X119990425Y-98294974D01*
%TO.N,/1B_P*%
X113232508Y-89183117D02*
X112483090Y-89849269D01*
X120314033Y-97137648D02*
X113238537Y-89177758D01*
X114733352Y-87849026D02*
X121808848Y-95808916D01*
X115480759Y-87184660D02*
X114731342Y-87850812D01*
%TO.N,/1A_P*%
X121493279Y-96959097D02*
X114417782Y-88999207D01*
X122988094Y-95630365D02*
X121489259Y-96962669D01*
X115912597Y-87670475D02*
X122988094Y-95630365D01*
%TO.N,/1B_P*%
X116230176Y-86518508D02*
X115480759Y-87184660D01*
X123309078Y-94475371D02*
X116233582Y-86515481D01*
%TO.N,/1A_P*%
X124488324Y-94296820D02*
X117412827Y-86336930D01*
X125007320Y-93835487D02*
X124486928Y-94298060D01*
%TO.N,/1B_P*%
X117757832Y-85162007D02*
X124783984Y-93165487D01*
X117755583Y-85163981D02*
G75*
G02*
X118601539Y-84436137I36714737J-41817138D01*
G01*
%TO.N,/1A_P*%
X125007320Y-93835487D02*
G75*
G02*
X125885198Y-93075484I29466200J-33149332D01*
G01*
X119020511Y-84933091D02*
X125885198Y-93075484D01*
%TO.N,/1B_P*%
X118601539Y-84436137D02*
G75*
G02*
X119461920Y-83725403I35886848J-42566787D01*
G01*
X126167596Y-91999246D02*
X119468899Y-83719755D01*
X121226967Y-82354613D02*
X127589214Y-90895357D01*
X121224567Y-82356401D02*
G75*
G02*
X122126124Y-81698683I33250157J-44630393D01*
G01*
%TO.N,/1A_P*%
X127271538Y-91953590D02*
X120739760Y-83541790D01*
X127267771Y-91956515D02*
G75*
G02*
X128694099Y-90893883I27204836J-35027385D01*
G01*
X122503928Y-82227610D02*
X128694099Y-90893883D01*
%TO.N,/1B_P*%
X122126124Y-81698683D02*
G75*
G02*
X123040689Y-81059176I32336561J-45271103D01*
G01*
X129061827Y-89843734D02*
X123048098Y-81054106D01*
X124909900Y-79834225D02*
X130567327Y-88857308D01*
X124907365Y-79835816D02*
G75*
G02*
X125858725Y-79252454I29561213J-47141666D01*
G01*
%TO.N,/1A_P*%
X130165878Y-89886682D02*
X124329133Y-80978545D01*
X130161888Y-89889297D02*
G75*
G02*
X131668778Y-88944372I24308954J-37091959D01*
G01*
X126192932Y-79809953D02*
X131668778Y-88944372D01*
%TO.N,/1B_P*%
X125858725Y-79252454D02*
G75*
G02*
X126821593Y-78688286I28607600J-47720965D01*
G01*
X132119471Y-87927065D02*
X126829384Y-78683825D01*
X128782948Y-77617052D02*
X133699171Y-87064445D01*
X128780293Y-77618433D02*
G75*
G02*
X129775339Y-77113179I25693213J-49367703D01*
G01*
%TO.N,/1A_P*%
X133216530Y-88058342D02*
X128112355Y-78711156D01*
X133212344Y-88060628D02*
G75*
G02*
X134790104Y-87239487I21260835J-38924734D01*
G01*
X130063799Y-77695665D02*
X134790104Y-87239487D01*
%TO.N,/1B_P*%
X129775339Y-77113180D02*
G75*
G02*
X130780316Y-76627980I24682294J-49840144D01*
G01*
X135320863Y-86261566D02*
X130788440Y-76624157D01*
X132821202Y-75717351D02*
X136964606Y-85528299D01*
X132818445Y-75718516D02*
G75*
G02*
X133850776Y-75294618I21652448J-51261849D01*
G01*
%TO.N,/1A_P*%
X136403876Y-86480327D02*
X132065095Y-76754203D01*
X136399520Y-86482271D02*
G75*
G02*
X138038004Y-85790195I18073447J-40503142D01*
G01*
X134091635Y-75898346D02*
X138038004Y-85790194D01*
%TO.N,/1B_P*%
X133850776Y-75294619D02*
G75*
G02*
X134891401Y-74891507I20629387J-51709589D01*
G01*
X138645417Y-84857946D02*
X134899805Y-74888348D01*
X136998692Y-74147341D02*
X140342629Y-84258749D01*
X136995850Y-74148281D02*
G75*
G02*
X138058829Y-73808466I17476022J-52834471D01*
G01*
%TO.N,/1A_P*%
X139707418Y-85162785D02*
X136161934Y-75120273D01*
X139702920Y-85164374D02*
G75*
G02*
X141391591Y-84605814I14768890J-41818240D01*
G01*
X138250537Y-74429553D02*
X141391591Y-84605813D01*
%TO.N,/1B_P*%
X138058829Y-73808466D02*
G75*
G02*
X139128408Y-73490035I16411925J-53170549D01*
G01*
X142071751Y-83725234D02*
X139137039Y-73487560D01*
X141288551Y-72917118D02*
X143811519Y-83263960D01*
X141285644Y-72917827D02*
G75*
G02*
X142372434Y-72664281I13187773J-54071610D01*
G01*
%TO.N,/1A_P*%
X143105911Y-84114189D02*
X140376524Y-73819873D01*
X143101300Y-84115413D02*
G75*
G02*
X144829298Y-83693961I11370827J-42868386D01*
G01*
X142513758Y-73298731D02*
X144829298Y-83693960D01*
%TO.N,/1B_P*%
X142372434Y-72664282D02*
G75*
G02*
X143464089Y-72432579I12101765J-54329265D01*
G01*
X145577831Y-82870713D02*
X143472890Y-72430803D01*
X145663195Y-72034594D02*
X147348967Y-82550328D01*
X145660240Y-72035068D02*
G75*
G02*
X146763852Y-71869421I8810616J-54940940D01*
G01*
%TO.N,/1A_P*%
X146577499Y-83341284D02*
X144681764Y-72861366D01*
X146572805Y-83342134D02*
G75*
G02*
X148329017Y-83060500I7899136J-43640891D01*
G01*
X146853883Y-72513154D02*
X148329017Y-83060499D01*
%TO.N,/1B_P*%
X146763852Y-71869420D02*
G75*
G02*
X147870563Y-71725935I7706494J-55100975D01*
G01*
X149141109Y-82299879D02*
X147879478Y-71724871D01*
X150094487Y-71505443D02*
X150932222Y-82122444D01*
X150091504Y-71505680D02*
G75*
G02*
X151204840Y-71428996I4379608J-55464978D01*
G01*
%TO.N,/1A_P*%
X150099857Y-82849039D02*
X149049963Y-72250916D01*
X150095110Y-82849510D02*
G75*
G02*
X151868242Y-82709505I4376725J-44132077D01*
G01*
X151243000Y-72077874D02*
X151868242Y-82709505D01*
%TO.N,/1B_P*%
X151204840Y-71428996D02*
G75*
G02*
X152319490Y-71374653I3266993J-55551865D01*
G01*
X152736081Y-82016502D02*
X152325260Y-71374429D01*
%TO.N,/1A_P*%
X153647778Y-82640668D02*
X153449866Y-71992507D01*
X153645562Y-82640709D02*
G75*
G02*
X154471946Y-82633009I826517J-44355247D01*
G01*
%TO.N,/1B_P*%
X154545608Y-71333009D02*
X154545608Y-81983009D01*
X155545608Y-71333009D02*
X154542919Y-71333009D01*
%TO.N,/1A_P*%
X155545608Y-82633009D02*
X154471946Y-82633009D01*
X155545608Y-71983009D02*
X155545608Y-82633009D01*
%TO.N,/1B_P*%
X156548297Y-71333009D02*
X155545608Y-71333009D01*
X156556363Y-81983009D02*
X156556363Y-71333009D01*
X158556363Y-71333009D02*
X158556363Y-81983009D01*
X159556363Y-71333009D02*
X158553675Y-71333009D01*
%TO.N,/1A_P*%
X157556363Y-82633009D02*
X157556363Y-71983009D01*
X159556363Y-82633009D02*
X157550986Y-82633009D01*
X159556363Y-71983009D02*
X159556363Y-82633009D01*
%TO.N,/1B_P*%
X160559052Y-71333009D02*
X159556363Y-71333009D01*
X160567119Y-81983009D02*
X160567119Y-71333009D01*
X162567119Y-71333009D02*
X162567119Y-81983009D01*
X163567119Y-71333009D02*
X162564430Y-71333009D01*
%TO.N,/1A_P*%
X161567119Y-82633009D02*
X161567119Y-71983009D01*
X163567119Y-82633009D02*
X161561741Y-82633009D01*
X163567119Y-71983009D02*
X163567119Y-82633009D01*
%TO.N,/1B_P*%
X164569808Y-71333009D02*
X163567119Y-71333009D01*
X164577875Y-81983009D02*
X164577875Y-71333009D01*
X166577875Y-71333009D02*
X166577875Y-81983009D01*
X167577875Y-71333009D02*
X166575186Y-71333009D01*
%TO.N,/1A_P*%
X165577875Y-82633009D02*
X165577875Y-71983009D01*
X167577875Y-82633009D02*
X165572497Y-82633009D01*
X167577875Y-71983009D02*
X167577875Y-82633009D01*
%TO.N,/1B_P*%
X168580564Y-71333009D02*
X167577875Y-71333009D01*
X168588630Y-81983009D02*
X168588630Y-71333009D01*
X170588630Y-71333009D02*
X170588630Y-81983009D01*
X171588630Y-71333009D02*
X170585941Y-71333009D01*
%TO.N,/1A_P*%
X169588630Y-82633009D02*
X169588630Y-71983009D01*
X171588630Y-82633009D02*
X169583252Y-82633009D01*
X171588630Y-71983009D02*
X171588630Y-82633009D01*
%TO.N,/1B_P*%
X172591319Y-71333009D02*
X171588630Y-71333009D01*
X172599386Y-81983009D02*
X172599386Y-71333009D01*
X174599386Y-71333009D02*
X174599386Y-81983009D01*
X175599386Y-71333009D02*
X174596697Y-71333009D01*
%TO.N,/1A_P*%
X173599386Y-82633009D02*
X173599386Y-71983009D01*
X175599386Y-82633009D02*
X173594008Y-82633009D01*
X175599386Y-71983009D02*
X175599386Y-82633009D01*
%TO.N,/1B_P*%
X176602075Y-71333009D02*
X175599386Y-71333009D01*
X176610141Y-81983009D02*
X176610141Y-71333009D01*
X178610141Y-71333009D02*
X178610141Y-81983009D01*
X179610141Y-71333009D02*
X178607453Y-71333009D01*
%TO.N,/1A_P*%
X177610141Y-82633009D02*
X177610141Y-71983009D01*
X179610141Y-82633009D02*
X177604764Y-82633009D01*
X179610141Y-71983009D02*
X179610141Y-82633009D01*
%TO.N,/1B_P*%
X180612830Y-71333009D02*
X179610141Y-71333009D01*
X180620897Y-81983009D02*
X180620897Y-71333009D01*
X182620897Y-71333009D02*
X182620897Y-81983009D01*
X183620897Y-71333009D02*
X182618208Y-71333009D01*
%TO.N,/1A_P*%
X181620897Y-82633009D02*
X181620897Y-71983009D01*
X183620897Y-82633009D02*
X181615519Y-82633009D01*
X183620897Y-71983009D02*
X183620897Y-82633009D01*
%TO.N,/1B_P*%
X184623586Y-71333009D02*
X183620897Y-71333009D01*
X184631653Y-81983009D02*
X184631653Y-71333009D01*
X186631653Y-71333009D02*
X186631653Y-81983009D01*
X187631653Y-71333009D02*
X186628964Y-71333009D01*
%TO.N,/1A_P*%
X185631653Y-82633009D02*
X185631653Y-71983009D01*
X187631653Y-82633009D02*
X185626275Y-82633009D01*
X187631653Y-71983009D02*
X187631653Y-82633009D01*
%TO.N,/1B_P*%
X188634342Y-71333009D02*
X187631653Y-71333009D01*
X188642408Y-81983009D02*
X188642408Y-71333009D01*
X190642408Y-71333009D02*
X190642408Y-81983009D01*
X191642408Y-71333009D02*
X190639719Y-71333009D01*
%TO.N,/1A_P*%
X189642408Y-82633009D02*
X189642408Y-71983009D01*
X191642408Y-82633009D02*
X189637031Y-82633009D01*
X191642408Y-71983009D02*
X191642408Y-82633009D01*
%TO.N,/1B_P*%
X192645097Y-71333009D02*
X191642408Y-71333009D01*
X192653164Y-81983009D02*
X192653164Y-71333009D01*
X194653164Y-71333009D02*
X194653164Y-81983009D01*
X195653164Y-71333009D02*
X194650475Y-71333009D01*
%TO.N,/1A_P*%
X193653164Y-82633009D02*
X193653164Y-71983009D01*
X195653164Y-82633009D02*
X193647786Y-82633009D01*
X195653164Y-71983009D02*
X195653164Y-82633009D01*
%TO.N,/1B_P*%
X196655853Y-71333009D02*
X195653164Y-71333009D01*
X196663920Y-81983009D02*
X196663920Y-71333009D01*
X198663920Y-71333009D02*
X198663920Y-81983009D01*
X199663920Y-71333009D02*
X198661231Y-71333009D01*
%TO.N,/1A_P*%
X197663920Y-82633009D02*
X197663920Y-71983009D01*
X199663920Y-82633009D02*
X197658542Y-82633009D01*
X199663920Y-71983009D02*
X199663920Y-82633009D01*
%TO.N,/1B_P*%
X200666608Y-71333009D02*
X199663920Y-71333009D01*
X200674675Y-81983009D02*
X200674675Y-71333009D01*
X202674675Y-71333009D02*
X202674675Y-81983009D01*
X203674675Y-71333009D02*
X202671986Y-71333009D01*
%TO.N,/1A_P*%
X201674675Y-82633009D02*
X201674675Y-71983009D01*
X203674675Y-82633009D02*
X201669297Y-82633009D01*
X203674675Y-71983009D02*
X203674675Y-82633009D01*
%TO.N,/1B_P*%
X204677364Y-71333009D02*
X203674675Y-71333009D01*
X204685431Y-81983009D02*
X204685431Y-71333009D01*
X206685431Y-71333009D02*
X206685431Y-81983009D01*
X207685431Y-71333009D02*
X206682742Y-71333009D01*
%TO.N,/1A_P*%
X205685431Y-82633009D02*
X205685431Y-71983009D01*
X207685431Y-82633009D02*
X205680053Y-82633009D01*
X207685431Y-71983009D02*
X207685431Y-82633009D01*
%TO.N,/1B_P*%
X208688120Y-71333009D02*
X207685431Y-71333009D01*
X208696186Y-81983009D02*
X208696186Y-71333009D01*
X210696186Y-71333009D02*
X210696186Y-81983009D01*
X211696186Y-71333009D02*
X210693498Y-71333009D01*
%TO.N,/1A_P*%
X209696186Y-82633009D02*
X209696186Y-71983009D01*
X211696186Y-82633009D02*
X209690809Y-82633009D01*
X211696186Y-71983009D02*
X211696186Y-82633009D01*
%TO.N,/1B_P*%
X212698875Y-71333009D02*
X211696186Y-71333009D01*
X212706942Y-81983009D02*
X212706942Y-71333009D01*
X214706942Y-71333009D02*
X214706942Y-81983009D01*
X215706942Y-71333009D02*
X214704253Y-71333009D01*
%TO.N,/1A_P*%
X213706942Y-82633009D02*
X213706942Y-71983009D01*
X215706942Y-82633009D02*
X213701564Y-82633009D01*
X215706942Y-71983009D02*
X215706942Y-82633009D01*
%TO.N,/1B_P*%
X216709631Y-71333009D02*
X215706942Y-71333009D01*
X216717698Y-81983009D02*
X216717698Y-71333009D01*
X218717698Y-71333009D02*
X218717698Y-81983009D01*
X219717698Y-71333009D02*
X218715009Y-71333009D01*
%TO.N,/1A_P*%
X217717698Y-82633009D02*
X217717698Y-71983009D01*
X219717698Y-82633009D02*
X217712320Y-82633009D01*
X219717698Y-71983009D02*
X219717698Y-82633009D01*
%TO.N,/1B_P*%
X220720387Y-71333009D02*
X219717698Y-71333009D01*
X220728453Y-81983009D02*
X220728453Y-71333009D01*
X222728453Y-71333009D02*
X222728453Y-81983009D01*
X223728453Y-71333009D02*
X222725764Y-71333009D01*
%TO.N,/1A_P*%
X221728453Y-82633009D02*
X221728453Y-71983009D01*
X223728453Y-82633009D02*
X221723075Y-82633009D01*
X223728453Y-71983009D02*
X223728453Y-82633009D01*
%TO.N,/1B_P*%
X224731142Y-71333009D02*
X223728453Y-71333009D01*
X224739209Y-81983009D02*
X224739209Y-71333009D01*
X226739209Y-71333009D02*
X226739209Y-81983009D01*
X227739209Y-71333009D02*
X226736520Y-71333009D01*
%TO.N,/1A_P*%
X225739209Y-82633009D02*
X225739209Y-71983009D01*
X227739209Y-82633009D02*
X225733831Y-82633009D01*
X227739209Y-71983009D02*
X227739209Y-82633009D01*
%TO.N,/1B_P*%
X228741898Y-71333009D02*
X227739209Y-71333009D01*
X228749964Y-81983009D02*
X228749964Y-71333009D01*
X230749964Y-71333009D02*
X230749964Y-81983009D01*
X231749964Y-71333009D02*
X230747276Y-71333009D01*
%TO.N,/1A_P*%
X229749964Y-82633009D02*
X229749964Y-71983009D01*
X231749964Y-82633009D02*
X229744587Y-82633009D01*
X231749964Y-71983009D02*
X231749964Y-82633009D01*
%TO.N,/1B_P*%
X232752653Y-71333009D02*
X231749964Y-71333009D01*
X232757125Y-81983009D02*
X232757125Y-71333009D01*
%TO.N,/1A_P*%
X233757125Y-82633009D02*
X233757125Y-71983009D01*
X234420000Y-82633009D02*
X233755342Y-82633009D01*
%TO.N,/1B_P*%
X234795719Y-71334173D02*
X234729744Y-81983969D01*
X234792754Y-71334155D02*
G75*
G02*
X235898302Y-71351028I-372906J-60660598D01*
G01*
%TO.N,/1A_P*%
X234420000Y-82633009D02*
G75*
G02*
X235622872Y-82647671I-142J-49360814D01*
G01*
X235882459Y-72000835D02*
X235622872Y-82647671D01*
%TO.N,/1B_P*%
X235898302Y-71351029D02*
G75*
G02*
X237003359Y-71388054I-1478337J-60632210D01*
G01*
X236557054Y-82028700D02*
X237012247Y-71388433D01*
X239213486Y-71522733D02*
X238371761Y-82139418D01*
X239210531Y-71522500D02*
G75*
G02*
X240311911Y-71619877I-4789913J-60453435D01*
G01*
%TO.N,/1A_P*%
X237425327Y-82724604D02*
X238073893Y-72094371D01*
X237420511Y-82724310D02*
G75*
G02*
X239214160Y-82866429I-3000402J-49256996D01*
G01*
X240248766Y-72266802D02*
X239214160Y-82866429D01*
%TO.N,/1B_P*%
X240311911Y-71619876D02*
G75*
G02*
X241411334Y-71737315I-5891476J-60358872D01*
G01*
X240190956Y-82317165D02*
X241420170Y-71738341D01*
X243605775Y-72032663D02*
X241992774Y-82559806D01*
X243602844Y-72032215D02*
G75*
G02*
X244694203Y-72209578I-9182938J-59951300D01*
G01*
%TO.N,/1A_P*%
X241006219Y-83074480D02*
X242427562Y-72519752D01*
X241001437Y-83073837D02*
G75*
G02*
X242779965Y-83346259I-6581300J-48908364D01*
G01*
X244584092Y-72850182D02*
X242779965Y-83346259D01*
%TO.N,/1B_P*%
X244694203Y-72209578D02*
G75*
G02*
X245782147Y-72406806I-10274115J-59773067D01*
G01*
X243794184Y-82869624D02*
X245790885Y-72408472D01*
X247949237Y-72861252D02*
X245573534Y-83242896D01*
X247946347Y-72860590D02*
G75*
G02*
X249021883Y-73116996I-13529869J-59137160D01*
G01*
%TO.N,/1A_P*%
X244552103Y-83684324D02*
X246738667Y-73261204D01*
X244547381Y-83683335D02*
G75*
G02*
X246301334Y-84084614I-10127067J-48298286D01*
G01*
X248865391Y-73747877D02*
X246301334Y-84084613D01*
%TO.N,/1B_P*%
X249021883Y-73116997D02*
G75*
G02*
X250092566Y-73392967I-14606665J-58884548D01*
G01*
X247347583Y-83683138D02*
X250101159Y-73395266D01*
X252220786Y-74004095D02*
X249095009Y-84185059D01*
X252217952Y-74003226D02*
G75*
G02*
X253271948Y-74337312I-17800695J-57988426D01*
G01*
%TO.N,/1A_P*%
X248044131Y-84550894D02*
X250984294Y-74314785D01*
X248039493Y-84549563D02*
G75*
G02*
X249759549Y-85077565I-13618812J-47431277D01*
G01*
X253069907Y-74955113D02*
X249759549Y-85077565D01*
%TO.N,/1B_P*%
X253271948Y-74337311D02*
G75*
G02*
X254319679Y-74690556I-18861037J-57672591D01*
G01*
X250832268Y-84753385D02*
X254328082Y-74693475D01*
X256397717Y-75455119D02*
X252538481Y-85381286D01*
X256394954Y-75454044D02*
G75*
G02*
X257421808Y-75864035I-21977823J-56536062D01*
G01*
%TO.N,/1A_P*%
X251463742Y-85669584D02*
X255141875Y-75674894D01*
X251459213Y-85667919D02*
G75*
G02*
X253136228Y-86319838I-17040432J-46318252D01*
G01*
X257175292Y-76465475D02*
X253136228Y-86319837D01*
%TO.N,/1B_P*%
X257421808Y-75864035D02*
G75*
G02*
X258441018Y-76292677I-23006502J-56130099D01*
G01*
X254229716Y-86074675D02*
X258449185Y-76296200D01*
X260457829Y-77206610D02*
X255885646Y-86825219D01*
X260455151Y-77205337D02*
G75*
G02*
X261449405Y-77689053I-26033181J-54773577D01*
G01*
%TO.N,/1A_P*%
X254792758Y-87034448D02*
X259189311Y-77334302D01*
X254788363Y-87032457D02*
G75*
G02*
X256413423Y-87804828I-20368510J-44950857D01*
G01*
X261159724Y-78270933D02*
X256413423Y-87804827D01*
%TO.N,/1B_P*%
X261449405Y-77689054D02*
G75*
G02*
X262434676Y-78190814I-27026819J-54288907D01*
G01*
X257521867Y-87639986D02*
X262442565Y-78194922D01*
X264379539Y-79249258D02*
X259118713Y-88509183D01*
X264376961Y-79247794D02*
G75*
G02*
X265333330Y-79802663I-29965647J-52750246D01*
G01*
%TO.N,/1A_P*%
X258013486Y-88638230D02*
X263105089Y-79284190D01*
X258009248Y-88635924D02*
G75*
G02*
X259573715Y-89524642I-23589943J-43348255D01*
G01*
X265002024Y-80361892D02*
X259573715Y-89524641D01*
%TO.N,/1B_P*%
X265333330Y-79802663D02*
G75*
G02*
X266279425Y-80374875I-30912323J-52178660D01*
G01*
X260691223Y-89440997D02*
X266286994Y-80379548D01*
X268142003Y-81572207D02*
X262220497Y-90424228D01*
X268139538Y-81570559D02*
G75*
G02*
X269052939Y-82193633I-33712513J-50402206D01*
G01*
%TO.N,/1A_P*%
X261108805Y-90472406D02*
X266868395Y-81514191D01*
X261104746Y-90469797D02*
G75*
G02*
X262600305Y-91470137I-26684040J-41512130D01*
G01*
X268681769Y-82727237D02*
X262600305Y-91470137D01*
%TO.N,/1B_P*%
X269052939Y-82193633D02*
G75*
G02*
X269954829Y-82833255I-34631580J-49787432D01*
G01*
X263720937Y-91468135D02*
X269962037Y-82838467D01*
X271725221Y-84163108D02*
X265174510Y-92560173D01*
X271722883Y-84161285D02*
G75*
G02*
X272588460Y-84849252I-37299477J-47817454D01*
G01*
%TO.N,/1A_P*%
X264062263Y-92527228D02*
X270459225Y-84012454D01*
X264058405Y-92524329D02*
G75*
G02*
X265477106Y-93630974I-29639616J-39460207D01*
G01*
X272179400Y-85354395D02*
X265477106Y-93630974D01*
%TO.N,/1B_P*%
X272588460Y-84849253D02*
G75*
G02*
X273441352Y-85552885I-38160981J-47124713D01*
G01*
X266594906Y-93710625D02*
X273448161Y-85558607D01*
X275110148Y-87008191D02*
X267965052Y-94905665D01*
X275107949Y-87006202D02*
G75*
G02*
X275921102Y-87755405I-40676906J-44964862D01*
G01*
%TO.N,/1A_P*%
X266858161Y-94791771D02*
X273858493Y-86765699D01*
X266854524Y-94788600D02*
G75*
G02*
X268188827Y-95995667I-32433531J-37193333D01*
G01*
X275476325Y-88229402D02*
X268188827Y-95995667D01*
%TO.N,/1B_P*%
X275921102Y-87755405D02*
G75*
G02*
X276720461Y-88519307I-41506159J-44232875D01*
G01*
X269297853Y-96156548D02*
X276726835Y-88525511D01*
X278278791Y-90092332D02*
X270577289Y-97448238D01*
X278276743Y-90090188D02*
G75*
G02*
X279033149Y-90896644I-43859938J-41895876D01*
G01*
%TO.N,/1A_P*%
X269481637Y-97254001D02*
X277048131Y-89759291D01*
X269478241Y-97250573D02*
G75*
G02*
X270721053Y-98551647I-35055722J-34730046D01*
G01*
X278555019Y-91336976D02*
X270721053Y-98551647D01*
%TO.N,/1B_P*%
X279033149Y-90896644D02*
G75*
G02*
X279774727Y-91716756I-44624559J-41096645D01*
G01*
X271815410Y-98792901D02*
X279780632Y-91723408D01*
X281214308Y-93399138D02*
X272997336Y-100174376D01*
X281212422Y-93396850D02*
G75*
G02*
X281908060Y-94256274I-46794721J-38587992D01*
G01*
%TO.N,/1A_P*%
X271918748Y-99900828D02*
X280011183Y-92977318D01*
X271915611Y-99897162D02*
G75*
G02*
X273060326Y-101285327I-37497810J-32087679D01*
G01*
X281399120Y-94660600D02*
X273060326Y-101285327D01*
%TO.N,/1B_P*%
X281908060Y-94256274D02*
G75*
G02*
X282587916Y-95128236I-47471676J-37713988D01*
G01*
X274134197Y-101605673D02*
X282593321Y-95135301D01*
X283901095Y-96911031D02*
X275212329Y-103069590D01*
X283899381Y-96908612D02*
G75*
G02*
X284530554Y-97816435I-49475617J-35071743D01*
G01*
%TO.N,/1A_P*%
X274156538Y-102718184D02*
X282731901Y-96402675D01*
X274153676Y-102714299D02*
G75*
G02*
X275194209Y-104182178I-39733512J-29268570D01*
G01*
X283993508Y-98182606D02*
X275194210Y-104182178D01*
%TO.N,/1B_P*%
X284530554Y-97816435D02*
G75*
G02*
X285145072Y-98735613I-50114880J-34169450D01*
G01*
X276241887Y-104579913D02*
X285149949Y-98743053D01*
X286324872Y-100609346D02*
X277210496Y-106118489D01*
X286323338Y-100606809D02*
G75*
G02*
X286886691Y-101558205I-51898175J-31373112D01*
G01*
%TO.N,/1A_P*%
X276183114Y-105691095D02*
X285195822Y-100017156D01*
X276180543Y-105687011D02*
G75*
G02*
X277111364Y-107226800I-41760566J-26296006D01*
G01*
X286324394Y-101884274D02*
X277111364Y-107226800D01*
%TO.N,/1B_P*%
X286886691Y-101558205D02*
G75*
G02*
X287432608Y-102519713I-52457555J-30419646D01*
G01*
X278127278Y-107699810D02*
X287436928Y-102527488D01*
X288472754Y-104474424D02*
X278981215Y-109304868D01*
X288471408Y-104471782D02*
G75*
G02*
X288963947Y-105461694I-54040830J-27505957D01*
G01*
%TO.N,/1A_P*%
X277987702Y-108803756D02*
X287389851Y-103801547D01*
X277985435Y-108799497D02*
G75*
G02*
X278801596Y-110403011I-43563637J-23182604D01*
G01*
X288379388Y-105745929D02*
X278801597Y-110403011D01*
%TO.N,/1B_P*%
X288963948Y-105461694D02*
G75*
G02*
X289438360Y-106460421I-54532335J-26515810D01*
G01*
X279780348Y-110948781D02*
X289442103Y-106468491D01*
X290333325Y-108485721D02*
X280515074Y-112611790D01*
X290332176Y-108482987D02*
G75*
G02*
X290751283Y-109506154I-55921535J-23503854D01*
G01*
%TO.N,/1A_P*%
X279560712Y-112039625D02*
X289302325Y-107735733D01*
X279558761Y-112035211D02*
G75*
G02*
X280255923Y-113693928I-45139201J-19947963D01*
G01*
X290147568Y-109747044D02*
X280255924Y-113693928D01*
%TO.N,/1B_P*%
X290751283Y-109506154D02*
G75*
G02*
X291151668Y-110536792I-56342489J-22481171D01*
G01*
X281192311Y-114309558D02*
X291154813Y-110545113D01*
X291896695Y-112621914D02*
X281803920Y-116021678D01*
X291895747Y-112619104D02*
G75*
G02*
X292239194Y-113670088I-57475614J-19363843D01*
G01*
%TO.N,/1A_P*%
X280893781Y-115381500D02*
X290923078Y-111798803D01*
X280892157Y-115376956D02*
G75*
G02*
X281466615Y-117082058I-46473012J-16606327D01*
G01*
X291619534Y-113866351D02*
X281466616Y-117082058D01*
%TO.N,/1B_P*%
X292239195Y-113670088D02*
G75*
G02*
X292563426Y-114727157I-57786720J-18302974D01*
G01*
X282355661Y-117764276D02*
X292565956Y-114735685D01*
X293154554Y-116861020D02*
X282840902Y-119516406D01*
X293153815Y-116858148D02*
G75*
G02*
X293419776Y-117931361I-58727008J-15123144D01*
G01*
%TO.N,/1A_P*%
X281979825Y-118811618D02*
X292243495Y-115969160D01*
X281978536Y-118806968D02*
G75*
G02*
X282427238Y-120549393I-47561199J-13176748D01*
G01*
X292787462Y-118081956D02*
X282427238Y-120549393D01*
%TO.N,/1B_P*%
X293419776Y-117931361D02*
G75*
G02*
X293666129Y-119009244I-58962581J-14043147D01*
G01*
X283264214Y-121294571D02*
X293668032Y-119017934D01*
X294100217Y-121180504D02*
X283620509Y-123077399D01*
X294099688Y-121177586D02*
G75*
G02*
X294286750Y-122267325I-59668675J-10803508D01*
G01*
%TO.N,/1A_P*%
X282813069Y-122311748D02*
X293256558Y-120224637D01*
X282812122Y-122307016D02*
G75*
G02*
X283132681Y-124077502I-48388478J-9675339D01*
G01*
X293645146Y-122371450D02*
X283132682Y-124077502D01*
%TO.N,/1B_P*%
X294286751Y-122267325D02*
G75*
G02*
X294453917Y-123360292I-59859300J-9714566D01*
G01*
X283913142Y-124881680D02*
X294455181Y-123369097D01*
X294728657Y-125557408D02*
X284138596Y-126685729D01*
X294728343Y-125554460D02*
G75*
G02*
X294835511Y-126654931I-60308100J-6428483D01*
G01*
%TO.N,/1A_P*%
X283389086Y-125863284D02*
X293956883Y-124542614D01*
X283388487Y-125858496D02*
G75*
G02*
X283579199Y-127647631I-48970329J-6124701D01*
G01*
X294188024Y-126712033D02*
X283579200Y-127647631D01*
%TO.N,/1B_P*%
X294835511Y-126654931D02*
G75*
G02*
X294922601Y-127757173I-60410990J-5327736D01*
G01*
X284298994Y-128506535D02*
X294923220Y-127766046D01*
X295036533Y-129968466D02*
X284392410Y-130322216D01*
X295036433Y-129965503D02*
G75*
G02*
X295063139Y-131070857I-60603654J-2017219D01*
G01*
%TO.N,/1A_P*%
X283704814Y-129447349D02*
X294340746Y-128900139D01*
X283704565Y-129442530D02*
G75*
G02*
X283764417Y-131240805I-49282584J-2540406D01*
G01*
X294413213Y-131080633D02*
X283764418Y-131240805D01*
%TO.N,/1B_P*%
X295063140Y-131070857D02*
G75*
G02*
X295070000Y-131983009I-60663930J-912336D01*
G01*
X295070000Y-132158489D02*
X295070000Y-131983009D01*
X284420000Y-132166556D02*
X295070000Y-132166556D01*
X295070000Y-134166556D02*
X284420000Y-134166556D01*
X295070000Y-135166556D02*
X295070000Y-134163867D01*
%TO.N,/1A_P*%
X283770000Y-133166556D02*
X294420000Y-133166556D01*
X283770000Y-135166556D02*
X283770000Y-133161178D01*
X294420000Y-135166556D02*
X283770000Y-135166556D01*
%TO.N,/1B_P*%
X295070000Y-136169245D02*
X295070000Y-135166556D01*
X284420000Y-136177311D02*
X295070000Y-136177311D01*
X295070000Y-138177311D02*
X284420000Y-138177311D01*
X295070000Y-139177311D02*
X295070000Y-138174622D01*
%TO.N,/1A_P*%
X283770000Y-137177311D02*
X294420000Y-137177311D01*
X283770000Y-139177311D02*
X283770000Y-137171933D01*
X294420000Y-139177311D02*
X283770000Y-139177311D01*
%TO.N,/1B_P*%
X295070000Y-140180000D02*
X295070000Y-139177311D01*
X284420000Y-140188067D02*
X295070000Y-140188067D01*
X295070000Y-142188067D02*
X284420000Y-142188067D01*
X295070000Y-143188067D02*
X295070000Y-142185378D01*
%TO.N,/1A_P*%
X283770000Y-141188067D02*
X294420000Y-141188067D01*
X283770000Y-143188067D02*
X283770000Y-141182689D01*
X294420000Y-143188067D02*
X283770000Y-143188067D01*
%TO.N,/1B_P*%
X295070000Y-144190756D02*
X295070000Y-143188067D01*
X284420000Y-144198822D02*
X295070000Y-144198822D01*
X295070000Y-146198822D02*
X284420000Y-146198822D01*
X295070000Y-147198822D02*
X295070000Y-146196134D01*
%TO.N,/1A_P*%
X283770000Y-145198822D02*
X294420000Y-145198822D01*
X283770000Y-147198822D02*
X283770000Y-145193445D01*
X294420000Y-147198822D02*
X283770000Y-147198822D01*
%TO.N,/1B_P*%
X295070000Y-148201511D02*
X295070000Y-147198822D01*
X284420000Y-148209578D02*
X295070000Y-148209578D01*
X295070000Y-150209578D02*
X284420000Y-150209578D01*
X295070000Y-151209578D02*
X295070000Y-150206889D01*
%TO.N,/1A_P*%
X283770000Y-149209578D02*
X294420000Y-149209578D01*
X283770000Y-151209578D02*
X283770000Y-149204200D01*
X294420000Y-151209578D02*
X283770000Y-151209578D01*
%TO.N,/1B_P*%
X295070000Y-152212267D02*
X295070000Y-151209578D01*
X284420000Y-152220334D02*
X295070000Y-152220334D01*
X295070000Y-154220334D02*
X284420000Y-154220334D01*
X295070000Y-155220334D02*
X295070000Y-154217645D01*
%TO.N,/1A_P*%
X283770000Y-153220334D02*
X294420000Y-153220334D01*
X283770000Y-155220334D02*
X283770000Y-153214956D01*
X294420000Y-155220334D02*
X283770000Y-155220334D01*
%TO.N,/1B_P*%
X295070000Y-156223023D02*
X295070000Y-155220334D01*
X284420000Y-156231089D02*
X295070000Y-156231089D01*
X295070000Y-158231089D02*
X284420000Y-158231089D01*
X295070000Y-159231089D02*
X295070000Y-158228400D01*
%TO.N,/1A_P*%
X283770000Y-157231089D02*
X294420000Y-157231089D01*
X283770000Y-159231089D02*
X283770000Y-157225712D01*
X294420000Y-159231089D02*
X283770000Y-159231089D01*
%TO.N,/1B_P*%
X295070000Y-160233778D02*
X295070000Y-159231089D01*
X284420000Y-160238469D02*
X295070000Y-160238469D01*
%TO.N,/1A_P*%
X283770000Y-161238469D02*
X294420000Y-161238469D01*
X283770000Y-161983009D02*
X283770000Y-161236467D01*
%TO.N,/1B_P*%
X295069162Y-162274342D02*
X284419338Y-162213084D01*
X295069178Y-162271315D02*
G75*
G02*
X295050182Y-163399714I-50650839J288321D01*
G01*
%TO.N,/1A_P*%
X283769999Y-161983009D02*
G75*
G02*
X283754603Y-163083648I-39355451J86D01*
G01*
X294400437Y-163381533D02*
X283754604Y-163083648D01*
%TO.N,/1B_P*%
X295050183Y-163399714D02*
G75*
G02*
X295006050Y-164527409I-50624335J1416502D01*
G01*
X284369136Y-163999569D02*
X295005593Y-164536477D01*
X294842190Y-166781464D02*
X284240091Y-165772510D01*
X294842476Y-166778452D02*
G75*
G02*
X294723116Y-167900681I-50427617J4796007D01*
G01*
%TO.N,/1A_P*%
X283666178Y-164839570D02*
X294288079Y-165612693D01*
X283666520Y-164834880D02*
G75*
G02*
X283500507Y-166580450I-39249582J2852165D01*
G01*
X294077569Y-167824738D02*
X283500507Y-166580450D01*
%TO.N,/1B_P*%
X294723117Y-167900681D02*
G75*
G02*
X294578784Y-169019972I-50258116J5911852D01*
G01*
X284031073Y-167547435D02*
X294577522Y-169028963D01*
X294214941Y-171250495D02*
X283744731Y-169301853D01*
X294215494Y-171247519D02*
G75*
G02*
X293996718Y-172354670I-49788077J9263067D01*
G01*
%TO.N,/1A_P*%
X283256138Y-168321532D02*
X293767062Y-170037041D01*
X283256894Y-168316891D02*
G75*
G02*
X282936167Y-170040755I-38836892J6333883D01*
G01*
X293360493Y-172221568D02*
X282936168Y-170040755D01*
%TO.N,/1B_P*%
X293996719Y-172354670D02*
G75*
G02*
X293753331Y-173456671I-49578692J10372075D01*
G01*
X283378557Y-171051128D02*
X293751273Y-173465514D01*
X293192394Y-175645955D02*
X282937191Y-172773095D01*
X293193210Y-175643040D02*
G75*
G02*
X292876756Y-176726323I-48783701J13663073D01*
G01*
%TO.N,/1A_P*%
X282537795Y-171753176D02*
X292854302Y-174397452D01*
X282538962Y-171748620D02*
G75*
G02*
X282066067Y-173437094I-38120787J9766122D01*
G01*
X292254902Y-176537120D02*
X282066068Y-173437094D01*
%TO.N,/1B_P*%
X292876756Y-176726323D02*
G75*
G02*
X292536244Y-177802286I-48502059J14757674D01*
G01*
X282416768Y-174482833D02*
X292533407Y-177810911D01*
X291782665Y-179932951D02*
X281823882Y-176158679D01*
X291783738Y-179930121D02*
G75*
G02*
X291372116Y-180980936I-47359350J17945431D01*
G01*
%TO.N,/1A_P*%
X281516854Y-175107258D02*
X291557044Y-178659310D01*
X281518421Y-175102825D02*
G75*
G02*
X280897112Y-176742504I-37096653J13119152D01*
G01*
X290769572Y-180737133D02*
X280897113Y-176742504D01*
%TO.N,/1B_P*%
X291372115Y-180980936D02*
G75*
G02*
X290937184Y-182022320I-46940257J18992946D01*
G01*
X281153340Y-177815308D02*
X290933592Y-182030658D01*
X289996947Y-184077451D02*
X280413640Y-179431730D01*
X289998267Y-184074728D02*
G75*
G02*
X289494747Y-185084734I-45578453J22091790D01*
G01*
%TO.N,/1A_P*%
X280201418Y-178357154D02*
X289885588Y-182788783D01*
X280203374Y-178352877D02*
G75*
G02*
X279438584Y-179930746I-35784204J16370253D01*
G01*
X288916295Y-184788266D02*
X279438584Y-179930746D01*
%TO.N,/1B_P*%
X289494746Y-185084734D02*
G75*
G02*
X288968847Y-186083271I-45086174J23107758D01*
G01*
X279598304Y-181022099D02*
X288964527Y-186091256D01*
X287849415Y-188046554D02*
X278717662Y-182566263D01*
X287850972Y-188043959D02*
G75*
G02*
X287259550Y-189005138I-43433286J26062345D01*
G01*
%TO.N,/1A_P*%
X278601930Y-181477063D02*
X287853203Y-186753090D01*
X278604260Y-181472977D02*
G75*
G02*
X277702059Y-182976509I-34185023J19490423D01*
G01*
X286709783Y-188658358D02*
X277702059Y-182976509D01*
%TO.N,/1B_P*%
X287259549Y-189005138D02*
G75*
G02*
X286646858Y-189952901I-42824483J27012400D01*
G01*
X277764003Y-184077746D02*
X286641844Y-189960470D01*
X285357117Y-191808751D02*
X276749411Y-185537396D01*
X285358898Y-191806305D02*
G75*
G02*
X284684269Y-192711026I-40934198J29819774D01*
G01*
%TO.N,/1A_P*%
X276731089Y-184442217D02*
X285476021Y-190520758D01*
X276733772Y-184438356D02*
G75*
G02*
X275701323Y-185855615I-32315177J22456365D01*
G01*
X284167552Y-192316688D02*
X275701323Y-185855615D01*
%TO.N,/1B_P*%
X284684270Y-192711026D02*
G75*
G02*
X283989651Y-193600492I-40281858J30741728D01*
G01*
X275665001Y-186957995D02*
X283983983Y-193607584D01*
X282539839Y-195334176D02*
X274524513Y-188321542D01*
X282541831Y-195331898D02*
G75*
G02*
X281789351Y-196172979I-38121370J33348450D01*
G01*
%TO.N,/1A_P*%
X274603745Y-187229079D02*
X282772916Y-194061878D01*
X274606761Y-187225472D02*
G75*
G02*
X273452260Y-188545207I-30186283J25242043D01*
G01*
X281309784Y-195734214D02*
X273452260Y-188545207D01*
%TO.N,/1B_P*%
X281789351Y-196172978D02*
G75*
G02*
X281018317Y-196997085I-37384201J34203892D01*
G01*
X273317959Y-189639978D02*
X281012041Y-197003646D01*
X279419946Y-198594841D02*
X272060629Y-190896598D01*
X279422134Y-198592750D02*
G75*
G02*
X278597775Y-199363514I-34998819J36606237D01*
G01*
%TO.N,/1A_P*%
X272236786Y-189815524D02*
X279765344Y-197348340D01*
X272240112Y-189812200D02*
G75*
G02*
X270972724Y-191023935I-27822463J27831637D01*
G01*
X278159166Y-198883804D02*
X270972724Y-191023935D01*
%TO.N,/1B_P*%
X278597775Y-199363513D02*
G75*
G02*
X277756449Y-200115720I-34171449J37373363D01*
G01*
X270741510Y-192102406D02*
X277749612Y-200121696D01*
X276022205Y-201564863D02*
X269377319Y-193242124D01*
X276024570Y-201562974D02*
G75*
G02*
X275134878Y-202257303I-31601270J39575726D01*
G01*
%TO.N,/1A_P*%
X269649003Y-192181021D02*
X276477183Y-200354053D01*
X269652612Y-192178005D02*
G75*
G02*
X268282398Y-193272120I-25232390J30194712D01*
G01*
X274740709Y-201740456D02*
X268282398Y-193272120D01*
%TO.N,/1B_P*%
X275134878Y-202257303D02*
G75*
G02*
X274229937Y-202931637I-30717580J40277926D01*
G01*
X267956107Y-194325731D02*
X274222596Y-202936980D01*
X272373589Y-204220663D02*
X266495885Y-195339498D01*
X272376113Y-204218992D02*
G75*
G02*
X271428150Y-204831373I-27954477J42233422D01*
G01*
%TO.N,/1A_P*%
X266860939Y-194306789D02*
X272934535Y-203055156D01*
X266864802Y-194304106D02*
G75*
G02*
X265402639Y-195271915I-22444359J32320451D01*
G01*
X271081550Y-204281493D02*
X265402639Y-195271916D01*
%TO.N,/1B_P*%
X271428150Y-204831374D02*
G75*
G02*
X270466778Y-205422482I-27029832J42883705D01*
G01*
X264983862Y-196292302D02*
X270458991Y-205427151D01*
X268503062Y-206541158D02*
X263439200Y-197172070D01*
X268505725Y-206539718D02*
G75*
G02*
X267507017Y-207065290I-24089658J44564231D01*
G01*
%TO.N,/1A_P*%
X263894727Y-196175954D02*
X269165524Y-205430207D01*
X263898813Y-196173627D02*
G75*
G02*
X262356310Y-197007448I-19479802J34192430D01*
G01*
X267210737Y-206486743D02*
X262356310Y-197007448D01*
%TO.N,/1B_P*%
X267507017Y-207065290D02*
G75*
G02*
X266496847Y-207568481I-23075904J45059953D01*
G01*
X261848371Y-197986508D02*
X266488675Y-207572439D01*
X264441352Y-208507927D02*
X260231532Y-198725294D01*
X264444132Y-208506730D02*
G75*
G02*
X263402607Y-208941321I-20020569J46515124D01*
G01*
%TO.N,/1A_P*%
X260773915Y-197773678D02*
X265200070Y-207460352D01*
X260778192Y-197771722D02*
G75*
G02*
X259167593Y-198464935I-16357888J35788004D01*
G01*
X263159000Y-208338698D02*
X259167593Y-198464936D01*
%TO.N,/1B_P*%
X263402607Y-208941321D02*
G75*
G02*
X262351657Y-209352599I-18982915J46959164D01*
G01*
X258574523Y-199394899D02*
X262343165Y-209355814D01*
X260220702Y-210105357D02*
X256898343Y-199986838D01*
X260223577Y-210104412D02*
G75*
G02*
X259147503Y-210444572I-15803578J48121464D01*
G01*
%TO.N,/1A_P*%
X257523276Y-199087277D02*
X261069652Y-209129473D01*
X257527710Y-199085710D02*
G75*
G02*
X255861801Y-199632813I-13107127J37100864D01*
G01*
X258958502Y-209822658D02*
X255861801Y-199632813D01*
%TO.N,/1B_P*%
X259147503Y-210444573D02*
G75*
G02*
X258064117Y-210760674I-14718607J48431071D01*
G01*
X255188310Y-200506294D02*
X258055373Y-210763119D01*
X255874617Y-211320766D02*
X253466094Y-200946687D01*
X255877565Y-211320081D02*
G75*
G02*
X254775484Y-211563110I-11457477J49336682D01*
G01*
%TO.N,/1A_P*%
X254168617Y-200106322D02*
X256807061Y-210424321D01*
X254173173Y-200105157D02*
G75*
G02*
X252465179Y-200501805I-9753469J38123425D01*
G01*
X254642591Y-210926841D02*
X252465179Y-200501805D01*
%TO.N,/1B_P*%
X254775484Y-211563111D02*
G75*
G02*
X253668263Y-211781525I-10360810J49607099D01*
G01*
X251716612Y-201311872D02*
X253659335Y-211783182D01*
X251437599Y-212144507D02*
X249962033Y-201597222D01*
X251440597Y-212144086D02*
G75*
G02*
X250321258Y-212288054I-7020868J50163283D01*
G01*
%TO.N,/1A_P*%
X250736568Y-200822724D02*
X252446135Y-211334617D01*
X250741210Y-200821968D02*
G75*
G02*
X249004689Y-201065014I-6321093J38838007D01*
G01*
X250245527Y-211642482D02*
X249004689Y-201065015D01*
%TO.N,/1B_P*%
X250321258Y-212288055D02*
G75*
G02*
X249198990Y-212407049I-5895681J50252209D01*
G01*
X248186990Y-201805237D02*
X249189951Y-212407905D01*
X246944872Y-212570039D02*
X246413976Y-201933279D01*
X246947895Y-212569887D02*
G75*
G02*
X245820185Y-212613651I-2527947J50588811D01*
G01*
%TO.N,/1A_P*%
X247254375Y-201230797D02*
X248021493Y-211853133D01*
X247259065Y-201230457D02*
G75*
G02*
X245507804Y-201317970I-2839017J39246423D01*
G01*
X245802216Y-211963901D02*
X245507804Y-201317971D01*
%TO.N,/1B_P*%
X245820185Y-212613652D02*
G75*
G02*
X244691780Y-212632280I-1399798J50607510D01*
G01*
X244627464Y-201982471D02*
X244682701Y-212632328D01*
X242432102Y-212593984D02*
X242850090Y-201952190D01*
X242435126Y-212594102D02*
G75*
G02*
X241307997Y-212537315I1984742J50608102D01*
G01*
%TO.N,/1A_P*%
X243749681Y-201327300D02*
X243568261Y-211975754D01*
X243754383Y-201327379D02*
G75*
G02*
X242002284Y-201258664I665684J39345553D01*
G01*
X241347934Y-211888544D02*
X242002284Y-201258665D01*
%TO.N,/1B_P*%
X241307997Y-212537316D02*
G75*
G02*
X240182413Y-212455431I3109700J50522701D01*
G01*
X241066290Y-201842169D02*
X240173365Y-212454671D01*
X237935112Y-212216153D02*
X239298667Y-201653804D01*
X237938114Y-212216541D02*
G75*
G02*
X236820513Y-212059654I6482339J50236737D01*
G01*
%TO.N,/1A_P*%
X240250309Y-201111467D02*
X239121790Y-211701507D01*
X240254985Y-201111965D02*
G75*
G02*
X238515956Y-200887569I4164751J39126858D01*
G01*
X236918038Y-211417012D02*
X238515956Y-200887569D01*
%TO.N,/1B_P*%
X236820513Y-212059654D02*
G75*
G02*
X235706685Y-211877906I7605451J50113269D01*
G01*
X237531740Y-201385444D02*
X235697741Y-211876343D01*
X233489603Y-211439545D02*
X235787899Y-201040491D01*
X233492558Y-211440197D02*
G75*
G02*
X232393358Y-211184456I10927579J49457914D01*
G01*
%TO.N,/1A_P*%
X236784037Y-200585012D02*
X234717379Y-211032568D01*
X236788651Y-200585924D02*
G75*
G02*
X235076498Y-200207628I7631057J38601585D01*
G01*
X232547698Y-210553046D02*
X235076498Y-200207628D01*
%TO.N,/1B_P*%
X232393358Y-211184457D02*
G75*
G02*
X231300129Y-210904288I12042340J49262613D01*
G01*
X234051873Y-200615922D02*
X231291359Y-210901935D01*
X229130865Y-210270325D02*
X232345658Y-200117119D01*
X229133750Y-210271239D02*
G75*
G02*
X228061677Y-209918672I15286264J48288162D01*
G01*
%TO.N,/1A_P*%
X233378384Y-199752114D02*
X230389993Y-209974247D01*
X233382898Y-199753433D02*
G75*
G02*
X231711214Y-199224240I11036462J37768382D01*
G01*
X228271606Y-209303506D02*
X231711214Y-199224240D01*
%TO.N,/1B_P*%
X228061677Y-209918672D02*
G75*
G02*
X226997724Y-209542307I16346290J47901659D01*
G01*
X230654313Y-199539712D02*
X226989199Y-209539184D01*
X224893500Y-208717775D02*
X228999269Y-198891018D01*
X224896292Y-208718942D02*
G75*
G02*
X223859856Y-208272350I19524812J46738500D01*
G01*
%TO.N,/1A_P*%
X230060385Y-198619385D02*
X226173984Y-208534947D01*
X230064764Y-198621099D02*
G75*
G02*
X228446818Y-197945211I14355769J36639421D01*
G01*
X224123708Y-207678311D02*
X228446818Y-197945212D01*
%TO.N,/1B_P*%
X223859856Y-208272350D02*
G75*
G02*
X222833627Y-207802776I20566642J46303474D01*
G01*
X227366033Y-198165356D02*
X222825414Y-207798906D01*
X220811147Y-206794220D02*
X225775298Y-197371922D01*
X220813824Y-206795629D02*
G75*
G02*
X219821253Y-206258557I23607135J44814437D01*
G01*
%TO.N,/1A_P*%
X226856381Y-197195817D02*
X222102822Y-206726094D01*
X226860589Y-197197915D02*
G75*
G02*
X225309226Y-196380696I17560165J35216358D01*
G01*
X220136933Y-205690362D02*
X225309226Y-196380696D01*
%TO.N,/1B_P*%
X219821253Y-206258558D02*
G75*
G02*
X218840894Y-205699504I24604367J44285410D01*
G01*
X224213136Y-196503766D02*
X218833058Y-205694918D01*
X216916213Y-204514930D02*
X222699339Y-195571890D01*
X216918754Y-204516573D02*
G75*
G02*
X215977928Y-203893283I27501083J42533261D01*
G01*
%TO.N,/1A_P*%
X223791805Y-195492711D02*
X218208825Y-204562046D01*
X223795810Y-195495175D02*
G75*
G02*
X222323347Y-194543113I20622971J33510284D01*
G01*
X216342930Y-203355442D02*
X222323346Y-194543114D01*
%TO.N,/1B_P*%
X215977928Y-203893283D02*
G75*
G02*
X215051222Y-203249187I28432268J41896200D01*
G01*
X221220651Y-194568132D02*
X215043825Y-203243921D01*
X213239619Y-201897999D02*
X219795809Y-193505212D01*
X213242004Y-201899861D02*
G75*
G02*
X212360391Y-201195302I31180419J39919842D01*
G01*
%TO.N,/1A_P*%
X220890987Y-193523588D02*
X214522906Y-202059983D01*
X220894757Y-193526399D02*
G75*
G02*
X219512880Y-192447052I23523865J31541640D01*
G01*
X212771817Y-200692085D02*
X219512880Y-192447052D01*
%TO.N,/1B_P*%
X212360391Y-201195303D02*
G75*
G02*
X211494694Y-200471277I32059730J39212451D01*
G01*
X218412335Y-192373821D02*
X211487795Y-200465374D01*
X209810551Y-198964201D02*
X217087760Y-191188294D01*
X209812761Y-198966269D02*
G75*
G02*
X208997359Y-198186035I34600377J36976137D01*
G01*
%TO.N,/1A_P*%
X218176955Y-191304079D02*
X211074326Y-199239768D01*
X218180459Y-191307214D02*
G75*
G02*
X216900140Y-190109150I26240197J29324902D01*
G01*
X209451944Y-197721436D02*
X216900140Y-190109151D01*
%TO.N,/1B_P*%
X208997359Y-198186035D02*
G75*
G02*
X208199544Y-197387827I35421841J36202216D01*
G01*
X215810482Y-189938251D02*
X208193198Y-197381334D01*
X206656231Y-195736828D02*
X214596688Y-188639530D01*
X206658248Y-195739085D02*
G75*
G02*
X205915532Y-194889368I37765768J33759550D01*
G01*
%TO.N,/1A_P*%
X215671253Y-188851804D02*
X207890462Y-196123790D01*
X215674465Y-188855239D02*
G75*
G02*
X214505867Y-187547970I28745971J26872641D01*
G01*
X206409666Y-194467076D02*
X214505867Y-187547970D01*
%TO.N,/1B_P*%
X284134530Y-136190164D02*
X284142596Y-136198230D01*
D17*
%TO.N,/FWD1*%
X208650000Y-105350000D02*
X208650000Y-105450000D01*
X208650000Y-105450000D02*
X208400000Y-105700000D01*
X208650000Y-105350000D02*
X207750000Y-106250000D01*
%TD*%
M02*
