%TF.GenerationSoftware,KiCad,Pcbnew,6.0.2+dfsg-1*%
%TF.CreationDate,2022-11-03T12:06:54-07:00*%
%TF.ProjectId,slot_track,736c6f74-5f74-4726-9163-6b2e6b696361,rev?*%
%TF.SameCoordinates,Original*%
%TF.FileFunction,Copper,L3,Inr*%
%TF.FilePolarity,Positive*%
%FSLAX46Y46*%
G04 Gerber Fmt 4.6, Leading zero omitted, Abs format (unit mm)*
G04 Created by KiCad (PCBNEW 6.0.2+dfsg-1) date 2022-11-03 12:06:54*
%MOMM*%
%LPD*%
G01*
G04 APERTURE LIST*
%TA.AperFunction,ViaPad*%
%ADD10C,0.600000*%
%TD*%
%TA.AperFunction,Conductor*%
%ADD11C,0.200000*%
%TD*%
G04 APERTURE END LIST*
D10*
%TO.N,VBUS*%
X158300000Y-199700000D03*
X159090000Y-198640000D03*
%TO.N,GND*%
X151000000Y-212400000D03*
X151000000Y-208600000D03*
X153200000Y-207700000D03*
X164100000Y-211400000D03*
%TO.N,VBUS*%
X161200000Y-202300000D03*
X161200000Y-201200000D03*
%TO.N,GND*%
X155400000Y-209500000D03*
X155400000Y-210500000D03*
X164100000Y-212400000D03*
%TO.N,VBUS*%
X156950000Y-202300000D03*
X156950000Y-201100000D03*
%TO.N,GND*%
X169000000Y-212500000D03*
X169000000Y-211500000D03*
X155400000Y-212500000D03*
%TO.N,VBUS*%
X161200000Y-203500000D03*
X159900000Y-199700000D03*
%TO.N,GND*%
X155400000Y-211500000D03*
X155400000Y-208600000D03*
X166600000Y-207650000D03*
X169000000Y-210500000D03*
X164100000Y-209400000D03*
X151000000Y-209500000D03*
%TO.N,VBUS*%
X156950000Y-203450000D03*
%TO.N,GND*%
X151000000Y-210400000D03*
X164100000Y-208400000D03*
X169000000Y-209500000D03*
X151000000Y-211400000D03*
X169000000Y-208500000D03*
X164100000Y-210400000D03*
%TO.N,VCC*%
X177200000Y-130400000D03*
X186900000Y-130400000D03*
%TO.N,/SWDIO*%
X206600000Y-140900000D03*
%TO.N,/SWCLK*%
X204600000Y-140100000D03*
%TO.N,/SWDIO*%
X200300000Y-140900000D03*
%TO.N,/SWCLK*%
X199100000Y-140800000D03*
%TO.N,/1B_P*%
X213355064Y-187201879D03*
X212055701Y-185681466D03*
%TO.N,/1A_P*%
X206402678Y-194458899D03*
X205103316Y-192938486D03*
%TO.N,/1B_P*%
X210749351Y-184152876D03*
X209449988Y-182632463D03*
%TO.N,/1A_P*%
X203796965Y-191409896D03*
X202497603Y-189889483D03*
%TO.N,/1B_P*%
X208145186Y-181105685D03*
X206845824Y-179585272D03*
%TO.N,/1A_P*%
X201192801Y-188362705D03*
X199893438Y-186842291D03*
%TO.N,/1B_P*%
X205367346Y-177923831D03*
X203817956Y-176331083D03*
%TO.N,/1A_P*%
X198644436Y-185393108D03*
X197433543Y-184091681D03*
%TO.N,/1B_P*%
X202190443Y-174800756D03*
X200505432Y-173352241D03*
%TO.N,/1A_P*%
X196159058Y-182838790D03*
X194837131Y-181650311D03*
%TO.N,/1B_P*%
X198748166Y-171972852D03*
X196940910Y-170680070D03*
%TO.N,/1A_P*%
X193456185Y-180515835D03*
X192033719Y-179449738D03*
%TO.N,/1B_P*%
X195067839Y-169462571D03*
X193152687Y-168335783D03*
%TO.N,/1A_P*%
X190557275Y-178442683D03*
X189045561Y-177507431D03*
%TO.N,/1B_P*%
X191178681Y-167289839D03*
X189170836Y-166337991D03*
%TO.N,/1A_P*%
X187485340Y-176635792D03*
X185896380Y-175838810D03*
%TO.N,/1B_P*%
X187111566Y-165471904D03*
X185026966Y-164702553D03*
%TO.N,/1A_P*%
X184264767Y-175109505D03*
X182611175Y-174457120D03*
%TO.N,/1B_P*%
X182898779Y-164023200D03*
X180753974Y-163442452D03*
%TO.N,/1A_P*%
X180921122Y-173875940D03*
X179216025Y-173373330D03*
%TO.N,/1B_P*%
X178573766Y-162955225D03*
X176385781Y-162567692D03*
%TO.N,/1A_P*%
X177480950Y-172944888D03*
X175737884Y-172596044D03*
%TO.N,/1B_P*%
X174170858Y-162276459D03*
X171957064Y-162085217D03*
%TO.N,/1A_P*%
X173971560Y-172323742D03*
X172204362Y-172131433D03*
%TO.N,/1B_P*%
X169731365Y-161992413D03*
%TO.N,/1A_P*%
X170425892Y-172017643D03*
%TO.N,/1B_P*%
X167628735Y-161983009D03*
%TO.N,/1A_P*%
X168628735Y-171983009D03*
%TO.N,/1B_P*%
X165617979Y-161983009D03*
X163617979Y-161983009D03*
%TO.N,/1A_P*%
X166617979Y-171983009D03*
X164617979Y-171983009D03*
%TO.N,/1B_P*%
X161607223Y-161983009D03*
X159607223Y-161983009D03*
%TO.N,/1A_P*%
X162607223Y-171983009D03*
X160607223Y-171983009D03*
%TO.N,/1B_P*%
X157596468Y-161983009D03*
X155596468Y-161983009D03*
%TO.N,/1A_P*%
X158596468Y-171983009D03*
X156596468Y-171983009D03*
%TO.N,/1B_P*%
X153585712Y-161983009D03*
X151585712Y-161983009D03*
%TO.N,/1A_P*%
X154585712Y-171983009D03*
X152585712Y-171983009D03*
%TO.N,/1B_P*%
X149574957Y-161983009D03*
X147574957Y-161983009D03*
%TO.N,/1A_P*%
X150574957Y-171983009D03*
X148574957Y-171983009D03*
%TO.N,/1B_P*%
X145564201Y-161983009D03*
X143564201Y-161983009D03*
%TO.N,/1A_P*%
X146564201Y-171983009D03*
X144564201Y-171983009D03*
%TO.N,/1B_P*%
X141555769Y-161983009D03*
X139555769Y-161983009D03*
%TO.N,/1A_P*%
X142555769Y-171983009D03*
X140555769Y-171983009D03*
%TO.N,/1B_P*%
X137777957Y-161944470D03*
X136032665Y-161818709D03*
%TO.N,/1A_P*%
X138433106Y-171972186D03*
X136185818Y-171866637D03*
%TO.N,/1B_P*%
X134286529Y-161604498D03*
X132562591Y-161304664D03*
%TO.N,/1A_P*%
X133934603Y-171647429D03*
X131709168Y-171317455D03*
%TO.N,/1B_P*%
X130846669Y-160916739D03*
X129161404Y-160445842D03*
%TO.N,/1A_P*%
X129491203Y-170873999D03*
X127309977Y-170322914D03*
%TO.N,/1B_P*%
X127492931Y-159888101D03*
X125863268Y-159250873D03*
%TO.N,/1A_P*%
X125147543Y-169659665D03*
X123032436Y-168893005D03*
%TO.N,/1B_P*%
X124259006Y-158528917D03*
X122701316Y-157731759D03*
%TO.N,/1A_P*%
X120947255Y-168016626D03*
X118919515Y-167042092D03*
%TO.N,/1B_P*%
X121177380Y-156852840D03*
X119707309Y-155903760D03*
%TO.N,/1A_P*%
X116932534Y-165961386D03*
X115012531Y-164788768D03*
%TO.N,/1B_P*%
X118279009Y-154876709D03*
X116911326Y-153785240D03*
%TO.N,/1A_P*%
X113143709Y-163514592D03*
X111350730Y-162155670D03*
%TO.N,/1B_P*%
X115593008Y-152620373D03*
X114341451Y-151397480D03*
%TO.N,/1A_P*%
X109618841Y-160700822D03*
X107970896Y-159169246D03*
%TO.N,/1B_P*%
X113146359Y-150106499D03*
X112023502Y-148764466D03*
%TO.N,/1A_P*%
X106393338Y-157548343D03*
X104906983Y-155859499D03*
%TO.N,/1B_P*%
X110963641Y-147360340D03*
X109980762Y-145912648D03*
%TO.N,/1A_P*%
X103499603Y-154088821D03*
X102189768Y-152259674D03*
%TO.N,/1B_P*%
X109066779Y-144409482D03*
X108233752Y-142870674D03*
%TO.N,/1A_P*%
X100966703Y-150357010D03*
X99846546Y-148405935D03*
%TO.N,/1B_P*%
X107474828Y-141283567D03*
X106800021Y-139669102D03*
%TO.N,/1A_P*%
X98820083Y-146390397D03*
X97900857Y-144336993D03*
%TO.N,/1B_P*%
X106203780Y-138013997D03*
X105693972Y-136340092D03*
%TO.N,/1A_P*%
X97081307Y-142228828D03*
X96372246Y-140093722D03*
%TO.N,/1B_P*%
X105266403Y-134633616D03*
X104926715Y-132917086D03*
%TO.N,/1A_P*%
X95767841Y-137914109D03*
X95276067Y-135718749D03*
%TO.N,/1B_P*%
X104672114Y-131176381D03*
X104505958Y-129434470D03*
%TO.N,/1A_P*%
X94892879Y-133489582D03*
X94623334Y-131256022D03*
%TO.N,/1B_P*%
X104426882Y-127677022D03*
X104435928Y-125927228D03*
%TO.N,/1A_P*%
X94465212Y-128999694D03*
X94420602Y-126750371D03*
%TO.N,/1B_P*%
X104533171Y-124170691D03*
X104717328Y-122430591D03*
%TO.N,/1A_P*%
X94489135Y-124489547D03*
X94669908Y-122247056D03*
%TO.N,/1B_P*%
X104989913Y-120692612D03*
X105347331Y-118979686D03*
%TO.N,/1A_P*%
X94964408Y-120004448D03*
X95368749Y-117791316D03*
%TO.N,/1B_P*%
X105792521Y-117277722D03*
X106319609Y-115609177D03*
%TO.N,/1A_P*%
X95886257Y-115589452D03*
X96510103Y-113427911D03*
%TO.N,/1B_P*%
X106932931Y-113960326D03*
X107624394Y-112352924D03*
%TO.N,/1A_P*%
X97245420Y-111288909D03*
X98082506Y-109200672D03*
%TO.N,/1B_P*%
X108399687Y-110773748D03*
X109248580Y-109243636D03*
%TO.N,/1A_P*%
X99028246Y-107146020D03*
X100070161Y-105152065D03*
%TO.N,/1B_P*%
X110178056Y-107749999D03*
X111175851Y-106312547D03*
%TO.N,/1A_P*%
X101216824Y-103202402D03*
X102453103Y-101322759D03*
%TO.N,/1B_P*%
X112250173Y-104919455D03*
X113386846Y-103589103D03*
%TO.N,/1A_P*%
X103789169Y-99497671D03*
X105207392Y-97751221D03*
%TO.N,/1B_P*%
X114594351Y-102311424D03*
X115858442Y-101101492D03*
%TO.N,/1A_P*%
X106718349Y-96070196D03*
X108304215Y-94474428D03*
%TO.N,/1B_P*%
X117316365Y-99802257D03*
X118811180Y-98473525D03*
%TO.N,/1A_P*%
X109925298Y-92992548D03*
X111420113Y-91663816D03*
%TO.N,/1B_P*%
X120314033Y-97137648D03*
X121808848Y-95808916D03*
%TO.N,/1A_P*%
X112922967Y-90327938D03*
X114417782Y-88999207D03*
%TO.N,/1B_P*%
X123309078Y-94475371D03*
%TO.N,/1A_P*%
X115918012Y-87665662D03*
X117412827Y-86336930D03*
%TO.N,/1B_P*%
X124783984Y-93165487D03*
X126167596Y-91999246D03*
X127589214Y-90895357D03*
%TO.N,/1A_P*%
X119029557Y-84925466D03*
X120739760Y-83541790D03*
%TO.N,/1B_P*%
X129061827Y-89843734D03*
X130567327Y-88857308D03*
%TO.N,/1A_P*%
X122513556Y-82220735D03*
X124329133Y-80978545D03*
%TO.N,/1B_P*%
X132119471Y-87927065D03*
X133699171Y-87064445D03*
%TO.N,/1A_P*%
X126203080Y-79803871D03*
X128112355Y-78711156D03*
%TO.N,/1B_P*%
X135320863Y-86261566D03*
X136964606Y-85528299D03*
%TO.N,/1A_P*%
X130074402Y-77690416D03*
X132065095Y-76754203D03*
%TO.N,/1B_P*%
X138645417Y-84857946D03*
X140342629Y-84258749D03*
%TO.N,/1A_P*%
X134102624Y-75893963D03*
X136161934Y-75120273D03*
%TO.N,/1B_P*%
X142071751Y-83725234D03*
X143811519Y-83263960D03*
%TO.N,/1A_P*%
X138261842Y-74426064D03*
X140376524Y-73819873D03*
%TO.N,/1B_P*%
X145577831Y-82870713D03*
X147348967Y-82550328D03*
%TO.N,/1A_P*%
X142525306Y-73296160D03*
X144681764Y-72861366D03*
%TO.N,/1B_P*%
X149141109Y-82299879D03*
X150932222Y-82122444D03*
%TO.N,/1A_P*%
X146865601Y-72511517D03*
X149049963Y-72250916D03*
%TO.N,/1B_P*%
X152736081Y-82016502D03*
%TO.N,/1A_P*%
X151251650Y-72077366D03*
X153449866Y-71992507D03*
%TO.N,/1B_P*%
X154545608Y-81983009D03*
X156556363Y-81983009D03*
X158556363Y-81983009D03*
%TO.N,/1A_P*%
X155556363Y-71983009D03*
X157556363Y-71983009D03*
%TO.N,/1B_P*%
X160567119Y-81983009D03*
X162567119Y-81983009D03*
%TO.N,/1A_P*%
X159567119Y-71983009D03*
X161567119Y-71983009D03*
%TO.N,/1B_P*%
X164577875Y-81983009D03*
X166577875Y-81983009D03*
%TO.N,/1A_P*%
X163577875Y-71983009D03*
X165577875Y-71983009D03*
%TO.N,/1B_P*%
X168588630Y-81983009D03*
X170588630Y-81983009D03*
%TO.N,/1A_P*%
X167588630Y-71983009D03*
X169588630Y-71983009D03*
%TO.N,/1B_P*%
X172599386Y-81983009D03*
X174599386Y-81983009D03*
%TO.N,/1A_P*%
X171599386Y-71983009D03*
X173599386Y-71983009D03*
%TO.N,/1B_P*%
X176610141Y-81983009D03*
X178610141Y-81983009D03*
%TO.N,/1A_P*%
X175610141Y-71983009D03*
X177610141Y-71983009D03*
%TO.N,/1B_P*%
X180620897Y-81983009D03*
X182620897Y-81983009D03*
%TO.N,/1A_P*%
X179620897Y-71983009D03*
X181620897Y-71983009D03*
%TO.N,/1B_P*%
X184631653Y-81983009D03*
X186631653Y-81983009D03*
%TO.N,/1A_P*%
X183631653Y-71983009D03*
X185631653Y-71983009D03*
%TO.N,/1B_P*%
X188642408Y-81983009D03*
X190642408Y-81983009D03*
%TO.N,/1A_P*%
X187642408Y-71983009D03*
X189642408Y-71983009D03*
%TO.N,/1B_P*%
X192653164Y-81983009D03*
X194653164Y-81983009D03*
%TO.N,/1A_P*%
X191653164Y-71983009D03*
X193653164Y-71983009D03*
%TO.N,/1B_P*%
X196663920Y-81983009D03*
X198663920Y-81983009D03*
%TO.N,/1A_P*%
X195663920Y-71983009D03*
X197663920Y-71983009D03*
%TO.N,/1B_P*%
X200674675Y-81983009D03*
X202674675Y-81983009D03*
%TO.N,/1A_P*%
X199674675Y-71983009D03*
X201674675Y-71983009D03*
%TO.N,/1B_P*%
X204685431Y-81983009D03*
X206685431Y-81983009D03*
%TO.N,/1A_P*%
X203685431Y-71983009D03*
X205685431Y-71983009D03*
%TO.N,/1B_P*%
X208696186Y-81983009D03*
X210696186Y-81983009D03*
%TO.N,/1A_P*%
X207696186Y-71983009D03*
X209696186Y-71983009D03*
%TO.N,/1B_P*%
X212706942Y-81983009D03*
X214706942Y-81983009D03*
%TO.N,/1A_P*%
X211706942Y-71983009D03*
X213706942Y-71983009D03*
%TO.N,/1B_P*%
X216717698Y-81983009D03*
X218717698Y-81983009D03*
%TO.N,/1A_P*%
X215717698Y-71983009D03*
X217717698Y-71983009D03*
%TO.N,/1B_P*%
X220728453Y-81983009D03*
X222728453Y-81983009D03*
%TO.N,/1A_P*%
X219728453Y-71983009D03*
X221728453Y-71983009D03*
%TO.N,/1B_P*%
X224739209Y-81983009D03*
X226739209Y-81983009D03*
%TO.N,/1A_P*%
X223739209Y-71983009D03*
X225739209Y-71983009D03*
%TO.N,/1B_P*%
X228749964Y-81983009D03*
X230749964Y-81983009D03*
%TO.N,/1A_P*%
X227749964Y-71983009D03*
X229749964Y-71983009D03*
%TO.N,/1B_P*%
X232757125Y-81983009D03*
%TO.N,/1A_P*%
X231757125Y-71983009D03*
X233757125Y-71983009D03*
%TO.N,/1B_P*%
X234729744Y-81983969D03*
X236557054Y-82028700D03*
X238371761Y-82139418D03*
%TO.N,/1A_P*%
X235894189Y-72001122D03*
X238073893Y-72094371D03*
%TO.N,/1B_P*%
X240190956Y-82317165D03*
X241992774Y-82559806D03*
%TO.N,/1A_P*%
X240260444Y-72267943D03*
X242427562Y-72519752D03*
%TO.N,/1B_P*%
X243794184Y-82869624D03*
X245573534Y-83242896D03*
%TO.N,/1A_P*%
X244595655Y-72852171D03*
X246738667Y-73261204D03*
%TO.N,/1B_P*%
X247347583Y-83683138D03*
X249095009Y-84185059D03*
%TO.N,/1A_P*%
X248876779Y-73750703D03*
X250984294Y-74314785D03*
%TO.N,/1B_P*%
X250832268Y-84753385D03*
X252538481Y-85381286D03*
%TO.N,/1A_P*%
X253081059Y-74958762D03*
X255141875Y-75674894D03*
%TO.N,/1B_P*%
X254229716Y-86074675D03*
X255885646Y-86825219D03*
%TO.N,/1A_P*%
X257186149Y-76469926D03*
X259189311Y-77334302D03*
%TO.N,/1B_P*%
X257521867Y-87639986D03*
X259118713Y-88509183D03*
%TO.N,/1A_P*%
X261170228Y-78276164D03*
X263105089Y-79284190D03*
%TO.N,/1B_P*%
X260691223Y-89440997D03*
X262220497Y-90424228D03*
%TO.N,/1A_P*%
X265012119Y-80367874D03*
X266868395Y-81514191D03*
%TO.N,/1B_P*%
X263720937Y-91468135D03*
X265174510Y-92560173D03*
%TO.N,/1A_P*%
X268691401Y-82733938D03*
X270459225Y-84012454D03*
%TO.N,/1B_P*%
X266594906Y-93710625D03*
X267965052Y-94905665D03*
%TO.N,/1A_P*%
X272188518Y-85361780D03*
X273858493Y-86765699D03*
%TO.N,/1B_P*%
X269297853Y-96156548D03*
X270577289Y-97448238D03*
%TO.N,/1A_P*%
X275484880Y-88237432D03*
X277048131Y-89759291D03*
%TO.N,/1B_P*%
X271815410Y-98792901D03*
X272997336Y-100174376D03*
%TO.N,/1A_P*%
X278562967Y-91345608D03*
X280011183Y-92977318D03*
%TO.N,/1B_P*%
X274134197Y-101605673D03*
X275212329Y-103069590D03*
%TO.N,/1A_P*%
X281406417Y-94669787D03*
X282731901Y-96402675D03*
%TO.N,/1B_P*%
X276241887Y-104579913D03*
X277210496Y-106118489D03*
%TO.N,/1A_P*%
X284000117Y-98192301D03*
X285195822Y-100017156D03*
%TO.N,/1B_P*%
X278127278Y-107699810D03*
X278981215Y-109304868D03*
%TO.N,/1A_P*%
X286330279Y-101894425D03*
X287389851Y-103801547D03*
%TO.N,/1B_P*%
X279780348Y-110948781D03*
X280515074Y-112611790D03*
%TO.N,/1A_P*%
X288384518Y-105756482D03*
X289302325Y-107735733D03*
%TO.N,/1B_P*%
X281192311Y-114309558D03*
X281803920Y-116021678D03*
%TO.N,/1A_P*%
X290151915Y-109757942D03*
X290923078Y-111798803D03*
%TO.N,/1B_P*%
X282355661Y-117764276D03*
X282840902Y-119516406D03*
%TO.N,/1A_P*%
X291623075Y-113877538D03*
X292243495Y-115969160D03*
%TO.N,/1B_P*%
X283264214Y-121294571D03*
X283620509Y-123077399D03*
%TO.N,/1A_P*%
X292790180Y-118093370D03*
X293256558Y-120224637D03*
%TO.N,/1B_P*%
X283913142Y-124881680D03*
X284138596Y-126685729D03*
%TO.N,/1A_P*%
X293647024Y-122383032D03*
X293956883Y-124542614D03*
%TO.N,/1B_P*%
X284298994Y-128506535D03*
X284392410Y-130322216D03*
%TO.N,/1A_P*%
X294189054Y-126723721D03*
X294340746Y-128900139D03*
X294413250Y-131083053D03*
%TO.N,/1B_P*%
X284420000Y-132166556D03*
X284420000Y-134166556D03*
%TO.N,/1A_P*%
X294420000Y-133166556D03*
%TO.N,/1B_P*%
X284420000Y-136177311D03*
X284420000Y-138177311D03*
%TO.N,/1A_P*%
X294420000Y-135177311D03*
X294420000Y-137177311D03*
%TO.N,/1B_P*%
X284420000Y-140188067D03*
X284420000Y-142188067D03*
%TO.N,/1A_P*%
X294420000Y-139188067D03*
X294420000Y-141188067D03*
%TO.N,/1B_P*%
X284420000Y-144198822D03*
X284420000Y-146198822D03*
%TO.N,/1A_P*%
X294420000Y-143198822D03*
X294420000Y-145198822D03*
%TO.N,/1B_P*%
X284420000Y-148209578D03*
X284420000Y-150209578D03*
%TO.N,/1A_P*%
X294420000Y-147209578D03*
X294420000Y-149209578D03*
%TO.N,/1B_P*%
X284420000Y-152220334D03*
X284420000Y-154220334D03*
%TO.N,/1A_P*%
X294420000Y-151220334D03*
X294420000Y-153220334D03*
%TO.N,/1B_P*%
X284420000Y-156231089D03*
X284420000Y-158231089D03*
%TO.N,/1A_P*%
X294420000Y-155231089D03*
X294420000Y-157231089D03*
%TO.N,/1B_P*%
X284420000Y-160238469D03*
%TO.N,/1A_P*%
X294420000Y-159238469D03*
X294420000Y-161238469D03*
%TO.N,/1B_P*%
X284419338Y-162213084D03*
X284369136Y-163999569D03*
X284240091Y-165772510D03*
%TO.N,/1A_P*%
X294400101Y-163393479D03*
X294288079Y-165612693D03*
%TO.N,/1B_P*%
X284031073Y-167547435D03*
X283744731Y-169301853D03*
%TO.N,/1A_P*%
X294076171Y-167836607D03*
X293767062Y-170037041D03*
%TO.N,/1B_P*%
X283378557Y-171051128D03*
X282937191Y-172773095D03*
%TO.N,/1A_P*%
X293358045Y-172233266D03*
X292854302Y-174397452D03*
%TO.N,/1B_P*%
X282416768Y-174482833D03*
X281823882Y-176158679D03*
%TO.N,/1A_P*%
X292251422Y-176548552D03*
X291557044Y-178659310D03*
%TO.N,/1B_P*%
X281153340Y-177815308D03*
X280413640Y-179431730D03*
%TO.N,/1A_P*%
X290765088Y-180748210D03*
X289885588Y-182788783D03*
%TO.N,/1B_P*%
X279598304Y-181022099D03*
X278717662Y-182566263D03*
%TO.N,/1A_P*%
X288910843Y-184798900D03*
X287853203Y-186753090D03*
%TO.N,/1B_P*%
X277764003Y-184077746D03*
X276749411Y-185537396D03*
%TO.N,/1A_P*%
X286703406Y-188668466D03*
X285476021Y-190520758D03*
%TO.N,/1B_P*%
X275665001Y-186957995D03*
X274524513Y-188321542D03*
%TO.N,/1A_P*%
X284160301Y-192326188D03*
X282772916Y-194061878D03*
%TO.N,/1B_P*%
X273317959Y-189639978D03*
X272060629Y-190896598D03*
%TO.N,/1A_P*%
X281301716Y-195743030D03*
X279765344Y-197348340D03*
%TO.N,/1B_P*%
X270741510Y-192102406D03*
X269377319Y-193242124D03*
%TO.N,/1A_P*%
X278150345Y-198891867D03*
X276477183Y-200354053D03*
%TO.N,/1B_P*%
X267956107Y-194325731D03*
X266495885Y-195339498D03*
%TO.N,/1A_P*%
X274731205Y-201747702D03*
X272934535Y-203055156D03*
%TO.N,/1B_P*%
X264983862Y-196292302D03*
X263439200Y-197172070D03*
%TO.N,/1A_P*%
X271071439Y-204287865D03*
X269165524Y-205430207D03*
%TO.N,/1B_P*%
X261848371Y-197986508D03*
X260231532Y-198725294D03*
%TO.N,/1A_P*%
X267200099Y-206492189D03*
X265200070Y-207460352D03*
%TO.N,/1B_P*%
X258574523Y-199394899D03*
X256898343Y-199986838D03*
%TO.N,/1A_P*%
X263147920Y-208343176D03*
X261069652Y-209129473D03*
%TO.N,/1B_P*%
X255188310Y-200506294D03*
X253466094Y-200946687D03*
%TO.N,/1A_P*%
X258947068Y-209826131D03*
X256807061Y-210424321D03*
%TO.N,/1B_P*%
X251716612Y-201311872D03*
X249962033Y-201597222D03*
%TO.N,/1A_P*%
X254630892Y-210929283D03*
X252446135Y-211334617D03*
%TO.N,/1B_P*%
X248186990Y-201805237D03*
X246413976Y-201933279D03*
%TO.N,/1A_P*%
X250233657Y-211643873D03*
X248021493Y-211853133D03*
%TO.N,/1B_P*%
X244627464Y-201982471D03*
X242850090Y-201952190D03*
%TO.N,/1A_P*%
X245790270Y-211964230D03*
X243568261Y-211975754D03*
%TO.N,/1B_P*%
X241066290Y-201842169D03*
X239298667Y-201653804D03*
%TO.N,/1A_P*%
X241336006Y-211887809D03*
X239121790Y-211701507D03*
%TO.N,/1B_P*%
X237531740Y-201385444D03*
X235787899Y-201040491D03*
%TO.N,/1A_P*%
X236906223Y-211415217D03*
X234717379Y-211032568D03*
%TO.N,/1B_P*%
X234051873Y-200615922D03*
X232345658Y-200117119D03*
%TO.N,/1A_P*%
X232536089Y-210550207D03*
X230389993Y-209974247D03*
%TO.N,/1B_P*%
X230654313Y-199539712D03*
X228999269Y-198891018D03*
%TO.N,/1A_P*%
X228260296Y-209299645D03*
X226173984Y-208534947D03*
%TO.N,/1B_P*%
X227366033Y-198165356D03*
X225775298Y-197371922D03*
%TO.N,/1A_P*%
X224112787Y-207673458D03*
X222102822Y-206726094D03*
%TO.N,/1B_P*%
X224213136Y-196503766D03*
X222699339Y-195571890D03*
%TO.N,/1A_P*%
X220126487Y-205684557D03*
X218208825Y-204562046D03*
%TO.N,/1B_P*%
X221220651Y-194568132D03*
X219795809Y-193505212D03*
%TO.N,/1A_P*%
X216333042Y-203348730D03*
X214522906Y-202059983D03*
%TO.N,/1B_P*%
X218412335Y-192373821D03*
X217087760Y-191188294D03*
%TO.N,/1A_P*%
X212762566Y-200684520D03*
X211074326Y-199239768D03*
%TO.N,/1B_P*%
X215810482Y-189938251D03*
X214596688Y-188639530D03*
%TO.N,/1A_P*%
X209443403Y-197713077D03*
X207890462Y-196123790D03*
%TO.N,/G1_P*%
X295750000Y-150400000D03*
X279800000Y-151300000D03*
%TO.N,/1A_P*%
X164300000Y-158550000D03*
X162350000Y-158450000D03*
%TO.N,VBUS*%
X181050000Y-126050000D03*
%TO.N,GND*%
X181200000Y-128000000D03*
X188500000Y-126100000D03*
X217550000Y-138700000D03*
X223850000Y-150750000D03*
X225850000Y-146750000D03*
%TO.N,VBUS*%
X223300000Y-154800000D03*
X223300000Y-146600000D03*
X216900000Y-142650000D03*
%TO.N,GND*%
X219450000Y-134500000D03*
%TO.N,VBUS*%
X216900000Y-134450000D03*
%TO.N,GND*%
X249050000Y-130000000D03*
X244900000Y-128150000D03*
%TO.N,VBUS*%
X249050000Y-127500000D03*
X240900000Y-127550000D03*
%TO.N,GND*%
X189900000Y-133050000D03*
X193700000Y-131450000D03*
%TO.N,VCC*%
X193700000Y-130600000D03*
%TO.N,GND*%
X197300000Y-137650000D03*
%TO.N,VCC*%
X196050000Y-136200000D03*
%TO.N,GND*%
X203250000Y-127100000D03*
X201800000Y-129050000D03*
%TO.N,VCC*%
X202500000Y-126500000D03*
X188500000Y-128000000D03*
%TO.N,Net-(C8-Pad2)*%
X203530000Y-144610000D03*
X208930000Y-144610000D03*
%TO.N,/1A_P*%
X203530000Y-143590000D03*
X208900000Y-143620000D03*
%TO.N,/REV1*%
X188670000Y-118700000D03*
%TO.N,/FWD1*%
X208160000Y-118520000D03*
%TO.N,/REV2*%
X162690000Y-118840000D03*
%TO.N,/REV1*%
X150200000Y-105800000D03*
X188600000Y-105450000D03*
%TO.N,/FWD1*%
X246400000Y-105350000D03*
X208650000Y-105350000D03*
X207770000Y-128290000D03*
%TO.N,/FWD2*%
X197450000Y-122200000D03*
%TO.N,/STOP*%
X198650000Y-117150000D03*
%TO.N,/REV1*%
X191200000Y-123350000D03*
%TO.N,/REV3*%
X176010000Y-118860000D03*
%TO.N,/FWD3*%
X234140000Y-118830000D03*
%TO.N,/FWD2*%
X220880000Y-118780000D03*
%TD*%
D11*
%TO.N,Net-(C8-Pad2)*%
X208930000Y-144610000D02*
X203530000Y-144610000D01*
%TO.N,/1A_P*%
X203560000Y-143620000D02*
X203530000Y-143590000D01*
X208900000Y-143620000D02*
X203560000Y-143620000D01*
%TO.N,/REV1*%
X191200000Y-121230000D02*
X188670000Y-118700000D01*
X191200000Y-123350000D02*
X191200000Y-121230000D01*
%TO.N,/FWD2*%
X220880000Y-118780000D02*
X220880000Y-121850000D01*
X220880000Y-121850000D02*
X220530000Y-122200000D01*
X220530000Y-122200000D02*
X197450000Y-122200000D01*
%TD*%
%TA.AperFunction,Conductor*%
%TO.N,VCC*%
G36*
X206959191Y-124018907D02*
G01*
X206995155Y-124068407D01*
X207000000Y-124099000D01*
X207000000Y-139401000D01*
X206981093Y-139459191D01*
X206931593Y-139495155D01*
X206901000Y-139500000D01*
X187699000Y-139500000D01*
X187640809Y-139481093D01*
X187604845Y-139431593D01*
X187600000Y-139401000D01*
X187600000Y-137643823D01*
X196794391Y-137643823D01*
X196795306Y-137650820D01*
X196795306Y-137650821D01*
X196796814Y-137662354D01*
X196812980Y-137785979D01*
X196815821Y-137792435D01*
X196815821Y-137792436D01*
X196823586Y-137810082D01*
X196870720Y-137917203D01*
X196883792Y-137932754D01*
X196958431Y-138021549D01*
X196958434Y-138021551D01*
X196962970Y-138026948D01*
X196968841Y-138030856D01*
X196968842Y-138030857D01*
X196981143Y-138039045D01*
X197082313Y-138106390D01*
X197182920Y-138137821D01*
X197212425Y-138147039D01*
X197212426Y-138147039D01*
X197219157Y-138149142D01*
X197290828Y-138150456D01*
X197355445Y-138151641D01*
X197355447Y-138151641D01*
X197362499Y-138151770D01*
X197369302Y-138149915D01*
X197369304Y-138149915D01*
X197444503Y-138129413D01*
X197500817Y-138114060D01*
X197622991Y-138039045D01*
X197630403Y-138030857D01*
X197714468Y-137937982D01*
X197719200Y-137932754D01*
X197781710Y-137803733D01*
X197785875Y-137778982D01*
X197804862Y-137666124D01*
X197804862Y-137666120D01*
X197805496Y-137662354D01*
X197805647Y-137650000D01*
X197785323Y-137508082D01*
X197725984Y-137377572D01*
X197632400Y-137268963D01*
X197512095Y-137190985D01*
X197374739Y-137149907D01*
X197291497Y-137149398D01*
X197238427Y-137149074D01*
X197238426Y-137149074D01*
X197231376Y-137149031D01*
X197224599Y-137150968D01*
X197224598Y-137150968D01*
X197100309Y-137186490D01*
X197100307Y-137186491D01*
X197093529Y-137188428D01*
X196972280Y-137264930D01*
X196967613Y-137270214D01*
X196967611Y-137270216D01*
X196882044Y-137367103D01*
X196882042Y-137367105D01*
X196877377Y-137372388D01*
X196816447Y-137502163D01*
X196794391Y-137643823D01*
X187600000Y-137643823D01*
X187600000Y-133043823D01*
X189394391Y-133043823D01*
X189395306Y-133050820D01*
X189395306Y-133050821D01*
X189396814Y-133062354D01*
X189412980Y-133185979D01*
X189415821Y-133192435D01*
X189415821Y-133192436D01*
X189423586Y-133210082D01*
X189470720Y-133317203D01*
X189483792Y-133332754D01*
X189558431Y-133421549D01*
X189558434Y-133421551D01*
X189562970Y-133426948D01*
X189568841Y-133430856D01*
X189568842Y-133430857D01*
X189581143Y-133439045D01*
X189682313Y-133506390D01*
X189782920Y-133537821D01*
X189812425Y-133547039D01*
X189812426Y-133547039D01*
X189819157Y-133549142D01*
X189890828Y-133550456D01*
X189955445Y-133551641D01*
X189955447Y-133551641D01*
X189962499Y-133551770D01*
X189969302Y-133549915D01*
X189969304Y-133549915D01*
X190044503Y-133529413D01*
X190100817Y-133514060D01*
X190222991Y-133439045D01*
X190230403Y-133430857D01*
X190314468Y-133337982D01*
X190319200Y-133332754D01*
X190381710Y-133203733D01*
X190385875Y-133178982D01*
X190404862Y-133066124D01*
X190404862Y-133066120D01*
X190405496Y-133062354D01*
X190405647Y-133050000D01*
X190385323Y-132908082D01*
X190325984Y-132777572D01*
X190232400Y-132668963D01*
X190112095Y-132590985D01*
X189974739Y-132549907D01*
X189891497Y-132549398D01*
X189838427Y-132549074D01*
X189838426Y-132549074D01*
X189831376Y-132549031D01*
X189824599Y-132550968D01*
X189824598Y-132550968D01*
X189700309Y-132586490D01*
X189700307Y-132586491D01*
X189693529Y-132588428D01*
X189572280Y-132664930D01*
X189567613Y-132670214D01*
X189567611Y-132670216D01*
X189482044Y-132767103D01*
X189482042Y-132767105D01*
X189477377Y-132772388D01*
X189416447Y-132902163D01*
X189394391Y-133043823D01*
X187600000Y-133043823D01*
X187600000Y-131443823D01*
X193194391Y-131443823D01*
X193195306Y-131450820D01*
X193195306Y-131450821D01*
X193196814Y-131462354D01*
X193212980Y-131585979D01*
X193215821Y-131592435D01*
X193215821Y-131592436D01*
X193223586Y-131610082D01*
X193270720Y-131717203D01*
X193283792Y-131732754D01*
X193358431Y-131821549D01*
X193358434Y-131821551D01*
X193362970Y-131826948D01*
X193368841Y-131830856D01*
X193368842Y-131830857D01*
X193381143Y-131839045D01*
X193482313Y-131906390D01*
X193582920Y-131937821D01*
X193612425Y-131947039D01*
X193612426Y-131947039D01*
X193619157Y-131949142D01*
X193690828Y-131950456D01*
X193755445Y-131951641D01*
X193755447Y-131951641D01*
X193762499Y-131951770D01*
X193769302Y-131949915D01*
X193769304Y-131949915D01*
X193844503Y-131929413D01*
X193900817Y-131914060D01*
X194022991Y-131839045D01*
X194030403Y-131830857D01*
X194114468Y-131737982D01*
X194119200Y-131732754D01*
X194181710Y-131603733D01*
X194185875Y-131578982D01*
X194204862Y-131466124D01*
X194204862Y-131466120D01*
X194205496Y-131462354D01*
X194205647Y-131450000D01*
X194185323Y-131308082D01*
X194125984Y-131177572D01*
X194032400Y-131068963D01*
X193912095Y-130990985D01*
X193774739Y-130949907D01*
X193691497Y-130949398D01*
X193638427Y-130949074D01*
X193638426Y-130949074D01*
X193631376Y-130949031D01*
X193624599Y-130950968D01*
X193624598Y-130950968D01*
X193500309Y-130986490D01*
X193500307Y-130986491D01*
X193493529Y-130988428D01*
X193372280Y-131064930D01*
X193367613Y-131070214D01*
X193367611Y-131070216D01*
X193282044Y-131167103D01*
X193282042Y-131167105D01*
X193277377Y-131172388D01*
X193216447Y-131302163D01*
X193194391Y-131443823D01*
X187600000Y-131443823D01*
X187600000Y-129043823D01*
X201294391Y-129043823D01*
X201295306Y-129050820D01*
X201295306Y-129050821D01*
X201296814Y-129062354D01*
X201312980Y-129185979D01*
X201315821Y-129192435D01*
X201315821Y-129192436D01*
X201323586Y-129210082D01*
X201370720Y-129317203D01*
X201383792Y-129332754D01*
X201458431Y-129421549D01*
X201458434Y-129421551D01*
X201462970Y-129426948D01*
X201468841Y-129430856D01*
X201468842Y-129430857D01*
X201481143Y-129439045D01*
X201582313Y-129506390D01*
X201682920Y-129537821D01*
X201712425Y-129547039D01*
X201712426Y-129547039D01*
X201719157Y-129549142D01*
X201790828Y-129550456D01*
X201855445Y-129551641D01*
X201855447Y-129551641D01*
X201862499Y-129551770D01*
X201869302Y-129549915D01*
X201869304Y-129549915D01*
X201944503Y-129529413D01*
X202000817Y-129514060D01*
X202122991Y-129439045D01*
X202130403Y-129430857D01*
X202214468Y-129337982D01*
X202219200Y-129332754D01*
X202281710Y-129203733D01*
X202285875Y-129178982D01*
X202304862Y-129066124D01*
X202304862Y-129066120D01*
X202305496Y-129062354D01*
X202305647Y-129050000D01*
X202285323Y-128908082D01*
X202225984Y-128777572D01*
X202132400Y-128668963D01*
X202012095Y-128590985D01*
X201874739Y-128549907D01*
X201791497Y-128549398D01*
X201738427Y-128549074D01*
X201738426Y-128549074D01*
X201731376Y-128549031D01*
X201724599Y-128550968D01*
X201724598Y-128550968D01*
X201600309Y-128586490D01*
X201600307Y-128586491D01*
X201593529Y-128588428D01*
X201472280Y-128664930D01*
X201467613Y-128670214D01*
X201467611Y-128670216D01*
X201382044Y-128767103D01*
X201382042Y-128767105D01*
X201377377Y-128772388D01*
X201316447Y-128902163D01*
X201294391Y-129043823D01*
X187600000Y-129043823D01*
X187600000Y-127093823D01*
X202744391Y-127093823D01*
X202745306Y-127100820D01*
X202745306Y-127100821D01*
X202746814Y-127112354D01*
X202762980Y-127235979D01*
X202765821Y-127242435D01*
X202765821Y-127242436D01*
X202773586Y-127260082D01*
X202820720Y-127367203D01*
X202833792Y-127382754D01*
X202908431Y-127471549D01*
X202908434Y-127471551D01*
X202912970Y-127476948D01*
X202918841Y-127480856D01*
X202918842Y-127480857D01*
X202931143Y-127489045D01*
X203032313Y-127556390D01*
X203132920Y-127587821D01*
X203162425Y-127597039D01*
X203162426Y-127597039D01*
X203169157Y-127599142D01*
X203240828Y-127600456D01*
X203305445Y-127601641D01*
X203305447Y-127601641D01*
X203312499Y-127601770D01*
X203319302Y-127599915D01*
X203319304Y-127599915D01*
X203394503Y-127579413D01*
X203450817Y-127564060D01*
X203572991Y-127489045D01*
X203580403Y-127480857D01*
X203664468Y-127387982D01*
X203669200Y-127382754D01*
X203731710Y-127253733D01*
X203735875Y-127228982D01*
X203754862Y-127116124D01*
X203754862Y-127116120D01*
X203755496Y-127112354D01*
X203755647Y-127100000D01*
X203735323Y-126958082D01*
X203675984Y-126827572D01*
X203582400Y-126718963D01*
X203462095Y-126640985D01*
X203324739Y-126599907D01*
X203241497Y-126599398D01*
X203188427Y-126599074D01*
X203188426Y-126599074D01*
X203181376Y-126599031D01*
X203174599Y-126600968D01*
X203174598Y-126600968D01*
X203050309Y-126636490D01*
X203050307Y-126636491D01*
X203043529Y-126638428D01*
X202922280Y-126714930D01*
X202917613Y-126720214D01*
X202917611Y-126720216D01*
X202832044Y-126817103D01*
X202832042Y-126817105D01*
X202827377Y-126822388D01*
X202766447Y-126952163D01*
X202744391Y-127093823D01*
X187600000Y-127093823D01*
X187600000Y-126093823D01*
X187994391Y-126093823D01*
X187995306Y-126100820D01*
X187995306Y-126100821D01*
X187996814Y-126112354D01*
X188012980Y-126235979D01*
X188015821Y-126242435D01*
X188015821Y-126242436D01*
X188023586Y-126260082D01*
X188070720Y-126367203D01*
X188083792Y-126382754D01*
X188158431Y-126471549D01*
X188158434Y-126471551D01*
X188162970Y-126476948D01*
X188168841Y-126480856D01*
X188168842Y-126480857D01*
X188181143Y-126489045D01*
X188282313Y-126556390D01*
X188382920Y-126587821D01*
X188412425Y-126597039D01*
X188412426Y-126597039D01*
X188419157Y-126599142D01*
X188490828Y-126600456D01*
X188555445Y-126601641D01*
X188555447Y-126601641D01*
X188562499Y-126601770D01*
X188569302Y-126599915D01*
X188569304Y-126599915D01*
X188644503Y-126579413D01*
X188700817Y-126564060D01*
X188822991Y-126489045D01*
X188830403Y-126480857D01*
X188914468Y-126387982D01*
X188919200Y-126382754D01*
X188981710Y-126253733D01*
X188985875Y-126228982D01*
X189004862Y-126116124D01*
X189004862Y-126116120D01*
X189005496Y-126112354D01*
X189005647Y-126100000D01*
X188985323Y-125958082D01*
X188925984Y-125827572D01*
X188832400Y-125718963D01*
X188712095Y-125640985D01*
X188574739Y-125599907D01*
X188491497Y-125599398D01*
X188438427Y-125599074D01*
X188438426Y-125599074D01*
X188431376Y-125599031D01*
X188424599Y-125600968D01*
X188424598Y-125600968D01*
X188300309Y-125636490D01*
X188300307Y-125636491D01*
X188293529Y-125638428D01*
X188172280Y-125714930D01*
X188167613Y-125720214D01*
X188167611Y-125720216D01*
X188082044Y-125817103D01*
X188082042Y-125817105D01*
X188077377Y-125822388D01*
X188016447Y-125952163D01*
X187994391Y-126093823D01*
X187600000Y-126093823D01*
X187600000Y-124099000D01*
X187618907Y-124040809D01*
X187668407Y-124004845D01*
X187699000Y-124000000D01*
X206901000Y-124000000D01*
X206959191Y-124018907D01*
G37*
%TD.AperFunction*%
%TD*%
%TA.AperFunction,Conductor*%
%TO.N,VBUS*%
G36*
X251459191Y-123518907D02*
G01*
X251495155Y-123568407D01*
X251500000Y-123599000D01*
X251500000Y-155401000D01*
X251481093Y-155459191D01*
X251431593Y-155495155D01*
X251401000Y-155500000D01*
X182500000Y-155500000D01*
X181202861Y-150743823D01*
X223344391Y-150743823D01*
X223345306Y-150750820D01*
X223345306Y-150750821D01*
X223346814Y-150762354D01*
X223362980Y-150885979D01*
X223365821Y-150892435D01*
X223365821Y-150892436D01*
X223373586Y-150910082D01*
X223420720Y-151017203D01*
X223433792Y-151032754D01*
X223508431Y-151121549D01*
X223508434Y-151121551D01*
X223512970Y-151126948D01*
X223518841Y-151130856D01*
X223518842Y-151130857D01*
X223531143Y-151139045D01*
X223632313Y-151206390D01*
X223732920Y-151237821D01*
X223762425Y-151247039D01*
X223762426Y-151247039D01*
X223769157Y-151249142D01*
X223840828Y-151250456D01*
X223905445Y-151251641D01*
X223905447Y-151251641D01*
X223912499Y-151251770D01*
X223919302Y-151249915D01*
X223919304Y-151249915D01*
X223994503Y-151229413D01*
X224050817Y-151214060D01*
X224172991Y-151139045D01*
X224180403Y-151130857D01*
X224264468Y-151037982D01*
X224269200Y-151032754D01*
X224331710Y-150903733D01*
X224335875Y-150878982D01*
X224354862Y-150766124D01*
X224354862Y-150766120D01*
X224355496Y-150762354D01*
X224355647Y-150750000D01*
X224335323Y-150608082D01*
X224275984Y-150477572D01*
X224182400Y-150368963D01*
X224062095Y-150290985D01*
X223924739Y-150249907D01*
X223841497Y-150249398D01*
X223788427Y-150249074D01*
X223788426Y-150249074D01*
X223781376Y-150249031D01*
X223774599Y-150250968D01*
X223774598Y-150250968D01*
X223650309Y-150286490D01*
X223650307Y-150286491D01*
X223643529Y-150288428D01*
X223522280Y-150364930D01*
X223517613Y-150370214D01*
X223517611Y-150370216D01*
X223432044Y-150467103D01*
X223432042Y-150467105D01*
X223427377Y-150472388D01*
X223366447Y-150602163D01*
X223344391Y-150743823D01*
X181202861Y-150743823D01*
X181000000Y-150000000D01*
X170500000Y-149000000D01*
X170500000Y-146743823D01*
X225344391Y-146743823D01*
X225345306Y-146750820D01*
X225345306Y-146750821D01*
X225346814Y-146762354D01*
X225362980Y-146885979D01*
X225365821Y-146892435D01*
X225365821Y-146892436D01*
X225373586Y-146910082D01*
X225420720Y-147017203D01*
X225433792Y-147032754D01*
X225508431Y-147121549D01*
X225508434Y-147121551D01*
X225512970Y-147126948D01*
X225518841Y-147130856D01*
X225518842Y-147130857D01*
X225531143Y-147139045D01*
X225632313Y-147206390D01*
X225732920Y-147237821D01*
X225762425Y-147247039D01*
X225762426Y-147247039D01*
X225769157Y-147249142D01*
X225840828Y-147250456D01*
X225905445Y-147251641D01*
X225905447Y-147251641D01*
X225912499Y-147251770D01*
X225919302Y-147249915D01*
X225919304Y-147249915D01*
X225994503Y-147229413D01*
X226050817Y-147214060D01*
X226172991Y-147139045D01*
X226180403Y-147130857D01*
X226264468Y-147037982D01*
X226269200Y-147032754D01*
X226331710Y-146903733D01*
X226335875Y-146878982D01*
X226354862Y-146766124D01*
X226354862Y-146766120D01*
X226355496Y-146762354D01*
X226355647Y-146750000D01*
X226335323Y-146608082D01*
X226275984Y-146477572D01*
X226182400Y-146368963D01*
X226062095Y-146290985D01*
X225924739Y-146249907D01*
X225841497Y-146249398D01*
X225788427Y-146249074D01*
X225788426Y-146249074D01*
X225781376Y-146249031D01*
X225774599Y-146250968D01*
X225774598Y-146250968D01*
X225650309Y-146286490D01*
X225650307Y-146286491D01*
X225643529Y-146288428D01*
X225522280Y-146364930D01*
X225517613Y-146370214D01*
X225517611Y-146370216D01*
X225432044Y-146467103D01*
X225432042Y-146467105D01*
X225427377Y-146472388D01*
X225366447Y-146602163D01*
X225344391Y-146743823D01*
X170500000Y-146743823D01*
X170500000Y-144603823D01*
X203024391Y-144603823D01*
X203025306Y-144610820D01*
X203025306Y-144610821D01*
X203026814Y-144622354D01*
X203042980Y-144745979D01*
X203045821Y-144752435D01*
X203045821Y-144752436D01*
X203053586Y-144770082D01*
X203100720Y-144877203D01*
X203113792Y-144892754D01*
X203188431Y-144981549D01*
X203188434Y-144981551D01*
X203192970Y-144986948D01*
X203198841Y-144990856D01*
X203198842Y-144990857D01*
X203211143Y-144999045D01*
X203312313Y-145066390D01*
X203412920Y-145097821D01*
X203442425Y-145107039D01*
X203442426Y-145107039D01*
X203449157Y-145109142D01*
X203520828Y-145110456D01*
X203585445Y-145111641D01*
X203585447Y-145111641D01*
X203592499Y-145111770D01*
X203599302Y-145109915D01*
X203599304Y-145109915D01*
X203674503Y-145089413D01*
X203730817Y-145074060D01*
X203852991Y-144999045D01*
X203860403Y-144990857D01*
X203903662Y-144943064D01*
X203956730Y-144912610D01*
X203977060Y-144910500D01*
X208482597Y-144910500D01*
X208540788Y-144929407D01*
X208558380Y-144945798D01*
X208588431Y-144981549D01*
X208588434Y-144981551D01*
X208592970Y-144986948D01*
X208598841Y-144990856D01*
X208598842Y-144990857D01*
X208611143Y-144999045D01*
X208712313Y-145066390D01*
X208812920Y-145097821D01*
X208842425Y-145107039D01*
X208842426Y-145107039D01*
X208849157Y-145109142D01*
X208920828Y-145110456D01*
X208985445Y-145111641D01*
X208985447Y-145111641D01*
X208992499Y-145111770D01*
X208999302Y-145109915D01*
X208999304Y-145109915D01*
X209074503Y-145089413D01*
X209130817Y-145074060D01*
X209252991Y-144999045D01*
X209260403Y-144990857D01*
X209344468Y-144897982D01*
X209349200Y-144892754D01*
X209411710Y-144763733D01*
X209415875Y-144738982D01*
X209434862Y-144626124D01*
X209434862Y-144626120D01*
X209435496Y-144622354D01*
X209435647Y-144610000D01*
X209415323Y-144468082D01*
X209355984Y-144337572D01*
X209262400Y-144228963D01*
X209200657Y-144188943D01*
X209162110Y-144141427D01*
X209158855Y-144080328D01*
X209192134Y-144028985D01*
X209202703Y-144021502D01*
X209216978Y-144012737D01*
X209222991Y-144009045D01*
X209230403Y-144000857D01*
X209314468Y-143907982D01*
X209319200Y-143902754D01*
X209381710Y-143773733D01*
X209389745Y-143725979D01*
X209404862Y-143636124D01*
X209404862Y-143636120D01*
X209405496Y-143632354D01*
X209405647Y-143620000D01*
X209385323Y-143478082D01*
X209325984Y-143347572D01*
X209232400Y-143238963D01*
X209112095Y-143160985D01*
X208974739Y-143119907D01*
X208891497Y-143119398D01*
X208838427Y-143119074D01*
X208838426Y-143119074D01*
X208831376Y-143119031D01*
X208824599Y-143120968D01*
X208824598Y-143120968D01*
X208700309Y-143156490D01*
X208700307Y-143156491D01*
X208693529Y-143158428D01*
X208572280Y-143234930D01*
X208567613Y-143240214D01*
X208567611Y-143240216D01*
X208533101Y-143279293D01*
X208527952Y-143285123D01*
X208527147Y-143286034D01*
X208474455Y-143317134D01*
X208452943Y-143319500D01*
X204003023Y-143319500D01*
X203944832Y-143300593D01*
X203928024Y-143285123D01*
X203867005Y-143214307D01*
X203867004Y-143214306D01*
X203862400Y-143208963D01*
X203742095Y-143130985D01*
X203604739Y-143089907D01*
X203521497Y-143089398D01*
X203468427Y-143089074D01*
X203468426Y-143089074D01*
X203461376Y-143089031D01*
X203454599Y-143090968D01*
X203454598Y-143090968D01*
X203330309Y-143126490D01*
X203330307Y-143126491D01*
X203323529Y-143128428D01*
X203202280Y-143204930D01*
X203197613Y-143210214D01*
X203197611Y-143210216D01*
X203112044Y-143307103D01*
X203112042Y-143307105D01*
X203107377Y-143312388D01*
X203046447Y-143442163D01*
X203045362Y-143449132D01*
X203045361Y-143449135D01*
X203039767Y-143485066D01*
X203024391Y-143583823D01*
X203042980Y-143725979D01*
X203045821Y-143732435D01*
X203045821Y-143732436D01*
X203060931Y-143766775D01*
X203100720Y-143857203D01*
X203143404Y-143907982D01*
X203188431Y-143961549D01*
X203188434Y-143961551D01*
X203192970Y-143966948D01*
X203198841Y-143970856D01*
X203198842Y-143970857D01*
X203269322Y-144017773D01*
X203307285Y-144065757D01*
X203309794Y-144126891D01*
X203275889Y-144177824D01*
X203267291Y-144183911D01*
X203208246Y-144221165D01*
X203208243Y-144221168D01*
X203202280Y-144224930D01*
X203197613Y-144230214D01*
X203197611Y-144230216D01*
X203112044Y-144327103D01*
X203112042Y-144327105D01*
X203107377Y-144332388D01*
X203046447Y-144462163D01*
X203024391Y-144603823D01*
X170500000Y-144603823D01*
X170500000Y-137000000D01*
X183500000Y-137000000D01*
X186000000Y-141500000D01*
X212000000Y-141500000D01*
X212000000Y-138693823D01*
X217044391Y-138693823D01*
X217045306Y-138700820D01*
X217045306Y-138700821D01*
X217046814Y-138712354D01*
X217062980Y-138835979D01*
X217065821Y-138842435D01*
X217065821Y-138842436D01*
X217073586Y-138860082D01*
X217120720Y-138967203D01*
X217133792Y-138982754D01*
X217208431Y-139071549D01*
X217208434Y-139071551D01*
X217212970Y-139076948D01*
X217218841Y-139080856D01*
X217218842Y-139080857D01*
X217231143Y-139089045D01*
X217332313Y-139156390D01*
X217432920Y-139187821D01*
X217462425Y-139197039D01*
X217462426Y-139197039D01*
X217469157Y-139199142D01*
X217540828Y-139200456D01*
X217605445Y-139201641D01*
X217605447Y-139201641D01*
X217612499Y-139201770D01*
X217619302Y-139199915D01*
X217619304Y-139199915D01*
X217694503Y-139179413D01*
X217750817Y-139164060D01*
X217872991Y-139089045D01*
X217880403Y-139080857D01*
X217964468Y-138987982D01*
X217969200Y-138982754D01*
X218031710Y-138853733D01*
X218035875Y-138828982D01*
X218054862Y-138716124D01*
X218054862Y-138716120D01*
X218055496Y-138712354D01*
X218055647Y-138700000D01*
X218035323Y-138558082D01*
X217975984Y-138427572D01*
X217882400Y-138318963D01*
X217762095Y-138240985D01*
X217624739Y-138199907D01*
X217541497Y-138199398D01*
X217488427Y-138199074D01*
X217488426Y-138199074D01*
X217481376Y-138199031D01*
X217474599Y-138200968D01*
X217474598Y-138200968D01*
X217350309Y-138236490D01*
X217350307Y-138236491D01*
X217343529Y-138238428D01*
X217222280Y-138314930D01*
X217217613Y-138320214D01*
X217217611Y-138320216D01*
X217132044Y-138417103D01*
X217132042Y-138417105D01*
X217127377Y-138422388D01*
X217066447Y-138552163D01*
X217044391Y-138693823D01*
X212000000Y-138693823D01*
X212000000Y-134493823D01*
X218944391Y-134493823D01*
X218945306Y-134500820D01*
X218945306Y-134500821D01*
X218946814Y-134512354D01*
X218962980Y-134635979D01*
X218965821Y-134642435D01*
X218965821Y-134642436D01*
X218973586Y-134660082D01*
X219020720Y-134767203D01*
X219033792Y-134782754D01*
X219108431Y-134871549D01*
X219108434Y-134871551D01*
X219112970Y-134876948D01*
X219118841Y-134880856D01*
X219118842Y-134880857D01*
X219131143Y-134889045D01*
X219232313Y-134956390D01*
X219332920Y-134987821D01*
X219362425Y-134997039D01*
X219362426Y-134997039D01*
X219369157Y-134999142D01*
X219440828Y-135000456D01*
X219505445Y-135001641D01*
X219505447Y-135001641D01*
X219512499Y-135001770D01*
X219519302Y-134999915D01*
X219519304Y-134999915D01*
X219594503Y-134979413D01*
X219650817Y-134964060D01*
X219772991Y-134889045D01*
X219780403Y-134880857D01*
X219864468Y-134787982D01*
X219869200Y-134782754D01*
X219931710Y-134653733D01*
X219935875Y-134628982D01*
X219954862Y-134516124D01*
X219954862Y-134516120D01*
X219955496Y-134512354D01*
X219955647Y-134500000D01*
X219935323Y-134358082D01*
X219875984Y-134227572D01*
X219782400Y-134118963D01*
X219662095Y-134040985D01*
X219524739Y-133999907D01*
X219441497Y-133999398D01*
X219388427Y-133999074D01*
X219388426Y-133999074D01*
X219381376Y-133999031D01*
X219374599Y-134000968D01*
X219374598Y-134000968D01*
X219250309Y-134036490D01*
X219250307Y-134036491D01*
X219243529Y-134038428D01*
X219122280Y-134114930D01*
X219117613Y-134120214D01*
X219117611Y-134120216D01*
X219032044Y-134217103D01*
X219032042Y-134217105D01*
X219027377Y-134222388D01*
X218966447Y-134352163D01*
X218944391Y-134493823D01*
X212000000Y-134493823D01*
X212000000Y-132599000D01*
X212018907Y-132540809D01*
X212068407Y-132504845D01*
X212099000Y-132500000D01*
X239000000Y-132500000D01*
X239000000Y-129993823D01*
X248544391Y-129993823D01*
X248545306Y-130000820D01*
X248545306Y-130000821D01*
X248558263Y-130099907D01*
X248562980Y-130135979D01*
X248565821Y-130142435D01*
X248565821Y-130142436D01*
X248616707Y-130258082D01*
X248620720Y-130267203D01*
X248633792Y-130282754D01*
X248708431Y-130371549D01*
X248708434Y-130371551D01*
X248712970Y-130376948D01*
X248718841Y-130380856D01*
X248718842Y-130380857D01*
X248731143Y-130389045D01*
X248832313Y-130456390D01*
X248932920Y-130487821D01*
X248962425Y-130497039D01*
X248962426Y-130497039D01*
X248969157Y-130499142D01*
X249040828Y-130500456D01*
X249105445Y-130501641D01*
X249105447Y-130501641D01*
X249112499Y-130501770D01*
X249119302Y-130499915D01*
X249119304Y-130499915D01*
X249194503Y-130479413D01*
X249250817Y-130464060D01*
X249372991Y-130389045D01*
X249380403Y-130380857D01*
X249464468Y-130287982D01*
X249469200Y-130282754D01*
X249531710Y-130153733D01*
X249535875Y-130128982D01*
X249554862Y-130016124D01*
X249554862Y-130016120D01*
X249555496Y-130012354D01*
X249555647Y-130000000D01*
X249535323Y-129858082D01*
X249475984Y-129727572D01*
X249382400Y-129618963D01*
X249262095Y-129540985D01*
X249124739Y-129499907D01*
X249041497Y-129499398D01*
X248988427Y-129499074D01*
X248988426Y-129499074D01*
X248981376Y-129499031D01*
X248974599Y-129500968D01*
X248974598Y-129500968D01*
X248850309Y-129536490D01*
X248850307Y-129536491D01*
X248843529Y-129538428D01*
X248722280Y-129614930D01*
X248717613Y-129620214D01*
X248717611Y-129620216D01*
X248632044Y-129717103D01*
X248632042Y-129717105D01*
X248627377Y-129722388D01*
X248566447Y-129852163D01*
X248544391Y-129993823D01*
X239000000Y-129993823D01*
X239000000Y-128143823D01*
X244394391Y-128143823D01*
X244395306Y-128150820D01*
X244395306Y-128150821D01*
X244396814Y-128162354D01*
X244412980Y-128285979D01*
X244415821Y-128292435D01*
X244415821Y-128292436D01*
X244423586Y-128310082D01*
X244470720Y-128417203D01*
X244483792Y-128432754D01*
X244558431Y-128521549D01*
X244558434Y-128521551D01*
X244562970Y-128526948D01*
X244568841Y-128530856D01*
X244568842Y-128530857D01*
X244600544Y-128551960D01*
X244682313Y-128606390D01*
X244782920Y-128637821D01*
X244812425Y-128647039D01*
X244812426Y-128647039D01*
X244819157Y-128649142D01*
X244890828Y-128650456D01*
X244955445Y-128651641D01*
X244955447Y-128651641D01*
X244962499Y-128651770D01*
X244969302Y-128649915D01*
X244969304Y-128649915D01*
X245044503Y-128629413D01*
X245100817Y-128614060D01*
X245222991Y-128539045D01*
X245230403Y-128530857D01*
X245314468Y-128437982D01*
X245319200Y-128432754D01*
X245381710Y-128303733D01*
X245384021Y-128290000D01*
X245404862Y-128166124D01*
X245404862Y-128166120D01*
X245405496Y-128162354D01*
X245405647Y-128150000D01*
X245385323Y-128008082D01*
X245325984Y-127877572D01*
X245232400Y-127768963D01*
X245112095Y-127690985D01*
X244974739Y-127649907D01*
X244891497Y-127649398D01*
X244838427Y-127649074D01*
X244838426Y-127649074D01*
X244831376Y-127649031D01*
X244824599Y-127650968D01*
X244824598Y-127650968D01*
X244700309Y-127686490D01*
X244700307Y-127686491D01*
X244693529Y-127688428D01*
X244572280Y-127764930D01*
X244567613Y-127770214D01*
X244567611Y-127770216D01*
X244482044Y-127867103D01*
X244482042Y-127867105D01*
X244477377Y-127872388D01*
X244416447Y-128002163D01*
X244415362Y-128009132D01*
X244415361Y-128009135D01*
X244400680Y-128103430D01*
X244394391Y-128143823D01*
X239000000Y-128143823D01*
X239000000Y-123599000D01*
X239018907Y-123540809D01*
X239068407Y-123504845D01*
X239099000Y-123500000D01*
X251401000Y-123500000D01*
X251459191Y-123518907D01*
G37*
%TD.AperFunction*%
%TD*%
%TA.AperFunction,Conductor*%
%TO.N,VBUS*%
G36*
X186959191Y-124018907D02*
G01*
X186995155Y-124068407D01*
X187000000Y-124099000D01*
X187000000Y-129800455D01*
X186981093Y-129858646D01*
X186931593Y-129894610D01*
X186900397Y-129899453D01*
X186853202Y-129899164D01*
X186838427Y-129899074D01*
X186838426Y-129899074D01*
X186831376Y-129899031D01*
X186824599Y-129900968D01*
X186824598Y-129900968D01*
X186700309Y-129936490D01*
X186700307Y-129936491D01*
X186693529Y-129938428D01*
X186572280Y-130014930D01*
X186567613Y-130020214D01*
X186567611Y-130020216D01*
X186482044Y-130117103D01*
X186482042Y-130117105D01*
X186477377Y-130122388D01*
X186416447Y-130252163D01*
X186394391Y-130393823D01*
X186395306Y-130400820D01*
X186395306Y-130400821D01*
X186396814Y-130412354D01*
X186412980Y-130535979D01*
X186415821Y-130542435D01*
X186415821Y-130542436D01*
X186423586Y-130560082D01*
X186470720Y-130667203D01*
X186483792Y-130682754D01*
X186558431Y-130771549D01*
X186558434Y-130771551D01*
X186562970Y-130776948D01*
X186568841Y-130780856D01*
X186568842Y-130780857D01*
X186581143Y-130789045D01*
X186682313Y-130856390D01*
X186782920Y-130887821D01*
X186812425Y-130897039D01*
X186812426Y-130897039D01*
X186819157Y-130899142D01*
X186870908Y-130900091D01*
X186902815Y-130900676D01*
X186960649Y-130920647D01*
X186995700Y-130970798D01*
X187000000Y-130999659D01*
X187000000Y-164908538D01*
X186981093Y-164966729D01*
X186928206Y-165003727D01*
X186905095Y-165010332D01*
X186783846Y-165086834D01*
X186779179Y-165092118D01*
X186779177Y-165092120D01*
X186693610Y-165189007D01*
X186693608Y-165189009D01*
X186688943Y-165194292D01*
X186628013Y-165324067D01*
X186605957Y-165465727D01*
X186624546Y-165607883D01*
X186682286Y-165739107D01*
X186695358Y-165754658D01*
X186769997Y-165843453D01*
X186770000Y-165843455D01*
X186774536Y-165848852D01*
X186893879Y-165928294D01*
X186900606Y-165930396D01*
X186900609Y-165930397D01*
X186930522Y-165939742D01*
X186980427Y-165975142D01*
X187000000Y-166034238D01*
X187000000Y-176491774D01*
X186998821Y-176507004D01*
X186979731Y-176629615D01*
X186980646Y-176636612D01*
X186980646Y-176636613D01*
X186998320Y-176771771D01*
X186997836Y-176771834D01*
X187000000Y-176787630D01*
X187000000Y-190464157D01*
X186981093Y-190522348D01*
X186977054Y-190527535D01*
X172010037Y-208487955D01*
X172010037Y-208487956D01*
X172000000Y-208500000D01*
X172000000Y-217901000D01*
X171981093Y-217959191D01*
X171931593Y-217995155D01*
X171901000Y-218000000D01*
X149599000Y-218000000D01*
X149540809Y-217981093D01*
X149504845Y-217931593D01*
X149500000Y-217901000D01*
X149500000Y-212393823D01*
X150494391Y-212393823D01*
X150495306Y-212400820D01*
X150495306Y-212400821D01*
X150509391Y-212508533D01*
X150512980Y-212535979D01*
X150515821Y-212542435D01*
X150515821Y-212542436D01*
X150567587Y-212660082D01*
X150570720Y-212667203D01*
X150583792Y-212682754D01*
X150658431Y-212771549D01*
X150658434Y-212771551D01*
X150662970Y-212776948D01*
X150668841Y-212780856D01*
X150668842Y-212780857D01*
X150679546Y-212787982D01*
X150782313Y-212856390D01*
X150848117Y-212876948D01*
X150912425Y-212897039D01*
X150912426Y-212897039D01*
X150919157Y-212899142D01*
X150990828Y-212900456D01*
X151055445Y-212901641D01*
X151055447Y-212901641D01*
X151062499Y-212901770D01*
X151069302Y-212899915D01*
X151069304Y-212899915D01*
X151144503Y-212879413D01*
X151200817Y-212864060D01*
X151322991Y-212789045D01*
X151330403Y-212780857D01*
X151414468Y-212687982D01*
X151419200Y-212682754D01*
X151481710Y-212553733D01*
X151485875Y-212528982D01*
X151491790Y-212493823D01*
X154894391Y-212493823D01*
X154895306Y-212500820D01*
X154895306Y-212500821D01*
X154900748Y-212542436D01*
X154912980Y-212635979D01*
X154915821Y-212642435D01*
X154915821Y-212642436D01*
X154933562Y-212682754D01*
X154970720Y-212767203D01*
X155016845Y-212822076D01*
X155058431Y-212871549D01*
X155058434Y-212871551D01*
X155062970Y-212876948D01*
X155068841Y-212880856D01*
X155068842Y-212880857D01*
X155081143Y-212889045D01*
X155182313Y-212956390D01*
X155282920Y-212987821D01*
X155312425Y-212997039D01*
X155312426Y-212997039D01*
X155319157Y-212999142D01*
X155390828Y-213000456D01*
X155455445Y-213001641D01*
X155455447Y-213001641D01*
X155462499Y-213001770D01*
X155469302Y-212999915D01*
X155469304Y-212999915D01*
X155544503Y-212979413D01*
X155600817Y-212964060D01*
X155722991Y-212889045D01*
X155730403Y-212880857D01*
X155814468Y-212787982D01*
X155819200Y-212782754D01*
X155865117Y-212687982D01*
X155878634Y-212660082D01*
X155881710Y-212653733D01*
X155885875Y-212628982D01*
X155904862Y-212516124D01*
X155904862Y-212516120D01*
X155905496Y-212512354D01*
X155905647Y-212500000D01*
X155890441Y-212393823D01*
X163594391Y-212393823D01*
X163595306Y-212400820D01*
X163595306Y-212400821D01*
X163609391Y-212508533D01*
X163612980Y-212535979D01*
X163615821Y-212542435D01*
X163615821Y-212542436D01*
X163667587Y-212660082D01*
X163670720Y-212667203D01*
X163683792Y-212682754D01*
X163758431Y-212771549D01*
X163758434Y-212771551D01*
X163762970Y-212776948D01*
X163768841Y-212780856D01*
X163768842Y-212780857D01*
X163779546Y-212787982D01*
X163882313Y-212856390D01*
X163948117Y-212876948D01*
X164012425Y-212897039D01*
X164012426Y-212897039D01*
X164019157Y-212899142D01*
X164090828Y-212900456D01*
X164155445Y-212901641D01*
X164155447Y-212901641D01*
X164162499Y-212901770D01*
X164169302Y-212899915D01*
X164169304Y-212899915D01*
X164244503Y-212879413D01*
X164300817Y-212864060D01*
X164422991Y-212789045D01*
X164430403Y-212780857D01*
X164514468Y-212687982D01*
X164519200Y-212682754D01*
X164581710Y-212553733D01*
X164585875Y-212528982D01*
X164591790Y-212493823D01*
X168494391Y-212493823D01*
X168495306Y-212500820D01*
X168495306Y-212500821D01*
X168500748Y-212542436D01*
X168512980Y-212635979D01*
X168515821Y-212642435D01*
X168515821Y-212642436D01*
X168533562Y-212682754D01*
X168570720Y-212767203D01*
X168616845Y-212822076D01*
X168658431Y-212871549D01*
X168658434Y-212871551D01*
X168662970Y-212876948D01*
X168668841Y-212880856D01*
X168668842Y-212880857D01*
X168681143Y-212889045D01*
X168782313Y-212956390D01*
X168882920Y-212987821D01*
X168912425Y-212997039D01*
X168912426Y-212997039D01*
X168919157Y-212999142D01*
X168990828Y-213000456D01*
X169055445Y-213001641D01*
X169055447Y-213001641D01*
X169062499Y-213001770D01*
X169069302Y-212999915D01*
X169069304Y-212999915D01*
X169144503Y-212979413D01*
X169200817Y-212964060D01*
X169322991Y-212889045D01*
X169330403Y-212880857D01*
X169414468Y-212787982D01*
X169419200Y-212782754D01*
X169465117Y-212687982D01*
X169478634Y-212660082D01*
X169481710Y-212653733D01*
X169485875Y-212628982D01*
X169504862Y-212516124D01*
X169504862Y-212516120D01*
X169505496Y-212512354D01*
X169505647Y-212500000D01*
X169485323Y-212358082D01*
X169463543Y-212310180D01*
X169428905Y-212233996D01*
X169428904Y-212233995D01*
X169425984Y-212227572D01*
X169365582Y-212157472D01*
X169337005Y-212124307D01*
X169337004Y-212124306D01*
X169332400Y-212118963D01*
X169277328Y-212083267D01*
X169238781Y-212035751D01*
X169235526Y-211974652D01*
X169268805Y-211923309D01*
X169279374Y-211915826D01*
X169316978Y-211892737D01*
X169322991Y-211889045D01*
X169330403Y-211880857D01*
X169414468Y-211787982D01*
X169419200Y-211782754D01*
X169465117Y-211687982D01*
X169478634Y-211660082D01*
X169481710Y-211653733D01*
X169485875Y-211628982D01*
X169504862Y-211516124D01*
X169504862Y-211516120D01*
X169505496Y-211512354D01*
X169505647Y-211500000D01*
X169485323Y-211358082D01*
X169463543Y-211310180D01*
X169428905Y-211233996D01*
X169428904Y-211233995D01*
X169425984Y-211227572D01*
X169365582Y-211157472D01*
X169337005Y-211124307D01*
X169337004Y-211124306D01*
X169332400Y-211118963D01*
X169277328Y-211083267D01*
X169238781Y-211035751D01*
X169235526Y-210974652D01*
X169268805Y-210923309D01*
X169279374Y-210915826D01*
X169316978Y-210892737D01*
X169322991Y-210889045D01*
X169330403Y-210880857D01*
X169414468Y-210787982D01*
X169419200Y-210782754D01*
X169465117Y-210687982D01*
X169478634Y-210660082D01*
X169481710Y-210653733D01*
X169485875Y-210628982D01*
X169504862Y-210516124D01*
X169504862Y-210516120D01*
X169505496Y-210512354D01*
X169505647Y-210500000D01*
X169485323Y-210358082D01*
X169463543Y-210310180D01*
X169428905Y-210233996D01*
X169428904Y-210233995D01*
X169425984Y-210227572D01*
X169365582Y-210157472D01*
X169337005Y-210124307D01*
X169337004Y-210124306D01*
X169332400Y-210118963D01*
X169277328Y-210083267D01*
X169238781Y-210035751D01*
X169235526Y-209974652D01*
X169268805Y-209923309D01*
X169279374Y-209915826D01*
X169316978Y-209892737D01*
X169322991Y-209889045D01*
X169330403Y-209880857D01*
X169414468Y-209787982D01*
X169419200Y-209782754D01*
X169465117Y-209687982D01*
X169478634Y-209660082D01*
X169481710Y-209653733D01*
X169485875Y-209628982D01*
X169504862Y-209516124D01*
X169504862Y-209516120D01*
X169505496Y-209512354D01*
X169505647Y-209500000D01*
X169485323Y-209358082D01*
X169463543Y-209310180D01*
X169428905Y-209233996D01*
X169428904Y-209233995D01*
X169425984Y-209227572D01*
X169365582Y-209157472D01*
X169337005Y-209124307D01*
X169337004Y-209124306D01*
X169332400Y-209118963D01*
X169277328Y-209083267D01*
X169238781Y-209035751D01*
X169235526Y-208974652D01*
X169268805Y-208923309D01*
X169279374Y-208915826D01*
X169316978Y-208892737D01*
X169322991Y-208889045D01*
X169330403Y-208880857D01*
X169414468Y-208787982D01*
X169419200Y-208782754D01*
X169465117Y-208687982D01*
X169478634Y-208660082D01*
X169481710Y-208653733D01*
X169485875Y-208628982D01*
X169504862Y-208516124D01*
X169504862Y-208516120D01*
X169505496Y-208512354D01*
X169505647Y-208500000D01*
X169485323Y-208358082D01*
X169463543Y-208310180D01*
X169428905Y-208233996D01*
X169428904Y-208233995D01*
X169425984Y-208227572D01*
X169361282Y-208152482D01*
X169337005Y-208124307D01*
X169337004Y-208124306D01*
X169332400Y-208118963D01*
X169212095Y-208040985D01*
X169074739Y-207999907D01*
X168991497Y-207999398D01*
X168938427Y-207999074D01*
X168938426Y-207999074D01*
X168931376Y-207999031D01*
X168924599Y-208000968D01*
X168924598Y-208000968D01*
X168800309Y-208036490D01*
X168800307Y-208036491D01*
X168793529Y-208038428D01*
X168672280Y-208114930D01*
X168667613Y-208120214D01*
X168667611Y-208120216D01*
X168582044Y-208217103D01*
X168582042Y-208217105D01*
X168577377Y-208222388D01*
X168516447Y-208352163D01*
X168515362Y-208359132D01*
X168515361Y-208359135D01*
X168509589Y-208396209D01*
X168494391Y-208493823D01*
X168495306Y-208500820D01*
X168495306Y-208500821D01*
X168509391Y-208608533D01*
X168512980Y-208635979D01*
X168515821Y-208642435D01*
X168515821Y-208642436D01*
X168567587Y-208760082D01*
X168570720Y-208767203D01*
X168611592Y-208815826D01*
X168658431Y-208871549D01*
X168658434Y-208871551D01*
X168662970Y-208876948D01*
X168668841Y-208880856D01*
X168668842Y-208880857D01*
X168723897Y-208917505D01*
X168761860Y-208965489D01*
X168764369Y-209026623D01*
X168730464Y-209077556D01*
X168721867Y-209083643D01*
X168672280Y-209114930D01*
X168667613Y-209120214D01*
X168667611Y-209120216D01*
X168582044Y-209217103D01*
X168582042Y-209217105D01*
X168577377Y-209222388D01*
X168516447Y-209352163D01*
X168515362Y-209359132D01*
X168515361Y-209359135D01*
X168509589Y-209396209D01*
X168494391Y-209493823D01*
X168495306Y-209500820D01*
X168495306Y-209500821D01*
X168500748Y-209542436D01*
X168512980Y-209635979D01*
X168515821Y-209642435D01*
X168515821Y-209642436D01*
X168533562Y-209682754D01*
X168570720Y-209767203D01*
X168611592Y-209815826D01*
X168658431Y-209871549D01*
X168658434Y-209871551D01*
X168662970Y-209876948D01*
X168668841Y-209880856D01*
X168668842Y-209880857D01*
X168723897Y-209917505D01*
X168761860Y-209965489D01*
X168764369Y-210026623D01*
X168730464Y-210077556D01*
X168721867Y-210083643D01*
X168672280Y-210114930D01*
X168667613Y-210120214D01*
X168667611Y-210120216D01*
X168582044Y-210217103D01*
X168582042Y-210217105D01*
X168577377Y-210222388D01*
X168516447Y-210352163D01*
X168515362Y-210359132D01*
X168515361Y-210359135D01*
X168509589Y-210396209D01*
X168494391Y-210493823D01*
X168495306Y-210500820D01*
X168495306Y-210500821D01*
X168500748Y-210542436D01*
X168512980Y-210635979D01*
X168515821Y-210642435D01*
X168515821Y-210642436D01*
X168533562Y-210682754D01*
X168570720Y-210767203D01*
X168611592Y-210815826D01*
X168658431Y-210871549D01*
X168658434Y-210871551D01*
X168662970Y-210876948D01*
X168668841Y-210880856D01*
X168668842Y-210880857D01*
X168723897Y-210917505D01*
X168761860Y-210965489D01*
X168764369Y-211026623D01*
X168730464Y-211077556D01*
X168721867Y-211083643D01*
X168672280Y-211114930D01*
X168667613Y-211120214D01*
X168667611Y-211120216D01*
X168582044Y-211217103D01*
X168582042Y-211217105D01*
X168577377Y-211222388D01*
X168516447Y-211352163D01*
X168515362Y-211359132D01*
X168515361Y-211359135D01*
X168509589Y-211396209D01*
X168494391Y-211493823D01*
X168495306Y-211500820D01*
X168495306Y-211500821D01*
X168500748Y-211542436D01*
X168512980Y-211635979D01*
X168515821Y-211642435D01*
X168515821Y-211642436D01*
X168533562Y-211682754D01*
X168570720Y-211767203D01*
X168611592Y-211815826D01*
X168658431Y-211871549D01*
X168658434Y-211871551D01*
X168662970Y-211876948D01*
X168668841Y-211880856D01*
X168668842Y-211880857D01*
X168723897Y-211917505D01*
X168761860Y-211965489D01*
X168764369Y-212026623D01*
X168730464Y-212077556D01*
X168721867Y-212083643D01*
X168672280Y-212114930D01*
X168667613Y-212120214D01*
X168667611Y-212120216D01*
X168582044Y-212217103D01*
X168582042Y-212217105D01*
X168577377Y-212222388D01*
X168516447Y-212352163D01*
X168515362Y-212359132D01*
X168515361Y-212359135D01*
X168509589Y-212396209D01*
X168494391Y-212493823D01*
X164591790Y-212493823D01*
X164604862Y-212416124D01*
X164604862Y-212416120D01*
X164605496Y-212412354D01*
X164605647Y-212400000D01*
X164585323Y-212258082D01*
X164525984Y-212127572D01*
X164465582Y-212057472D01*
X164437005Y-212024307D01*
X164437004Y-212024306D01*
X164432400Y-212018963D01*
X164377328Y-211983267D01*
X164338781Y-211935751D01*
X164335526Y-211874652D01*
X164368805Y-211823309D01*
X164379374Y-211815826D01*
X164416978Y-211792737D01*
X164422991Y-211789045D01*
X164430403Y-211780857D01*
X164514468Y-211687982D01*
X164519200Y-211682754D01*
X164581710Y-211553733D01*
X164585875Y-211528982D01*
X164604862Y-211416124D01*
X164604862Y-211416120D01*
X164605496Y-211412354D01*
X164605647Y-211400000D01*
X164585323Y-211258082D01*
X164525984Y-211127572D01*
X164465582Y-211057472D01*
X164437005Y-211024307D01*
X164437004Y-211024306D01*
X164432400Y-211018963D01*
X164377328Y-210983267D01*
X164338781Y-210935751D01*
X164335526Y-210874652D01*
X164368805Y-210823309D01*
X164379374Y-210815826D01*
X164416978Y-210792737D01*
X164422991Y-210789045D01*
X164430403Y-210780857D01*
X164514468Y-210687982D01*
X164519200Y-210682754D01*
X164581710Y-210553733D01*
X164585875Y-210528982D01*
X164604862Y-210416124D01*
X164604862Y-210416120D01*
X164605496Y-210412354D01*
X164605647Y-210400000D01*
X164585323Y-210258082D01*
X164525984Y-210127572D01*
X164465582Y-210057472D01*
X164437005Y-210024307D01*
X164437004Y-210024306D01*
X164432400Y-210018963D01*
X164377328Y-209983267D01*
X164338781Y-209935751D01*
X164335526Y-209874652D01*
X164368805Y-209823309D01*
X164379374Y-209815826D01*
X164416978Y-209792737D01*
X164422991Y-209789045D01*
X164430403Y-209780857D01*
X164514468Y-209687982D01*
X164519200Y-209682754D01*
X164581710Y-209553733D01*
X164585875Y-209528982D01*
X164604862Y-209416124D01*
X164604862Y-209416120D01*
X164605496Y-209412354D01*
X164605647Y-209400000D01*
X164585323Y-209258082D01*
X164525984Y-209127572D01*
X164458522Y-209049279D01*
X164437005Y-209024307D01*
X164437004Y-209024306D01*
X164432400Y-209018963D01*
X164377328Y-208983267D01*
X164338781Y-208935751D01*
X164335526Y-208874652D01*
X164368805Y-208823309D01*
X164379374Y-208815826D01*
X164416978Y-208792737D01*
X164422991Y-208789045D01*
X164430403Y-208780857D01*
X164514468Y-208687982D01*
X164519200Y-208682754D01*
X164581710Y-208553733D01*
X164585875Y-208528982D01*
X164604862Y-208416124D01*
X164604862Y-208416120D01*
X164605496Y-208412354D01*
X164605647Y-208400000D01*
X164585323Y-208258082D01*
X164540897Y-208160371D01*
X164528905Y-208133996D01*
X164528904Y-208133995D01*
X164525984Y-208127572D01*
X164452415Y-208042191D01*
X164437005Y-208024307D01*
X164437004Y-208024306D01*
X164432400Y-208018963D01*
X164312095Y-207940985D01*
X164174739Y-207899907D01*
X164091497Y-207899398D01*
X164038427Y-207899074D01*
X164038426Y-207899074D01*
X164031376Y-207899031D01*
X164024599Y-207900968D01*
X164024598Y-207900968D01*
X163900309Y-207936490D01*
X163900307Y-207936491D01*
X163893529Y-207938428D01*
X163772280Y-208014930D01*
X163767613Y-208020214D01*
X163767611Y-208020216D01*
X163682044Y-208117103D01*
X163682042Y-208117105D01*
X163677377Y-208122388D01*
X163616447Y-208252163D01*
X163594391Y-208393823D01*
X163595306Y-208400820D01*
X163595306Y-208400821D01*
X163609391Y-208508533D01*
X163612980Y-208535979D01*
X163615821Y-208542435D01*
X163615821Y-208542436D01*
X163667587Y-208660082D01*
X163670720Y-208667203D01*
X163683792Y-208682754D01*
X163758431Y-208771549D01*
X163758434Y-208771551D01*
X163762970Y-208776948D01*
X163768841Y-208780856D01*
X163768842Y-208780857D01*
X163823897Y-208817505D01*
X163861860Y-208865489D01*
X163864369Y-208926623D01*
X163830464Y-208977556D01*
X163821867Y-208983643D01*
X163772280Y-209014930D01*
X163767613Y-209020214D01*
X163767611Y-209020216D01*
X163682044Y-209117103D01*
X163682042Y-209117105D01*
X163677377Y-209122388D01*
X163616447Y-209252163D01*
X163594391Y-209393823D01*
X163595306Y-209400820D01*
X163595306Y-209400821D01*
X163609391Y-209508533D01*
X163612980Y-209535979D01*
X163615821Y-209542435D01*
X163615821Y-209542436D01*
X163667587Y-209660082D01*
X163670720Y-209667203D01*
X163683792Y-209682754D01*
X163758431Y-209771549D01*
X163758434Y-209771551D01*
X163762970Y-209776948D01*
X163768841Y-209780856D01*
X163768842Y-209780857D01*
X163823897Y-209817505D01*
X163861860Y-209865489D01*
X163864369Y-209926623D01*
X163830464Y-209977556D01*
X163821867Y-209983643D01*
X163772280Y-210014930D01*
X163767613Y-210020214D01*
X163767611Y-210020216D01*
X163682044Y-210117103D01*
X163682042Y-210117105D01*
X163677377Y-210122388D01*
X163616447Y-210252163D01*
X163594391Y-210393823D01*
X163595306Y-210400820D01*
X163595306Y-210400821D01*
X163609391Y-210508533D01*
X163612980Y-210535979D01*
X163615821Y-210542435D01*
X163615821Y-210542436D01*
X163667587Y-210660082D01*
X163670720Y-210667203D01*
X163683792Y-210682754D01*
X163758431Y-210771549D01*
X163758434Y-210771551D01*
X163762970Y-210776948D01*
X163768841Y-210780856D01*
X163768842Y-210780857D01*
X163823897Y-210817505D01*
X163861860Y-210865489D01*
X163864369Y-210926623D01*
X163830464Y-210977556D01*
X163821867Y-210983643D01*
X163772280Y-211014930D01*
X163767613Y-211020214D01*
X163767611Y-211020216D01*
X163682044Y-211117103D01*
X163682042Y-211117105D01*
X163677377Y-211122388D01*
X163616447Y-211252163D01*
X163594391Y-211393823D01*
X163595306Y-211400820D01*
X163595306Y-211400821D01*
X163609391Y-211508533D01*
X163612980Y-211535979D01*
X163615821Y-211542435D01*
X163615821Y-211542436D01*
X163667587Y-211660082D01*
X163670720Y-211667203D01*
X163683792Y-211682754D01*
X163758431Y-211771549D01*
X163758434Y-211771551D01*
X163762970Y-211776948D01*
X163768841Y-211780856D01*
X163768842Y-211780857D01*
X163823897Y-211817505D01*
X163861860Y-211865489D01*
X163864369Y-211926623D01*
X163830464Y-211977556D01*
X163821867Y-211983643D01*
X163772280Y-212014930D01*
X163767613Y-212020214D01*
X163767611Y-212020216D01*
X163682044Y-212117103D01*
X163682042Y-212117105D01*
X163677377Y-212122388D01*
X163616447Y-212252163D01*
X163594391Y-212393823D01*
X155890441Y-212393823D01*
X155885323Y-212358082D01*
X155863543Y-212310180D01*
X155828905Y-212233996D01*
X155828904Y-212233995D01*
X155825984Y-212227572D01*
X155765582Y-212157472D01*
X155737005Y-212124307D01*
X155737004Y-212124306D01*
X155732400Y-212118963D01*
X155677328Y-212083267D01*
X155638781Y-212035751D01*
X155635526Y-211974652D01*
X155668805Y-211923309D01*
X155679374Y-211915826D01*
X155716978Y-211892737D01*
X155722991Y-211889045D01*
X155730403Y-211880857D01*
X155814468Y-211787982D01*
X155819200Y-211782754D01*
X155865117Y-211687982D01*
X155878634Y-211660082D01*
X155881710Y-211653733D01*
X155885875Y-211628982D01*
X155904862Y-211516124D01*
X155904862Y-211516120D01*
X155905496Y-211512354D01*
X155905647Y-211500000D01*
X155885323Y-211358082D01*
X155863543Y-211310180D01*
X155828905Y-211233996D01*
X155828904Y-211233995D01*
X155825984Y-211227572D01*
X155765582Y-211157472D01*
X155737005Y-211124307D01*
X155737004Y-211124306D01*
X155732400Y-211118963D01*
X155677328Y-211083267D01*
X155638781Y-211035751D01*
X155635526Y-210974652D01*
X155668805Y-210923309D01*
X155679374Y-210915826D01*
X155716978Y-210892737D01*
X155722991Y-210889045D01*
X155730403Y-210880857D01*
X155814468Y-210787982D01*
X155819200Y-210782754D01*
X155865117Y-210687982D01*
X155878634Y-210660082D01*
X155881710Y-210653733D01*
X155885875Y-210628982D01*
X155904862Y-210516124D01*
X155904862Y-210516120D01*
X155905496Y-210512354D01*
X155905647Y-210500000D01*
X155885323Y-210358082D01*
X155863543Y-210310180D01*
X155828905Y-210233996D01*
X155828904Y-210233995D01*
X155825984Y-210227572D01*
X155765582Y-210157472D01*
X155737005Y-210124307D01*
X155737004Y-210124306D01*
X155732400Y-210118963D01*
X155677328Y-210083267D01*
X155638781Y-210035751D01*
X155635526Y-209974652D01*
X155668805Y-209923309D01*
X155679374Y-209915826D01*
X155716978Y-209892737D01*
X155722991Y-209889045D01*
X155730403Y-209880857D01*
X155814468Y-209787982D01*
X155819200Y-209782754D01*
X155865117Y-209687982D01*
X155878634Y-209660082D01*
X155881710Y-209653733D01*
X155885875Y-209628982D01*
X155904862Y-209516124D01*
X155904862Y-209516120D01*
X155905496Y-209512354D01*
X155905647Y-209500000D01*
X155885323Y-209358082D01*
X155863543Y-209310180D01*
X155828905Y-209233996D01*
X155828904Y-209233995D01*
X155825984Y-209227572D01*
X155736603Y-209123841D01*
X155736602Y-209123839D01*
X155732400Y-209118963D01*
X155733246Y-209118234D01*
X155705324Y-209071583D01*
X155710760Y-209010639D01*
X155728426Y-208983041D01*
X155814468Y-208887982D01*
X155819200Y-208882754D01*
X155867136Y-208783814D01*
X155878634Y-208760082D01*
X155881710Y-208753733D01*
X155885875Y-208728982D01*
X155904862Y-208616124D01*
X155904862Y-208616120D01*
X155905496Y-208612354D01*
X155905647Y-208600000D01*
X155885323Y-208458082D01*
X155856106Y-208393823D01*
X155828905Y-208333996D01*
X155828904Y-208333995D01*
X155825984Y-208327572D01*
X155755504Y-208245776D01*
X155737005Y-208224307D01*
X155737004Y-208224306D01*
X155732400Y-208218963D01*
X155612095Y-208140985D01*
X155474739Y-208099907D01*
X155391497Y-208099398D01*
X155338427Y-208099074D01*
X155338426Y-208099074D01*
X155331376Y-208099031D01*
X155324599Y-208100968D01*
X155324598Y-208100968D01*
X155200309Y-208136490D01*
X155200307Y-208136491D01*
X155193529Y-208138428D01*
X155072280Y-208214930D01*
X155067613Y-208220214D01*
X155067611Y-208220216D01*
X154982044Y-208317103D01*
X154982042Y-208317105D01*
X154977377Y-208322388D01*
X154916447Y-208452163D01*
X154915362Y-208459132D01*
X154915361Y-208459135D01*
X154903397Y-208535979D01*
X154894391Y-208593823D01*
X154895306Y-208600820D01*
X154895306Y-208600821D01*
X154905190Y-208676409D01*
X154912980Y-208735979D01*
X154915821Y-208742435D01*
X154915821Y-208742436D01*
X154948114Y-208815826D01*
X154970720Y-208867203D01*
X155062970Y-208976948D01*
X155064716Y-208978110D01*
X155094352Y-209029025D01*
X155088170Y-209089897D01*
X155071795Y-209115479D01*
X154977377Y-209222388D01*
X154916447Y-209352163D01*
X154915362Y-209359132D01*
X154915361Y-209359135D01*
X154909589Y-209396209D01*
X154894391Y-209493823D01*
X154895306Y-209500820D01*
X154895306Y-209500821D01*
X154900748Y-209542436D01*
X154912980Y-209635979D01*
X154915821Y-209642435D01*
X154915821Y-209642436D01*
X154933562Y-209682754D01*
X154970720Y-209767203D01*
X155011592Y-209815826D01*
X155058431Y-209871549D01*
X155058434Y-209871551D01*
X155062970Y-209876948D01*
X155068841Y-209880856D01*
X155068842Y-209880857D01*
X155123897Y-209917505D01*
X155161860Y-209965489D01*
X155164369Y-210026623D01*
X155130464Y-210077556D01*
X155121867Y-210083643D01*
X155072280Y-210114930D01*
X155067613Y-210120214D01*
X155067611Y-210120216D01*
X154982044Y-210217103D01*
X154982042Y-210217105D01*
X154977377Y-210222388D01*
X154916447Y-210352163D01*
X154915362Y-210359132D01*
X154915361Y-210359135D01*
X154909589Y-210396209D01*
X154894391Y-210493823D01*
X154895306Y-210500820D01*
X154895306Y-210500821D01*
X154900748Y-210542436D01*
X154912980Y-210635979D01*
X154915821Y-210642435D01*
X154915821Y-210642436D01*
X154933562Y-210682754D01*
X154970720Y-210767203D01*
X155011592Y-210815826D01*
X155058431Y-210871549D01*
X155058434Y-210871551D01*
X155062970Y-210876948D01*
X155068841Y-210880856D01*
X155068842Y-210880857D01*
X155123897Y-210917505D01*
X155161860Y-210965489D01*
X155164369Y-211026623D01*
X155130464Y-211077556D01*
X155121867Y-211083643D01*
X155072280Y-211114930D01*
X155067613Y-211120214D01*
X155067611Y-211120216D01*
X154982044Y-211217103D01*
X154982042Y-211217105D01*
X154977377Y-211222388D01*
X154916447Y-211352163D01*
X154915362Y-211359132D01*
X154915361Y-211359135D01*
X154909589Y-211396209D01*
X154894391Y-211493823D01*
X154895306Y-211500820D01*
X154895306Y-211500821D01*
X154900748Y-211542436D01*
X154912980Y-211635979D01*
X154915821Y-211642435D01*
X154915821Y-211642436D01*
X154933562Y-211682754D01*
X154970720Y-211767203D01*
X155011592Y-211815826D01*
X155058431Y-211871549D01*
X155058434Y-211871551D01*
X155062970Y-211876948D01*
X155068841Y-211880856D01*
X155068842Y-211880857D01*
X155123897Y-211917505D01*
X155161860Y-211965489D01*
X155164369Y-212026623D01*
X155130464Y-212077556D01*
X155121867Y-212083643D01*
X155072280Y-212114930D01*
X155067613Y-212120214D01*
X155067611Y-212120216D01*
X154982044Y-212217103D01*
X154982042Y-212217105D01*
X154977377Y-212222388D01*
X154916447Y-212352163D01*
X154915362Y-212359132D01*
X154915361Y-212359135D01*
X154909589Y-212396209D01*
X154894391Y-212493823D01*
X151491790Y-212493823D01*
X151504862Y-212416124D01*
X151504862Y-212416120D01*
X151505496Y-212412354D01*
X151505647Y-212400000D01*
X151485323Y-212258082D01*
X151425984Y-212127572D01*
X151365582Y-212057472D01*
X151337005Y-212024307D01*
X151337004Y-212024306D01*
X151332400Y-212018963D01*
X151277328Y-211983267D01*
X151238781Y-211935751D01*
X151235526Y-211874652D01*
X151268805Y-211823309D01*
X151279374Y-211815826D01*
X151316978Y-211792737D01*
X151322991Y-211789045D01*
X151330403Y-211780857D01*
X151414468Y-211687982D01*
X151419200Y-211682754D01*
X151481710Y-211553733D01*
X151485875Y-211528982D01*
X151504862Y-211416124D01*
X151504862Y-211416120D01*
X151505496Y-211412354D01*
X151505647Y-211400000D01*
X151485323Y-211258082D01*
X151425984Y-211127572D01*
X151365582Y-211057472D01*
X151337005Y-211024307D01*
X151337004Y-211024306D01*
X151332400Y-211018963D01*
X151277328Y-210983267D01*
X151238781Y-210935751D01*
X151235526Y-210874652D01*
X151268805Y-210823309D01*
X151279374Y-210815826D01*
X151316978Y-210792737D01*
X151322991Y-210789045D01*
X151330403Y-210780857D01*
X151414468Y-210687982D01*
X151419200Y-210682754D01*
X151481710Y-210553733D01*
X151485875Y-210528982D01*
X151504862Y-210416124D01*
X151504862Y-210416120D01*
X151505496Y-210412354D01*
X151505647Y-210400000D01*
X151485323Y-210258082D01*
X151425984Y-210127572D01*
X151336603Y-210023841D01*
X151336602Y-210023839D01*
X151332400Y-210018963D01*
X151333246Y-210018234D01*
X151305324Y-209971583D01*
X151310760Y-209910639D01*
X151328426Y-209883041D01*
X151414468Y-209787982D01*
X151419200Y-209782754D01*
X151465117Y-209687982D01*
X151478634Y-209660082D01*
X151481710Y-209653733D01*
X151485875Y-209628982D01*
X151504862Y-209516124D01*
X151504862Y-209516120D01*
X151505496Y-209512354D01*
X151505647Y-209500000D01*
X151485323Y-209358082D01*
X151463543Y-209310180D01*
X151428905Y-209233996D01*
X151428904Y-209233995D01*
X151425984Y-209227572D01*
X151336603Y-209123841D01*
X151336602Y-209123839D01*
X151332400Y-209118963D01*
X151333246Y-209118234D01*
X151305324Y-209071583D01*
X151310760Y-209010639D01*
X151328426Y-208983041D01*
X151414468Y-208887982D01*
X151419200Y-208882754D01*
X151467136Y-208783814D01*
X151478634Y-208760082D01*
X151481710Y-208753733D01*
X151485875Y-208728982D01*
X151504862Y-208616124D01*
X151504862Y-208616120D01*
X151505496Y-208612354D01*
X151505647Y-208600000D01*
X151485323Y-208458082D01*
X151456106Y-208393823D01*
X151428905Y-208333996D01*
X151428904Y-208333995D01*
X151425984Y-208327572D01*
X151355504Y-208245776D01*
X151337005Y-208224307D01*
X151337004Y-208224306D01*
X151332400Y-208218963D01*
X151212095Y-208140985D01*
X151074739Y-208099907D01*
X150991497Y-208099398D01*
X150938427Y-208099074D01*
X150938426Y-208099074D01*
X150931376Y-208099031D01*
X150924599Y-208100968D01*
X150924598Y-208100968D01*
X150800309Y-208136490D01*
X150800307Y-208136491D01*
X150793529Y-208138428D01*
X150672280Y-208214930D01*
X150667613Y-208220214D01*
X150667611Y-208220216D01*
X150582044Y-208317103D01*
X150582042Y-208317105D01*
X150577377Y-208322388D01*
X150516447Y-208452163D01*
X150515362Y-208459132D01*
X150515361Y-208459135D01*
X150503397Y-208535979D01*
X150494391Y-208593823D01*
X150495306Y-208600820D01*
X150495306Y-208600821D01*
X150505190Y-208676409D01*
X150512980Y-208735979D01*
X150515821Y-208742435D01*
X150515821Y-208742436D01*
X150548114Y-208815826D01*
X150570720Y-208867203D01*
X150662970Y-208976948D01*
X150664716Y-208978110D01*
X150694352Y-209029025D01*
X150688170Y-209089897D01*
X150671795Y-209115479D01*
X150577377Y-209222388D01*
X150516447Y-209352163D01*
X150515362Y-209359132D01*
X150515361Y-209359135D01*
X150509589Y-209396209D01*
X150494391Y-209493823D01*
X150495306Y-209500820D01*
X150495306Y-209500821D01*
X150500748Y-209542436D01*
X150512980Y-209635979D01*
X150515821Y-209642435D01*
X150515821Y-209642436D01*
X150533562Y-209682754D01*
X150570720Y-209767203D01*
X150662970Y-209876948D01*
X150664716Y-209878110D01*
X150694352Y-209929025D01*
X150688170Y-209989897D01*
X150671795Y-210015479D01*
X150577377Y-210122388D01*
X150516447Y-210252163D01*
X150494391Y-210393823D01*
X150495306Y-210400820D01*
X150495306Y-210400821D01*
X150509391Y-210508533D01*
X150512980Y-210535979D01*
X150515821Y-210542435D01*
X150515821Y-210542436D01*
X150567587Y-210660082D01*
X150570720Y-210667203D01*
X150583792Y-210682754D01*
X150658431Y-210771549D01*
X150658434Y-210771551D01*
X150662970Y-210776948D01*
X150668841Y-210780856D01*
X150668842Y-210780857D01*
X150723897Y-210817505D01*
X150761860Y-210865489D01*
X150764369Y-210926623D01*
X150730464Y-210977556D01*
X150721867Y-210983643D01*
X150672280Y-211014930D01*
X150667613Y-211020214D01*
X150667611Y-211020216D01*
X150582044Y-211117103D01*
X150582042Y-211117105D01*
X150577377Y-211122388D01*
X150516447Y-211252163D01*
X150494391Y-211393823D01*
X150495306Y-211400820D01*
X150495306Y-211400821D01*
X150509391Y-211508533D01*
X150512980Y-211535979D01*
X150515821Y-211542435D01*
X150515821Y-211542436D01*
X150567587Y-211660082D01*
X150570720Y-211667203D01*
X150583792Y-211682754D01*
X150658431Y-211771549D01*
X150658434Y-211771551D01*
X150662970Y-211776948D01*
X150668841Y-211780856D01*
X150668842Y-211780857D01*
X150723897Y-211817505D01*
X150761860Y-211865489D01*
X150764369Y-211926623D01*
X150730464Y-211977556D01*
X150721867Y-211983643D01*
X150672280Y-212014930D01*
X150667613Y-212020214D01*
X150667611Y-212020216D01*
X150582044Y-212117103D01*
X150582042Y-212117105D01*
X150577377Y-212122388D01*
X150516447Y-212252163D01*
X150494391Y-212393823D01*
X149500000Y-212393823D01*
X149500000Y-207693823D01*
X152694391Y-207693823D01*
X152695306Y-207700820D01*
X152695306Y-207700821D01*
X152696814Y-207712354D01*
X152712980Y-207835979D01*
X152715821Y-207842435D01*
X152715821Y-207842436D01*
X152760873Y-207944823D01*
X152770720Y-207967203D01*
X152810839Y-208014930D01*
X152858431Y-208071549D01*
X152858434Y-208071551D01*
X152862970Y-208076948D01*
X152868841Y-208080856D01*
X152868842Y-208080857D01*
X152899054Y-208100968D01*
X152982313Y-208156390D01*
X153082920Y-208187821D01*
X153112425Y-208197039D01*
X153112426Y-208197039D01*
X153119157Y-208199142D01*
X153190828Y-208200456D01*
X153255445Y-208201641D01*
X153255447Y-208201641D01*
X153262499Y-208201770D01*
X153269302Y-208199915D01*
X153269304Y-208199915D01*
X153344503Y-208179413D01*
X153400817Y-208164060D01*
X153522991Y-208089045D01*
X153530403Y-208080857D01*
X153614468Y-207987982D01*
X153619200Y-207982754D01*
X153681710Y-207853733D01*
X153685875Y-207828982D01*
X153704862Y-207716124D01*
X153704862Y-207716120D01*
X153705496Y-207712354D01*
X153705647Y-207700000D01*
X153697602Y-207643823D01*
X166094391Y-207643823D01*
X166095306Y-207650820D01*
X166095306Y-207650821D01*
X166096814Y-207662354D01*
X166112980Y-207785979D01*
X166115821Y-207792435D01*
X166115821Y-207792436D01*
X166163110Y-207899907D01*
X166170720Y-207917203D01*
X166212749Y-207967203D01*
X166258431Y-208021549D01*
X166258434Y-208021551D01*
X166262970Y-208026948D01*
X166268841Y-208030856D01*
X166268842Y-208030857D01*
X166280216Y-208038428D01*
X166382313Y-208106390D01*
X166482920Y-208137821D01*
X166512425Y-208147039D01*
X166512426Y-208147039D01*
X166519157Y-208149142D01*
X166590828Y-208150456D01*
X166655445Y-208151641D01*
X166655447Y-208151641D01*
X166662499Y-208151770D01*
X166669302Y-208149915D01*
X166669304Y-208149915D01*
X166751256Y-208127572D01*
X166800817Y-208114060D01*
X166922991Y-208039045D01*
X166930403Y-208030857D01*
X167014468Y-207937982D01*
X167019200Y-207932754D01*
X167081710Y-207803733D01*
X167085875Y-207778982D01*
X167104862Y-207666124D01*
X167104862Y-207666120D01*
X167105496Y-207662354D01*
X167105647Y-207650000D01*
X167085323Y-207508082D01*
X167048718Y-207427572D01*
X167028905Y-207383996D01*
X167028904Y-207383995D01*
X167025984Y-207377572D01*
X166932400Y-207268963D01*
X166812095Y-207190985D01*
X166674739Y-207149907D01*
X166591497Y-207149398D01*
X166538427Y-207149074D01*
X166538426Y-207149074D01*
X166531376Y-207149031D01*
X166524599Y-207150968D01*
X166524598Y-207150968D01*
X166400309Y-207186490D01*
X166400307Y-207186491D01*
X166393529Y-207188428D01*
X166272280Y-207264930D01*
X166267613Y-207270214D01*
X166267611Y-207270216D01*
X166182044Y-207367103D01*
X166182042Y-207367105D01*
X166177377Y-207372388D01*
X166116447Y-207502163D01*
X166115362Y-207509132D01*
X166115361Y-207509135D01*
X166106653Y-207565066D01*
X166094391Y-207643823D01*
X153697602Y-207643823D01*
X153685323Y-207558082D01*
X153625984Y-207427572D01*
X153532400Y-207318963D01*
X153412095Y-207240985D01*
X153274739Y-207199907D01*
X153191497Y-207199398D01*
X153138427Y-207199074D01*
X153138426Y-207199074D01*
X153131376Y-207199031D01*
X153124599Y-207200968D01*
X153124598Y-207200968D01*
X153000309Y-207236490D01*
X153000307Y-207236491D01*
X152993529Y-207238428D01*
X152872280Y-207314930D01*
X152867613Y-207320214D01*
X152867611Y-207320216D01*
X152782044Y-207417103D01*
X152782042Y-207417105D01*
X152777377Y-207422388D01*
X152716447Y-207552163D01*
X152694391Y-207693823D01*
X149500000Y-207693823D01*
X149500000Y-202000000D01*
X141520252Y-191526581D01*
X141500000Y-191466583D01*
X141500000Y-175832633D01*
X185390771Y-175832633D01*
X185391686Y-175839630D01*
X185391686Y-175839631D01*
X185393194Y-175851164D01*
X185409360Y-175974789D01*
X185412201Y-175981245D01*
X185412201Y-175981246D01*
X185419966Y-175998892D01*
X185467100Y-176106013D01*
X185492054Y-176135699D01*
X185554811Y-176210359D01*
X185554814Y-176210361D01*
X185559350Y-176215758D01*
X185565221Y-176219666D01*
X185565222Y-176219667D01*
X185577523Y-176227855D01*
X185678693Y-176295200D01*
X185779300Y-176326631D01*
X185808805Y-176335849D01*
X185808806Y-176335849D01*
X185815537Y-176337952D01*
X185887208Y-176339266D01*
X185951825Y-176340451D01*
X185951827Y-176340451D01*
X185958879Y-176340580D01*
X185965682Y-176338725D01*
X185965684Y-176338725D01*
X186040883Y-176318223D01*
X186097197Y-176302870D01*
X186219371Y-176227855D01*
X186226783Y-176219667D01*
X186310848Y-176126792D01*
X186315580Y-176121564D01*
X186378090Y-175992543D01*
X186382255Y-175967792D01*
X186401242Y-175854934D01*
X186401242Y-175854930D01*
X186401876Y-175851164D01*
X186402027Y-175838810D01*
X186381703Y-175696892D01*
X186341581Y-175608647D01*
X186325285Y-175572806D01*
X186325284Y-175572805D01*
X186322364Y-175566382D01*
X186228780Y-175457773D01*
X186108475Y-175379795D01*
X185971119Y-175338717D01*
X185887877Y-175338208D01*
X185834807Y-175337884D01*
X185834806Y-175337884D01*
X185827756Y-175337841D01*
X185820979Y-175339778D01*
X185820978Y-175339778D01*
X185696689Y-175375300D01*
X185696687Y-175375301D01*
X185689909Y-175377238D01*
X185568660Y-175453740D01*
X185563993Y-175459024D01*
X185563991Y-175459026D01*
X185478424Y-175555913D01*
X185478422Y-175555915D01*
X185473757Y-175561198D01*
X185470761Y-175567580D01*
X185470760Y-175567581D01*
X185468307Y-175572806D01*
X185412827Y-175690973D01*
X185390771Y-175832633D01*
X141500000Y-175832633D01*
X141500000Y-175103328D01*
X183759158Y-175103328D01*
X183760073Y-175110325D01*
X183760073Y-175110326D01*
X183761581Y-175121859D01*
X183777747Y-175245484D01*
X183780588Y-175251940D01*
X183780588Y-175251941D01*
X183818771Y-175338717D01*
X183835487Y-175376708D01*
X183848559Y-175392259D01*
X183923198Y-175481054D01*
X183923201Y-175481056D01*
X183927737Y-175486453D01*
X183933608Y-175490361D01*
X183933609Y-175490362D01*
X183945910Y-175498550D01*
X184047080Y-175565895D01*
X184147687Y-175597326D01*
X184177192Y-175606544D01*
X184177193Y-175606544D01*
X184183924Y-175608647D01*
X184255595Y-175609961D01*
X184320212Y-175611146D01*
X184320214Y-175611146D01*
X184327266Y-175611275D01*
X184334069Y-175609420D01*
X184334071Y-175609420D01*
X184409270Y-175588918D01*
X184465584Y-175573565D01*
X184587758Y-175498550D01*
X184595170Y-175490362D01*
X184679235Y-175397487D01*
X184683967Y-175392259D01*
X184746477Y-175263238D01*
X184750642Y-175238487D01*
X184769629Y-175125629D01*
X184769629Y-175125625D01*
X184770263Y-175121859D01*
X184770414Y-175109505D01*
X184750090Y-174967587D01*
X184690751Y-174837077D01*
X184597167Y-174728468D01*
X184476862Y-174650490D01*
X184339506Y-174609412D01*
X184256264Y-174608903D01*
X184203194Y-174608579D01*
X184203193Y-174608579D01*
X184196143Y-174608536D01*
X184189366Y-174610473D01*
X184189365Y-174610473D01*
X184065076Y-174645995D01*
X184065074Y-174645996D01*
X184058296Y-174647933D01*
X183937047Y-174724435D01*
X183932380Y-174729719D01*
X183932378Y-174729721D01*
X183846811Y-174826608D01*
X183846809Y-174826610D01*
X183842144Y-174831893D01*
X183781214Y-174961668D01*
X183759158Y-175103328D01*
X141500000Y-175103328D01*
X141500000Y-174450943D01*
X182105566Y-174450943D01*
X182106481Y-174457940D01*
X182106481Y-174457941D01*
X182107989Y-174469474D01*
X182124155Y-174593099D01*
X182126996Y-174599555D01*
X182126996Y-174599556D01*
X182149408Y-174650490D01*
X182181895Y-174724323D01*
X182194967Y-174739874D01*
X182269606Y-174828669D01*
X182269609Y-174828671D01*
X182274145Y-174834068D01*
X182280016Y-174837976D01*
X182280017Y-174837977D01*
X182288316Y-174843501D01*
X182393488Y-174913510D01*
X182494095Y-174944941D01*
X182523600Y-174954159D01*
X182523601Y-174954159D01*
X182530332Y-174956262D01*
X182602003Y-174957576D01*
X182666620Y-174958761D01*
X182666622Y-174958761D01*
X182673674Y-174958890D01*
X182680477Y-174957035D01*
X182680479Y-174957035D01*
X182755678Y-174936533D01*
X182811992Y-174921180D01*
X182934166Y-174846165D01*
X182941578Y-174837977D01*
X183025643Y-174745102D01*
X183030375Y-174739874D01*
X183092885Y-174610853D01*
X183097050Y-174586102D01*
X183116037Y-174473244D01*
X183116037Y-174473240D01*
X183116671Y-174469474D01*
X183116822Y-174457120D01*
X183096498Y-174315202D01*
X183037159Y-174184692D01*
X182943575Y-174076083D01*
X182823270Y-173998105D01*
X182685914Y-173957027D01*
X182602672Y-173956518D01*
X182549602Y-173956194D01*
X182549601Y-173956194D01*
X182542551Y-173956151D01*
X182535774Y-173958088D01*
X182535773Y-173958088D01*
X182411484Y-173993610D01*
X182411482Y-173993611D01*
X182404704Y-173995548D01*
X182283455Y-174072050D01*
X182278788Y-174077334D01*
X182278786Y-174077336D01*
X182193219Y-174174223D01*
X182193217Y-174174225D01*
X182188552Y-174179508D01*
X182127622Y-174309283D01*
X182126537Y-174316252D01*
X182126536Y-174316255D01*
X182117705Y-174372979D01*
X182105566Y-174450943D01*
X141500000Y-174450943D01*
X141500000Y-171976832D01*
X142050160Y-171976832D01*
X142051075Y-171983829D01*
X142051075Y-171983830D01*
X142059222Y-172046130D01*
X142068749Y-172118988D01*
X142071590Y-172125444D01*
X142071590Y-172125445D01*
X142111550Y-172216260D01*
X142126489Y-172250212D01*
X142143956Y-172270991D01*
X142214200Y-172354558D01*
X142214203Y-172354560D01*
X142218739Y-172359957D01*
X142224610Y-172363865D01*
X142224611Y-172363866D01*
X142236912Y-172372054D01*
X142338082Y-172439399D01*
X142436432Y-172470125D01*
X142468194Y-172480048D01*
X142468195Y-172480048D01*
X142474926Y-172482151D01*
X142546597Y-172483465D01*
X142611214Y-172484650D01*
X142611216Y-172484650D01*
X142618268Y-172484779D01*
X142625071Y-172482924D01*
X142625073Y-172482924D01*
X142730701Y-172454126D01*
X142756586Y-172447069D01*
X142878760Y-172372054D01*
X142886172Y-172363866D01*
X142970237Y-172270991D01*
X142974969Y-172265763D01*
X143037479Y-172136742D01*
X143039412Y-172125256D01*
X143060631Y-171999133D01*
X143060631Y-171999129D01*
X143061265Y-171995363D01*
X143061337Y-171989515D01*
X143061369Y-171986835D01*
X143061416Y-171983009D01*
X143060531Y-171976832D01*
X144058592Y-171976832D01*
X144059507Y-171983829D01*
X144059507Y-171983830D01*
X144067654Y-172046130D01*
X144077181Y-172118988D01*
X144080022Y-172125444D01*
X144080022Y-172125445D01*
X144119982Y-172216260D01*
X144134921Y-172250212D01*
X144152388Y-172270991D01*
X144222632Y-172354558D01*
X144222635Y-172354560D01*
X144227171Y-172359957D01*
X144233042Y-172363865D01*
X144233043Y-172363866D01*
X144245344Y-172372054D01*
X144346514Y-172439399D01*
X144444864Y-172470125D01*
X144476626Y-172480048D01*
X144476627Y-172480048D01*
X144483358Y-172482151D01*
X144555029Y-172483465D01*
X144619646Y-172484650D01*
X144619648Y-172484650D01*
X144626700Y-172484779D01*
X144633503Y-172482924D01*
X144633505Y-172482924D01*
X144739133Y-172454126D01*
X144765018Y-172447069D01*
X144887192Y-172372054D01*
X144894604Y-172363866D01*
X144978669Y-172270991D01*
X144983401Y-172265763D01*
X145045911Y-172136742D01*
X145047844Y-172125256D01*
X145069063Y-171999133D01*
X145069063Y-171999129D01*
X145069697Y-171995363D01*
X145069769Y-171989515D01*
X145069801Y-171986835D01*
X145069848Y-171983009D01*
X145068963Y-171976832D01*
X146058592Y-171976832D01*
X146059507Y-171983829D01*
X146059507Y-171983830D01*
X146067654Y-172046130D01*
X146077181Y-172118988D01*
X146080022Y-172125444D01*
X146080022Y-172125445D01*
X146119982Y-172216260D01*
X146134921Y-172250212D01*
X146152388Y-172270991D01*
X146222632Y-172354558D01*
X146222635Y-172354560D01*
X146227171Y-172359957D01*
X146233042Y-172363865D01*
X146233043Y-172363866D01*
X146245344Y-172372054D01*
X146346514Y-172439399D01*
X146444864Y-172470125D01*
X146476626Y-172480048D01*
X146476627Y-172480048D01*
X146483358Y-172482151D01*
X146555029Y-172483465D01*
X146619646Y-172484650D01*
X146619648Y-172484650D01*
X146626700Y-172484779D01*
X146633503Y-172482924D01*
X146633505Y-172482924D01*
X146739133Y-172454126D01*
X146765018Y-172447069D01*
X146887192Y-172372054D01*
X146894604Y-172363866D01*
X146978669Y-172270991D01*
X146983401Y-172265763D01*
X147045911Y-172136742D01*
X147047844Y-172125256D01*
X147069063Y-171999133D01*
X147069063Y-171999129D01*
X147069697Y-171995363D01*
X147069769Y-171989515D01*
X147069801Y-171986835D01*
X147069848Y-171983009D01*
X147068963Y-171976832D01*
X148069348Y-171976832D01*
X148070263Y-171983829D01*
X148070263Y-171983830D01*
X148078410Y-172046130D01*
X148087937Y-172118988D01*
X148090778Y-172125444D01*
X148090778Y-172125445D01*
X148130738Y-172216260D01*
X148145677Y-172250212D01*
X148163144Y-172270991D01*
X148233388Y-172354558D01*
X148233391Y-172354560D01*
X148237927Y-172359957D01*
X148243798Y-172363865D01*
X148243799Y-172363866D01*
X148256100Y-172372054D01*
X148357270Y-172439399D01*
X148455620Y-172470125D01*
X148487382Y-172480048D01*
X148487383Y-172480048D01*
X148494114Y-172482151D01*
X148565785Y-172483465D01*
X148630402Y-172484650D01*
X148630404Y-172484650D01*
X148637456Y-172484779D01*
X148644259Y-172482924D01*
X148644261Y-172482924D01*
X148749889Y-172454126D01*
X148775774Y-172447069D01*
X148897948Y-172372054D01*
X148905360Y-172363866D01*
X148989425Y-172270991D01*
X148994157Y-172265763D01*
X149056667Y-172136742D01*
X149058600Y-172125256D01*
X149079819Y-171999133D01*
X149079819Y-171999129D01*
X149080453Y-171995363D01*
X149080525Y-171989515D01*
X149080557Y-171986835D01*
X149080604Y-171983009D01*
X149079719Y-171976832D01*
X150069348Y-171976832D01*
X150070263Y-171983829D01*
X150070263Y-171983830D01*
X150078410Y-172046130D01*
X150087937Y-172118988D01*
X150090778Y-172125444D01*
X150090778Y-172125445D01*
X150130738Y-172216260D01*
X150145677Y-172250212D01*
X150163144Y-172270991D01*
X150233388Y-172354558D01*
X150233391Y-172354560D01*
X150237927Y-172359957D01*
X150243798Y-172363865D01*
X150243799Y-172363866D01*
X150256100Y-172372054D01*
X150357270Y-172439399D01*
X150455620Y-172470125D01*
X150487382Y-172480048D01*
X150487383Y-172480048D01*
X150494114Y-172482151D01*
X150565785Y-172483465D01*
X150630402Y-172484650D01*
X150630404Y-172484650D01*
X150637456Y-172484779D01*
X150644259Y-172482924D01*
X150644261Y-172482924D01*
X150749889Y-172454126D01*
X150775774Y-172447069D01*
X150897948Y-172372054D01*
X150905360Y-172363866D01*
X150989425Y-172270991D01*
X150994157Y-172265763D01*
X151056667Y-172136742D01*
X151058600Y-172125256D01*
X151079819Y-171999133D01*
X151079819Y-171999129D01*
X151080453Y-171995363D01*
X151080525Y-171989515D01*
X151080557Y-171986835D01*
X151080604Y-171983009D01*
X151079719Y-171976832D01*
X152080103Y-171976832D01*
X152081018Y-171983829D01*
X152081018Y-171983830D01*
X152089165Y-172046130D01*
X152098692Y-172118988D01*
X152101533Y-172125444D01*
X152101533Y-172125445D01*
X152141493Y-172216260D01*
X152156432Y-172250212D01*
X152173899Y-172270991D01*
X152244143Y-172354558D01*
X152244146Y-172354560D01*
X152248682Y-172359957D01*
X152254553Y-172363865D01*
X152254554Y-172363866D01*
X152266855Y-172372054D01*
X152368025Y-172439399D01*
X152466375Y-172470125D01*
X152498137Y-172480048D01*
X152498138Y-172480048D01*
X152504869Y-172482151D01*
X152576540Y-172483465D01*
X152641157Y-172484650D01*
X152641159Y-172484650D01*
X152648211Y-172484779D01*
X152655014Y-172482924D01*
X152655016Y-172482924D01*
X152760644Y-172454126D01*
X152786529Y-172447069D01*
X152908703Y-172372054D01*
X152916115Y-172363866D01*
X153000180Y-172270991D01*
X153004912Y-172265763D01*
X153067422Y-172136742D01*
X153069355Y-172125256D01*
X153090574Y-171999133D01*
X153090574Y-171999129D01*
X153091208Y-171995363D01*
X153091280Y-171989515D01*
X153091312Y-171986835D01*
X153091359Y-171983009D01*
X153090474Y-171976832D01*
X154080103Y-171976832D01*
X154081018Y-171983829D01*
X154081018Y-171983830D01*
X154089165Y-172046130D01*
X154098692Y-172118988D01*
X154101533Y-172125444D01*
X154101533Y-172125445D01*
X154141493Y-172216260D01*
X154156432Y-172250212D01*
X154173899Y-172270991D01*
X154244143Y-172354558D01*
X154244146Y-172354560D01*
X154248682Y-172359957D01*
X154254553Y-172363865D01*
X154254554Y-172363866D01*
X154266855Y-172372054D01*
X154368025Y-172439399D01*
X154466375Y-172470125D01*
X154498137Y-172480048D01*
X154498138Y-172480048D01*
X154504869Y-172482151D01*
X154576540Y-172483465D01*
X154641157Y-172484650D01*
X154641159Y-172484650D01*
X154648211Y-172484779D01*
X154655014Y-172482924D01*
X154655016Y-172482924D01*
X154760644Y-172454126D01*
X154786529Y-172447069D01*
X154908703Y-172372054D01*
X154916115Y-172363866D01*
X155000180Y-172270991D01*
X155004912Y-172265763D01*
X155067422Y-172136742D01*
X155069355Y-172125256D01*
X155090574Y-171999133D01*
X155090574Y-171999129D01*
X155091208Y-171995363D01*
X155091280Y-171989515D01*
X155091312Y-171986835D01*
X155091359Y-171983009D01*
X155090474Y-171976832D01*
X156090859Y-171976832D01*
X156091774Y-171983829D01*
X156091774Y-171983830D01*
X156099921Y-172046130D01*
X156109448Y-172118988D01*
X156112289Y-172125444D01*
X156112289Y-172125445D01*
X156152249Y-172216260D01*
X156167188Y-172250212D01*
X156184655Y-172270991D01*
X156254899Y-172354558D01*
X156254902Y-172354560D01*
X156259438Y-172359957D01*
X156265309Y-172363865D01*
X156265310Y-172363866D01*
X156277611Y-172372054D01*
X156378781Y-172439399D01*
X156477131Y-172470125D01*
X156508893Y-172480048D01*
X156508894Y-172480048D01*
X156515625Y-172482151D01*
X156587296Y-172483465D01*
X156651913Y-172484650D01*
X156651915Y-172484650D01*
X156658967Y-172484779D01*
X156665770Y-172482924D01*
X156665772Y-172482924D01*
X156771400Y-172454126D01*
X156797285Y-172447069D01*
X156919459Y-172372054D01*
X156926871Y-172363866D01*
X157010936Y-172270991D01*
X157015668Y-172265763D01*
X157078178Y-172136742D01*
X157080111Y-172125256D01*
X157101330Y-171999133D01*
X157101330Y-171999129D01*
X157101964Y-171995363D01*
X157102036Y-171989515D01*
X157102068Y-171986835D01*
X157102115Y-171983009D01*
X157101230Y-171976832D01*
X158090859Y-171976832D01*
X158091774Y-171983829D01*
X158091774Y-171983830D01*
X158099921Y-172046130D01*
X158109448Y-172118988D01*
X158112289Y-172125444D01*
X158112289Y-172125445D01*
X158152249Y-172216260D01*
X158167188Y-172250212D01*
X158184655Y-172270991D01*
X158254899Y-172354558D01*
X158254902Y-172354560D01*
X158259438Y-172359957D01*
X158265309Y-172363865D01*
X158265310Y-172363866D01*
X158277611Y-172372054D01*
X158378781Y-172439399D01*
X158477131Y-172470125D01*
X158508893Y-172480048D01*
X158508894Y-172480048D01*
X158515625Y-172482151D01*
X158587296Y-172483465D01*
X158651913Y-172484650D01*
X158651915Y-172484650D01*
X158658967Y-172484779D01*
X158665770Y-172482924D01*
X158665772Y-172482924D01*
X158771400Y-172454126D01*
X158797285Y-172447069D01*
X158919459Y-172372054D01*
X158926871Y-172363866D01*
X159010936Y-172270991D01*
X159015668Y-172265763D01*
X159078178Y-172136742D01*
X159080111Y-172125256D01*
X159101330Y-171999133D01*
X159101330Y-171999129D01*
X159101964Y-171995363D01*
X159102036Y-171989515D01*
X159102068Y-171986835D01*
X159102115Y-171983009D01*
X159101230Y-171976832D01*
X160101614Y-171976832D01*
X160102529Y-171983829D01*
X160102529Y-171983830D01*
X160110676Y-172046130D01*
X160120203Y-172118988D01*
X160123044Y-172125444D01*
X160123044Y-172125445D01*
X160163004Y-172216260D01*
X160177943Y-172250212D01*
X160195410Y-172270991D01*
X160265654Y-172354558D01*
X160265657Y-172354560D01*
X160270193Y-172359957D01*
X160276064Y-172363865D01*
X160276065Y-172363866D01*
X160288366Y-172372054D01*
X160389536Y-172439399D01*
X160487886Y-172470125D01*
X160519648Y-172480048D01*
X160519649Y-172480048D01*
X160526380Y-172482151D01*
X160598051Y-172483465D01*
X160662668Y-172484650D01*
X160662670Y-172484650D01*
X160669722Y-172484779D01*
X160676525Y-172482924D01*
X160676527Y-172482924D01*
X160782155Y-172454126D01*
X160808040Y-172447069D01*
X160930214Y-172372054D01*
X160937626Y-172363866D01*
X161021691Y-172270991D01*
X161026423Y-172265763D01*
X161088933Y-172136742D01*
X161090866Y-172125256D01*
X161112085Y-171999133D01*
X161112085Y-171999129D01*
X161112719Y-171995363D01*
X161112791Y-171989515D01*
X161112823Y-171986835D01*
X161112870Y-171983009D01*
X161111985Y-171976832D01*
X162101614Y-171976832D01*
X162102529Y-171983829D01*
X162102529Y-171983830D01*
X162110676Y-172046130D01*
X162120203Y-172118988D01*
X162123044Y-172125444D01*
X162123044Y-172125445D01*
X162163004Y-172216260D01*
X162177943Y-172250212D01*
X162195410Y-172270991D01*
X162265654Y-172354558D01*
X162265657Y-172354560D01*
X162270193Y-172359957D01*
X162276064Y-172363865D01*
X162276065Y-172363866D01*
X162288366Y-172372054D01*
X162389536Y-172439399D01*
X162487886Y-172470125D01*
X162519648Y-172480048D01*
X162519649Y-172480048D01*
X162526380Y-172482151D01*
X162598051Y-172483465D01*
X162662668Y-172484650D01*
X162662670Y-172484650D01*
X162669722Y-172484779D01*
X162676525Y-172482924D01*
X162676527Y-172482924D01*
X162782155Y-172454126D01*
X162808040Y-172447069D01*
X162930214Y-172372054D01*
X162937626Y-172363866D01*
X163021691Y-172270991D01*
X163026423Y-172265763D01*
X163088933Y-172136742D01*
X163090866Y-172125256D01*
X163112085Y-171999133D01*
X163112085Y-171999129D01*
X163112719Y-171995363D01*
X163112791Y-171989515D01*
X163112823Y-171986835D01*
X163112870Y-171983009D01*
X163111985Y-171976832D01*
X164112370Y-171976832D01*
X164113285Y-171983829D01*
X164113285Y-171983830D01*
X164121432Y-172046130D01*
X164130959Y-172118988D01*
X164133800Y-172125444D01*
X164133800Y-172125445D01*
X164173760Y-172216260D01*
X164188699Y-172250212D01*
X164206166Y-172270991D01*
X164276410Y-172354558D01*
X164276413Y-172354560D01*
X164280949Y-172359957D01*
X164286820Y-172363865D01*
X164286821Y-172363866D01*
X164299122Y-172372054D01*
X164400292Y-172439399D01*
X164498642Y-172470125D01*
X164530404Y-172480048D01*
X164530405Y-172480048D01*
X164537136Y-172482151D01*
X164608807Y-172483465D01*
X164673424Y-172484650D01*
X164673426Y-172484650D01*
X164680478Y-172484779D01*
X164687281Y-172482924D01*
X164687283Y-172482924D01*
X164792911Y-172454126D01*
X164818796Y-172447069D01*
X164940970Y-172372054D01*
X164948382Y-172363866D01*
X165032447Y-172270991D01*
X165037179Y-172265763D01*
X165099689Y-172136742D01*
X165101622Y-172125256D01*
X165122841Y-171999133D01*
X165122841Y-171999129D01*
X165123475Y-171995363D01*
X165123547Y-171989515D01*
X165123579Y-171986835D01*
X165123626Y-171983009D01*
X165122741Y-171976832D01*
X166112370Y-171976832D01*
X166113285Y-171983829D01*
X166113285Y-171983830D01*
X166121432Y-172046130D01*
X166130959Y-172118988D01*
X166133800Y-172125444D01*
X166133800Y-172125445D01*
X166173760Y-172216260D01*
X166188699Y-172250212D01*
X166206166Y-172270991D01*
X166276410Y-172354558D01*
X166276413Y-172354560D01*
X166280949Y-172359957D01*
X166286820Y-172363865D01*
X166286821Y-172363866D01*
X166299122Y-172372054D01*
X166400292Y-172439399D01*
X166498642Y-172470125D01*
X166530404Y-172480048D01*
X166530405Y-172480048D01*
X166537136Y-172482151D01*
X166608807Y-172483465D01*
X166673424Y-172484650D01*
X166673426Y-172484650D01*
X166680478Y-172484779D01*
X166687281Y-172482924D01*
X166687283Y-172482924D01*
X166792911Y-172454126D01*
X166818796Y-172447069D01*
X166940970Y-172372054D01*
X166948382Y-172363866D01*
X167032447Y-172270991D01*
X167037179Y-172265763D01*
X167099689Y-172136742D01*
X167101622Y-172125256D01*
X167122841Y-171999133D01*
X167122841Y-171999129D01*
X167123475Y-171995363D01*
X167123547Y-171989515D01*
X167123579Y-171986835D01*
X167123626Y-171983009D01*
X167122741Y-171976832D01*
X168123126Y-171976832D01*
X168124041Y-171983829D01*
X168124041Y-171983830D01*
X168132188Y-172046130D01*
X168141715Y-172118988D01*
X168144556Y-172125444D01*
X168144556Y-172125445D01*
X168184516Y-172216260D01*
X168199455Y-172250212D01*
X168216922Y-172270991D01*
X168287166Y-172354558D01*
X168287169Y-172354560D01*
X168291705Y-172359957D01*
X168297576Y-172363865D01*
X168297577Y-172363866D01*
X168309878Y-172372054D01*
X168411048Y-172439399D01*
X168509398Y-172470125D01*
X168541160Y-172480048D01*
X168541161Y-172480048D01*
X168547892Y-172482151D01*
X168619563Y-172483465D01*
X168684180Y-172484650D01*
X168684182Y-172484650D01*
X168691234Y-172484779D01*
X168698037Y-172482924D01*
X168698039Y-172482924D01*
X168803667Y-172454126D01*
X168829552Y-172447069D01*
X168951726Y-172372054D01*
X168959138Y-172363866D01*
X169043203Y-172270991D01*
X169047935Y-172265763D01*
X169110445Y-172136742D01*
X169112378Y-172125256D01*
X169131522Y-172011466D01*
X169920283Y-172011466D01*
X169921198Y-172018463D01*
X169921198Y-172018464D01*
X169926334Y-172057738D01*
X169938872Y-172153622D01*
X169941713Y-172160078D01*
X169941713Y-172160079D01*
X169990516Y-172270991D01*
X169996612Y-172284846D01*
X170036480Y-172332275D01*
X170084323Y-172389192D01*
X170084326Y-172389194D01*
X170088862Y-172394591D01*
X170094733Y-172398499D01*
X170094734Y-172398500D01*
X170112581Y-172410380D01*
X170208205Y-172474033D01*
X170300867Y-172502982D01*
X170338317Y-172514682D01*
X170338318Y-172514682D01*
X170345049Y-172516785D01*
X170416720Y-172518099D01*
X170481337Y-172519284D01*
X170481339Y-172519284D01*
X170488391Y-172519413D01*
X170495194Y-172517558D01*
X170495196Y-172517558D01*
X170606990Y-172487079D01*
X170626709Y-172481703D01*
X170748883Y-172406688D01*
X170756295Y-172398500D01*
X170840360Y-172305625D01*
X170845092Y-172300397D01*
X170907602Y-172171376D01*
X170911610Y-172147557D01*
X170915362Y-172125256D01*
X171698753Y-172125256D01*
X171699668Y-172132253D01*
X171699668Y-172132254D01*
X171710489Y-172215007D01*
X171717342Y-172267412D01*
X171720183Y-172273868D01*
X171720183Y-172273869D01*
X171770927Y-172389192D01*
X171775082Y-172398636D01*
X171820548Y-172452724D01*
X171862793Y-172502982D01*
X171862796Y-172502984D01*
X171867332Y-172508381D01*
X171873203Y-172512289D01*
X171873204Y-172512290D01*
X171879957Y-172516785D01*
X171986675Y-172587823D01*
X172087282Y-172619254D01*
X172116787Y-172628472D01*
X172116788Y-172628472D01*
X172123519Y-172630575D01*
X172195190Y-172631889D01*
X172259807Y-172633074D01*
X172259809Y-172633074D01*
X172266861Y-172633203D01*
X172273664Y-172631348D01*
X172273666Y-172631348D01*
X172357844Y-172608398D01*
X172405179Y-172595493D01*
X172527353Y-172520478D01*
X172534765Y-172512290D01*
X172618830Y-172419415D01*
X172623562Y-172414187D01*
X172670375Y-172317565D01*
X173465951Y-172317565D01*
X173466866Y-172324562D01*
X173466866Y-172324563D01*
X173472392Y-172366823D01*
X173484540Y-172459721D01*
X173487381Y-172466177D01*
X173487381Y-172466178D01*
X173539187Y-172583915D01*
X173542280Y-172590945D01*
X173588405Y-172645817D01*
X173629991Y-172695291D01*
X173629994Y-172695293D01*
X173634530Y-172700690D01*
X173640401Y-172704598D01*
X173640402Y-172704599D01*
X173652703Y-172712787D01*
X173753873Y-172780132D01*
X173849330Y-172809954D01*
X173883985Y-172820781D01*
X173883986Y-172820781D01*
X173890717Y-172822884D01*
X173962388Y-172824198D01*
X174027005Y-172825383D01*
X174027007Y-172825383D01*
X174034059Y-172825512D01*
X174040862Y-172823657D01*
X174040864Y-172823657D01*
X174161879Y-172790664D01*
X174172377Y-172787802D01*
X174294551Y-172712787D01*
X174301963Y-172704599D01*
X174386028Y-172611724D01*
X174390760Y-172606496D01*
X174393971Y-172599870D01*
X174398817Y-172589867D01*
X175232275Y-172589867D01*
X175233190Y-172596864D01*
X175233190Y-172596865D01*
X175234449Y-172606496D01*
X175250864Y-172732023D01*
X175253705Y-172738479D01*
X175253705Y-172738480D01*
X175290901Y-172823013D01*
X175308604Y-172863247D01*
X175321676Y-172878798D01*
X175396315Y-172967593D01*
X175396318Y-172967595D01*
X175400854Y-172972992D01*
X175406725Y-172976900D01*
X175406726Y-172976901D01*
X175437877Y-172997637D01*
X175520197Y-173052434D01*
X175611208Y-173080867D01*
X175650309Y-173093083D01*
X175650310Y-173093083D01*
X175657041Y-173095186D01*
X175728712Y-173096500D01*
X175793329Y-173097685D01*
X175793331Y-173097685D01*
X175800383Y-173097814D01*
X175807186Y-173095959D01*
X175807188Y-173095959D01*
X175888208Y-173073870D01*
X175938701Y-173060104D01*
X176060875Y-172985089D01*
X176068287Y-172976901D01*
X176102854Y-172938711D01*
X176975341Y-172938711D01*
X176976256Y-172945708D01*
X176976256Y-172945709D01*
X176991215Y-173060104D01*
X176993930Y-173080867D01*
X176996771Y-173087323D01*
X176996771Y-173087324D01*
X177004536Y-173104970D01*
X177051670Y-173212091D01*
X177069137Y-173232870D01*
X177139381Y-173316437D01*
X177139384Y-173316439D01*
X177143920Y-173321836D01*
X177149791Y-173325744D01*
X177149792Y-173325745D01*
X177162093Y-173333933D01*
X177263263Y-173401278D01*
X177363870Y-173432709D01*
X177393375Y-173441927D01*
X177393376Y-173441927D01*
X177400107Y-173444030D01*
X177471778Y-173445344D01*
X177536395Y-173446529D01*
X177536397Y-173446529D01*
X177543449Y-173446658D01*
X177550252Y-173444803D01*
X177550254Y-173444803D01*
X177648084Y-173418131D01*
X177681767Y-173408948D01*
X177749837Y-173367153D01*
X178710416Y-173367153D01*
X178711331Y-173374150D01*
X178711331Y-173374151D01*
X178712839Y-173385684D01*
X178729005Y-173509309D01*
X178731846Y-173515765D01*
X178731846Y-173515766D01*
X178739611Y-173533412D01*
X178786745Y-173640533D01*
X178799817Y-173656084D01*
X178874456Y-173744879D01*
X178874459Y-173744881D01*
X178878995Y-173750278D01*
X178884866Y-173754186D01*
X178884867Y-173754187D01*
X178897168Y-173762375D01*
X178998338Y-173829720D01*
X179098945Y-173861151D01*
X179128450Y-173870369D01*
X179128451Y-173870369D01*
X179135182Y-173872472D01*
X179206853Y-173873786D01*
X179271470Y-173874971D01*
X179271472Y-173874971D01*
X179278524Y-173875100D01*
X179285327Y-173873245D01*
X179285329Y-173873245D01*
X179298101Y-173869763D01*
X180415513Y-173869763D01*
X180416428Y-173876760D01*
X180416428Y-173876761D01*
X180426815Y-173956194D01*
X180434102Y-174011919D01*
X180436943Y-174018375D01*
X180436943Y-174018376D01*
X180460647Y-174072246D01*
X180491842Y-174143143D01*
X180527775Y-174185891D01*
X180579553Y-174247489D01*
X180579556Y-174247491D01*
X180584092Y-174252888D01*
X180589963Y-174256796D01*
X180589964Y-174256797D01*
X180602265Y-174264985D01*
X180703435Y-174332330D01*
X180804042Y-174363761D01*
X180833547Y-174372979D01*
X180833548Y-174372979D01*
X180840279Y-174375082D01*
X180911950Y-174376396D01*
X180976567Y-174377581D01*
X180976569Y-174377581D01*
X180983621Y-174377710D01*
X180990424Y-174375855D01*
X180990426Y-174375855D01*
X181065625Y-174355353D01*
X181121939Y-174340000D01*
X181244113Y-174264985D01*
X181251525Y-174256797D01*
X181335590Y-174163922D01*
X181340322Y-174158694D01*
X181402832Y-174029673D01*
X181406997Y-174004922D01*
X181425984Y-173892064D01*
X181425984Y-173892060D01*
X181426618Y-173888294D01*
X181426769Y-173875940D01*
X181406445Y-173734022D01*
X181347106Y-173603512D01*
X181253522Y-173494903D01*
X181133217Y-173416925D01*
X180995861Y-173375847D01*
X180912619Y-173375338D01*
X180859549Y-173375014D01*
X180859548Y-173375014D01*
X180852498Y-173374971D01*
X180845721Y-173376908D01*
X180845720Y-173376908D01*
X180721431Y-173412430D01*
X180721429Y-173412431D01*
X180714651Y-173414368D01*
X180593402Y-173490870D01*
X180588735Y-173496154D01*
X180588733Y-173496156D01*
X180503166Y-173593043D01*
X180503164Y-173593045D01*
X180498499Y-173598328D01*
X180437569Y-173728103D01*
X180436484Y-173735072D01*
X180436483Y-173735075D01*
X180433047Y-173757144D01*
X180415513Y-173869763D01*
X179298101Y-173869763D01*
X179360528Y-173852743D01*
X179416842Y-173837390D01*
X179539016Y-173762375D01*
X179546428Y-173754187D01*
X179630493Y-173661312D01*
X179635225Y-173656084D01*
X179697735Y-173527063D01*
X179701900Y-173502312D01*
X179720887Y-173389454D01*
X179720887Y-173389450D01*
X179721521Y-173385684D01*
X179721672Y-173373330D01*
X179701348Y-173231412D01*
X179642009Y-173100902D01*
X179548425Y-172992293D01*
X179428120Y-172914315D01*
X179290764Y-172873237D01*
X179207522Y-172872728D01*
X179154452Y-172872404D01*
X179154451Y-172872404D01*
X179147401Y-172872361D01*
X179140624Y-172874298D01*
X179140623Y-172874298D01*
X179016334Y-172909820D01*
X179016332Y-172909821D01*
X179009554Y-172911758D01*
X178888305Y-172988260D01*
X178883638Y-172993544D01*
X178883636Y-172993546D01*
X178798069Y-173090433D01*
X178798067Y-173090435D01*
X178793402Y-173095718D01*
X178732472Y-173225493D01*
X178710416Y-173367153D01*
X177749837Y-173367153D01*
X177803941Y-173333933D01*
X177811353Y-173325745D01*
X177895418Y-173232870D01*
X177900150Y-173227642D01*
X177941299Y-173142711D01*
X177959584Y-173104970D01*
X177962660Y-173098621D01*
X177966825Y-173073870D01*
X177985812Y-172961012D01*
X177985812Y-172961008D01*
X177986446Y-172957242D01*
X177986597Y-172944888D01*
X177966273Y-172802970D01*
X177926948Y-172716479D01*
X177909855Y-172678884D01*
X177909854Y-172678883D01*
X177906934Y-172672460D01*
X177831133Y-172584489D01*
X177817955Y-172569195D01*
X177817954Y-172569194D01*
X177813350Y-172563851D01*
X177693045Y-172485873D01*
X177555689Y-172444795D01*
X177472447Y-172444286D01*
X177419377Y-172443962D01*
X177419376Y-172443962D01*
X177412326Y-172443919D01*
X177405549Y-172445856D01*
X177405548Y-172445856D01*
X177281259Y-172481378D01*
X177281257Y-172481379D01*
X177274479Y-172483316D01*
X177153230Y-172559818D01*
X177148563Y-172565102D01*
X177148561Y-172565104D01*
X177062994Y-172661991D01*
X177062992Y-172661993D01*
X177058327Y-172667276D01*
X176997397Y-172797051D01*
X176996312Y-172804020D01*
X176996311Y-172804023D01*
X176987090Y-172863247D01*
X176975341Y-172938711D01*
X176102854Y-172938711D01*
X176152352Y-172884026D01*
X176157084Y-172878798D01*
X176219594Y-172749777D01*
X176223759Y-172725026D01*
X176242746Y-172612168D01*
X176242746Y-172612164D01*
X176243380Y-172608398D01*
X176243531Y-172596044D01*
X176223207Y-172454126D01*
X176183513Y-172366823D01*
X176166789Y-172330040D01*
X176166788Y-172330039D01*
X176163868Y-172323616D01*
X176070284Y-172215007D01*
X175949979Y-172137029D01*
X175812623Y-172095951D01*
X175729381Y-172095442D01*
X175676311Y-172095118D01*
X175676310Y-172095118D01*
X175669260Y-172095075D01*
X175662483Y-172097012D01*
X175662482Y-172097012D01*
X175538193Y-172132534D01*
X175538191Y-172132535D01*
X175531413Y-172134472D01*
X175410164Y-172210974D01*
X175405497Y-172216258D01*
X175405495Y-172216260D01*
X175319928Y-172313147D01*
X175319926Y-172313149D01*
X175315261Y-172318432D01*
X175312265Y-172324814D01*
X175312264Y-172324815D01*
X175309811Y-172330040D01*
X175254331Y-172448207D01*
X175253246Y-172455176D01*
X175253245Y-172455179D01*
X175242504Y-172524170D01*
X175232275Y-172589867D01*
X174398817Y-172589867D01*
X174450194Y-172483824D01*
X174453270Y-172477475D01*
X174456024Y-172461110D01*
X174476422Y-172339866D01*
X174476422Y-172339862D01*
X174477056Y-172336096D01*
X174477207Y-172323742D01*
X174456883Y-172181824D01*
X174425132Y-172111991D01*
X174400465Y-172057738D01*
X174400464Y-172057737D01*
X174397544Y-172051314D01*
X174303960Y-171942705D01*
X174183655Y-171864727D01*
X174046299Y-171823649D01*
X173963057Y-171823140D01*
X173909987Y-171822816D01*
X173909986Y-171822816D01*
X173902936Y-171822773D01*
X173896159Y-171824710D01*
X173896158Y-171824710D01*
X173771869Y-171860232D01*
X173771867Y-171860233D01*
X173765089Y-171862170D01*
X173643840Y-171938672D01*
X173639173Y-171943956D01*
X173639171Y-171943958D01*
X173553604Y-172040845D01*
X173553602Y-172040847D01*
X173548937Y-172046130D01*
X173488007Y-172175905D01*
X173486922Y-172182874D01*
X173486921Y-172182877D01*
X173482547Y-172210974D01*
X173465951Y-172317565D01*
X172670375Y-172317565D01*
X172686072Y-172285166D01*
X172689337Y-172265763D01*
X172709224Y-172147557D01*
X172709224Y-172147553D01*
X172709858Y-172143787D01*
X172710009Y-172131433D01*
X172689685Y-171989515D01*
X172630346Y-171859005D01*
X172536762Y-171750396D01*
X172416457Y-171672418D01*
X172279101Y-171631340D01*
X172195859Y-171630831D01*
X172142789Y-171630507D01*
X172142788Y-171630507D01*
X172135738Y-171630464D01*
X172128961Y-171632401D01*
X172128960Y-171632401D01*
X172004671Y-171667923D01*
X172004669Y-171667924D01*
X171997891Y-171669861D01*
X171876642Y-171746363D01*
X171871975Y-171751647D01*
X171871973Y-171751649D01*
X171786406Y-171848536D01*
X171786404Y-171848538D01*
X171781739Y-171853821D01*
X171778743Y-171860203D01*
X171778742Y-171860204D01*
X171768176Y-171882709D01*
X171720809Y-171983596D01*
X171719724Y-171990565D01*
X171719723Y-171990568D01*
X171710079Y-172052513D01*
X171698753Y-172125256D01*
X170915362Y-172125256D01*
X170930754Y-172033767D01*
X170930754Y-172033763D01*
X170931388Y-172029997D01*
X170931539Y-172017643D01*
X170911215Y-171875725D01*
X170887139Y-171822773D01*
X170854797Y-171751639D01*
X170854796Y-171751638D01*
X170851876Y-171745215D01*
X170787408Y-171670397D01*
X170762897Y-171641950D01*
X170762896Y-171641949D01*
X170758292Y-171636606D01*
X170637987Y-171558628D01*
X170500631Y-171517550D01*
X170417389Y-171517041D01*
X170364319Y-171516717D01*
X170364318Y-171516717D01*
X170357268Y-171516674D01*
X170350491Y-171518611D01*
X170350490Y-171518611D01*
X170226201Y-171554133D01*
X170226199Y-171554134D01*
X170219421Y-171556071D01*
X170098172Y-171632573D01*
X170093505Y-171637857D01*
X170093503Y-171637859D01*
X170007936Y-171734746D01*
X170007934Y-171734748D01*
X170003269Y-171740031D01*
X170000273Y-171746413D01*
X170000272Y-171746414D01*
X169980739Y-171788017D01*
X169942339Y-171869806D01*
X169941254Y-171876775D01*
X169941253Y-171876778D01*
X169931617Y-171938672D01*
X169920283Y-172011466D01*
X169131522Y-172011466D01*
X169133597Y-171999133D01*
X169133597Y-171999129D01*
X169134231Y-171995363D01*
X169134303Y-171989515D01*
X169134335Y-171986835D01*
X169134382Y-171983009D01*
X169114058Y-171841091D01*
X169092278Y-171793189D01*
X169057640Y-171717005D01*
X169057639Y-171717004D01*
X169054719Y-171710581D01*
X168990978Y-171636606D01*
X168965740Y-171607316D01*
X168965739Y-171607315D01*
X168961135Y-171601972D01*
X168840830Y-171523994D01*
X168703474Y-171482916D01*
X168620232Y-171482407D01*
X168567162Y-171482083D01*
X168567161Y-171482083D01*
X168560111Y-171482040D01*
X168553334Y-171483977D01*
X168553333Y-171483977D01*
X168429044Y-171519499D01*
X168429042Y-171519500D01*
X168422264Y-171521437D01*
X168301015Y-171597939D01*
X168296348Y-171603223D01*
X168296346Y-171603225D01*
X168210779Y-171700112D01*
X168210777Y-171700114D01*
X168206112Y-171705397D01*
X168203116Y-171711779D01*
X168203115Y-171711780D01*
X168189927Y-171739869D01*
X168145182Y-171835172D01*
X168144097Y-171842141D01*
X168144096Y-171842144D01*
X168129653Y-171934909D01*
X168123126Y-171976832D01*
X167122741Y-171976832D01*
X167103302Y-171841091D01*
X167081522Y-171793189D01*
X167046884Y-171717005D01*
X167046883Y-171717004D01*
X167043963Y-171710581D01*
X166980222Y-171636606D01*
X166954984Y-171607316D01*
X166954983Y-171607315D01*
X166950379Y-171601972D01*
X166830074Y-171523994D01*
X166692718Y-171482916D01*
X166609476Y-171482407D01*
X166556406Y-171482083D01*
X166556405Y-171482083D01*
X166549355Y-171482040D01*
X166542578Y-171483977D01*
X166542577Y-171483977D01*
X166418288Y-171519499D01*
X166418286Y-171519500D01*
X166411508Y-171521437D01*
X166290259Y-171597939D01*
X166285592Y-171603223D01*
X166285590Y-171603225D01*
X166200023Y-171700112D01*
X166200021Y-171700114D01*
X166195356Y-171705397D01*
X166192360Y-171711779D01*
X166192359Y-171711780D01*
X166179171Y-171739869D01*
X166134426Y-171835172D01*
X166133341Y-171842141D01*
X166133340Y-171842144D01*
X166118897Y-171934909D01*
X166112370Y-171976832D01*
X165122741Y-171976832D01*
X165103302Y-171841091D01*
X165081522Y-171793189D01*
X165046884Y-171717005D01*
X165046883Y-171717004D01*
X165043963Y-171710581D01*
X164980222Y-171636606D01*
X164954984Y-171607316D01*
X164954983Y-171607315D01*
X164950379Y-171601972D01*
X164830074Y-171523994D01*
X164692718Y-171482916D01*
X164609476Y-171482407D01*
X164556406Y-171482083D01*
X164556405Y-171482083D01*
X164549355Y-171482040D01*
X164542578Y-171483977D01*
X164542577Y-171483977D01*
X164418288Y-171519499D01*
X164418286Y-171519500D01*
X164411508Y-171521437D01*
X164290259Y-171597939D01*
X164285592Y-171603223D01*
X164285590Y-171603225D01*
X164200023Y-171700112D01*
X164200021Y-171700114D01*
X164195356Y-171705397D01*
X164192360Y-171711779D01*
X164192359Y-171711780D01*
X164179171Y-171739869D01*
X164134426Y-171835172D01*
X164133341Y-171842141D01*
X164133340Y-171842144D01*
X164118897Y-171934909D01*
X164112370Y-171976832D01*
X163111985Y-171976832D01*
X163092546Y-171841091D01*
X163070766Y-171793189D01*
X163036128Y-171717005D01*
X163036127Y-171717004D01*
X163033207Y-171710581D01*
X162969466Y-171636606D01*
X162944228Y-171607316D01*
X162944227Y-171607315D01*
X162939623Y-171601972D01*
X162819318Y-171523994D01*
X162681962Y-171482916D01*
X162598720Y-171482407D01*
X162545650Y-171482083D01*
X162545649Y-171482083D01*
X162538599Y-171482040D01*
X162531822Y-171483977D01*
X162531821Y-171483977D01*
X162407532Y-171519499D01*
X162407530Y-171519500D01*
X162400752Y-171521437D01*
X162279503Y-171597939D01*
X162274836Y-171603223D01*
X162274834Y-171603225D01*
X162189267Y-171700112D01*
X162189265Y-171700114D01*
X162184600Y-171705397D01*
X162181604Y-171711779D01*
X162181603Y-171711780D01*
X162168415Y-171739869D01*
X162123670Y-171835172D01*
X162122585Y-171842141D01*
X162122584Y-171842144D01*
X162108141Y-171934909D01*
X162101614Y-171976832D01*
X161111985Y-171976832D01*
X161092546Y-171841091D01*
X161070766Y-171793189D01*
X161036128Y-171717005D01*
X161036127Y-171717004D01*
X161033207Y-171710581D01*
X160969466Y-171636606D01*
X160944228Y-171607316D01*
X160944227Y-171607315D01*
X160939623Y-171601972D01*
X160819318Y-171523994D01*
X160681962Y-171482916D01*
X160598720Y-171482407D01*
X160545650Y-171482083D01*
X160545649Y-171482083D01*
X160538599Y-171482040D01*
X160531822Y-171483977D01*
X160531821Y-171483977D01*
X160407532Y-171519499D01*
X160407530Y-171519500D01*
X160400752Y-171521437D01*
X160279503Y-171597939D01*
X160274836Y-171603223D01*
X160274834Y-171603225D01*
X160189267Y-171700112D01*
X160189265Y-171700114D01*
X160184600Y-171705397D01*
X160181604Y-171711779D01*
X160181603Y-171711780D01*
X160168415Y-171739869D01*
X160123670Y-171835172D01*
X160122585Y-171842141D01*
X160122584Y-171842144D01*
X160108141Y-171934909D01*
X160101614Y-171976832D01*
X159101230Y-171976832D01*
X159081791Y-171841091D01*
X159060011Y-171793189D01*
X159025373Y-171717005D01*
X159025372Y-171717004D01*
X159022452Y-171710581D01*
X158958711Y-171636606D01*
X158933473Y-171607316D01*
X158933472Y-171607315D01*
X158928868Y-171601972D01*
X158808563Y-171523994D01*
X158671207Y-171482916D01*
X158587965Y-171482407D01*
X158534895Y-171482083D01*
X158534894Y-171482083D01*
X158527844Y-171482040D01*
X158521067Y-171483977D01*
X158521066Y-171483977D01*
X158396777Y-171519499D01*
X158396775Y-171519500D01*
X158389997Y-171521437D01*
X158268748Y-171597939D01*
X158264081Y-171603223D01*
X158264079Y-171603225D01*
X158178512Y-171700112D01*
X158178510Y-171700114D01*
X158173845Y-171705397D01*
X158170849Y-171711779D01*
X158170848Y-171711780D01*
X158157660Y-171739869D01*
X158112915Y-171835172D01*
X158111830Y-171842141D01*
X158111829Y-171842144D01*
X158097386Y-171934909D01*
X158090859Y-171976832D01*
X157101230Y-171976832D01*
X157081791Y-171841091D01*
X157060011Y-171793189D01*
X157025373Y-171717005D01*
X157025372Y-171717004D01*
X157022452Y-171710581D01*
X156958711Y-171636606D01*
X156933473Y-171607316D01*
X156933472Y-171607315D01*
X156928868Y-171601972D01*
X156808563Y-171523994D01*
X156671207Y-171482916D01*
X156587965Y-171482407D01*
X156534895Y-171482083D01*
X156534894Y-171482083D01*
X156527844Y-171482040D01*
X156521067Y-171483977D01*
X156521066Y-171483977D01*
X156396777Y-171519499D01*
X156396775Y-171519500D01*
X156389997Y-171521437D01*
X156268748Y-171597939D01*
X156264081Y-171603223D01*
X156264079Y-171603225D01*
X156178512Y-171700112D01*
X156178510Y-171700114D01*
X156173845Y-171705397D01*
X156170849Y-171711779D01*
X156170848Y-171711780D01*
X156157660Y-171739869D01*
X156112915Y-171835172D01*
X156111830Y-171842141D01*
X156111829Y-171842144D01*
X156097386Y-171934909D01*
X156090859Y-171976832D01*
X155090474Y-171976832D01*
X155071035Y-171841091D01*
X155049255Y-171793189D01*
X155014617Y-171717005D01*
X155014616Y-171717004D01*
X155011696Y-171710581D01*
X154947955Y-171636606D01*
X154922717Y-171607316D01*
X154922716Y-171607315D01*
X154918112Y-171601972D01*
X154797807Y-171523994D01*
X154660451Y-171482916D01*
X154577209Y-171482407D01*
X154524139Y-171482083D01*
X154524138Y-171482083D01*
X154517088Y-171482040D01*
X154510311Y-171483977D01*
X154510310Y-171483977D01*
X154386021Y-171519499D01*
X154386019Y-171519500D01*
X154379241Y-171521437D01*
X154257992Y-171597939D01*
X154253325Y-171603223D01*
X154253323Y-171603225D01*
X154167756Y-171700112D01*
X154167754Y-171700114D01*
X154163089Y-171705397D01*
X154160093Y-171711779D01*
X154160092Y-171711780D01*
X154146904Y-171739869D01*
X154102159Y-171835172D01*
X154101074Y-171842141D01*
X154101073Y-171842144D01*
X154086630Y-171934909D01*
X154080103Y-171976832D01*
X153090474Y-171976832D01*
X153071035Y-171841091D01*
X153049255Y-171793189D01*
X153014617Y-171717005D01*
X153014616Y-171717004D01*
X153011696Y-171710581D01*
X152947955Y-171636606D01*
X152922717Y-171607316D01*
X152922716Y-171607315D01*
X152918112Y-171601972D01*
X152797807Y-171523994D01*
X152660451Y-171482916D01*
X152577209Y-171482407D01*
X152524139Y-171482083D01*
X152524138Y-171482083D01*
X152517088Y-171482040D01*
X152510311Y-171483977D01*
X152510310Y-171483977D01*
X152386021Y-171519499D01*
X152386019Y-171519500D01*
X152379241Y-171521437D01*
X152257992Y-171597939D01*
X152253325Y-171603223D01*
X152253323Y-171603225D01*
X152167756Y-171700112D01*
X152167754Y-171700114D01*
X152163089Y-171705397D01*
X152160093Y-171711779D01*
X152160092Y-171711780D01*
X152146904Y-171739869D01*
X152102159Y-171835172D01*
X152101074Y-171842141D01*
X152101073Y-171842144D01*
X152086630Y-171934909D01*
X152080103Y-171976832D01*
X151079719Y-171976832D01*
X151060280Y-171841091D01*
X151038500Y-171793189D01*
X151003862Y-171717005D01*
X151003861Y-171717004D01*
X151000941Y-171710581D01*
X150937200Y-171636606D01*
X150911962Y-171607316D01*
X150911961Y-171607315D01*
X150907357Y-171601972D01*
X150787052Y-171523994D01*
X150649696Y-171482916D01*
X150566454Y-171482407D01*
X150513384Y-171482083D01*
X150513383Y-171482083D01*
X150506333Y-171482040D01*
X150499556Y-171483977D01*
X150499555Y-171483977D01*
X150375266Y-171519499D01*
X150375264Y-171519500D01*
X150368486Y-171521437D01*
X150247237Y-171597939D01*
X150242570Y-171603223D01*
X150242568Y-171603225D01*
X150157001Y-171700112D01*
X150156999Y-171700114D01*
X150152334Y-171705397D01*
X150149338Y-171711779D01*
X150149337Y-171711780D01*
X150136149Y-171739869D01*
X150091404Y-171835172D01*
X150090319Y-171842141D01*
X150090318Y-171842144D01*
X150075875Y-171934909D01*
X150069348Y-171976832D01*
X149079719Y-171976832D01*
X149060280Y-171841091D01*
X149038500Y-171793189D01*
X149003862Y-171717005D01*
X149003861Y-171717004D01*
X149000941Y-171710581D01*
X148937200Y-171636606D01*
X148911962Y-171607316D01*
X148911961Y-171607315D01*
X148907357Y-171601972D01*
X148787052Y-171523994D01*
X148649696Y-171482916D01*
X148566454Y-171482407D01*
X148513384Y-171482083D01*
X148513383Y-171482083D01*
X148506333Y-171482040D01*
X148499556Y-171483977D01*
X148499555Y-171483977D01*
X148375266Y-171519499D01*
X148375264Y-171519500D01*
X148368486Y-171521437D01*
X148247237Y-171597939D01*
X148242570Y-171603223D01*
X148242568Y-171603225D01*
X148157001Y-171700112D01*
X148156999Y-171700114D01*
X148152334Y-171705397D01*
X148149338Y-171711779D01*
X148149337Y-171711780D01*
X148136149Y-171739869D01*
X148091404Y-171835172D01*
X148090319Y-171842141D01*
X148090318Y-171842144D01*
X148075875Y-171934909D01*
X148069348Y-171976832D01*
X147068963Y-171976832D01*
X147049524Y-171841091D01*
X147027744Y-171793189D01*
X146993106Y-171717005D01*
X146993105Y-171717004D01*
X146990185Y-171710581D01*
X146926444Y-171636606D01*
X146901206Y-171607316D01*
X146901205Y-171607315D01*
X146896601Y-171601972D01*
X146776296Y-171523994D01*
X146638940Y-171482916D01*
X146555698Y-171482407D01*
X146502628Y-171482083D01*
X146502627Y-171482083D01*
X146495577Y-171482040D01*
X146488800Y-171483977D01*
X146488799Y-171483977D01*
X146364510Y-171519499D01*
X146364508Y-171519500D01*
X146357730Y-171521437D01*
X146236481Y-171597939D01*
X146231814Y-171603223D01*
X146231812Y-171603225D01*
X146146245Y-171700112D01*
X146146243Y-171700114D01*
X146141578Y-171705397D01*
X146138582Y-171711779D01*
X146138581Y-171711780D01*
X146125393Y-171739869D01*
X146080648Y-171835172D01*
X146079563Y-171842141D01*
X146079562Y-171842144D01*
X146065119Y-171934909D01*
X146058592Y-171976832D01*
X145068963Y-171976832D01*
X145049524Y-171841091D01*
X145027744Y-171793189D01*
X144993106Y-171717005D01*
X144993105Y-171717004D01*
X144990185Y-171710581D01*
X144926444Y-171636606D01*
X144901206Y-171607316D01*
X144901205Y-171607315D01*
X144896601Y-171601972D01*
X144776296Y-171523994D01*
X144638940Y-171482916D01*
X144555698Y-171482407D01*
X144502628Y-171482083D01*
X144502627Y-171482083D01*
X144495577Y-171482040D01*
X144488800Y-171483977D01*
X144488799Y-171483977D01*
X144364510Y-171519499D01*
X144364508Y-171519500D01*
X144357730Y-171521437D01*
X144236481Y-171597939D01*
X144231814Y-171603223D01*
X144231812Y-171603225D01*
X144146245Y-171700112D01*
X144146243Y-171700114D01*
X144141578Y-171705397D01*
X144138582Y-171711779D01*
X144138581Y-171711780D01*
X144125393Y-171739869D01*
X144080648Y-171835172D01*
X144079563Y-171842141D01*
X144079562Y-171842144D01*
X144065119Y-171934909D01*
X144058592Y-171976832D01*
X143060531Y-171976832D01*
X143041092Y-171841091D01*
X143019312Y-171793189D01*
X142984674Y-171717005D01*
X142984673Y-171717004D01*
X142981753Y-171710581D01*
X142918012Y-171636606D01*
X142892774Y-171607316D01*
X142892773Y-171607315D01*
X142888169Y-171601972D01*
X142767864Y-171523994D01*
X142630508Y-171482916D01*
X142547266Y-171482407D01*
X142494196Y-171482083D01*
X142494195Y-171482083D01*
X142487145Y-171482040D01*
X142480368Y-171483977D01*
X142480367Y-171483977D01*
X142356078Y-171519499D01*
X142356076Y-171519500D01*
X142349298Y-171521437D01*
X142228049Y-171597939D01*
X142223382Y-171603223D01*
X142223380Y-171603225D01*
X142137813Y-171700112D01*
X142137811Y-171700114D01*
X142133146Y-171705397D01*
X142130150Y-171711779D01*
X142130149Y-171711780D01*
X142116961Y-171739869D01*
X142072216Y-171835172D01*
X142071131Y-171842141D01*
X142071130Y-171842144D01*
X142056687Y-171934909D01*
X142050160Y-171976832D01*
X141500000Y-171976832D01*
X141500000Y-164696376D01*
X184521357Y-164696376D01*
X184522272Y-164703373D01*
X184522272Y-164703374D01*
X184523780Y-164714907D01*
X184539946Y-164838532D01*
X184542787Y-164844988D01*
X184542787Y-164844989D01*
X184550552Y-164862635D01*
X184597686Y-164969756D01*
X184631794Y-165010332D01*
X184685397Y-165074102D01*
X184685400Y-165074104D01*
X184689936Y-165079501D01*
X184695807Y-165083409D01*
X184695808Y-165083410D01*
X184700952Y-165086834D01*
X184809279Y-165158943D01*
X184905510Y-165189007D01*
X184939391Y-165199592D01*
X184939392Y-165199592D01*
X184946123Y-165201695D01*
X185017794Y-165203009D01*
X185082411Y-165204194D01*
X185082413Y-165204194D01*
X185089465Y-165204323D01*
X185096268Y-165202468D01*
X185096270Y-165202468D01*
X185171469Y-165181966D01*
X185227783Y-165166613D01*
X185349957Y-165091598D01*
X185357369Y-165083410D01*
X185441434Y-164990535D01*
X185446166Y-164985307D01*
X185508676Y-164856286D01*
X185512841Y-164831535D01*
X185531828Y-164718677D01*
X185531828Y-164718673D01*
X185532462Y-164714907D01*
X185532613Y-164702553D01*
X185512289Y-164560635D01*
X185475440Y-164479590D01*
X185455871Y-164436549D01*
X185455870Y-164436548D01*
X185452950Y-164430125D01*
X185359366Y-164321516D01*
X185239061Y-164243538D01*
X185101705Y-164202460D01*
X185018463Y-164201951D01*
X184965393Y-164201627D01*
X184965392Y-164201627D01*
X184958342Y-164201584D01*
X184951565Y-164203521D01*
X184951564Y-164203521D01*
X184827275Y-164239043D01*
X184827273Y-164239044D01*
X184820495Y-164240981D01*
X184699246Y-164317483D01*
X184694579Y-164322767D01*
X184694577Y-164322769D01*
X184609010Y-164419656D01*
X184609008Y-164419658D01*
X184604343Y-164424941D01*
X184543413Y-164554716D01*
X184521357Y-164696376D01*
X141500000Y-164696376D01*
X141500000Y-164017023D01*
X182393170Y-164017023D01*
X182394085Y-164024020D01*
X182394085Y-164024021D01*
X182395593Y-164035554D01*
X182411759Y-164159179D01*
X182414600Y-164165635D01*
X182414600Y-164165636D01*
X182450567Y-164247376D01*
X182469499Y-164290403D01*
X182500144Y-164326860D01*
X182557210Y-164394749D01*
X182557213Y-164394751D01*
X182561749Y-164400148D01*
X182567620Y-164404056D01*
X182567621Y-164404057D01*
X182579922Y-164412245D01*
X182681092Y-164479590D01*
X182781699Y-164511021D01*
X182811204Y-164520239D01*
X182811205Y-164520239D01*
X182817936Y-164522342D01*
X182889607Y-164523656D01*
X182954224Y-164524841D01*
X182954226Y-164524841D01*
X182961278Y-164524970D01*
X182968081Y-164523115D01*
X182968083Y-164523115D01*
X183043282Y-164502613D01*
X183099596Y-164487260D01*
X183221770Y-164412245D01*
X183229182Y-164404057D01*
X183313247Y-164311182D01*
X183317979Y-164305954D01*
X183380489Y-164176933D01*
X183384654Y-164152182D01*
X183403641Y-164039324D01*
X183403641Y-164039320D01*
X183404275Y-164035554D01*
X183404426Y-164023200D01*
X183384102Y-163881282D01*
X183324763Y-163750772D01*
X183231179Y-163642163D01*
X183110874Y-163564185D01*
X182973518Y-163523107D01*
X182890276Y-163522598D01*
X182837206Y-163522274D01*
X182837205Y-163522274D01*
X182830155Y-163522231D01*
X182823378Y-163524168D01*
X182823377Y-163524168D01*
X182699088Y-163559690D01*
X182699086Y-163559691D01*
X182692308Y-163561628D01*
X182571059Y-163638130D01*
X182566392Y-163643414D01*
X182566390Y-163643416D01*
X182480823Y-163740303D01*
X182480821Y-163740305D01*
X182476156Y-163745588D01*
X182415226Y-163875363D01*
X182414141Y-163882332D01*
X182414140Y-163882335D01*
X182405241Y-163939491D01*
X182393170Y-164017023D01*
X141500000Y-164017023D01*
X141500000Y-162583442D01*
X141518907Y-162525251D01*
X141568407Y-162489287D01*
X141600815Y-162484459D01*
X141601467Y-162484471D01*
X141611215Y-162484650D01*
X141611217Y-162484650D01*
X141618268Y-162484779D01*
X141625071Y-162482924D01*
X141625073Y-162482924D01*
X141721018Y-162456766D01*
X141756586Y-162447069D01*
X141878760Y-162372054D01*
X141886085Y-162363962D01*
X141970237Y-162270991D01*
X141974969Y-162265763D01*
X142037479Y-162136742D01*
X142041644Y-162111991D01*
X142060631Y-161999133D01*
X142060631Y-161999129D01*
X142061265Y-161995363D01*
X142061416Y-161983009D01*
X142060531Y-161976832D01*
X143058592Y-161976832D01*
X143059507Y-161983829D01*
X143059507Y-161983830D01*
X143071045Y-162072066D01*
X143077181Y-162118988D01*
X143080022Y-162125444D01*
X143080022Y-162125445D01*
X143129966Y-162238950D01*
X143134921Y-162250212D01*
X143172791Y-162295264D01*
X143222632Y-162354558D01*
X143222635Y-162354560D01*
X143227171Y-162359957D01*
X143233042Y-162363865D01*
X143233043Y-162363866D01*
X143250890Y-162375746D01*
X143346514Y-162439399D01*
X143447121Y-162470830D01*
X143476626Y-162480048D01*
X143476627Y-162480048D01*
X143483358Y-162482151D01*
X143555029Y-162483465D01*
X143619646Y-162484650D01*
X143619648Y-162484650D01*
X143626700Y-162484779D01*
X143633503Y-162482924D01*
X143633505Y-162482924D01*
X143729450Y-162456766D01*
X143765018Y-162447069D01*
X143887192Y-162372054D01*
X143894517Y-162363962D01*
X143978669Y-162270991D01*
X143983401Y-162265763D01*
X144045911Y-162136742D01*
X144050076Y-162111991D01*
X144069063Y-161999133D01*
X144069063Y-161999129D01*
X144069697Y-161995363D01*
X144069848Y-161983009D01*
X144068963Y-161976832D01*
X145058592Y-161976832D01*
X145059507Y-161983829D01*
X145059507Y-161983830D01*
X145071045Y-162072066D01*
X145077181Y-162118988D01*
X145080022Y-162125444D01*
X145080022Y-162125445D01*
X145129966Y-162238950D01*
X145134921Y-162250212D01*
X145172791Y-162295264D01*
X145222632Y-162354558D01*
X145222635Y-162354560D01*
X145227171Y-162359957D01*
X145233042Y-162363865D01*
X145233043Y-162363866D01*
X145250890Y-162375746D01*
X145346514Y-162439399D01*
X145447121Y-162470830D01*
X145476626Y-162480048D01*
X145476627Y-162480048D01*
X145483358Y-162482151D01*
X145555029Y-162483465D01*
X145619646Y-162484650D01*
X145619648Y-162484650D01*
X145626700Y-162484779D01*
X145633503Y-162482924D01*
X145633505Y-162482924D01*
X145729450Y-162456766D01*
X145765018Y-162447069D01*
X145887192Y-162372054D01*
X145894517Y-162363962D01*
X145978669Y-162270991D01*
X145983401Y-162265763D01*
X146045911Y-162136742D01*
X146050076Y-162111991D01*
X146069063Y-161999133D01*
X146069063Y-161999129D01*
X146069697Y-161995363D01*
X146069848Y-161983009D01*
X146068963Y-161976832D01*
X147069348Y-161976832D01*
X147070263Y-161983829D01*
X147070263Y-161983830D01*
X147081801Y-162072066D01*
X147087937Y-162118988D01*
X147090778Y-162125444D01*
X147090778Y-162125445D01*
X147140722Y-162238950D01*
X147145677Y-162250212D01*
X147183547Y-162295264D01*
X147233388Y-162354558D01*
X147233391Y-162354560D01*
X147237927Y-162359957D01*
X147243798Y-162363865D01*
X147243799Y-162363866D01*
X147261646Y-162375746D01*
X147357270Y-162439399D01*
X147457877Y-162470830D01*
X147487382Y-162480048D01*
X147487383Y-162480048D01*
X147494114Y-162482151D01*
X147565785Y-162483465D01*
X147630402Y-162484650D01*
X147630404Y-162484650D01*
X147637456Y-162484779D01*
X147644259Y-162482924D01*
X147644261Y-162482924D01*
X147740206Y-162456766D01*
X147775774Y-162447069D01*
X147897948Y-162372054D01*
X147905273Y-162363962D01*
X147989425Y-162270991D01*
X147994157Y-162265763D01*
X148056667Y-162136742D01*
X148060832Y-162111991D01*
X148079819Y-161999133D01*
X148079819Y-161999129D01*
X148080453Y-161995363D01*
X148080604Y-161983009D01*
X148079719Y-161976832D01*
X149069348Y-161976832D01*
X149070263Y-161983829D01*
X149070263Y-161983830D01*
X149081801Y-162072066D01*
X149087937Y-162118988D01*
X149090778Y-162125444D01*
X149090778Y-162125445D01*
X149140722Y-162238950D01*
X149145677Y-162250212D01*
X149183547Y-162295264D01*
X149233388Y-162354558D01*
X149233391Y-162354560D01*
X149237927Y-162359957D01*
X149243798Y-162363865D01*
X149243799Y-162363866D01*
X149261646Y-162375746D01*
X149357270Y-162439399D01*
X149457877Y-162470830D01*
X149487382Y-162480048D01*
X149487383Y-162480048D01*
X149494114Y-162482151D01*
X149565785Y-162483465D01*
X149630402Y-162484650D01*
X149630404Y-162484650D01*
X149637456Y-162484779D01*
X149644259Y-162482924D01*
X149644261Y-162482924D01*
X149740206Y-162456766D01*
X149775774Y-162447069D01*
X149897948Y-162372054D01*
X149905273Y-162363962D01*
X149989425Y-162270991D01*
X149994157Y-162265763D01*
X150056667Y-162136742D01*
X150060832Y-162111991D01*
X150079819Y-161999133D01*
X150079819Y-161999129D01*
X150080453Y-161995363D01*
X150080604Y-161983009D01*
X150079719Y-161976832D01*
X151080103Y-161976832D01*
X151081018Y-161983829D01*
X151081018Y-161983830D01*
X151092556Y-162072066D01*
X151098692Y-162118988D01*
X151101533Y-162125444D01*
X151101533Y-162125445D01*
X151151477Y-162238950D01*
X151156432Y-162250212D01*
X151194302Y-162295264D01*
X151244143Y-162354558D01*
X151244146Y-162354560D01*
X151248682Y-162359957D01*
X151254553Y-162363865D01*
X151254554Y-162363866D01*
X151272401Y-162375746D01*
X151368025Y-162439399D01*
X151468632Y-162470830D01*
X151498137Y-162480048D01*
X151498138Y-162480048D01*
X151504869Y-162482151D01*
X151576540Y-162483465D01*
X151641157Y-162484650D01*
X151641159Y-162484650D01*
X151648211Y-162484779D01*
X151655014Y-162482924D01*
X151655016Y-162482924D01*
X151750961Y-162456766D01*
X151786529Y-162447069D01*
X151908703Y-162372054D01*
X151916028Y-162363962D01*
X152000180Y-162270991D01*
X152004912Y-162265763D01*
X152067422Y-162136742D01*
X152071587Y-162111991D01*
X152090574Y-161999133D01*
X152090574Y-161999129D01*
X152091208Y-161995363D01*
X152091359Y-161983009D01*
X152090474Y-161976832D01*
X153080103Y-161976832D01*
X153081018Y-161983829D01*
X153081018Y-161983830D01*
X153092556Y-162072066D01*
X153098692Y-162118988D01*
X153101533Y-162125444D01*
X153101533Y-162125445D01*
X153151477Y-162238950D01*
X153156432Y-162250212D01*
X153194302Y-162295264D01*
X153244143Y-162354558D01*
X153244146Y-162354560D01*
X153248682Y-162359957D01*
X153254553Y-162363865D01*
X153254554Y-162363866D01*
X153272401Y-162375746D01*
X153368025Y-162439399D01*
X153468632Y-162470830D01*
X153498137Y-162480048D01*
X153498138Y-162480048D01*
X153504869Y-162482151D01*
X153576540Y-162483465D01*
X153641157Y-162484650D01*
X153641159Y-162484650D01*
X153648211Y-162484779D01*
X153655014Y-162482924D01*
X153655016Y-162482924D01*
X153750961Y-162456766D01*
X153786529Y-162447069D01*
X153908703Y-162372054D01*
X153916028Y-162363962D01*
X154000180Y-162270991D01*
X154004912Y-162265763D01*
X154067422Y-162136742D01*
X154071587Y-162111991D01*
X154090574Y-161999133D01*
X154090574Y-161999129D01*
X154091208Y-161995363D01*
X154091359Y-161983009D01*
X154090474Y-161976832D01*
X155090859Y-161976832D01*
X155091774Y-161983829D01*
X155091774Y-161983830D01*
X155103312Y-162072066D01*
X155109448Y-162118988D01*
X155112289Y-162125444D01*
X155112289Y-162125445D01*
X155162233Y-162238950D01*
X155167188Y-162250212D01*
X155205058Y-162295264D01*
X155254899Y-162354558D01*
X155254902Y-162354560D01*
X155259438Y-162359957D01*
X155265309Y-162363865D01*
X155265310Y-162363866D01*
X155283157Y-162375746D01*
X155378781Y-162439399D01*
X155479388Y-162470830D01*
X155508893Y-162480048D01*
X155508894Y-162480048D01*
X155515625Y-162482151D01*
X155587296Y-162483465D01*
X155651913Y-162484650D01*
X155651915Y-162484650D01*
X155658967Y-162484779D01*
X155665770Y-162482924D01*
X155665772Y-162482924D01*
X155761717Y-162456766D01*
X155797285Y-162447069D01*
X155919459Y-162372054D01*
X155926784Y-162363962D01*
X156010936Y-162270991D01*
X156015668Y-162265763D01*
X156078178Y-162136742D01*
X156082343Y-162111991D01*
X156101330Y-161999133D01*
X156101330Y-161999129D01*
X156101964Y-161995363D01*
X156102115Y-161983009D01*
X156101230Y-161976832D01*
X157090859Y-161976832D01*
X157091774Y-161983829D01*
X157091774Y-161983830D01*
X157103312Y-162072066D01*
X157109448Y-162118988D01*
X157112289Y-162125444D01*
X157112289Y-162125445D01*
X157162233Y-162238950D01*
X157167188Y-162250212D01*
X157205058Y-162295264D01*
X157254899Y-162354558D01*
X157254902Y-162354560D01*
X157259438Y-162359957D01*
X157265309Y-162363865D01*
X157265310Y-162363866D01*
X157283157Y-162375746D01*
X157378781Y-162439399D01*
X157479388Y-162470830D01*
X157508893Y-162480048D01*
X157508894Y-162480048D01*
X157515625Y-162482151D01*
X157587296Y-162483465D01*
X157651913Y-162484650D01*
X157651915Y-162484650D01*
X157658967Y-162484779D01*
X157665770Y-162482924D01*
X157665772Y-162482924D01*
X157761717Y-162456766D01*
X157797285Y-162447069D01*
X157919459Y-162372054D01*
X157926784Y-162363962D01*
X158010936Y-162270991D01*
X158015668Y-162265763D01*
X158078178Y-162136742D01*
X158082343Y-162111991D01*
X158101330Y-161999133D01*
X158101330Y-161999129D01*
X158101964Y-161995363D01*
X158102115Y-161983009D01*
X158101230Y-161976832D01*
X159101614Y-161976832D01*
X159102529Y-161983829D01*
X159102529Y-161983830D01*
X159114067Y-162072066D01*
X159120203Y-162118988D01*
X159123044Y-162125444D01*
X159123044Y-162125445D01*
X159172988Y-162238950D01*
X159177943Y-162250212D01*
X159215813Y-162295264D01*
X159265654Y-162354558D01*
X159265657Y-162354560D01*
X159270193Y-162359957D01*
X159276064Y-162363865D01*
X159276065Y-162363866D01*
X159293912Y-162375746D01*
X159389536Y-162439399D01*
X159490143Y-162470830D01*
X159519648Y-162480048D01*
X159519649Y-162480048D01*
X159526380Y-162482151D01*
X159598051Y-162483465D01*
X159662668Y-162484650D01*
X159662670Y-162484650D01*
X159669722Y-162484779D01*
X159676525Y-162482924D01*
X159676527Y-162482924D01*
X159772472Y-162456766D01*
X159808040Y-162447069D01*
X159930214Y-162372054D01*
X159937539Y-162363962D01*
X160021691Y-162270991D01*
X160026423Y-162265763D01*
X160088933Y-162136742D01*
X160093098Y-162111991D01*
X160112085Y-161999133D01*
X160112085Y-161999129D01*
X160112719Y-161995363D01*
X160112870Y-161983009D01*
X160111985Y-161976832D01*
X161101614Y-161976832D01*
X161102529Y-161983829D01*
X161102529Y-161983830D01*
X161114067Y-162072066D01*
X161120203Y-162118988D01*
X161123044Y-162125444D01*
X161123044Y-162125445D01*
X161172988Y-162238950D01*
X161177943Y-162250212D01*
X161215813Y-162295264D01*
X161265654Y-162354558D01*
X161265657Y-162354560D01*
X161270193Y-162359957D01*
X161276064Y-162363865D01*
X161276065Y-162363866D01*
X161293912Y-162375746D01*
X161389536Y-162439399D01*
X161490143Y-162470830D01*
X161519648Y-162480048D01*
X161519649Y-162480048D01*
X161526380Y-162482151D01*
X161598051Y-162483465D01*
X161662668Y-162484650D01*
X161662670Y-162484650D01*
X161669722Y-162484779D01*
X161676525Y-162482924D01*
X161676527Y-162482924D01*
X161772472Y-162456766D01*
X161808040Y-162447069D01*
X161930214Y-162372054D01*
X161937539Y-162363962D01*
X162021691Y-162270991D01*
X162026423Y-162265763D01*
X162088933Y-162136742D01*
X162093098Y-162111991D01*
X162112085Y-161999133D01*
X162112085Y-161999129D01*
X162112719Y-161995363D01*
X162112870Y-161983009D01*
X162111985Y-161976832D01*
X163112370Y-161976832D01*
X163113285Y-161983829D01*
X163113285Y-161983830D01*
X163124823Y-162072066D01*
X163130959Y-162118988D01*
X163133800Y-162125444D01*
X163133800Y-162125445D01*
X163183744Y-162238950D01*
X163188699Y-162250212D01*
X163226569Y-162295264D01*
X163276410Y-162354558D01*
X163276413Y-162354560D01*
X163280949Y-162359957D01*
X163286820Y-162363865D01*
X163286821Y-162363866D01*
X163304668Y-162375746D01*
X163400292Y-162439399D01*
X163500899Y-162470830D01*
X163530404Y-162480048D01*
X163530405Y-162480048D01*
X163537136Y-162482151D01*
X163608807Y-162483465D01*
X163673424Y-162484650D01*
X163673426Y-162484650D01*
X163680478Y-162484779D01*
X163687281Y-162482924D01*
X163687283Y-162482924D01*
X163783228Y-162456766D01*
X163818796Y-162447069D01*
X163940970Y-162372054D01*
X163948295Y-162363962D01*
X164032447Y-162270991D01*
X164037179Y-162265763D01*
X164099689Y-162136742D01*
X164103854Y-162111991D01*
X164122841Y-161999133D01*
X164122841Y-161999129D01*
X164123475Y-161995363D01*
X164123626Y-161983009D01*
X164122741Y-161976832D01*
X165112370Y-161976832D01*
X165113285Y-161983829D01*
X165113285Y-161983830D01*
X165124823Y-162072066D01*
X165130959Y-162118988D01*
X165133800Y-162125444D01*
X165133800Y-162125445D01*
X165183744Y-162238950D01*
X165188699Y-162250212D01*
X165226569Y-162295264D01*
X165276410Y-162354558D01*
X165276413Y-162354560D01*
X165280949Y-162359957D01*
X165286820Y-162363865D01*
X165286821Y-162363866D01*
X165304668Y-162375746D01*
X165400292Y-162439399D01*
X165500899Y-162470830D01*
X165530404Y-162480048D01*
X165530405Y-162480048D01*
X165537136Y-162482151D01*
X165608807Y-162483465D01*
X165673424Y-162484650D01*
X165673426Y-162484650D01*
X165680478Y-162484779D01*
X165687281Y-162482924D01*
X165687283Y-162482924D01*
X165783228Y-162456766D01*
X165818796Y-162447069D01*
X165940970Y-162372054D01*
X165948295Y-162363962D01*
X166032447Y-162270991D01*
X166037179Y-162265763D01*
X166099689Y-162136742D01*
X166103854Y-162111991D01*
X166122841Y-161999133D01*
X166122841Y-161999129D01*
X166123475Y-161995363D01*
X166123626Y-161983009D01*
X166122741Y-161976832D01*
X167123126Y-161976832D01*
X167124041Y-161983829D01*
X167124041Y-161983830D01*
X167135579Y-162072066D01*
X167141715Y-162118988D01*
X167144556Y-162125444D01*
X167144556Y-162125445D01*
X167194500Y-162238950D01*
X167199455Y-162250212D01*
X167237325Y-162295264D01*
X167287166Y-162354558D01*
X167287169Y-162354560D01*
X167291705Y-162359957D01*
X167297576Y-162363865D01*
X167297577Y-162363866D01*
X167315424Y-162375746D01*
X167411048Y-162439399D01*
X167511655Y-162470830D01*
X167541160Y-162480048D01*
X167541161Y-162480048D01*
X167547892Y-162482151D01*
X167619563Y-162483465D01*
X167684180Y-162484650D01*
X167684182Y-162484650D01*
X167691234Y-162484779D01*
X167698037Y-162482924D01*
X167698039Y-162482924D01*
X167793984Y-162456766D01*
X167829552Y-162447069D01*
X167951726Y-162372054D01*
X167959051Y-162363962D01*
X168043203Y-162270991D01*
X168047935Y-162265763D01*
X168110445Y-162136742D01*
X168114610Y-162111991D01*
X168133597Y-161999133D01*
X168133597Y-161999129D01*
X168134231Y-161995363D01*
X168134343Y-161986236D01*
X169225756Y-161986236D01*
X169226671Y-161993233D01*
X169226671Y-161993234D01*
X169239815Y-162093750D01*
X169244345Y-162128392D01*
X169247186Y-162134848D01*
X169247186Y-162134849D01*
X169292992Y-162238950D01*
X169302085Y-162259616D01*
X169327693Y-162290080D01*
X169389796Y-162363962D01*
X169389799Y-162363964D01*
X169394335Y-162369361D01*
X169400206Y-162373269D01*
X169400207Y-162373270D01*
X169412508Y-162381458D01*
X169513678Y-162448803D01*
X169606987Y-162477954D01*
X169643790Y-162489452D01*
X169643791Y-162489452D01*
X169650522Y-162491555D01*
X169722193Y-162492869D01*
X169786810Y-162494054D01*
X169786812Y-162494054D01*
X169793864Y-162494183D01*
X169800667Y-162492328D01*
X169800669Y-162492328D01*
X169911304Y-162462165D01*
X169932182Y-162456473D01*
X170054356Y-162381458D01*
X170061768Y-162373270D01*
X170145833Y-162280395D01*
X170150565Y-162275167D01*
X170213075Y-162146146D01*
X170214658Y-162136742D01*
X170224366Y-162079040D01*
X171451455Y-162079040D01*
X171452370Y-162086037D01*
X171452370Y-162086038D01*
X171465527Y-162186655D01*
X171470044Y-162221196D01*
X171472885Y-162227652D01*
X171472885Y-162227653D01*
X171500354Y-162290080D01*
X171527784Y-162352420D01*
X171572353Y-162405441D01*
X171615495Y-162456766D01*
X171615498Y-162456768D01*
X171620034Y-162462165D01*
X171625905Y-162466073D01*
X171625906Y-162466074D01*
X171653812Y-162484650D01*
X171739377Y-162541607D01*
X171812466Y-162564441D01*
X171869489Y-162582256D01*
X171869490Y-162582256D01*
X171876221Y-162584359D01*
X171947892Y-162585673D01*
X172012509Y-162586858D01*
X172012511Y-162586858D01*
X172019563Y-162586987D01*
X172026366Y-162585132D01*
X172026368Y-162585132D01*
X172121436Y-162559213D01*
X172157881Y-162549277D01*
X172266996Y-162482280D01*
X172274042Y-162477954D01*
X172280055Y-162474262D01*
X172287467Y-162466074D01*
X172371532Y-162373199D01*
X172376264Y-162367971D01*
X172423594Y-162270282D01*
X173665249Y-162270282D01*
X173666164Y-162277279D01*
X173666164Y-162277280D01*
X173675990Y-162352420D01*
X173683838Y-162412438D01*
X173686679Y-162418894D01*
X173686679Y-162418895D01*
X173720699Y-162496210D01*
X173741578Y-162543662D01*
X173787703Y-162598535D01*
X173829289Y-162648008D01*
X173829292Y-162648010D01*
X173833828Y-162653407D01*
X173839699Y-162657315D01*
X173839700Y-162657316D01*
X173852001Y-162665504D01*
X173953171Y-162732849D01*
X174053778Y-162764280D01*
X174083283Y-162773498D01*
X174083284Y-162773498D01*
X174090015Y-162775601D01*
X174161686Y-162776915D01*
X174226303Y-162778100D01*
X174226305Y-162778100D01*
X174233357Y-162778229D01*
X174240160Y-162776374D01*
X174240162Y-162776374D01*
X174315361Y-162755872D01*
X174371675Y-162740519D01*
X174493849Y-162665504D01*
X174501261Y-162657316D01*
X174585326Y-162564441D01*
X174587974Y-162561515D01*
X175880172Y-162561515D01*
X175881087Y-162568512D01*
X175881087Y-162568513D01*
X175896031Y-162682797D01*
X175898761Y-162703671D01*
X175901602Y-162710127D01*
X175901602Y-162710128D01*
X175944398Y-162807388D01*
X175956501Y-162834895D01*
X175969573Y-162850446D01*
X176044212Y-162939241D01*
X176044215Y-162939243D01*
X176048751Y-162944640D01*
X176054622Y-162948548D01*
X176054623Y-162948549D01*
X176064652Y-162955225D01*
X176168094Y-163024082D01*
X176262638Y-163053619D01*
X176298206Y-163064731D01*
X176298207Y-163064731D01*
X176304938Y-163066834D01*
X176376609Y-163068148D01*
X176441226Y-163069333D01*
X176441228Y-163069333D01*
X176448280Y-163069462D01*
X176455083Y-163067607D01*
X176455085Y-163067607D01*
X176530284Y-163047105D01*
X176586598Y-163031752D01*
X176708772Y-162956737D01*
X176715732Y-162949048D01*
X178068157Y-162949048D01*
X178069072Y-162956045D01*
X178069072Y-162956046D01*
X178073156Y-162987275D01*
X178086746Y-163091204D01*
X178089587Y-163097660D01*
X178089587Y-163097661D01*
X178121428Y-163170024D01*
X178144486Y-163222428D01*
X178157558Y-163237979D01*
X178232197Y-163326774D01*
X178232200Y-163326776D01*
X178236736Y-163332173D01*
X178242607Y-163336081D01*
X178242608Y-163336082D01*
X178254909Y-163344270D01*
X178356079Y-163411615D01*
X178435013Y-163436275D01*
X178486191Y-163452264D01*
X178486192Y-163452264D01*
X178492923Y-163454367D01*
X178564594Y-163455681D01*
X178629211Y-163456866D01*
X178629213Y-163456866D01*
X178636265Y-163456995D01*
X178643068Y-163455140D01*
X178643070Y-163455140D01*
X178712265Y-163436275D01*
X180248365Y-163436275D01*
X180249280Y-163443272D01*
X180249280Y-163443273D01*
X180251074Y-163456995D01*
X180266954Y-163578431D01*
X180269795Y-163584887D01*
X180269795Y-163584888D01*
X180277560Y-163602534D01*
X180324694Y-163709655D01*
X180360264Y-163751971D01*
X180412405Y-163814001D01*
X180412408Y-163814003D01*
X180416944Y-163819400D01*
X180422815Y-163823308D01*
X180422816Y-163823309D01*
X180435117Y-163831497D01*
X180536287Y-163898842D01*
X180636894Y-163930273D01*
X180666399Y-163939491D01*
X180666400Y-163939491D01*
X180673131Y-163941594D01*
X180744802Y-163942908D01*
X180809419Y-163944093D01*
X180809421Y-163944093D01*
X180816473Y-163944222D01*
X180823276Y-163942367D01*
X180823278Y-163942367D01*
X180898477Y-163921865D01*
X180954791Y-163906512D01*
X181076965Y-163831497D01*
X181084377Y-163823309D01*
X181168442Y-163730434D01*
X181173174Y-163725206D01*
X181235684Y-163596185D01*
X181239849Y-163571434D01*
X181258836Y-163458576D01*
X181258836Y-163458572D01*
X181259470Y-163454806D01*
X181259621Y-163442452D01*
X181239297Y-163300534D01*
X181179958Y-163170024D01*
X181093197Y-163069333D01*
X181090979Y-163066759D01*
X181090978Y-163066758D01*
X181086374Y-163061415D01*
X180966069Y-162983437D01*
X180828713Y-162942359D01*
X180745471Y-162941850D01*
X180692401Y-162941526D01*
X180692400Y-162941526D01*
X180685350Y-162941483D01*
X180678573Y-162943420D01*
X180678572Y-162943420D01*
X180554283Y-162978942D01*
X180554281Y-162978943D01*
X180547503Y-162980880D01*
X180426254Y-163057382D01*
X180421587Y-163062666D01*
X180421585Y-163062668D01*
X180336018Y-163159555D01*
X180336016Y-163159557D01*
X180331351Y-163164840D01*
X180270421Y-163294615D01*
X180269336Y-163301584D01*
X180269335Y-163301587D01*
X180263504Y-163339039D01*
X180248365Y-163436275D01*
X178712265Y-163436275D01*
X178737845Y-163429301D01*
X178774583Y-163419285D01*
X178896757Y-163344270D01*
X178904169Y-163336082D01*
X178988234Y-163243207D01*
X178992966Y-163237979D01*
X179055476Y-163108958D01*
X179059641Y-163084207D01*
X179078628Y-162971349D01*
X179078628Y-162971345D01*
X179079262Y-162967579D01*
X179079413Y-162955225D01*
X179059089Y-162813307D01*
X179026837Y-162742373D01*
X179002671Y-162689221D01*
X179002670Y-162689220D01*
X178999750Y-162682797D01*
X178939348Y-162612697D01*
X178910771Y-162579532D01*
X178910770Y-162579531D01*
X178906166Y-162574188D01*
X178785861Y-162496210D01*
X178648505Y-162455132D01*
X178565263Y-162454623D01*
X178512193Y-162454299D01*
X178512192Y-162454299D01*
X178505142Y-162454256D01*
X178498365Y-162456193D01*
X178498364Y-162456193D01*
X178374075Y-162491715D01*
X178374073Y-162491716D01*
X178367295Y-162493653D01*
X178246046Y-162570155D01*
X178241379Y-162575439D01*
X178241377Y-162575441D01*
X178155810Y-162672328D01*
X178155808Y-162672330D01*
X178151143Y-162677613D01*
X178090213Y-162807388D01*
X178089128Y-162814357D01*
X178089127Y-162814360D01*
X178084497Y-162844101D01*
X178068157Y-162949048D01*
X176715732Y-162949048D01*
X176716184Y-162948549D01*
X176800249Y-162855674D01*
X176804981Y-162850446D01*
X176867491Y-162721425D01*
X176871656Y-162696674D01*
X176890643Y-162583816D01*
X176890643Y-162583812D01*
X176891277Y-162580046D01*
X176891428Y-162567692D01*
X176871104Y-162425774D01*
X176811765Y-162295264D01*
X176718181Y-162186655D01*
X176597876Y-162108677D01*
X176460520Y-162067599D01*
X176377278Y-162067090D01*
X176324208Y-162066766D01*
X176324207Y-162066766D01*
X176317157Y-162066723D01*
X176310380Y-162068660D01*
X176310379Y-162068660D01*
X176186090Y-162104182D01*
X176186088Y-162104183D01*
X176179310Y-162106120D01*
X176058061Y-162182622D01*
X176053394Y-162187906D01*
X176053392Y-162187908D01*
X175967825Y-162284795D01*
X175967823Y-162284797D01*
X175963158Y-162290080D01*
X175902228Y-162419855D01*
X175901143Y-162426824D01*
X175901142Y-162426827D01*
X175890944Y-162492328D01*
X175880172Y-162561515D01*
X174587974Y-162561515D01*
X174590058Y-162559213D01*
X174644391Y-162447069D01*
X174649492Y-162436541D01*
X174652568Y-162430192D01*
X174656733Y-162405441D01*
X174675720Y-162292583D01*
X174675720Y-162292579D01*
X174676354Y-162288813D01*
X174676505Y-162276459D01*
X174656181Y-162134541D01*
X174630946Y-162079040D01*
X174599763Y-162010455D01*
X174599762Y-162010454D01*
X174596842Y-162004031D01*
X174503258Y-161895422D01*
X174382953Y-161817444D01*
X174245597Y-161776366D01*
X174162355Y-161775857D01*
X174109285Y-161775533D01*
X174109284Y-161775533D01*
X174102234Y-161775490D01*
X174095457Y-161777427D01*
X174095456Y-161777427D01*
X173971167Y-161812949D01*
X173971165Y-161812950D01*
X173964387Y-161814887D01*
X173843138Y-161891389D01*
X173838471Y-161896673D01*
X173838469Y-161896675D01*
X173752902Y-161993562D01*
X173752900Y-161993564D01*
X173748235Y-161998847D01*
X173687305Y-162128622D01*
X173686220Y-162135591D01*
X173686219Y-162135594D01*
X173671886Y-162227653D01*
X173665249Y-162270282D01*
X172423594Y-162270282D01*
X172438774Y-162238950D01*
X172442939Y-162214199D01*
X172461926Y-162101341D01*
X172461926Y-162101337D01*
X172462560Y-162097571D01*
X172462711Y-162085217D01*
X172442387Y-161943299D01*
X172400192Y-161850495D01*
X172385969Y-161819213D01*
X172385968Y-161819212D01*
X172383048Y-161812789D01*
X172296013Y-161711780D01*
X172294069Y-161709524D01*
X172294068Y-161709523D01*
X172289464Y-161704180D01*
X172169159Y-161626202D01*
X172031803Y-161585124D01*
X171948561Y-161584615D01*
X171895491Y-161584291D01*
X171895490Y-161584291D01*
X171888440Y-161584248D01*
X171881663Y-161586185D01*
X171881662Y-161586185D01*
X171757373Y-161621707D01*
X171757371Y-161621708D01*
X171750593Y-161623645D01*
X171629344Y-161700147D01*
X171624677Y-161705431D01*
X171624675Y-161705433D01*
X171539108Y-161802320D01*
X171539106Y-161802322D01*
X171534441Y-161807605D01*
X171531445Y-161813987D01*
X171531444Y-161813988D01*
X171524497Y-161828785D01*
X171473511Y-161937380D01*
X171472426Y-161944349D01*
X171472425Y-161944352D01*
X171463019Y-162004767D01*
X171451455Y-162079040D01*
X170224366Y-162079040D01*
X170236227Y-162008537D01*
X170236227Y-162008533D01*
X170236861Y-162004767D01*
X170237012Y-161992413D01*
X170216688Y-161850495D01*
X170182605Y-161775533D01*
X170160270Y-161726409D01*
X170160269Y-161726408D01*
X170157349Y-161719985D01*
X170063765Y-161611376D01*
X169943460Y-161533398D01*
X169806104Y-161492320D01*
X169722862Y-161491811D01*
X169669792Y-161491487D01*
X169669791Y-161491487D01*
X169662741Y-161491444D01*
X169655964Y-161493381D01*
X169655963Y-161493381D01*
X169531674Y-161528903D01*
X169531672Y-161528904D01*
X169524894Y-161530841D01*
X169464269Y-161569092D01*
X169418550Y-161597939D01*
X169403645Y-161607343D01*
X169398978Y-161612627D01*
X169398976Y-161612629D01*
X169313409Y-161709516D01*
X169313407Y-161709518D01*
X169308742Y-161714801D01*
X169247812Y-161844576D01*
X169225756Y-161986236D01*
X168134343Y-161986236D01*
X168134382Y-161983009D01*
X168114058Y-161841091D01*
X168085112Y-161777427D01*
X168057640Y-161717005D01*
X168057639Y-161717004D01*
X168054719Y-161710581D01*
X167961135Y-161601972D01*
X167840830Y-161523994D01*
X167703474Y-161482916D01*
X167620232Y-161482407D01*
X167567162Y-161482083D01*
X167567161Y-161482083D01*
X167560111Y-161482040D01*
X167553334Y-161483977D01*
X167553333Y-161483977D01*
X167429044Y-161519499D01*
X167429042Y-161519500D01*
X167422264Y-161521437D01*
X167301015Y-161597939D01*
X167296348Y-161603223D01*
X167296346Y-161603225D01*
X167210779Y-161700112D01*
X167210777Y-161700114D01*
X167206112Y-161705397D01*
X167145182Y-161835172D01*
X167144097Y-161842141D01*
X167144096Y-161842144D01*
X167135801Y-161895422D01*
X167123126Y-161976832D01*
X166122741Y-161976832D01*
X166103302Y-161841091D01*
X166074356Y-161777427D01*
X166046884Y-161717005D01*
X166046883Y-161717004D01*
X166043963Y-161710581D01*
X165950379Y-161601972D01*
X165830074Y-161523994D01*
X165692718Y-161482916D01*
X165609476Y-161482407D01*
X165556406Y-161482083D01*
X165556405Y-161482083D01*
X165549355Y-161482040D01*
X165542578Y-161483977D01*
X165542577Y-161483977D01*
X165418288Y-161519499D01*
X165418286Y-161519500D01*
X165411508Y-161521437D01*
X165290259Y-161597939D01*
X165285592Y-161603223D01*
X165285590Y-161603225D01*
X165200023Y-161700112D01*
X165200021Y-161700114D01*
X165195356Y-161705397D01*
X165134426Y-161835172D01*
X165133341Y-161842141D01*
X165133340Y-161842144D01*
X165125045Y-161895422D01*
X165112370Y-161976832D01*
X164122741Y-161976832D01*
X164103302Y-161841091D01*
X164074356Y-161777427D01*
X164046884Y-161717005D01*
X164046883Y-161717004D01*
X164043963Y-161710581D01*
X163950379Y-161601972D01*
X163830074Y-161523994D01*
X163692718Y-161482916D01*
X163609476Y-161482407D01*
X163556406Y-161482083D01*
X163556405Y-161482083D01*
X163549355Y-161482040D01*
X163542578Y-161483977D01*
X163542577Y-161483977D01*
X163418288Y-161519499D01*
X163418286Y-161519500D01*
X163411508Y-161521437D01*
X163290259Y-161597939D01*
X163285592Y-161603223D01*
X163285590Y-161603225D01*
X163200023Y-161700112D01*
X163200021Y-161700114D01*
X163195356Y-161705397D01*
X163134426Y-161835172D01*
X163133341Y-161842141D01*
X163133340Y-161842144D01*
X163125045Y-161895422D01*
X163112370Y-161976832D01*
X162111985Y-161976832D01*
X162092546Y-161841091D01*
X162063600Y-161777427D01*
X162036128Y-161717005D01*
X162036127Y-161717004D01*
X162033207Y-161710581D01*
X161939623Y-161601972D01*
X161819318Y-161523994D01*
X161681962Y-161482916D01*
X161598720Y-161482407D01*
X161545650Y-161482083D01*
X161545649Y-161482083D01*
X161538599Y-161482040D01*
X161531822Y-161483977D01*
X161531821Y-161483977D01*
X161407532Y-161519499D01*
X161407530Y-161519500D01*
X161400752Y-161521437D01*
X161279503Y-161597939D01*
X161274836Y-161603223D01*
X161274834Y-161603225D01*
X161189267Y-161700112D01*
X161189265Y-161700114D01*
X161184600Y-161705397D01*
X161123670Y-161835172D01*
X161122585Y-161842141D01*
X161122584Y-161842144D01*
X161114289Y-161895422D01*
X161101614Y-161976832D01*
X160111985Y-161976832D01*
X160092546Y-161841091D01*
X160063600Y-161777427D01*
X160036128Y-161717005D01*
X160036127Y-161717004D01*
X160033207Y-161710581D01*
X159939623Y-161601972D01*
X159819318Y-161523994D01*
X159681962Y-161482916D01*
X159598720Y-161482407D01*
X159545650Y-161482083D01*
X159545649Y-161482083D01*
X159538599Y-161482040D01*
X159531822Y-161483977D01*
X159531821Y-161483977D01*
X159407532Y-161519499D01*
X159407530Y-161519500D01*
X159400752Y-161521437D01*
X159279503Y-161597939D01*
X159274836Y-161603223D01*
X159274834Y-161603225D01*
X159189267Y-161700112D01*
X159189265Y-161700114D01*
X159184600Y-161705397D01*
X159123670Y-161835172D01*
X159122585Y-161842141D01*
X159122584Y-161842144D01*
X159114289Y-161895422D01*
X159101614Y-161976832D01*
X158101230Y-161976832D01*
X158081791Y-161841091D01*
X158052845Y-161777427D01*
X158025373Y-161717005D01*
X158025372Y-161717004D01*
X158022452Y-161710581D01*
X157928868Y-161601972D01*
X157808563Y-161523994D01*
X157671207Y-161482916D01*
X157587965Y-161482407D01*
X157534895Y-161482083D01*
X157534894Y-161482083D01*
X157527844Y-161482040D01*
X157521067Y-161483977D01*
X157521066Y-161483977D01*
X157396777Y-161519499D01*
X157396775Y-161519500D01*
X157389997Y-161521437D01*
X157268748Y-161597939D01*
X157264081Y-161603223D01*
X157264079Y-161603225D01*
X157178512Y-161700112D01*
X157178510Y-161700114D01*
X157173845Y-161705397D01*
X157112915Y-161835172D01*
X157111830Y-161842141D01*
X157111829Y-161842144D01*
X157103534Y-161895422D01*
X157090859Y-161976832D01*
X156101230Y-161976832D01*
X156081791Y-161841091D01*
X156052845Y-161777427D01*
X156025373Y-161717005D01*
X156025372Y-161717004D01*
X156022452Y-161710581D01*
X155928868Y-161601972D01*
X155808563Y-161523994D01*
X155671207Y-161482916D01*
X155587965Y-161482407D01*
X155534895Y-161482083D01*
X155534894Y-161482083D01*
X155527844Y-161482040D01*
X155521067Y-161483977D01*
X155521066Y-161483977D01*
X155396777Y-161519499D01*
X155396775Y-161519500D01*
X155389997Y-161521437D01*
X155268748Y-161597939D01*
X155264081Y-161603223D01*
X155264079Y-161603225D01*
X155178512Y-161700112D01*
X155178510Y-161700114D01*
X155173845Y-161705397D01*
X155112915Y-161835172D01*
X155111830Y-161842141D01*
X155111829Y-161842144D01*
X155103534Y-161895422D01*
X155090859Y-161976832D01*
X154090474Y-161976832D01*
X154071035Y-161841091D01*
X154042089Y-161777427D01*
X154014617Y-161717005D01*
X154014616Y-161717004D01*
X154011696Y-161710581D01*
X153918112Y-161601972D01*
X153797807Y-161523994D01*
X153660451Y-161482916D01*
X153577209Y-161482407D01*
X153524139Y-161482083D01*
X153524138Y-161482083D01*
X153517088Y-161482040D01*
X153510311Y-161483977D01*
X153510310Y-161483977D01*
X153386021Y-161519499D01*
X153386019Y-161519500D01*
X153379241Y-161521437D01*
X153257992Y-161597939D01*
X153253325Y-161603223D01*
X153253323Y-161603225D01*
X153167756Y-161700112D01*
X153167754Y-161700114D01*
X153163089Y-161705397D01*
X153102159Y-161835172D01*
X153101074Y-161842141D01*
X153101073Y-161842144D01*
X153092778Y-161895422D01*
X153080103Y-161976832D01*
X152090474Y-161976832D01*
X152071035Y-161841091D01*
X152042089Y-161777427D01*
X152014617Y-161717005D01*
X152014616Y-161717004D01*
X152011696Y-161710581D01*
X151918112Y-161601972D01*
X151797807Y-161523994D01*
X151660451Y-161482916D01*
X151577209Y-161482407D01*
X151524139Y-161482083D01*
X151524138Y-161482083D01*
X151517088Y-161482040D01*
X151510311Y-161483977D01*
X151510310Y-161483977D01*
X151386021Y-161519499D01*
X151386019Y-161519500D01*
X151379241Y-161521437D01*
X151257992Y-161597939D01*
X151253325Y-161603223D01*
X151253323Y-161603225D01*
X151167756Y-161700112D01*
X151167754Y-161700114D01*
X151163089Y-161705397D01*
X151102159Y-161835172D01*
X151101074Y-161842141D01*
X151101073Y-161842144D01*
X151092778Y-161895422D01*
X151080103Y-161976832D01*
X150079719Y-161976832D01*
X150060280Y-161841091D01*
X150031334Y-161777427D01*
X150003862Y-161717005D01*
X150003861Y-161717004D01*
X150000941Y-161710581D01*
X149907357Y-161601972D01*
X149787052Y-161523994D01*
X149649696Y-161482916D01*
X149566454Y-161482407D01*
X149513384Y-161482083D01*
X149513383Y-161482083D01*
X149506333Y-161482040D01*
X149499556Y-161483977D01*
X149499555Y-161483977D01*
X149375266Y-161519499D01*
X149375264Y-161519500D01*
X149368486Y-161521437D01*
X149247237Y-161597939D01*
X149242570Y-161603223D01*
X149242568Y-161603225D01*
X149157001Y-161700112D01*
X149156999Y-161700114D01*
X149152334Y-161705397D01*
X149091404Y-161835172D01*
X149090319Y-161842141D01*
X149090318Y-161842144D01*
X149082023Y-161895422D01*
X149069348Y-161976832D01*
X148079719Y-161976832D01*
X148060280Y-161841091D01*
X148031334Y-161777427D01*
X148003862Y-161717005D01*
X148003861Y-161717004D01*
X148000941Y-161710581D01*
X147907357Y-161601972D01*
X147787052Y-161523994D01*
X147649696Y-161482916D01*
X147566454Y-161482407D01*
X147513384Y-161482083D01*
X147513383Y-161482083D01*
X147506333Y-161482040D01*
X147499556Y-161483977D01*
X147499555Y-161483977D01*
X147375266Y-161519499D01*
X147375264Y-161519500D01*
X147368486Y-161521437D01*
X147247237Y-161597939D01*
X147242570Y-161603223D01*
X147242568Y-161603225D01*
X147157001Y-161700112D01*
X147156999Y-161700114D01*
X147152334Y-161705397D01*
X147091404Y-161835172D01*
X147090319Y-161842141D01*
X147090318Y-161842144D01*
X147082023Y-161895422D01*
X147069348Y-161976832D01*
X146068963Y-161976832D01*
X146049524Y-161841091D01*
X146020578Y-161777427D01*
X145993106Y-161717005D01*
X145993105Y-161717004D01*
X145990185Y-161710581D01*
X145896601Y-161601972D01*
X145776296Y-161523994D01*
X145638940Y-161482916D01*
X145555698Y-161482407D01*
X145502628Y-161482083D01*
X145502627Y-161482083D01*
X145495577Y-161482040D01*
X145488800Y-161483977D01*
X145488799Y-161483977D01*
X145364510Y-161519499D01*
X145364508Y-161519500D01*
X145357730Y-161521437D01*
X145236481Y-161597939D01*
X145231814Y-161603223D01*
X145231812Y-161603225D01*
X145146245Y-161700112D01*
X145146243Y-161700114D01*
X145141578Y-161705397D01*
X145080648Y-161835172D01*
X145079563Y-161842141D01*
X145079562Y-161842144D01*
X145071267Y-161895422D01*
X145058592Y-161976832D01*
X144068963Y-161976832D01*
X144049524Y-161841091D01*
X144020578Y-161777427D01*
X143993106Y-161717005D01*
X143993105Y-161717004D01*
X143990185Y-161710581D01*
X143896601Y-161601972D01*
X143776296Y-161523994D01*
X143638940Y-161482916D01*
X143555698Y-161482407D01*
X143502628Y-161482083D01*
X143502627Y-161482083D01*
X143495577Y-161482040D01*
X143488800Y-161483977D01*
X143488799Y-161483977D01*
X143364510Y-161519499D01*
X143364508Y-161519500D01*
X143357730Y-161521437D01*
X143236481Y-161597939D01*
X143231814Y-161603223D01*
X143231812Y-161603225D01*
X143146245Y-161700112D01*
X143146243Y-161700114D01*
X143141578Y-161705397D01*
X143080648Y-161835172D01*
X143079563Y-161842141D01*
X143079562Y-161842144D01*
X143071267Y-161895422D01*
X143058592Y-161976832D01*
X142060531Y-161976832D01*
X142041092Y-161841091D01*
X142012146Y-161777427D01*
X141984674Y-161717005D01*
X141984673Y-161717004D01*
X141981753Y-161710581D01*
X141888169Y-161601972D01*
X141767864Y-161523994D01*
X141630508Y-161482916D01*
X141598395Y-161482720D01*
X141540322Y-161463458D01*
X141504660Y-161413739D01*
X141500000Y-161383722D01*
X141500000Y-158443823D01*
X161844391Y-158443823D01*
X161845306Y-158450820D01*
X161845306Y-158450821D01*
X161859391Y-158558533D01*
X161862980Y-158585979D01*
X161865821Y-158592435D01*
X161865821Y-158592436D01*
X161917587Y-158710082D01*
X161920720Y-158717203D01*
X161933792Y-158732754D01*
X162008431Y-158821549D01*
X162008434Y-158821551D01*
X162012970Y-158826948D01*
X162018841Y-158830856D01*
X162018842Y-158830857D01*
X162029546Y-158837982D01*
X162132313Y-158906390D01*
X162198117Y-158926948D01*
X162262425Y-158947039D01*
X162262426Y-158947039D01*
X162269157Y-158949142D01*
X162340828Y-158950456D01*
X162405445Y-158951641D01*
X162405447Y-158951641D01*
X162412499Y-158951770D01*
X162419302Y-158949915D01*
X162419304Y-158949915D01*
X162494503Y-158929413D01*
X162550817Y-158914060D01*
X162672991Y-158839045D01*
X162680403Y-158830857D01*
X162764468Y-158737982D01*
X162769200Y-158732754D01*
X162831710Y-158603733D01*
X162835875Y-158578982D01*
X162841790Y-158543823D01*
X163794391Y-158543823D01*
X163795306Y-158550820D01*
X163795306Y-158550821D01*
X163800748Y-158592436D01*
X163812980Y-158685979D01*
X163815821Y-158692435D01*
X163815821Y-158692436D01*
X163833562Y-158732754D01*
X163870720Y-158817203D01*
X163916845Y-158872075D01*
X163958431Y-158921549D01*
X163958434Y-158921551D01*
X163962970Y-158926948D01*
X163968841Y-158930856D01*
X163968842Y-158930857D01*
X163981143Y-158939045D01*
X164082313Y-159006390D01*
X164182920Y-159037821D01*
X164212425Y-159047039D01*
X164212426Y-159047039D01*
X164219157Y-159049142D01*
X164290828Y-159050456D01*
X164355445Y-159051641D01*
X164355447Y-159051641D01*
X164362499Y-159051770D01*
X164369302Y-159049915D01*
X164369304Y-159049915D01*
X164444503Y-159029413D01*
X164500817Y-159014060D01*
X164622991Y-158939045D01*
X164630403Y-158930857D01*
X164714468Y-158837982D01*
X164719200Y-158832754D01*
X164765117Y-158737982D01*
X164778634Y-158710082D01*
X164781710Y-158703733D01*
X164785875Y-158678982D01*
X164804862Y-158566124D01*
X164804862Y-158566120D01*
X164805496Y-158562354D01*
X164805647Y-158550000D01*
X164785323Y-158408082D01*
X164763543Y-158360180D01*
X164728905Y-158283996D01*
X164728904Y-158283995D01*
X164725984Y-158277572D01*
X164665582Y-158207472D01*
X164637005Y-158174307D01*
X164637004Y-158174306D01*
X164632400Y-158168963D01*
X164512095Y-158090985D01*
X164374739Y-158049907D01*
X164291497Y-158049398D01*
X164238427Y-158049074D01*
X164238426Y-158049074D01*
X164231376Y-158049031D01*
X164224599Y-158050968D01*
X164224598Y-158050968D01*
X164100309Y-158086490D01*
X164100307Y-158086491D01*
X164093529Y-158088428D01*
X163972280Y-158164930D01*
X163967613Y-158170214D01*
X163967611Y-158170216D01*
X163882044Y-158267103D01*
X163882042Y-158267105D01*
X163877377Y-158272388D01*
X163816447Y-158402163D01*
X163815362Y-158409132D01*
X163815361Y-158409135D01*
X163809589Y-158446209D01*
X163794391Y-158543823D01*
X162841790Y-158543823D01*
X162854862Y-158466124D01*
X162854862Y-158466120D01*
X162855496Y-158462354D01*
X162855647Y-158450000D01*
X162835323Y-158308082D01*
X162775984Y-158177572D01*
X162702415Y-158092191D01*
X162687005Y-158074307D01*
X162687004Y-158074306D01*
X162682400Y-158068963D01*
X162562095Y-157990985D01*
X162424739Y-157949907D01*
X162341497Y-157949398D01*
X162288427Y-157949074D01*
X162288426Y-157949074D01*
X162281376Y-157949031D01*
X162274599Y-157950968D01*
X162274598Y-157950968D01*
X162150309Y-157986490D01*
X162150307Y-157986491D01*
X162143529Y-157988428D01*
X162022280Y-158064930D01*
X162017613Y-158070214D01*
X162017611Y-158070216D01*
X161932044Y-158167103D01*
X161932042Y-158167105D01*
X161927377Y-158172388D01*
X161866447Y-158302163D01*
X161844391Y-158443823D01*
X141500000Y-158443823D01*
X141500000Y-130393823D01*
X176694391Y-130393823D01*
X176695306Y-130400820D01*
X176695306Y-130400821D01*
X176696814Y-130412354D01*
X176712980Y-130535979D01*
X176715821Y-130542435D01*
X176715821Y-130542436D01*
X176723586Y-130560082D01*
X176770720Y-130667203D01*
X176783792Y-130682754D01*
X176858431Y-130771549D01*
X176858434Y-130771551D01*
X176862970Y-130776948D01*
X176868841Y-130780856D01*
X176868842Y-130780857D01*
X176881143Y-130789045D01*
X176982313Y-130856390D01*
X177082920Y-130887821D01*
X177112425Y-130897039D01*
X177112426Y-130897039D01*
X177119157Y-130899142D01*
X177190828Y-130900456D01*
X177255445Y-130901641D01*
X177255447Y-130901641D01*
X177262499Y-130901770D01*
X177269302Y-130899915D01*
X177269304Y-130899915D01*
X177344503Y-130879413D01*
X177400817Y-130864060D01*
X177522991Y-130789045D01*
X177530403Y-130780857D01*
X177614468Y-130687982D01*
X177619200Y-130682754D01*
X177681710Y-130553733D01*
X177685875Y-130528982D01*
X177704862Y-130416124D01*
X177704862Y-130416120D01*
X177705496Y-130412354D01*
X177705647Y-130400000D01*
X177685323Y-130258082D01*
X177625984Y-130127572D01*
X177532400Y-130018963D01*
X177412095Y-129940985D01*
X177274739Y-129899907D01*
X177191497Y-129899398D01*
X177138427Y-129899074D01*
X177138426Y-129899074D01*
X177131376Y-129899031D01*
X177124599Y-129900968D01*
X177124598Y-129900968D01*
X177000309Y-129936490D01*
X177000307Y-129936491D01*
X176993529Y-129938428D01*
X176872280Y-130014930D01*
X176867613Y-130020214D01*
X176867611Y-130020216D01*
X176782044Y-130117103D01*
X176782042Y-130117105D01*
X176777377Y-130122388D01*
X176716447Y-130252163D01*
X176694391Y-130393823D01*
X141500000Y-130393823D01*
X141500000Y-127993823D01*
X180694391Y-127993823D01*
X180695306Y-128000820D01*
X180695306Y-128000821D01*
X180696814Y-128012354D01*
X180712980Y-128135979D01*
X180715821Y-128142435D01*
X180715821Y-128142436D01*
X180723586Y-128160082D01*
X180770720Y-128267203D01*
X180783792Y-128282754D01*
X180858431Y-128371549D01*
X180858434Y-128371551D01*
X180862970Y-128376948D01*
X180868841Y-128380856D01*
X180868842Y-128380857D01*
X180881143Y-128389045D01*
X180982313Y-128456390D01*
X181082920Y-128487821D01*
X181112425Y-128497039D01*
X181112426Y-128497039D01*
X181119157Y-128499142D01*
X181190828Y-128500456D01*
X181255445Y-128501641D01*
X181255447Y-128501641D01*
X181262499Y-128501770D01*
X181269302Y-128499915D01*
X181269304Y-128499915D01*
X181344503Y-128479413D01*
X181400817Y-128464060D01*
X181522991Y-128389045D01*
X181530403Y-128380857D01*
X181614468Y-128287982D01*
X181619200Y-128282754D01*
X181681710Y-128153733D01*
X181685875Y-128128982D01*
X181704862Y-128016124D01*
X181704862Y-128016120D01*
X181705496Y-128012354D01*
X181705647Y-128000000D01*
X181685323Y-127858082D01*
X181625984Y-127727572D01*
X181532400Y-127618963D01*
X181412095Y-127540985D01*
X181274739Y-127499907D01*
X181191497Y-127499398D01*
X181138427Y-127499074D01*
X181138426Y-127499074D01*
X181131376Y-127499031D01*
X181124599Y-127500968D01*
X181124598Y-127500968D01*
X181000309Y-127536490D01*
X181000307Y-127536491D01*
X180993529Y-127538428D01*
X180872280Y-127614930D01*
X180867613Y-127620214D01*
X180867611Y-127620216D01*
X180782044Y-127717103D01*
X180782042Y-127717105D01*
X180777377Y-127722388D01*
X180716447Y-127852163D01*
X180694391Y-127993823D01*
X141500000Y-127993823D01*
X141500000Y-124099000D01*
X141518907Y-124040809D01*
X141568407Y-124004845D01*
X141599000Y-124000000D01*
X186901000Y-124000000D01*
X186959191Y-124018907D01*
G37*
%TD.AperFunction*%
%TD*%
M02*
