%TF.GenerationSoftware,KiCad,Pcbnew,6.0.2+dfsg-1*%
%TF.CreationDate,2022-11-03T12:06:55-07:00*%
%TF.ProjectId,slot_track,736c6f74-5f74-4726-9163-6b2e6b696361,rev?*%
%TF.SameCoordinates,Original*%
%TF.FileFunction,Paste,Bot*%
%TF.FilePolarity,Positive*%
%FSLAX46Y46*%
G04 Gerber Fmt 4.6, Leading zero omitted, Abs format (unit mm)*
G04 Created by KiCad (PCBNEW 6.0.2+dfsg-1) date 2022-11-03 12:06:55*
%MOMM*%
%LPD*%
G01*
G04 APERTURE LIST*
G04 Aperture macros list*
%AMRoundRect*
0 Rectangle with rounded corners*
0 $1 Rounding radius*
0 $2 $3 $4 $5 $6 $7 $8 $9 X,Y pos of 4 corners*
0 Add a 4 corners polygon primitive as box body*
4,1,4,$2,$3,$4,$5,$6,$7,$8,$9,$2,$3,0*
0 Add four circle primitives for the rounded corners*
1,1,$1+$1,$2,$3*
1,1,$1+$1,$4,$5*
1,1,$1+$1,$6,$7*
1,1,$1+$1,$8,$9*
0 Add four rect primitives between the rounded corners*
20,1,$1+$1,$2,$3,$4,$5,0*
20,1,$1+$1,$4,$5,$6,$7,0*
20,1,$1+$1,$6,$7,$8,$9,0*
20,1,$1+$1,$8,$9,$2,$3,0*%
G04 Aperture macros list end*
%ADD10RoundRect,0.250000X-0.250000X-0.475000X0.250000X-0.475000X0.250000X0.475000X-0.250000X0.475000X0*%
%ADD11RoundRect,0.825000X0.825000X1.205000X-0.825000X1.205000X-0.825000X-1.205000X0.825000X-1.205000X0*%
%ADD12RoundRect,0.952500X0.952500X2.222500X-0.952500X2.222500X-0.952500X-2.222500X0.952500X-2.222500X0*%
%ADD13RoundRect,0.825000X0.825000X2.350000X-0.825000X2.350000X-0.825000X-2.350000X0.825000X-2.350000X0*%
%ADD14RoundRect,0.225000X-0.250000X0.225000X-0.250000X-0.225000X0.250000X-0.225000X0.250000X0.225000X0*%
%ADD15RoundRect,0.225000X0.250000X-0.225000X0.250000X0.225000X-0.250000X0.225000X-0.250000X-0.225000X0*%
%ADD16RoundRect,0.225000X-0.225000X-0.250000X0.225000X-0.250000X0.225000X0.250000X-0.225000X0.250000X0*%
%ADD17R,1.000000X3.150000*%
%ADD18R,0.802000X1.505000*%
%ADD19R,2.101200X1.567800*%
%ADD20R,1.505000X0.802000*%
%ADD21R,1.567800X2.101200*%
%ADD22RoundRect,0.200000X0.275000X-0.200000X0.275000X0.200000X-0.275000X0.200000X-0.275000X-0.200000X0*%
%ADD23RoundRect,0.200000X-0.200000X-0.275000X0.200000X-0.275000X0.200000X0.275000X-0.200000X0.275000X0*%
%ADD24RoundRect,0.200000X-0.275000X0.200000X-0.275000X-0.200000X0.275000X-0.200000X0.275000X0.200000X0*%
%ADD25RoundRect,0.150000X0.587500X0.150000X-0.587500X0.150000X-0.587500X-0.150000X0.587500X-0.150000X0*%
%ADD26R,5.400000X2.900000*%
%ADD27RoundRect,0.250000X-0.475000X0.250000X-0.475000X-0.250000X0.475000X-0.250000X0.475000X0.250000X0*%
%ADD28RoundRect,0.250000X0.475000X-0.250000X0.475000X0.250000X-0.475000X0.250000X-0.475000X-0.250000X0*%
%ADD29RoundRect,0.075000X-0.075000X-0.662500X0.075000X-0.662500X0.075000X0.662500X-0.075000X0.662500X0*%
%ADD30RoundRect,0.075000X-0.662500X-0.075000X0.662500X-0.075000X0.662500X0.075000X-0.662500X0.075000X0*%
G04 APERTURE END LIST*
D10*
%TO.C,C3*%
X159090000Y-196370000D03*
X160990000Y-196370000D03*
%TD*%
D11*
%TO.C,J1*%
X159072500Y-202250000D03*
D12*
X166522500Y-211390000D03*
D13*
X153222500Y-211390000D03*
%TD*%
D14*
%TO.C,C7*%
X204250000Y-125575000D03*
X204250000Y-127125000D03*
%TD*%
D15*
%TO.C,C5*%
X194950000Y-137875000D03*
X194950000Y-136325000D03*
%TD*%
%TO.C,C4*%
X192250000Y-131925000D03*
X192250000Y-130375000D03*
%TD*%
D16*
%TO.C,C1*%
X189875000Y-134300000D03*
X191425000Y-134300000D03*
%TD*%
D17*
%TO.C,J2*%
X177190000Y-133685000D03*
X177190000Y-138735000D03*
X179730000Y-133685000D03*
X179730000Y-138735000D03*
X182270000Y-133685000D03*
X182270000Y-138735000D03*
%TD*%
D18*
%TO.C,U5*%
X219455000Y-141197500D03*
X218185000Y-141197500D03*
X216915000Y-141197500D03*
X215645000Y-141197500D03*
X215645000Y-136202500D03*
X216915000Y-136202500D03*
X218185000Y-136202500D03*
X219455000Y-136202500D03*
D19*
X217550000Y-138700000D03*
%TD*%
D18*
%TO.C,U4*%
X225835000Y-153297500D03*
X224565000Y-153297500D03*
X223295000Y-153297500D03*
X222025000Y-153297500D03*
X222025000Y-148302500D03*
X223295000Y-148302500D03*
X224565000Y-148302500D03*
X225835000Y-148302500D03*
D19*
X223930000Y-150800000D03*
%TD*%
D20*
%TO.C,U3*%
X242352500Y-130025000D03*
X242352500Y-128755000D03*
X242352500Y-127485000D03*
X242352500Y-126215000D03*
X247347500Y-126215000D03*
X247347500Y-127485000D03*
X247347500Y-128755000D03*
X247347500Y-130025000D03*
D21*
X244850000Y-128120000D03*
%TD*%
D22*
%TO.C,R7*%
X197450000Y-124975000D03*
X197450000Y-123325000D03*
%TD*%
%TO.C,R6*%
X195950000Y-124975000D03*
X195950000Y-123325000D03*
%TD*%
D23*
%TO.C,R5*%
X206125000Y-129600000D03*
X207775000Y-129600000D03*
%TD*%
D22*
%TO.C,R4*%
X192400000Y-124875000D03*
X192400000Y-123225000D03*
%TD*%
D24*
%TO.C,R3*%
X201950000Y-123325000D03*
X201950000Y-124975000D03*
%TD*%
%TO.C,R2*%
X200450000Y-123325000D03*
X200450000Y-124975000D03*
%TD*%
%TO.C,R1*%
X198950000Y-123325000D03*
X198950000Y-124975000D03*
%TD*%
D25*
%TO.C,U2*%
X187237500Y-126075000D03*
X187237500Y-127975000D03*
X185362500Y-127025000D03*
%TD*%
D26*
%TO.C,L3*%
X237770000Y-150120000D03*
X237770000Y-159820000D03*
%TD*%
%TO.C,L2*%
X244955000Y-143830000D03*
X244955000Y-134130000D03*
%TD*%
%TO.C,L1*%
X228430000Y-133900000D03*
X228430000Y-143600000D03*
%TD*%
D27*
%TO.C,C10*%
X254370000Y-137400000D03*
X254370000Y-139300000D03*
%TD*%
%TO.C,C9*%
X246250000Y-157350000D03*
X246250000Y-159250000D03*
%TD*%
%TO.C,C8*%
X199970000Y-143760000D03*
X199970000Y-145660000D03*
%TD*%
D28*
%TO.C,C6*%
X189775000Y-126100000D03*
X189775000Y-128000000D03*
%TD*%
D27*
%TO.C,C2*%
X182750000Y-126050000D03*
X182750000Y-127950000D03*
%TD*%
D29*
%TO.C,U1*%
X196800000Y-136012500D03*
X197300000Y-136012500D03*
X197800000Y-136012500D03*
X198300000Y-136012500D03*
X198800000Y-136012500D03*
X199300000Y-136012500D03*
X199800000Y-136012500D03*
X200300000Y-136012500D03*
X200800000Y-136012500D03*
X201300000Y-136012500D03*
X201800000Y-136012500D03*
X202300000Y-136012500D03*
D30*
X203712500Y-134600000D03*
X203712500Y-134100000D03*
X203712500Y-133600000D03*
X203712500Y-133100000D03*
X203712500Y-132600000D03*
X203712500Y-132100000D03*
X203712500Y-131600000D03*
X203712500Y-131100000D03*
X203712500Y-130600000D03*
X203712500Y-130100000D03*
X203712500Y-129600000D03*
X203712500Y-129100000D03*
D29*
X202300000Y-127687500D03*
X201800000Y-127687500D03*
X201300000Y-127687500D03*
X200800000Y-127687500D03*
X200300000Y-127687500D03*
X199800000Y-127687500D03*
X199300000Y-127687500D03*
X198800000Y-127687500D03*
X198300000Y-127687500D03*
X197800000Y-127687500D03*
X197300000Y-127687500D03*
X196800000Y-127687500D03*
D30*
X195387500Y-129100000D03*
X195387500Y-129600000D03*
X195387500Y-130100000D03*
X195387500Y-130600000D03*
X195387500Y-131100000D03*
X195387500Y-131600000D03*
X195387500Y-132100000D03*
X195387500Y-132600000D03*
X195387500Y-133100000D03*
X195387500Y-133600000D03*
X195387500Y-134100000D03*
X195387500Y-134600000D03*
%TD*%
M02*
