%TF.GenerationSoftware,KiCad,Pcbnew,6.0.2+dfsg-1*%
%TF.CreationDate,2022-11-03T12:06:54-07:00*%
%TF.ProjectId,slot_track,736c6f74-5f74-4726-9163-6b2e6b696361,rev?*%
%TF.SameCoordinates,Original*%
%TF.FileFunction,Copper,L2,Inr*%
%TF.FilePolarity,Positive*%
%FSLAX46Y46*%
G04 Gerber Fmt 4.6, Leading zero omitted, Abs format (unit mm)*
G04 Created by KiCad (PCBNEW 6.0.2+dfsg-1) date 2022-11-03 12:06:54*
%MOMM*%
%LPD*%
G01*
G04 APERTURE LIST*
%TA.AperFunction,ViaPad*%
%ADD10C,0.600000*%
%TD*%
%TA.AperFunction,Conductor*%
%ADD11C,0.200000*%
%TD*%
%TA.AperFunction,Conductor*%
%ADD12C,1.250000*%
%TD*%
%TA.AperFunction,Conductor*%
%ADD13C,0.300000*%
%TD*%
G04 APERTURE END LIST*
D10*
%TO.N,VBUS*%
X158300000Y-199700000D03*
X159090000Y-198640000D03*
%TO.N,GND*%
X151000000Y-212400000D03*
X151000000Y-208600000D03*
X153200000Y-207700000D03*
X164100000Y-211400000D03*
%TO.N,VBUS*%
X161200000Y-202300000D03*
X161200000Y-201200000D03*
%TO.N,GND*%
X155400000Y-209500000D03*
X155400000Y-210500000D03*
X164100000Y-212400000D03*
%TO.N,VBUS*%
X156950000Y-202300000D03*
X156950000Y-201100000D03*
%TO.N,GND*%
X169000000Y-212500000D03*
X169000000Y-211500000D03*
X155400000Y-212500000D03*
%TO.N,VBUS*%
X161200000Y-203500000D03*
X159900000Y-199700000D03*
%TO.N,GND*%
X155400000Y-211500000D03*
X155400000Y-208600000D03*
X166600000Y-207650000D03*
X169000000Y-210500000D03*
X164100000Y-209400000D03*
X151000000Y-209500000D03*
%TO.N,VBUS*%
X156950000Y-203450000D03*
%TO.N,GND*%
X151000000Y-210400000D03*
X164100000Y-208400000D03*
X169000000Y-209500000D03*
X151000000Y-211400000D03*
X169000000Y-208500000D03*
X164100000Y-210400000D03*
%TO.N,VCC*%
X177200000Y-130400000D03*
X186900000Y-130400000D03*
%TO.N,/SWDIO*%
X206600000Y-140900000D03*
%TO.N,/SWCLK*%
X204600000Y-140100000D03*
%TO.N,/SWDIO*%
X200300000Y-140900000D03*
%TO.N,/SWCLK*%
X199100000Y-140800000D03*
%TO.N,/1B_P*%
X213355064Y-187201879D03*
X212055701Y-185681466D03*
%TO.N,/1A_P*%
X206402678Y-194458899D03*
X205103316Y-192938486D03*
%TO.N,/1B_P*%
X210749351Y-184152876D03*
X209449988Y-182632463D03*
%TO.N,/1A_P*%
X203796965Y-191409896D03*
X202497603Y-189889483D03*
%TO.N,/1B_P*%
X208145186Y-181105685D03*
X206845824Y-179585272D03*
%TO.N,/1A_P*%
X201192801Y-188362705D03*
X199893438Y-186842291D03*
%TO.N,/1B_P*%
X205367346Y-177923831D03*
X203817956Y-176331083D03*
%TO.N,/1A_P*%
X198644436Y-185393108D03*
X197433543Y-184091681D03*
%TO.N,/1B_P*%
X202190443Y-174800756D03*
X200505432Y-173352241D03*
%TO.N,/1A_P*%
X196159058Y-182838790D03*
X194837131Y-181650311D03*
%TO.N,/1B_P*%
X198748166Y-171972852D03*
X196940910Y-170680070D03*
%TO.N,/1A_P*%
X193456185Y-180515835D03*
X192033719Y-179449738D03*
%TO.N,/1B_P*%
X195067839Y-169462571D03*
X193152687Y-168335783D03*
%TO.N,/1A_P*%
X190557275Y-178442683D03*
X189045561Y-177507431D03*
%TO.N,/1B_P*%
X191178681Y-167289839D03*
X189170836Y-166337991D03*
%TO.N,/1A_P*%
X187485340Y-176635792D03*
X185896380Y-175838810D03*
%TO.N,/1B_P*%
X187111566Y-165471904D03*
X185026966Y-164702553D03*
%TO.N,/1A_P*%
X184264767Y-175109505D03*
X182611175Y-174457120D03*
%TO.N,/1B_P*%
X182898779Y-164023200D03*
X180753974Y-163442452D03*
%TO.N,/1A_P*%
X180921122Y-173875940D03*
X179216025Y-173373330D03*
%TO.N,/1B_P*%
X178573766Y-162955225D03*
X176385781Y-162567692D03*
%TO.N,/1A_P*%
X177480950Y-172944888D03*
X175737884Y-172596044D03*
%TO.N,/1B_P*%
X174170858Y-162276459D03*
X171957064Y-162085217D03*
%TO.N,/1A_P*%
X173971560Y-172323742D03*
X172204362Y-172131433D03*
%TO.N,/1B_P*%
X169731365Y-161992413D03*
%TO.N,/1A_P*%
X170425892Y-172017643D03*
%TO.N,/1B_P*%
X167628735Y-161983009D03*
%TO.N,/1A_P*%
X168628735Y-171983009D03*
%TO.N,/1B_P*%
X165617979Y-161983009D03*
X163617979Y-161983009D03*
%TO.N,/1A_P*%
X166617979Y-171983009D03*
X164617979Y-171983009D03*
%TO.N,/1B_P*%
X161607223Y-161983009D03*
X159607223Y-161983009D03*
%TO.N,/1A_P*%
X162607223Y-171983009D03*
X160607223Y-171983009D03*
%TO.N,/1B_P*%
X157596468Y-161983009D03*
X155596468Y-161983009D03*
%TO.N,/1A_P*%
X158596468Y-171983009D03*
X156596468Y-171983009D03*
%TO.N,/1B_P*%
X153585712Y-161983009D03*
X151585712Y-161983009D03*
%TO.N,/1A_P*%
X154585712Y-171983009D03*
X152585712Y-171983009D03*
%TO.N,/1B_P*%
X149574957Y-161983009D03*
X147574957Y-161983009D03*
%TO.N,/1A_P*%
X150574957Y-171983009D03*
X148574957Y-171983009D03*
%TO.N,/1B_P*%
X145564201Y-161983009D03*
X143564201Y-161983009D03*
%TO.N,/1A_P*%
X146564201Y-171983009D03*
X144564201Y-171983009D03*
%TO.N,/1B_P*%
X141555769Y-161983009D03*
X139555769Y-161983009D03*
%TO.N,/1A_P*%
X142555769Y-171983009D03*
X140555769Y-171983009D03*
%TO.N,/1B_P*%
X137777957Y-161944470D03*
X136032665Y-161818709D03*
%TO.N,/1A_P*%
X138433106Y-171972186D03*
X136185818Y-171866637D03*
%TO.N,/1B_P*%
X134286529Y-161604498D03*
X132562591Y-161304664D03*
%TO.N,/1A_P*%
X133934603Y-171647429D03*
X131709168Y-171317455D03*
%TO.N,/1B_P*%
X130846669Y-160916739D03*
X129161404Y-160445842D03*
%TO.N,/1A_P*%
X129491203Y-170873999D03*
X127309977Y-170322914D03*
%TO.N,/1B_P*%
X127492931Y-159888101D03*
X125863268Y-159250873D03*
%TO.N,/1A_P*%
X125147543Y-169659665D03*
X123032436Y-168893005D03*
%TO.N,/1B_P*%
X124259006Y-158528917D03*
X122701316Y-157731759D03*
%TO.N,/1A_P*%
X120947255Y-168016626D03*
X118919515Y-167042092D03*
%TO.N,/1B_P*%
X121177380Y-156852840D03*
X119707309Y-155903760D03*
%TO.N,/1A_P*%
X116932534Y-165961386D03*
X115012531Y-164788768D03*
%TO.N,/1B_P*%
X118279009Y-154876709D03*
X116911326Y-153785240D03*
%TO.N,/1A_P*%
X113143709Y-163514592D03*
X111350730Y-162155670D03*
%TO.N,/1B_P*%
X115593008Y-152620373D03*
X114341451Y-151397480D03*
%TO.N,/1A_P*%
X109618841Y-160700822D03*
X107970896Y-159169246D03*
%TO.N,/1B_P*%
X113146359Y-150106499D03*
X112023502Y-148764466D03*
%TO.N,/1A_P*%
X106393338Y-157548343D03*
X104906983Y-155859499D03*
%TO.N,/1B_P*%
X110963641Y-147360340D03*
X109980762Y-145912648D03*
%TO.N,/1A_P*%
X103499603Y-154088821D03*
X102189768Y-152259674D03*
%TO.N,/1B_P*%
X109066779Y-144409482D03*
X108233752Y-142870674D03*
%TO.N,/1A_P*%
X100966703Y-150357010D03*
X99846546Y-148405935D03*
%TO.N,/1B_P*%
X107474828Y-141283567D03*
X106800021Y-139669102D03*
%TO.N,/1A_P*%
X98820083Y-146390397D03*
X97900857Y-144336993D03*
%TO.N,/1B_P*%
X106203780Y-138013997D03*
X105693972Y-136340092D03*
%TO.N,/1A_P*%
X97081307Y-142228828D03*
X96372246Y-140093722D03*
%TO.N,/1B_P*%
X105266403Y-134633616D03*
X104926715Y-132917086D03*
%TO.N,/1A_P*%
X95767841Y-137914109D03*
X95276067Y-135718749D03*
%TO.N,/1B_P*%
X104672114Y-131176381D03*
X104505958Y-129434470D03*
%TO.N,/1A_P*%
X94892879Y-133489582D03*
X94623334Y-131256022D03*
%TO.N,/1B_P*%
X104426882Y-127677022D03*
X104435928Y-125927228D03*
%TO.N,/1A_P*%
X94465212Y-128999694D03*
X94420602Y-126750371D03*
%TO.N,/1B_P*%
X104533171Y-124170691D03*
X104717328Y-122430591D03*
%TO.N,/1A_P*%
X94489135Y-124489547D03*
X94669908Y-122247056D03*
%TO.N,/1B_P*%
X104989913Y-120692612D03*
X105347331Y-118979686D03*
%TO.N,/1A_P*%
X94964408Y-120004448D03*
X95368749Y-117791316D03*
%TO.N,/1B_P*%
X105792521Y-117277722D03*
X106319609Y-115609177D03*
%TO.N,/1A_P*%
X95886257Y-115589452D03*
X96510103Y-113427911D03*
%TO.N,/1B_P*%
X106932931Y-113960326D03*
X107624394Y-112352924D03*
%TO.N,/1A_P*%
X97245420Y-111288909D03*
X98082506Y-109200672D03*
%TO.N,/1B_P*%
X108399687Y-110773748D03*
X109248580Y-109243636D03*
%TO.N,/1A_P*%
X99028246Y-107146020D03*
X100070161Y-105152065D03*
%TO.N,/1B_P*%
X110178056Y-107749999D03*
X111175851Y-106312547D03*
%TO.N,/1A_P*%
X101216824Y-103202402D03*
X102453103Y-101322759D03*
%TO.N,/1B_P*%
X112250173Y-104919455D03*
X113386846Y-103589103D03*
%TO.N,/1A_P*%
X103789169Y-99497671D03*
X105207392Y-97751221D03*
%TO.N,/1B_P*%
X114594351Y-102311424D03*
X115858442Y-101101492D03*
%TO.N,/1A_P*%
X106718349Y-96070196D03*
X108304215Y-94474428D03*
%TO.N,/1B_P*%
X117316365Y-99802257D03*
X118811180Y-98473525D03*
%TO.N,/1A_P*%
X109925298Y-92992548D03*
X111420113Y-91663816D03*
%TO.N,/1B_P*%
X120314033Y-97137648D03*
X121808848Y-95808916D03*
%TO.N,/1A_P*%
X112922967Y-90327938D03*
X114417782Y-88999207D03*
%TO.N,/1B_P*%
X123309078Y-94475371D03*
%TO.N,/1A_P*%
X115918012Y-87665662D03*
X117412827Y-86336930D03*
%TO.N,/1B_P*%
X124783984Y-93165487D03*
X126167596Y-91999246D03*
X127589214Y-90895357D03*
%TO.N,/1A_P*%
X119029557Y-84925466D03*
X120739760Y-83541790D03*
%TO.N,/1B_P*%
X129061827Y-89843734D03*
X130567327Y-88857308D03*
%TO.N,/1A_P*%
X122513556Y-82220735D03*
X124329133Y-80978545D03*
%TO.N,/1B_P*%
X132119471Y-87927065D03*
X133699171Y-87064445D03*
%TO.N,/1A_P*%
X126203080Y-79803871D03*
X128112355Y-78711156D03*
%TO.N,/1B_P*%
X135320863Y-86261566D03*
X136964606Y-85528299D03*
%TO.N,/1A_P*%
X130074402Y-77690416D03*
X132065095Y-76754203D03*
%TO.N,/1B_P*%
X138645417Y-84857946D03*
X140342629Y-84258749D03*
%TO.N,/1A_P*%
X134102624Y-75893963D03*
X136161934Y-75120273D03*
%TO.N,/1B_P*%
X142071751Y-83725234D03*
X143811519Y-83263960D03*
%TO.N,/1A_P*%
X138261842Y-74426064D03*
X140376524Y-73819873D03*
%TO.N,/1B_P*%
X145577831Y-82870713D03*
X147348967Y-82550328D03*
%TO.N,/1A_P*%
X142525306Y-73296160D03*
X144681764Y-72861366D03*
%TO.N,/1B_P*%
X149141109Y-82299879D03*
X150932222Y-82122444D03*
%TO.N,/1A_P*%
X146865601Y-72511517D03*
X149049963Y-72250916D03*
%TO.N,/1B_P*%
X152736081Y-82016502D03*
%TO.N,/1A_P*%
X151251650Y-72077366D03*
X153449866Y-71992507D03*
%TO.N,/1B_P*%
X154545608Y-81983009D03*
X156556363Y-81983009D03*
X158556363Y-81983009D03*
%TO.N,/1A_P*%
X155556363Y-71983009D03*
X157556363Y-71983009D03*
%TO.N,/1B_P*%
X160567119Y-81983009D03*
X162567119Y-81983009D03*
%TO.N,/1A_P*%
X159567119Y-71983009D03*
X161567119Y-71983009D03*
%TO.N,/1B_P*%
X164577875Y-81983009D03*
X166577875Y-81983009D03*
%TO.N,/1A_P*%
X163577875Y-71983009D03*
X165577875Y-71983009D03*
%TO.N,/1B_P*%
X168588630Y-81983009D03*
X170588630Y-81983009D03*
%TO.N,/1A_P*%
X167588630Y-71983009D03*
X169588630Y-71983009D03*
%TO.N,/1B_P*%
X172599386Y-81983009D03*
X174599386Y-81983009D03*
%TO.N,/1A_P*%
X171599386Y-71983009D03*
X173599386Y-71983009D03*
%TO.N,/1B_P*%
X176610141Y-81983009D03*
X178610141Y-81983009D03*
%TO.N,/1A_P*%
X175610141Y-71983009D03*
X177610141Y-71983009D03*
%TO.N,/1B_P*%
X180620897Y-81983009D03*
X182620897Y-81983009D03*
%TO.N,/1A_P*%
X179620897Y-71983009D03*
X181620897Y-71983009D03*
%TO.N,/1B_P*%
X184631653Y-81983009D03*
X186631653Y-81983009D03*
%TO.N,/1A_P*%
X183631653Y-71983009D03*
X185631653Y-71983009D03*
%TO.N,/1B_P*%
X188642408Y-81983009D03*
X190642408Y-81983009D03*
%TO.N,/1A_P*%
X187642408Y-71983009D03*
X189642408Y-71983009D03*
%TO.N,/1B_P*%
X192653164Y-81983009D03*
X194653164Y-81983009D03*
%TO.N,/1A_P*%
X191653164Y-71983009D03*
X193653164Y-71983009D03*
%TO.N,/1B_P*%
X196663920Y-81983009D03*
X198663920Y-81983009D03*
%TO.N,/1A_P*%
X195663920Y-71983009D03*
X197663920Y-71983009D03*
%TO.N,/1B_P*%
X200674675Y-81983009D03*
X202674675Y-81983009D03*
%TO.N,/1A_P*%
X199674675Y-71983009D03*
X201674675Y-71983009D03*
%TO.N,/1B_P*%
X204685431Y-81983009D03*
X206685431Y-81983009D03*
%TO.N,/1A_P*%
X203685431Y-71983009D03*
X205685431Y-71983009D03*
%TO.N,/1B_P*%
X208696186Y-81983009D03*
X210696186Y-81983009D03*
%TO.N,/1A_P*%
X207696186Y-71983009D03*
X209696186Y-71983009D03*
%TO.N,/1B_P*%
X212706942Y-81983009D03*
X214706942Y-81983009D03*
%TO.N,/1A_P*%
X211706942Y-71983009D03*
X213706942Y-71983009D03*
%TO.N,/1B_P*%
X216717698Y-81983009D03*
X218717698Y-81983009D03*
%TO.N,/1A_P*%
X215717698Y-71983009D03*
X217717698Y-71983009D03*
%TO.N,/1B_P*%
X220728453Y-81983009D03*
X222728453Y-81983009D03*
%TO.N,/1A_P*%
X219728453Y-71983009D03*
X221728453Y-71983009D03*
%TO.N,/1B_P*%
X224739209Y-81983009D03*
X226739209Y-81983009D03*
%TO.N,/1A_P*%
X223739209Y-71983009D03*
X225739209Y-71983009D03*
%TO.N,/1B_P*%
X228749964Y-81983009D03*
X230749964Y-81983009D03*
%TO.N,/1A_P*%
X227749964Y-71983009D03*
X229749964Y-71983009D03*
%TO.N,/1B_P*%
X232757125Y-81983009D03*
%TO.N,/1A_P*%
X231757125Y-71983009D03*
X233757125Y-71983009D03*
%TO.N,/1B_P*%
X234729744Y-81983969D03*
X236557054Y-82028700D03*
X238371761Y-82139418D03*
%TO.N,/1A_P*%
X235894189Y-72001122D03*
X238073893Y-72094371D03*
%TO.N,/1B_P*%
X240190956Y-82317165D03*
X241992774Y-82559806D03*
%TO.N,/1A_P*%
X240260444Y-72267943D03*
X242427562Y-72519752D03*
%TO.N,/1B_P*%
X243794184Y-82869624D03*
X245573534Y-83242896D03*
%TO.N,/1A_P*%
X244595655Y-72852171D03*
X246738667Y-73261204D03*
%TO.N,/1B_P*%
X247347583Y-83683138D03*
X249095009Y-84185059D03*
%TO.N,/1A_P*%
X248876779Y-73750703D03*
X250984294Y-74314785D03*
%TO.N,/1B_P*%
X250832268Y-84753385D03*
X252538481Y-85381286D03*
%TO.N,/1A_P*%
X253081059Y-74958762D03*
X255141875Y-75674894D03*
%TO.N,/1B_P*%
X254229716Y-86074675D03*
X255885646Y-86825219D03*
%TO.N,/1A_P*%
X257186149Y-76469926D03*
X259189311Y-77334302D03*
%TO.N,/1B_P*%
X257521867Y-87639986D03*
X259118713Y-88509183D03*
%TO.N,/1A_P*%
X261170228Y-78276164D03*
X263105089Y-79284190D03*
%TO.N,/1B_P*%
X260691223Y-89440997D03*
X262220497Y-90424228D03*
%TO.N,/1A_P*%
X265012119Y-80367874D03*
X266868395Y-81514191D03*
%TO.N,/1B_P*%
X263720937Y-91468135D03*
X265174510Y-92560173D03*
%TO.N,/1A_P*%
X268691401Y-82733938D03*
X270459225Y-84012454D03*
%TO.N,/1B_P*%
X266594906Y-93710625D03*
X267965052Y-94905665D03*
%TO.N,/1A_P*%
X272188518Y-85361780D03*
X273858493Y-86765699D03*
%TO.N,/1B_P*%
X269297853Y-96156548D03*
X270577289Y-97448238D03*
%TO.N,/1A_P*%
X275484880Y-88237432D03*
X277048131Y-89759291D03*
%TO.N,/1B_P*%
X271815410Y-98792901D03*
X272997336Y-100174376D03*
%TO.N,/1A_P*%
X278562967Y-91345608D03*
X280011183Y-92977318D03*
%TO.N,/1B_P*%
X274134197Y-101605673D03*
X275212329Y-103069590D03*
%TO.N,/1A_P*%
X281406417Y-94669787D03*
X282731901Y-96402675D03*
%TO.N,/1B_P*%
X276241887Y-104579913D03*
X277210496Y-106118489D03*
%TO.N,/1A_P*%
X284000117Y-98192301D03*
X285195822Y-100017156D03*
%TO.N,/1B_P*%
X278127278Y-107699810D03*
X278981215Y-109304868D03*
%TO.N,/1A_P*%
X286330279Y-101894425D03*
X287389851Y-103801547D03*
%TO.N,/1B_P*%
X279780348Y-110948781D03*
X280515074Y-112611790D03*
%TO.N,/1A_P*%
X288384518Y-105756482D03*
X289302325Y-107735733D03*
%TO.N,/1B_P*%
X281192311Y-114309558D03*
X281803920Y-116021678D03*
%TO.N,/1A_P*%
X290151915Y-109757942D03*
X290923078Y-111798803D03*
%TO.N,/1B_P*%
X282355661Y-117764276D03*
X282840902Y-119516406D03*
%TO.N,/1A_P*%
X291623075Y-113877538D03*
X292243495Y-115969160D03*
%TO.N,/1B_P*%
X283264214Y-121294571D03*
X283620509Y-123077399D03*
%TO.N,/1A_P*%
X292790180Y-118093370D03*
X293256558Y-120224637D03*
%TO.N,/1B_P*%
X283913142Y-124881680D03*
X284138596Y-126685729D03*
%TO.N,/1A_P*%
X293647024Y-122383032D03*
X293956883Y-124542614D03*
%TO.N,/1B_P*%
X284298994Y-128506535D03*
X284392410Y-130322216D03*
%TO.N,/1A_P*%
X294189054Y-126723721D03*
X294340746Y-128900139D03*
X294413250Y-131083053D03*
%TO.N,/1B_P*%
X284420000Y-132166556D03*
X284420000Y-134166556D03*
%TO.N,/1A_P*%
X294420000Y-133166556D03*
%TO.N,/1B_P*%
X284420000Y-136177311D03*
X284420000Y-138177311D03*
%TO.N,/1A_P*%
X294420000Y-135177311D03*
X294420000Y-137177311D03*
%TO.N,/1B_P*%
X284420000Y-140188067D03*
X284420000Y-142188067D03*
%TO.N,/1A_P*%
X294420000Y-139188067D03*
X294420000Y-141188067D03*
%TO.N,/1B_P*%
X284420000Y-144198822D03*
X284420000Y-146198822D03*
%TO.N,/1A_P*%
X294420000Y-143198822D03*
X294420000Y-145198822D03*
%TO.N,/1B_P*%
X284420000Y-148209578D03*
X284420000Y-150209578D03*
%TO.N,/1A_P*%
X294420000Y-147209578D03*
X294420000Y-149209578D03*
%TO.N,/1B_P*%
X284420000Y-152220334D03*
X284420000Y-154220334D03*
%TO.N,/1A_P*%
X294420000Y-151220334D03*
X294420000Y-153220334D03*
%TO.N,/1B_P*%
X284420000Y-156231089D03*
X284420000Y-158231089D03*
%TO.N,/1A_P*%
X294420000Y-155231089D03*
X294420000Y-157231089D03*
%TO.N,/1B_P*%
X284420000Y-160238469D03*
%TO.N,/1A_P*%
X294420000Y-159238469D03*
X294420000Y-161238469D03*
%TO.N,/1B_P*%
X284419338Y-162213084D03*
X284369136Y-163999569D03*
X284240091Y-165772510D03*
%TO.N,/1A_P*%
X294400101Y-163393479D03*
X294288079Y-165612693D03*
%TO.N,/1B_P*%
X284031073Y-167547435D03*
X283744731Y-169301853D03*
%TO.N,/1A_P*%
X294076171Y-167836607D03*
X293767062Y-170037041D03*
%TO.N,/1B_P*%
X283378557Y-171051128D03*
X282937191Y-172773095D03*
%TO.N,/1A_P*%
X293358045Y-172233266D03*
X292854302Y-174397452D03*
%TO.N,/1B_P*%
X282416768Y-174482833D03*
X281823882Y-176158679D03*
%TO.N,/1A_P*%
X292251422Y-176548552D03*
X291557044Y-178659310D03*
%TO.N,/1B_P*%
X281153340Y-177815308D03*
X280413640Y-179431730D03*
%TO.N,/1A_P*%
X290765088Y-180748210D03*
X289885588Y-182788783D03*
%TO.N,/1B_P*%
X279598304Y-181022099D03*
X278717662Y-182566263D03*
%TO.N,/1A_P*%
X288910843Y-184798900D03*
X287853203Y-186753090D03*
%TO.N,/1B_P*%
X277764003Y-184077746D03*
X276749411Y-185537396D03*
%TO.N,/1A_P*%
X286703406Y-188668466D03*
X285476021Y-190520758D03*
%TO.N,/1B_P*%
X275665001Y-186957995D03*
X274524513Y-188321542D03*
%TO.N,/1A_P*%
X284160301Y-192326188D03*
X282772916Y-194061878D03*
%TO.N,/1B_P*%
X273317959Y-189639978D03*
X272060629Y-190896598D03*
%TO.N,/1A_P*%
X281301716Y-195743030D03*
X279765344Y-197348340D03*
%TO.N,/1B_P*%
X270741510Y-192102406D03*
X269377319Y-193242124D03*
%TO.N,/1A_P*%
X278150345Y-198891867D03*
X276477183Y-200354053D03*
%TO.N,/1B_P*%
X267956107Y-194325731D03*
X266495885Y-195339498D03*
%TO.N,/1A_P*%
X274731205Y-201747702D03*
X272934535Y-203055156D03*
%TO.N,/1B_P*%
X264983862Y-196292302D03*
X263439200Y-197172070D03*
%TO.N,/1A_P*%
X271071439Y-204287865D03*
X269165524Y-205430207D03*
%TO.N,/1B_P*%
X261848371Y-197986508D03*
X260231532Y-198725294D03*
%TO.N,/1A_P*%
X267200099Y-206492189D03*
X265200070Y-207460352D03*
%TO.N,/1B_P*%
X258574523Y-199394899D03*
X256898343Y-199986838D03*
%TO.N,/1A_P*%
X263147920Y-208343176D03*
X261069652Y-209129473D03*
%TO.N,/1B_P*%
X255188310Y-200506294D03*
X253466094Y-200946687D03*
%TO.N,/1A_P*%
X258947068Y-209826131D03*
X256807061Y-210424321D03*
%TO.N,/1B_P*%
X251716612Y-201311872D03*
X249962033Y-201597222D03*
%TO.N,/1A_P*%
X254630892Y-210929283D03*
X252446135Y-211334617D03*
%TO.N,/1B_P*%
X248186990Y-201805237D03*
X246413976Y-201933279D03*
%TO.N,/1A_P*%
X250233657Y-211643873D03*
X248021493Y-211853133D03*
%TO.N,/1B_P*%
X244627464Y-201982471D03*
X242850090Y-201952190D03*
%TO.N,/1A_P*%
X245790270Y-211964230D03*
X243568261Y-211975754D03*
%TO.N,/1B_P*%
X241066290Y-201842169D03*
X239298667Y-201653804D03*
%TO.N,/1A_P*%
X241336006Y-211887809D03*
X239121790Y-211701507D03*
%TO.N,/1B_P*%
X237531740Y-201385444D03*
X235787899Y-201040491D03*
%TO.N,/1A_P*%
X236906223Y-211415217D03*
X234717379Y-211032568D03*
%TO.N,/1B_P*%
X234051873Y-200615922D03*
X232345658Y-200117119D03*
%TO.N,/1A_P*%
X232536089Y-210550207D03*
X230389993Y-209974247D03*
%TO.N,/1B_P*%
X230654313Y-199539712D03*
X228999269Y-198891018D03*
%TO.N,/1A_P*%
X228260296Y-209299645D03*
X226173984Y-208534947D03*
%TO.N,/1B_P*%
X227366033Y-198165356D03*
X225775298Y-197371922D03*
%TO.N,/1A_P*%
X224112787Y-207673458D03*
X222102822Y-206726094D03*
%TO.N,/1B_P*%
X224213136Y-196503766D03*
X222699339Y-195571890D03*
%TO.N,/1A_P*%
X220126487Y-205684557D03*
X218208825Y-204562046D03*
%TO.N,/1B_P*%
X221220651Y-194568132D03*
X219795809Y-193505212D03*
%TO.N,/1A_P*%
X216333042Y-203348730D03*
X214522906Y-202059983D03*
%TO.N,/1B_P*%
X218412335Y-192373821D03*
X217087760Y-191188294D03*
%TO.N,/1A_P*%
X212762566Y-200684520D03*
X211074326Y-199239768D03*
%TO.N,/1B_P*%
X215810482Y-189938251D03*
X214596688Y-188639530D03*
%TO.N,/1A_P*%
X209443403Y-197713077D03*
X207890462Y-196123790D03*
%TO.N,/G1_P*%
X295750000Y-150400000D03*
X279800000Y-151300000D03*
%TO.N,/1A_P*%
X164300000Y-158550000D03*
X162350000Y-158450000D03*
%TO.N,VBUS*%
X181050000Y-126050000D03*
%TO.N,GND*%
X181200000Y-128000000D03*
X188500000Y-126100000D03*
X217550000Y-138700000D03*
X223850000Y-150750000D03*
X225850000Y-146750000D03*
%TO.N,VBUS*%
X223300000Y-154800000D03*
X223300000Y-146600000D03*
X216900000Y-142650000D03*
%TO.N,GND*%
X219450000Y-134500000D03*
%TO.N,VBUS*%
X216900000Y-134450000D03*
%TO.N,GND*%
X249050000Y-130000000D03*
X244900000Y-128150000D03*
%TO.N,VBUS*%
X249050000Y-127500000D03*
X240900000Y-127550000D03*
%TO.N,GND*%
X189900000Y-133050000D03*
X193700000Y-131450000D03*
%TO.N,VCC*%
X193700000Y-130600000D03*
%TO.N,GND*%
X197300000Y-137650000D03*
%TO.N,VCC*%
X196050000Y-136200000D03*
%TO.N,GND*%
X203250000Y-127100000D03*
X201800000Y-129050000D03*
%TO.N,VCC*%
X202500000Y-126500000D03*
X188500000Y-128000000D03*
%TO.N,Net-(C8-Pad2)*%
X203530000Y-144610000D03*
X208930000Y-144610000D03*
%TO.N,/1A_P*%
X203530000Y-143590000D03*
X208900000Y-143620000D03*
%TO.N,/REV1*%
X188670000Y-118700000D03*
%TO.N,/FWD1*%
X208160000Y-118520000D03*
%TO.N,/REV2*%
X162690000Y-118840000D03*
%TO.N,/REV1*%
X150200000Y-105800000D03*
X188600000Y-105450000D03*
%TO.N,/FWD1*%
X246400000Y-105350000D03*
X208650000Y-105350000D03*
X207770000Y-128290000D03*
%TO.N,/FWD2*%
X197450000Y-122200000D03*
%TO.N,/STOP*%
X198650000Y-117150000D03*
%TO.N,/REV1*%
X191200000Y-123350000D03*
%TO.N,/REV3*%
X176010000Y-118860000D03*
%TO.N,/FWD3*%
X234140000Y-118830000D03*
%TO.N,/FWD2*%
X220880000Y-118780000D03*
%TD*%
D11*
%TO.N,/G1_P*%
X295750000Y-150400000D02*
X293854578Y-150400000D01*
X293854578Y-150400000D02*
X293045000Y-151209578D01*
X284300000Y-151300000D02*
X284500000Y-151100000D01*
X285685422Y-151100000D02*
X285795000Y-151209578D01*
X279800000Y-151300000D02*
X284300000Y-151300000D01*
X284500000Y-151100000D02*
X285685422Y-151100000D01*
D12*
X130674002Y-78927849D02*
G75*
G02*
X134601142Y-77175462I23798026J-48055329D01*
G01*
X115647415Y-99446083D02*
X123661979Y-92321987D01*
X134601142Y-77175462D02*
G75*
G02*
X138656072Y-75743389I19870857J-49807718D01*
G01*
X147044335Y-73874901D02*
G75*
G02*
X151323724Y-73450502I7427644J-53108364D01*
G01*
X151323724Y-73450502D02*
G75*
G02*
X154471946Y-73358009I3148255J-53533520D01*
G01*
X240115190Y-73635299D02*
G75*
G02*
X244351165Y-74205311I-5695222J-58347925D01*
G01*
X248534351Y-75082432D02*
G75*
G02*
X252642514Y-76262003I-14114236J-56900160D01*
G01*
X264301186Y-81544877D02*
G75*
G02*
X267896604Y-83856016I-29881180J-50438129D01*
G01*
X267896604Y-83856016D02*
G75*
G02*
X271314080Y-86422968I-33476598J-48126984D01*
G01*
X168761713Y-163358009D02*
X162617979Y-163358009D01*
X274535451Y-89232089D02*
G75*
G02*
X277543592Y-92268448I-40115500J-42750964D01*
G01*
X174160454Y-170961745D02*
G75*
G03*
X170487724Y-170644028I-5398731J-41021217D01*
G01*
X285134918Y-102574037D02*
G75*
G02*
X287142819Y-106347196I-50715074J-29409056D01*
G01*
X293045000Y-147198822D02*
X293045000Y-131983009D01*
X260546939Y-79501836D02*
G75*
G02*
X264301186Y-81544877I-26127047J-52481364D01*
G01*
X159556363Y-80608009D02*
X234420000Y-80608009D01*
X292287903Y-122591715D02*
G75*
G02*
X292818341Y-126832826I-57868929J-9391424D01*
G01*
X288870476Y-110256618D02*
G75*
G02*
X290308710Y-114281525I-54450587J-21726436D01*
G01*
X293025975Y-163343074D02*
G75*
G02*
X292711986Y-167664091I-48605750J1360046D01*
G01*
X234420000Y-73358009D02*
X227739209Y-73358009D01*
X285789188Y-131210350D02*
G75*
G03*
X285596370Y-127469736I-51369726J-772687D01*
G01*
X138656072Y-75743390D02*
G75*
G02*
X142812712Y-74640839I15815805J-51239324D01*
G01*
X285596371Y-127469736D02*
G75*
G03*
X285131531Y-123753112I-51177139J-4513369D01*
G01*
X234420000Y-73358010D02*
G75*
G02*
X235848944Y-73375428I-95J-58630645D01*
G01*
X282136730Y-112943464D02*
G75*
G03*
X280622726Y-109517509I-47717160J-19039737D01*
G01*
X104227749Y-117782680D02*
G75*
G03*
X103483548Y-121351669I35191920J-9200258D01*
G01*
X283397101Y-116470621D02*
G75*
G03*
X282136730Y-112943464I-48976938J-15512331D01*
G01*
X278863137Y-106210968D02*
G75*
G03*
X276867316Y-103041414I-44442290J-25771503D01*
G01*
X266751486Y-92057258D02*
G75*
G03*
X263756640Y-89807754I-32332027J-39926472D01*
G01*
X263756640Y-89807754D02*
G75*
G03*
X260605858Y-87782428I-29336639J-42175269D01*
G01*
X260605858Y-87782429D02*
G75*
G03*
X257315889Y-85992045I-26185502J-44199905D01*
G01*
X112730093Y-151697165D02*
G75*
G03*
X115338059Y-154244718I26689915J24714161D01*
G01*
X283074493Y-191482512D02*
G75*
G02*
X280295314Y-194806055I-38654018J29499107D01*
G01*
X257315889Y-85992045D02*
G75*
G03*
X253904219Y-84446121I-22896079J-45991380D01*
G01*
X250388983Y-83152873D02*
G75*
G03*
X246788866Y-82119177I-15969106J-48830571D01*
G01*
X246788866Y-82119178D02*
G75*
G03*
X243123003Y-81350527I-12369043J-49864670D01*
G01*
X243123003Y-81350527D02*
G75*
G03*
X239410881Y-80851008I-8702974J-50632343D01*
G01*
X282857448Y-98957199D02*
G75*
G02*
X285134918Y-102574037I-48436678J-33025332D01*
G01*
X106765689Y-110956890D02*
G75*
G03*
X105325473Y-114306112I32654199J-16026067D01*
G01*
X138474989Y-170597773D02*
G75*
G02*
X134113856Y-170284112I945042J43615200D01*
G01*
X290308710Y-114281525D02*
G75*
G02*
X291449874Y-118400522I-55888619J-17701464D01*
G01*
X292711985Y-167664091D02*
G75*
G02*
X292014628Y-171940008I-48291505J5681011D01*
G01*
X274645870Y-100025697D02*
G75*
G03*
X272210609Y-97179845I-40224906J-31956496D01*
G01*
X235672230Y-80623273D02*
G75*
G03*
X234420000Y-80608009I-1252312J-51364401D01*
G01*
X115338059Y-154244717D02*
G75*
G03*
X118187939Y-156518414I24082077J27261887D01*
G01*
X287692647Y-184161121D02*
G75*
G02*
X285546814Y-187924786I-43273013J22178322D01*
G01*
X148048534Y-81055018D02*
G75*
G03*
X144389019Y-81717402I6423527J-45928639D01*
G01*
X142812712Y-74640839D02*
G75*
G02*
X147044335Y-73874902I11659232J-52342197D01*
G01*
X140794348Y-82670890D02*
G75*
G03*
X137287638Y-83909350I13677729J-44312474D01*
G01*
X228715686Y-208002192D02*
G75*
G02*
X224681856Y-206421690I15704460J46019561D01*
G01*
X137287638Y-83909350D02*
G75*
G03*
X133891440Y-85424817I17184557J-43074220D01*
G01*
X224681856Y-206421689D02*
G75*
G02*
X220804717Y-204488409I19738085J44438564D01*
G01*
X133891440Y-85424818D02*
G75*
G03*
X130627597Y-87207547I20580517J-41558192D01*
G01*
X130627596Y-87207546D02*
G75*
G03*
X127517095Y-89246071I23843979J-39774897D01*
G01*
X207755023Y-182765568D02*
X205726762Y-180392255D01*
X127517095Y-89246071D02*
G75*
G03*
X124579941Y-91527283I26954755J-37736812D01*
G01*
X124496784Y-160155862D02*
G75*
G03*
X127892373Y-161483073I14923077J33172479D01*
G01*
X124579942Y-91527284D02*
G75*
G03*
X123661980Y-92321988I29886357J-35449229D01*
G01*
X115253691Y-99796063D02*
G75*
G03*
X112980331Y-102001328I24166197J-27186832D01*
G01*
X218231128Y-194014770D02*
G75*
G03*
X221186224Y-196218696I26189196J32032207D01*
G01*
X110612440Y-104773440D02*
G75*
G03*
X108533932Y-107768656I28807813J-22209753D01*
G01*
X105325472Y-114306112D02*
G75*
G03*
X104227749Y-117782680I34094570J-12676914D01*
G01*
X256653817Y-77737753D02*
G75*
G02*
X260546939Y-79501836I-22233690J-54244988D01*
G01*
X291449875Y-118400522D02*
G75*
G02*
X292287903Y-122591715I-57029893J-13582491D01*
G01*
X287142818Y-106347196D02*
G75*
G02*
X288870476Y-110256618I-52722027J-25635458D01*
G01*
X108533931Y-107768656D02*
G75*
G03*
X106765688Y-110956890I30886656J-19214673D01*
G01*
X235848944Y-73375427D02*
G75*
G02*
X240115190Y-73635298I-1428947J-58607671D01*
G01*
X285131531Y-123753112D02*
G75*
G03*
X284397140Y-120080232I-50712301J-8230045D01*
G01*
X253904219Y-84446120D02*
G75*
G03*
X250388983Y-83152873I-19484598J-47537922D01*
G01*
X274946296Y-189912131D02*
G75*
G03*
X277311099Y-187084129I-30526683J27929448D01*
G01*
X103483548Y-121351669D02*
G75*
G03*
X103100344Y-124977227I35936221J-5631316D01*
G01*
X205095623Y-179668344D02*
G75*
G02*
X205726762Y-180392255I-36339166J-32319244D01*
G01*
X210413566Y-196738629D02*
G75*
G02*
X207454950Y-193573764I34006753J34755926D01*
G01*
X227739209Y-73358009D02*
X154471946Y-73358009D01*
X112980330Y-102001327D02*
G75*
G03*
X110612439Y-104773439I26439788J-24981780D01*
G01*
X256450611Y-201570318D02*
G75*
G03*
X259926522Y-200342342I-12030750J39587710D01*
G01*
X212966450Y-188863573D02*
G75*
G03*
X215483935Y-191556556I31453166J26880203D01*
G01*
X107410455Y-156623010D02*
G75*
G02*
X104604237Y-153269950I32009848J29640253D01*
G01*
X232874186Y-209217370D02*
G75*
G02*
X228715686Y-208002192I11545783J47234255D01*
G01*
X252642514Y-76262004D02*
G75*
G02*
X256653817Y-77737753I-18222500J-55720968D01*
G01*
X177790325Y-171605111D02*
G75*
G03*
X174160454Y-170961745I-9028612J-40377879D01*
G01*
X270348357Y-203118285D02*
G75*
G02*
X266583992Y-205262890I-25928535J41135585D01*
G01*
X259926522Y-200342342D02*
G75*
G03*
X263279335Y-198809849I-15506438J38359152D01*
G01*
X285778812Y-163140288D02*
G75*
G03*
X285795000Y-161983009I-41363521J1157345D01*
G01*
X184806800Y-173845812D02*
G75*
G03*
X181348523Y-172569017I-16045179J-38137470D01*
G01*
X234595670Y-202174715D02*
G75*
G03*
X238212127Y-202889646I9824327J40191728D01*
G01*
X280622725Y-109517509D02*
G75*
G03*
X278863136Y-106210968I-46203147J-22465733D01*
G01*
X212966449Y-188863574D02*
X207755023Y-182765568D01*
X238212127Y-202889646D02*
G75*
G03*
X241877865Y-203279840I6207855J40906383D01*
G01*
X138632039Y-163349474D02*
G75*
G03*
X139420000Y-163358009I787885J36361421D01*
G01*
X284918257Y-170455417D02*
G75*
G03*
X285511637Y-166817040I-40498006J8472363D01*
G01*
X151749358Y-80687998D02*
G75*
G03*
X148048534Y-81055019I2722628J-46295361D01*
G01*
X108342001Y-145885350D02*
G75*
G03*
X110390239Y-148901347I31077870J18902246D01*
G01*
X198790073Y-173737902D02*
G75*
G02*
X202075077Y-176562530I-30028395J-38245137D01*
G01*
X269574478Y-94518983D02*
G75*
G03*
X266751486Y-92057258I-35155081J-37464715D01*
G01*
X282774270Y-177502046D02*
G75*
G03*
X284003380Y-174026536I-38354233J15519021D01*
G01*
X118187939Y-156518415D02*
G75*
G03*
X121251104Y-158495417I21232151J29535541D01*
G01*
X95839358Y-128949792D02*
G75*
G02*
X95861374Y-124577449I43580911J1966785D01*
G01*
X252879194Y-202484030D02*
G75*
G03*
X256450611Y-201570318I-8459214J40501083D01*
G01*
X227624818Y-199795871D02*
G75*
G03*
X231057204Y-201140720I16794906J37812167D01*
G01*
X131403763Y-162463715D02*
G75*
G03*
X134995679Y-163087939I8016265J35480837D01*
G01*
X279414795Y-184056861D02*
G75*
G03*
X281240684Y-180854359I-34994342J22073594D01*
G01*
X258558693Y-208507066D02*
G75*
G02*
X254361469Y-209580884I-14138662J46523941D01*
G01*
X272210610Y-97179844D02*
G75*
G03*
X269574478Y-94518983I-37790901J-34803440D01*
G01*
X293045000Y-161983009D02*
X293045000Y-155220334D01*
X154471946Y-80608009D02*
G75*
G03*
X151749358Y-80687997I25J-46375813D01*
G01*
X285511638Y-166817040D02*
G75*
G03*
X285778812Y-163140288I-41091751J4834047D01*
G01*
X272339160Y-192518417D02*
G75*
G03*
X274946296Y-189912131I-27919164J30535406D01*
G01*
X241877865Y-203279839D02*
G75*
G03*
X245563784Y-203342196I2542132J41296856D01*
G01*
X175106456Y-163773729D02*
G75*
G02*
X179372378Y-164529828I-6344643J-48208758D01*
G01*
X168761713Y-163358009D02*
G75*
G02*
X170790167Y-163400338I-6J-48624352D01*
G01*
X144389019Y-81717402D02*
G75*
G03*
X140794348Y-82670890I10082899J-45265492D01*
G01*
X202075076Y-176562531D02*
G75*
G02*
X205095622Y-179668345I-33313361J-35420482D01*
G01*
X139420000Y-170608009D02*
X146574957Y-170608009D01*
X277311099Y-187084129D02*
G75*
G03*
X279414795Y-184056861I-32891582J25101455D01*
G01*
X293038369Y-131101313D02*
G75*
G02*
X293045000Y-131983009I-58637207J-881868D01*
G01*
X126899907Y-80989280D02*
G75*
G02*
X130674002Y-78927850I27572249J-45994111D01*
G01*
X170790167Y-163400338D02*
G75*
G02*
X175106456Y-163773728I-2028391J-48581936D01*
G01*
X281240684Y-180854359D02*
G75*
G03*
X282774271Y-177502046I-36820554J18871289D01*
G01*
X266482432Y-196985005D02*
G75*
G03*
X269510386Y-194882297I-22062328J35001844D01*
G01*
X269510386Y-194882296D02*
G75*
G03*
X272339159Y-192518416I-25090401J32899308D01*
G01*
X292014628Y-171940008D02*
G75*
G02*
X290939441Y-176136882I-47594729J9957017D01*
G01*
X231057204Y-201140720D02*
G75*
G03*
X234595670Y-202174715I13362853J39157884D01*
G01*
X134995679Y-163087939D02*
G75*
G03*
X138632039Y-163349473I4424332J36105076D01*
G01*
X244351165Y-74205311D02*
G75*
G02*
X248534351Y-75082433I-9931131J-57777550D01*
G01*
X285795000Y-151209578D02*
X285795000Y-161983009D01*
X263279335Y-198809848D02*
G75*
G03*
X266482432Y-196985004I-18859466J36827060D01*
G01*
X213642142Y-199627586D02*
G75*
G02*
X210413566Y-196738629I30778157J37644903D01*
G01*
X285794999Y-131983009D02*
G75*
G03*
X285789188Y-131210350I-51389438J-137D01*
G01*
X195266687Y-171216884D02*
G75*
G02*
X198790073Y-173737902I-26505210J-40766459D01*
G01*
X116826100Y-88698160D02*
X110437039Y-94377357D01*
X191532891Y-169019489D02*
G75*
G02*
X195266687Y-171216884I-22771302J-42963730D01*
G01*
X292818340Y-126832826D02*
G75*
G02*
X293038368Y-131101313I-58398689J-5150196D01*
G01*
X187618326Y-167163162D02*
G75*
G02*
X191532891Y-169019490I-18856780J-44820192D01*
G01*
X183554067Y-165662637D02*
G75*
G02*
X187618326Y-167163161I-14792483J-46320730D01*
G01*
X277543592Y-92268448D02*
G75*
G02*
X280322515Y-95515905I-43122972J-39714033D01*
G01*
X170487724Y-170644027D02*
G75*
G03*
X168761713Y-170608009I-1726044J-41339464D01*
G01*
X179372378Y-164529828D02*
G75*
G02*
X183554067Y-165662637I-10610593J-47452917D01*
G01*
X115253691Y-99796062D02*
X115647415Y-99446083D01*
X224325762Y-198150843D02*
G75*
G03*
X227624818Y-199795870I20094395J36168154D01*
G01*
X221186224Y-196218696D02*
G75*
G03*
X224325762Y-198150843I23233835J34235780D01*
G01*
X154471946Y-80608009D02*
X159556363Y-80608009D01*
X127892373Y-161483073D02*
G75*
G03*
X131403763Y-162463715I11527607J34500016D01*
G01*
X285795000Y-131983009D02*
X285795000Y-139177311D01*
X215483934Y-191556557D02*
G75*
G03*
X218231128Y-194014769I28935985J29573443D01*
G01*
X249240623Y-203076223D02*
G75*
G03*
X252879194Y-202484030I-4820587J41093010D01*
G01*
X266583992Y-205262890D02*
G75*
G02*
X262643677Y-207063917I-22163988J43279864D01*
G01*
X284003381Y-174026536D02*
G75*
G03*
X284918258Y-170455417I-39583050J12043443D01*
G01*
X103081987Y-128622934D02*
G75*
G03*
X103428661Y-132252167I36337850J1639914D01*
G01*
X220804717Y-204488410D02*
G75*
G02*
X217115049Y-202217700I23615350J42505511D01*
G01*
X106605953Y-142679472D02*
G75*
G03*
X108342000Y-145885350I32813728J15696298D01*
G01*
X98529999Y-111779446D02*
G75*
G02*
X100257270Y-107762680I40889993J-15203565D01*
G01*
X284397139Y-120080232D02*
G75*
G03*
X283397100Y-116470621I-49977893J-11902989D01*
G01*
X121251104Y-158495416D02*
G75*
G03*
X124496784Y-160155862I18168945J31512510D01*
G01*
X197108046Y-181843732D02*
G75*
G03*
X194312837Y-179440257I-28346278J-30139207D01*
G01*
X245563784Y-203342197D02*
G75*
G03*
X249240623Y-203076223I-1143762J41358820D01*
G01*
X105199538Y-139315915D02*
G75*
G03*
X106605953Y-142679472I34220341J12332849D01*
G01*
X280322514Y-95515906D02*
G75*
G02*
X282857447Y-98957200I-45902792J-36467299D01*
G01*
X139420000Y-170608008D02*
G75*
G02*
X138474989Y-170597772I-124J43616497D01*
G01*
X276867316Y-103041414D02*
G75*
G03*
X274645871Y-100025696I-42447457J-28941699D01*
G01*
X239410881Y-80851007D02*
G75*
G03*
X235672230Y-80623273I-4990820J-51130909D01*
G01*
X289494959Y-180221394D02*
G75*
G02*
X287692647Y-184161121I-45075507J18238634D01*
G01*
X110390238Y-148901347D02*
G75*
G03*
X112730093Y-151697165I29029758J21918331D01*
G01*
X104136883Y-135828469D02*
G75*
G03*
X105199539Y-139315915I35283385J8845540D01*
G01*
X103428660Y-132252167D02*
G75*
G03*
X104136882Y-135828469I35991171J5269125D01*
G01*
X103100344Y-124977227D02*
G75*
G03*
X103081987Y-128622934I36319743J-2005788D01*
G01*
X293045000Y-155220334D02*
X293045000Y-151209578D01*
X271314080Y-86422967D02*
G75*
G02*
X274535451Y-89232089I-36894015J-45559968D01*
G01*
X194312837Y-179440257D02*
G75*
G03*
X191314789Y-177295124I-25551087J-32542710D01*
G01*
X123303128Y-83346496D02*
G75*
G02*
X126899907Y-80989280I31169211J-43637121D01*
G01*
X119906797Y-85984339D02*
G75*
G02*
X123303128Y-83346495I34565595J-40999225D01*
G01*
X118845327Y-86903282D02*
G75*
G02*
X119906797Y-85984339I35622203J-40074643D01*
G01*
X107710568Y-97022160D02*
G75*
G02*
X110437039Y-94377357I31709427J-29960840D01*
G01*
X104870725Y-100346790D02*
G75*
G02*
X107710568Y-97022160I34549385J-26636315D01*
G01*
X102377945Y-103938992D02*
G75*
G02*
X104870725Y-100346790I37041831J-23043860D01*
G01*
X100257269Y-107762680D02*
G75*
G02*
X102377945Y-103938992I39162888J-19220414D01*
G01*
X97213486Y-115948937D02*
G75*
G02*
X98529998Y-111779446I42206506J-11034067D01*
G01*
X96320956Y-120229271D02*
G75*
G02*
X97213486Y-115948937I43099232J-6753777D01*
G01*
X95861375Y-124577449D02*
G75*
G02*
X96320957Y-120229271I43558984J-2405603D01*
G01*
X96255128Y-133302377D02*
G75*
G02*
X95839358Y-128949792I43165015J6319382D01*
G01*
X97104509Y-137591482D02*
G75*
G02*
X96255129Y-133302377I42315192J10608417D01*
G01*
X98378965Y-141774020D02*
G75*
G02*
X97104508Y-137591482I41041032J14791010D01*
G01*
X100065696Y-145807976D02*
G75*
G02*
X98378965Y-141774020I39354171J18824903D01*
G01*
X102147759Y-149652827D02*
G75*
G02*
X100065696Y-145807976I37272267J22669836D01*
G01*
X104604237Y-153269950D02*
G75*
G02*
X102147759Y-149652827I34815933J26287053D01*
G01*
X110538222Y-159678322D02*
G75*
G02*
X107410455Y-156623010I28882173J32695713D01*
G01*
X113956121Y-162405196D02*
G75*
G02*
X110538223Y-159678322I25463910J35422239D01*
G01*
X285795000Y-139177311D02*
X285795000Y-147198822D01*
X117629812Y-164776240D02*
G75*
G02*
X113956120Y-162405196I21790237J37793287D01*
G01*
X217115049Y-202217700D02*
G75*
G02*
X213642142Y-199627586I27305172J40234990D01*
G01*
X121522397Y-166767635D02*
G75*
G02*
X117629812Y-164776241I17897899J39785210D01*
G01*
X125594771Y-168359375D02*
G75*
G02*
X121522397Y-166767635I13825190J41376277D01*
G01*
X129806025Y-169535472D02*
G75*
G02*
X125594771Y-168359375I9613923J42552274D01*
G01*
X134113856Y-170284112D02*
G75*
G02*
X129806025Y-169535472I5306136J43301014D01*
G01*
X181348523Y-172569017D02*
G75*
G03*
X177790325Y-171605110I-12586592J-39413180D01*
G01*
X273906889Y-200647126D02*
G75*
G02*
X270348357Y-203118284I-29486784J38663970D01*
G01*
X188137703Y-175425362D02*
G75*
G03*
X184806800Y-173845813I-19375919J-36557498D01*
G01*
X191314789Y-177295124D02*
G75*
G03*
X188137703Y-175425361I-22553242J-34688164D01*
G01*
X199678226Y-184486470D02*
G75*
G03*
X197108045Y-181843733I-30916370J-27496388D01*
G01*
X200215264Y-185102445D02*
G75*
G03*
X199678227Y-184486469I-31438936J-26867856D01*
G01*
X237124342Y-210057576D02*
G75*
G02*
X232874186Y-209217369I7295786J48075196D01*
G01*
X241432415Y-210516142D02*
G75*
G02*
X237124342Y-210057577I2987589J48533223D01*
G01*
X245764206Y-210589425D02*
G75*
G02*
X241432415Y-210516141I-1344215J48605858D01*
G01*
X250085325Y-210276847D02*
G75*
G02*
X245764206Y-210589426I-5665319J48293802D01*
G01*
X254361469Y-209580885D02*
G75*
G02*
X250085325Y-210276847I-9941442J47597644D01*
G01*
X262643677Y-207063917D02*
G75*
G02*
X258558693Y-208507067I-18223766J45081179D01*
G01*
X277231339Y-197869032D02*
G75*
G02*
X273906889Y-200647127I-32811245J35885905D01*
G01*
X280295314Y-194806055D02*
G75*
G02*
X277231339Y-197869031I-35874881J32822607D01*
G01*
X285546814Y-187924786D02*
G75*
G02*
X283074494Y-191482512I-41126441J25941524D01*
G01*
X290939441Y-176136882D02*
G75*
G02*
X289494958Y-180221394I-46519531J14153904D01*
G01*
X293045000Y-161983009D02*
G75*
G02*
X293025975Y-163343074I-48631439J106D01*
G01*
X285795000Y-147198822D02*
X293045000Y-147198822D01*
X162617979Y-163358009D02*
X139420000Y-163358009D01*
X118845327Y-86903282D02*
X116826100Y-88698160D01*
X146574957Y-170608009D02*
X168761713Y-170608009D01*
X200215264Y-185102445D02*
X202243524Y-187475757D01*
X202243524Y-187475757D02*
X207454950Y-193573764D01*
D11*
%TO.N,VCC*%
X186900000Y-130400000D02*
X177200000Y-130400000D01*
%TO.N,/SWCLK*%
X199800000Y-140100000D02*
X204600000Y-140100000D01*
X199100000Y-140800000D02*
X199800000Y-140100000D01*
%TO.N,/SWDIO*%
X200300000Y-140900000D02*
X206600000Y-140900000D01*
D13*
%TO.N,/1B_P*%
X212057448Y-185683510D02*
X213360304Y-187208012D01*
%TO.N,/1A_P*%
X205106810Y-192942574D02*
X206409666Y-194467076D01*
%TO.N,/1B_P*%
X209451735Y-182634507D02*
X210754591Y-184159008D01*
%TO.N,/1A_P*%
X202501097Y-189893571D02*
X203803953Y-191418072D01*
%TO.N,/1B_P*%
X206846022Y-179585504D02*
X208148878Y-181110005D01*
%TO.N,/1A_P*%
X199895384Y-186844568D02*
X201198240Y-188369069D01*
%TO.N,/1B_P*%
X205373451Y-177930394D02*
G75*
G03*
X203820086Y-176333178I-36612318J-34053173D01*
G01*
%TO.N,/1A_P*%
X198650790Y-185400251D02*
G75*
G03*
X197436876Y-184095108I-29889187J-26582842D01*
G01*
%TO.N,/1B_P*%
X202197108Y-174806749D02*
G75*
G03*
X200507740Y-173354138I-33434011J-37174664D01*
G01*
%TO.N,/1A_P*%
X196166023Y-182845340D02*
G75*
G03*
X194840756Y-181653428I-27404334J-29137693D01*
G01*
%TO.N,/1B_P*%
X198755337Y-171978228D02*
G75*
G03*
X196943378Y-170681753I-29995175J-40006946D01*
G01*
%TO.N,/1A_P*%
X193463706Y-180521740D02*
G75*
G03*
X192037607Y-179452520I-24702882J-31462430D01*
G01*
%TO.N,/1B_P*%
X195075461Y-169467287D02*
G75*
G03*
X193155295Y-168337240I-26314655J-42517244D01*
G01*
%TO.N,/1A_P*%
X190565291Y-178447895D02*
G75*
G03*
X189049681Y-177509856I-21803522J-33535003D01*
G01*
%TO.N,/1B_P*%
X191186693Y-167293858D02*
G75*
G03*
X189173563Y-166339211I-22424345J-44687827D01*
G01*
%TO.N,/1A_P*%
X187493788Y-176640268D02*
G75*
G03*
X185900699Y-175840858I-18731653J-35341934D01*
G01*
%TO.N,/1B_P*%
X187119903Y-165475194D02*
G75*
G03*
X185029791Y-164703525I-18358654J-46509090D01*
G01*
%TO.N,/1A_P*%
X184273580Y-175113212D02*
G75*
G03*
X182615659Y-174458776I-15511375J-36868545D01*
G01*
%TO.N,/1B_P*%
X182907377Y-164025736D02*
G75*
G03*
X180756874Y-163443170I-14146033J-47958622D01*
G01*
%TO.N,/1A_P*%
X180930230Y-173878848D02*
G75*
G03*
X179220639Y-173374580I-12169560J-38107665D01*
G01*
%TO.N,/1B_P*%
X178582554Y-162956985D02*
G75*
G03*
X176388734Y-162568148I-9820642J-49024913D01*
G01*
%TO.N,/1A_P*%
X177490281Y-172946974D02*
G75*
G03*
X175742591Y-172596879I-8728687J-39036674D01*
G01*
%TO.N,/1B_P*%
X174179769Y-162277431D02*
G75*
G03*
X171960046Y-162085409I-5418040J-49705378D01*
G01*
%TO.N,/1A_P*%
X173981039Y-172324988D02*
G75*
G03*
X172209124Y-172131844I-5219433J-39659004D01*
G01*
%TO.N,/1B_P*%
X169733972Y-161992463D02*
G75*
G03*
X168761713Y-161983009I-972344J-49998047D01*
G01*
%TO.N,/1A_P*%
X170430364Y-172017830D02*
G75*
G03*
X168761713Y-171983009I-1668648J-39964024D01*
G01*
%TO.N,/1B_P*%
X167631424Y-161983009D02*
X168761713Y-161983009D01*
%TO.N,/1A_P*%
X168634112Y-171983009D02*
X168761713Y-171983009D01*
%TO.N,/1B_P*%
X163620668Y-161983009D02*
X165626046Y-161983009D01*
%TO.N,/1A_P*%
X164623357Y-171983009D02*
X166628735Y-171983009D01*
%TO.N,/1B_P*%
X159609912Y-161983009D02*
X161615290Y-161983009D01*
%TO.N,/1A_P*%
X160612601Y-171983009D02*
X162617979Y-171983009D01*
%TO.N,/1B_P*%
X155599157Y-161983009D02*
X157604534Y-161983009D01*
%TO.N,/1A_P*%
X156601846Y-171983009D02*
X158607223Y-171983009D01*
%TO.N,/1B_P*%
X151588401Y-161983009D02*
X153593779Y-161983009D01*
%TO.N,/1A_P*%
X152591090Y-171983009D02*
X154596468Y-171983009D01*
%TO.N,/1B_P*%
X147577645Y-161983009D02*
X149583023Y-161983009D01*
%TO.N,/1A_P*%
X148580334Y-171983009D02*
X150585712Y-171983009D01*
%TO.N,/1B_P*%
X143566890Y-161983009D02*
X145572268Y-161983009D01*
%TO.N,/1A_P*%
X144569579Y-171983009D02*
X146574957Y-171983009D01*
%TO.N,/1B_P*%
X139556134Y-161983009D02*
X141561512Y-161983009D01*
%TO.N,/1A_P*%
X140558823Y-171983009D02*
X142564201Y-171983009D01*
%TO.N,/1B_P*%
X137785008Y-161944799D02*
G75*
G02*
X136035007Y-161818936I1635044J34962632D01*
G01*
%TO.N,/1A_P*%
X138445203Y-171972449D02*
G75*
G02*
X136191852Y-171867071I974704J44987552D01*
G01*
%TO.N,/1B_P*%
X134293511Y-161605532D02*
G75*
G02*
X132564899Y-161305123I5126167J34620555D01*
G01*
%TO.N,/1A_P*%
X133946613Y-171648903D02*
G75*
G02*
X131715128Y-171318491I5473336J44665493D01*
G01*
%TO.N,/1B_P*%
X130853512Y-160918467D02*
G75*
G02*
X129163653Y-160446532I8566547J33935670D01*
G01*
%TO.N,/1A_P*%
X129503006Y-170876667D02*
G75*
G02*
X127315804Y-170324542I9916904J43893355D01*
G01*
%TO.N,/1B_P*%
X127499568Y-159890504D02*
G75*
G02*
X125865437Y-159251783I11919941J32906258D01*
G01*
%TO.N,/1A_P*%
X125159019Y-169663501D02*
G75*
G02*
X123038071Y-168895208I14260482J42679145D01*
G01*
%TO.N,/1B_P*%
X124265369Y-158531973D02*
G75*
G02*
X122703383Y-157732882I15154403J31548521D01*
G01*
%TO.N,/1A_P*%
X120958289Y-168021591D02*
G75*
G02*
X118924901Y-167044847I18461725J41038591D01*
G01*
%TO.N,/1B_P*%
X121183404Y-156856519D02*
G75*
G02*
X119709254Y-155905085I18236400J29873183D01*
G01*
%TO.N,/1A_P*%
X116943016Y-165967430D02*
G75*
G02*
X115017614Y-164792049I22476108J38983010D01*
G01*
%TO.N,/1B_P*%
X118284635Y-154880972D02*
G75*
G02*
X116913127Y-153786753I21135380J27897996D01*
G01*
%TO.N,/1A_P*%
X113153533Y-163521656D02*
G75*
G02*
X111355459Y-162159443I26267176J36539567D01*
G01*
%TO.N,/1B_P*%
X115598179Y-152625178D02*
G75*
G02*
X114343093Y-151399166I23821398J25641736D01*
G01*
%TO.N,/1A_P*%
X109627909Y-160708833D02*
G75*
G02*
X107975225Y-159173473I29791656J33725342D01*
G01*
%TO.N,/1B_P*%
X113151024Y-150111796D02*
G75*
G02*
X112024967Y-148766307I26269122J23128915D01*
G01*
%TO.N,/1A_P*%
X106401559Y-157557221D02*
G75*
G02*
X104910867Y-155864138I33019195J30574872D01*
G01*
%TO.N,/1B_P*%
X110967751Y-147366078D02*
G75*
G02*
X109982035Y-145914627I28453216J20383735D01*
G01*
%TO.N,/1A_P*%
X103506892Y-154098479D02*
G75*
G02*
X102193166Y-152264679I35916210J27117683D01*
G01*
%TO.N,/1B_P*%
X109070295Y-144415602D02*
G75*
G02*
X108234821Y-142872771I30348835J17432133D01*
G01*
%TO.N,/1A_P*%
X100972989Y-150367349D02*
G75*
G02*
X99849427Y-148411255I38447307J23384500D01*
G01*
%TO.N,/1B_P*%
X107477712Y-141290009D02*
G75*
G02*
X106800874Y-139671294I31943122J14307332D01*
G01*
%TO.N,/1A_P*%
X98825304Y-146401313D02*
G75*
G02*
X97903192Y-144342574I40594559J19418236D01*
G01*
%TO.N,/1B_P*%
X106206005Y-138020695D02*
G75*
G02*
X105694601Y-136342359I33213448J11037517D01*
G01*
%TO.N,/1A_P*%
X97085408Y-142240212D02*
G75*
G02*
X96374009Y-140099510I42334963J15257330D01*
G01*
%TO.N,/1B_P*%
X105267948Y-134640503D02*
G75*
G02*
X104927115Y-132919405I34150833J7657265D01*
G01*
%TO.N,/1A_P*%
X95770782Y-137925846D02*
G75*
G02*
X95277243Y-135724684I43650506J10943118D01*
G01*
%TO.N,/1B_P*%
X104672961Y-131183388D02*
G75*
G02*
X104506124Y-129436817I34746959J4200374D01*
G01*
%TO.N,/1A_P*%
X94894631Y-133501555D02*
G75*
G02*
X94623909Y-131262045I44524696J6518463D01*
G01*
%TO.N,/1B_P*%
X104427024Y-127684079D02*
G75*
G02*
X104435858Y-125929579I34994106J701075D01*
G01*
%TO.N,/1A_P*%
X94465757Y-129011782D02*
G75*
G02*
X94420572Y-126756421I44953868J2028761D01*
G01*
%TO.N,/1B_P*%
X104532605Y-124177727D02*
G75*
G02*
X104717022Y-122432924I34888287J-2805371D01*
G01*
%TO.N,/1A_P*%
X94488466Y-124501629D02*
G75*
G02*
X94669272Y-122253073I44933943J-2481583D01*
G01*
%TO.N,/1B_P*%
X104988646Y-120699555D02*
G75*
G02*
X105346793Y-118981976I34430319J-6283229D01*
G01*
%TO.N,/1A_P*%
X94962534Y-120016402D02*
G75*
G02*
X95367514Y-117797239I44457656J-6966642D01*
G01*
%TO.N,/1B_P*%
X105790564Y-117284504D02*
G75*
G02*
X106318844Y-115611402I33629942J-9698662D01*
G01*
%TO.N,/1A_P*%
X95883195Y-115601159D02*
G75*
G02*
X96508281Y-113433680I43534770J-11381253D01*
G01*
%TO.N,/1B_P*%
X106930306Y-113966877D02*
G75*
G02*
X107623412Y-112355061I32487761J-13015313D01*
G01*
%TO.N,/1A_P*%
X97241202Y-111300250D02*
G75*
G02*
X98080115Y-109206230I42178145J-15682489D01*
G01*
%TO.N,/1B_P*%
X108396419Y-110780004D02*
G75*
G02*
X109247387Y-109245664I31024490J-16203498D01*
G01*
%TO.N,/1A_P*%
X99022913Y-107156882D02*
G75*
G02*
X100067226Y-105157356I40398908J-19827078D01*
G01*
%TO.N,/1B_P*%
X110174178Y-107755897D02*
G75*
G02*
X111174461Y-106314446I29245146J-19226633D01*
G01*
%TO.N,/1A_P*%
X101210431Y-103212676D02*
G75*
G02*
X102449653Y-101327729I38207279J-23768813D01*
G01*
%TO.N,/1B_P*%
X112245725Y-104924935D02*
G75*
G02*
X113385274Y-103590854I27174753J-22058473D01*
G01*
%TO.N,/1A_P*%
X103781780Y-99507253D02*
G75*
G02*
X105203463Y-97755821I35637411J-27475090D01*
G01*
%TO.N,/1B_P*%
X114590248Y-102315555D02*
G75*
G02*
X115857617Y-101102245I24830164J-24667898D01*
G01*
%TO.N,/1A_P*%
X106711130Y-96077836D02*
G75*
G02*
X108300992Y-94477513I32707572J-30903873D01*
G01*
%TO.N,/1B_P*%
X118809170Y-98475311D02*
X117310336Y-99807616D01*
%TO.N,/1A_P*%
X111416094Y-91667389D02*
X109917259Y-92999693D01*
%TO.N,/1B_P*%
X121806839Y-95810702D02*
X120308004Y-97143007D01*
%TO.N,/1A_P*%
X114413763Y-89002780D02*
X112914928Y-90335084D01*
%TO.N,/1B_P*%
X124575482Y-93349672D02*
X123305673Y-94478398D01*
%TO.N,/1A_P*%
X117411431Y-86338170D02*
X115912597Y-87670475D01*
%TO.N,/1B_P*%
X124575482Y-93349672D02*
G75*
G02*
X124782165Y-93167084I29875899J-33610162D01*
G01*
X126161952Y-92003813D02*
G75*
G02*
X127587273Y-90896803I28311936J-34981699D01*
G01*
%TO.N,/1A_P*%
X119020511Y-84933091D02*
G75*
G02*
X120735088Y-83545418I35451818J-42050373D01*
G01*
%TO.N,/1B_P*%
X129055835Y-89847835D02*
G75*
G02*
X130565277Y-88858594I25416973J-37136491D01*
G01*
%TO.N,/1A_P*%
X122503928Y-82227611D02*
G75*
G02*
X124324185Y-80981788I31970659J-44759255D01*
G01*
%TO.N,/1B_P*%
X132113170Y-87930672D02*
G75*
G02*
X133697025Y-87065562I22358853J-39052463D01*
G01*
%TO.N,/1A_P*%
X126192932Y-79809954D02*
G75*
G02*
X128107163Y-78713992I28277398J-47170216D01*
G01*
%TO.N,/1B_P*%
X135314294Y-86264657D02*
G75*
G02*
X136962376Y-85529242I19157785J-40718635D01*
G01*
%TO.N,/1A_P*%
X130063799Y-77695666D02*
G75*
G02*
X132059693Y-76756615I24408240J-49287583D01*
G01*
%TO.N,/1B_P*%
X138638621Y-84860500D02*
G75*
G02*
X140340331Y-84259509I15834656J-42126236D01*
G01*
%TO.N,/1A_P*%
X134091635Y-75898347D02*
G75*
G02*
X136156356Y-75122244I20380599J-51085417D01*
G01*
%TO.N,/1B_P*%
X142064772Y-83727236D02*
G75*
G02*
X143809168Y-83264534I12407739J-43257875D01*
G01*
%TO.N,/1A_P*%
X138250537Y-74429554D02*
G75*
G02*
X140370807Y-73821390I16221615J-52554080D01*
G01*
%TO.N,/1B_P*%
X145570714Y-82872148D02*
G75*
G02*
X147346577Y-82550711I8901597J-44112879D01*
G01*
%TO.N,/1A_P*%
X142513758Y-73298731D02*
G75*
G02*
X144675943Y-72862419I11958021J-53683480D01*
G01*
%TO.N,/1B_P*%
X149133901Y-82300740D02*
G75*
G02*
X150929810Y-82122635I5338090J-44682730D01*
G01*
%TO.N,/1A_P*%
X146853883Y-72513155D02*
G75*
G02*
X149044077Y-72251500I7618000J-54469400D01*
G01*
%TO.N,/1B_P*%
X152731416Y-82016683D02*
G75*
G02*
X154471946Y-81983009I1740607J-44969099D01*
G01*
%TO.N,/1A_P*%
X151243000Y-72077875D02*
G75*
G02*
X153447118Y-71992559I3228947J-54904961D01*
G01*
%TO.N,/1B_P*%
X154542919Y-81983009D02*
X154471946Y-81983009D01*
X158553675Y-81983009D02*
X156548297Y-81983009D01*
%TO.N,/1A_P*%
X157550986Y-71983009D02*
X155545608Y-71983009D01*
%TO.N,/1B_P*%
X162564430Y-81983009D02*
X160559052Y-81983009D01*
%TO.N,/1A_P*%
X161561741Y-71983009D02*
X159556363Y-71983009D01*
%TO.N,/1B_P*%
X166575186Y-81983009D02*
X164569808Y-81983009D01*
%TO.N,/1A_P*%
X165572497Y-71983009D02*
X163567119Y-71983009D01*
%TO.N,/1B_P*%
X170585941Y-81983009D02*
X168580564Y-81983009D01*
%TO.N,/1A_P*%
X169583252Y-71983009D02*
X167577875Y-71983009D01*
%TO.N,/1B_P*%
X174596697Y-81983009D02*
X172591319Y-81983009D01*
%TO.N,/1A_P*%
X173594008Y-71983009D02*
X171588630Y-71983009D01*
%TO.N,/1B_P*%
X178607453Y-81983009D02*
X176602075Y-81983009D01*
%TO.N,/1A_P*%
X177604764Y-71983009D02*
X175599386Y-71983009D01*
%TO.N,/1B_P*%
X182618208Y-81983009D02*
X180612830Y-81983009D01*
%TO.N,/1A_P*%
X181615519Y-71983009D02*
X179610141Y-71983009D01*
%TO.N,/1B_P*%
X186628964Y-81983009D02*
X184623586Y-81983009D01*
%TO.N,/1A_P*%
X185626275Y-71983009D02*
X183620897Y-71983009D01*
%TO.N,/1B_P*%
X190639719Y-81983009D02*
X188634342Y-81983009D01*
%TO.N,/1A_P*%
X189637031Y-71983009D02*
X187631653Y-71983009D01*
%TO.N,/1B_P*%
X194650475Y-81983009D02*
X192645097Y-81983009D01*
%TO.N,/1A_P*%
X193647786Y-71983009D02*
X191642408Y-71983009D01*
%TO.N,/1B_P*%
X198661231Y-81983009D02*
X196655853Y-81983009D01*
%TO.N,/1A_P*%
X197658542Y-71983009D02*
X195653164Y-71983009D01*
%TO.N,/1B_P*%
X202671986Y-81983009D02*
X200666608Y-81983009D01*
%TO.N,/1A_P*%
X201669297Y-71983009D02*
X199663920Y-71983009D01*
%TO.N,/1B_P*%
X206682742Y-81983009D02*
X204677364Y-81983009D01*
%TO.N,/1A_P*%
X205680053Y-71983009D02*
X203674675Y-71983009D01*
%TO.N,/1B_P*%
X210693498Y-81983009D02*
X208688120Y-81983009D01*
%TO.N,/1A_P*%
X209690809Y-71983009D02*
X207685431Y-71983009D01*
%TO.N,/1B_P*%
X214704253Y-81983009D02*
X212698875Y-81983009D01*
%TO.N,/1A_P*%
X213701564Y-71983009D02*
X211696186Y-71983009D01*
%TO.N,/1B_P*%
X218715009Y-81983009D02*
X216709631Y-81983009D01*
%TO.N,/1A_P*%
X217712320Y-71983009D02*
X215706942Y-71983009D01*
%TO.N,/1B_P*%
X222725764Y-81983009D02*
X220720387Y-81983009D01*
%TO.N,/1A_P*%
X221723075Y-71983009D02*
X219717698Y-71983009D01*
%TO.N,/1B_P*%
X226736520Y-81983009D02*
X224731142Y-81983009D01*
%TO.N,/1A_P*%
X225733831Y-71983009D02*
X223728453Y-71983009D01*
%TO.N,/1B_P*%
X230747276Y-81983009D02*
X228741898Y-81983009D01*
%TO.N,/1A_P*%
X229744587Y-71983009D02*
X227739209Y-71983009D01*
%TO.N,/1B_P*%
X234420000Y-81983009D02*
X232752653Y-81983009D01*
%TO.N,/1A_P*%
X233755342Y-71983009D02*
X231749964Y-71983009D01*
%TO.N,/1B_P*%
X234420000Y-81983009D02*
G75*
G02*
X234727299Y-81983954I279J-49874138D01*
G01*
X236549727Y-82028387D02*
G75*
G02*
X238369324Y-82139225I-2129840J-49956331D01*
G01*
%TO.N,/1A_P*%
X235882459Y-72000836D02*
G75*
G02*
X238068037Y-72094015I-1462559J-59984048D01*
G01*
%TO.N,/1B_P*%
X240183672Y-82316321D02*
G75*
G02*
X241990357Y-82559436I-5763939J-49668797D01*
G01*
%TO.N,/1A_P*%
X240248766Y-72266802D02*
G75*
G02*
X242421747Y-72518970I-5828856J-59716980D01*
G01*
%TO.N,/1B_P*%
X243786980Y-82868250D02*
G75*
G02*
X245571151Y-83242352I-9366947J-49114530D01*
G01*
%TO.N,/1A_P*%
X244584092Y-72850182D02*
G75*
G02*
X246732925Y-73260000I-10164658J-59135688D01*
G01*
%TO.N,/1B_P*%
X247340499Y-83681244D02*
G75*
G02*
X249092672Y-84184342I-12920403J-48301504D01*
G01*
%TO.N,/1A_P*%
X248865391Y-73747877D02*
G75*
G02*
X250978655Y-74313165I-14444880J-58233261D01*
G01*
%TO.N,/1B_P*%
X250825341Y-84750978D02*
G75*
G02*
X252536203Y-85380400I-16405469J-47232386D01*
G01*
%TO.N,/1A_P*%
X253069907Y-74955114D02*
G75*
G02*
X255136369Y-75672869I-18649009J-57025289D01*
G01*
%TO.N,/1B_P*%
X254222982Y-86071770D02*
G75*
G02*
X255883438Y-86824170I-19803013J-45911272D01*
G01*
%TO.N,/1A_P*%
X257175292Y-76465475D02*
G75*
G02*
X259183968Y-77331881I-22755415J-55517823D01*
G01*
%TO.N,/1B_P*%
X257515363Y-87636599D02*
G75*
G02*
X259116588Y-88507977I-23096114J-44347786D01*
G01*
%TO.N,/1A_P*%
X261159724Y-78270933D02*
G75*
G02*
X263099936Y-79281385I-26738588J-53709871D01*
G01*
%TO.N,/1B_P*%
X260684983Y-89437144D02*
G75*
G02*
X262218465Y-90422869I-26265076J-42545975D01*
G01*
%TO.N,/1A_P*%
X265002023Y-80361893D02*
G75*
G02*
X266863459Y-81511020I-30580705J-51618964D01*
G01*
%TO.N,/1B_P*%
X263714995Y-91463838D02*
G75*
G02*
X265172583Y-92558669I-29294918J-40519066D01*
G01*
%TO.N,/1A_P*%
X268681769Y-82727238D02*
G75*
G02*
X270454535Y-84008931I-34262472J-49256775D01*
G01*
%TO.N,/1B_P*%
X266589292Y-93705907D02*
G75*
G02*
X267963239Y-94904025I-32166947J-38274434D01*
G01*
%TO.N,/1A_P*%
X272179399Y-85354396D02*
G75*
G02*
X273854071Y-86761844I-37760783J-46630244D01*
G01*
%TO.N,/1B_P*%
X269292598Y-96151433D02*
G75*
G02*
X270575599Y-97446470I-34872070J-35831055D01*
G01*
%TO.N,/1A_P*%
X275476325Y-88229402D02*
G75*
G02*
X277044002Y-89755123I-41056642J-43753918D01*
G01*
%TO.N,/1B_P*%
X271810541Y-98787418D02*
G75*
G02*
X272995779Y-100172490I-37390399J-33195456D01*
G01*
%TO.N,/1A_P*%
X278555019Y-91336976D02*
G75*
G02*
X280007369Y-92972860I-44135851J-40646783D01*
G01*
%TO.N,/1B_P*%
X274129740Y-101599849D02*
G75*
G02*
X275210915Y-103067595I-39712967J-30385555D01*
G01*
%TO.N,/1A_P*%
X281399120Y-94660600D02*
G75*
G02*
X282728422Y-96397951I-46982011J-37324638D01*
G01*
%TO.N,/1B_P*%
X276237867Y-104573779D02*
G75*
G02*
X277209231Y-106116397I-41814971J-27407412D01*
G01*
%TO.N,/1A_P*%
X283993508Y-98182606D02*
G75*
G02*
X285192697Y-100012191I-49573410J-33800346D01*
G01*
%TO.N,/1B_P*%
X278123715Y-107693399D02*
G75*
G02*
X278980105Y-109302690I-43705561J-24290583D01*
G01*
%TO.N,/1A_P*%
X286324394Y-101884274D02*
G75*
G02*
X287387095Y-103796368I-51904627J-30098843D01*
G01*
%TO.N,/1B_P*%
X279777263Y-110942129D02*
G75*
G02*
X280514127Y-112609537I-45357942J-21041187D01*
G01*
%TO.N,/1A_P*%
X288379388Y-105745929D02*
G75*
G02*
X289299953Y-107730367I-53961912J-26238242D01*
G01*
%TO.N,/1B_P*%
X281189718Y-114302698D02*
G75*
G02*
X281803139Y-116019361I-46769523J-17680241D01*
G01*
%TO.N,/1A_P*%
X290147567Y-109747044D02*
G75*
G02*
X290921103Y-111793279I-55729387J-22236647D01*
G01*
%TO.N,/1B_P*%
X282353575Y-117757245D02*
G75*
G02*
X282840292Y-119514039I-47932539J-14225453D01*
G01*
%TO.N,/1A_P*%
X291619533Y-113866351D02*
G75*
G02*
X292241928Y-115963506I-57204206J-18118036D01*
G01*
%TO.N,/1B_P*%
X283262645Y-121287408D02*
G75*
G02*
X283620072Y-123074994I-48839404J-10694943D01*
G01*
%TO.N,/1A_P*%
X292787461Y-118081956D02*
G75*
G02*
X293255407Y-120218884I-58364648J-13900431D01*
G01*
%TO.N,/1B_P*%
X283912099Y-124874421D02*
G75*
G02*
X284138336Y-126683298I-49493602J-7108772D01*
G01*
%TO.N,/1A_P*%
X293645145Y-122371450D02*
G75*
G02*
X293956154Y-124536792I-59225140J-9611539D01*
G01*
%TO.N,/1B_P*%
X284298483Y-128499220D02*
G75*
G02*
X284392327Y-130319772I-49879027J-3483809D01*
G01*
%TO.N,/1A_P*%
X294188023Y-126712033D02*
G75*
G02*
X294340444Y-128894280I-59765813J-5270843D01*
G01*
X294413213Y-131080633D02*
G75*
G02*
X294420000Y-131983009I-59979920J-902338D01*
G01*
%TO.N,/1B_P*%
X284420000Y-134163867D02*
X284420000Y-132158489D01*
%TO.N,/1A_P*%
X294420000Y-133161178D02*
X294420000Y-131983009D01*
X294420000Y-137171933D02*
X294420000Y-135166556D01*
%TO.N,/1B_P*%
X284420000Y-142185378D02*
X284420000Y-140180000D01*
%TO.N,/1A_P*%
X294420000Y-141182689D02*
X294420000Y-139177311D01*
%TO.N,/1B_P*%
X284420000Y-146196134D02*
X284420000Y-144190756D01*
%TO.N,/1A_P*%
X294420000Y-145193445D02*
X294420000Y-143188067D01*
%TO.N,/1B_P*%
X284420000Y-150206889D02*
X284420000Y-148201511D01*
%TO.N,/1A_P*%
X294420000Y-149204200D02*
X294420000Y-147198822D01*
%TO.N,/1B_P*%
X284420000Y-154217645D02*
X284420000Y-152212267D01*
%TO.N,/1A_P*%
X294420000Y-153214956D02*
X294420000Y-151209578D01*
%TO.N,/1B_P*%
X284420000Y-158228400D02*
X284420000Y-156223023D01*
%TO.N,/1A_P*%
X294420000Y-157225712D02*
X294420000Y-155220334D01*
%TO.N,/1B_P*%
X284420000Y-161983009D02*
X284420000Y-160233778D01*
%TO.N,/1A_P*%
X294420000Y-161236467D02*
X294420000Y-159231089D01*
%TO.N,/1B_P*%
X284420000Y-161983009D02*
G75*
G02*
X284419351Y-162210694I-38103314J-5233D01*
G01*
X284369497Y-163992407D02*
G75*
G02*
X284240317Y-165770131I-39948102J2009311D01*
G01*
%TO.N,/1A_P*%
X294400437Y-163381533D02*
G75*
G02*
X294288513Y-165606733I-49980468J1398523D01*
G01*
%TO.N,/1B_P*%
X284032070Y-167540334D02*
G75*
G02*
X283745169Y-169299503I-39611443J5557208D01*
G01*
%TO.N,/1A_P*%
X294077569Y-167824738D02*
G75*
G02*
X293768024Y-170031144I-49655755J5841476D01*
G01*
%TO.N,/1B_P*%
X283380182Y-171044144D02*
G75*
G02*
X282937836Y-172770793I-38960359J9061173D01*
G01*
%TO.N,/1A_P*%
X293360492Y-172221568D02*
G75*
G02*
X292855784Y-174391663I-48942428J10239005D01*
G01*
%TO.N,/1B_P*%
X282419007Y-174476022D02*
G75*
G02*
X281824728Y-176156444I-37998638J12492874D01*
G01*
%TO.N,/1A_P*%
X292254901Y-176537120D02*
G75*
G02*
X291559036Y-178653677I-47833962J14553806D01*
G01*
%TO.N,/1B_P*%
X281156178Y-177808723D02*
G75*
G02*
X280414683Y-179429579I-36736222J15825731D01*
G01*
%TO.N,/1A_P*%
X290769572Y-180737133D02*
G75*
G02*
X289888074Y-182783350I-46350426J18754505D01*
G01*
%TO.N,/1B_P*%
X279601716Y-181015792D02*
G75*
G02*
X278718892Y-182564214I-35182904J19033453D01*
G01*
%TO.N,/1A_P*%
X288916294Y-184788266D02*
G75*
G02*
X287856161Y-186747899I-44497074J22805697D01*
G01*
%TO.N,/1B_P*%
X277767964Y-184071769D02*
G75*
G02*
X276750819Y-185535464I-33349595J22089903D01*
G01*
%TO.N,/1A_P*%
X286709783Y-188658358D02*
G75*
G02*
X285479431Y-190515851I-42289114J26674918D01*
G01*
%TO.N,/1B_P*%
X275669476Y-186952392D02*
G75*
G02*
X274526086Y-188319742I-31250102J24969877D01*
G01*
%TO.N,/1A_P*%
X284167552Y-192316688D02*
G75*
G02*
X282776749Y-194057295I-39747707J30333790D01*
G01*
%TO.N,/1B_P*%
X273322917Y-189634798D02*
G75*
G02*
X272062356Y-190894947I-28903506J27652395D01*
G01*
%TO.N,/1A_P*%
X281309784Y-195734214D02*
G75*
G02*
X279769571Y-197344116I-36890104J33751494D01*
G01*
%TO.N,/1B_P*%
X270746909Y-192097688D02*
G75*
G02*
X269379187Y-193240632I-26326910J30114687D01*
G01*
%TO.N,/1A_P*%
X278159166Y-198883804D02*
G75*
G02*
X276481769Y-200350221I-33740482J36902302D01*
G01*
%TO.N,/1B_P*%
X267961905Y-194321511D02*
G75*
G02*
X266497878Y-195338178I-23542675J32339614D01*
G01*
%TO.N,/1A_P*%
X274740709Y-201740455D02*
G75*
G02*
X272939444Y-203051747I-30319666J39756004D01*
G01*
%TO.N,/1B_P*%
X264990012Y-196288614D02*
G75*
G02*
X263441303Y-197170933I-20570621J34306653D01*
G01*
%TO.N,/1A_P*%
X271081550Y-204281493D02*
G75*
G02*
X269170716Y-205427250I-26661116J42297751D01*
G01*
%TO.N,/1B_P*%
X261854824Y-197983383D02*
G75*
G02*
X260233727Y-198724349I-17434811J36000338D01*
G01*
%TO.N,/1A_P*%
X267210737Y-206486743D02*
G75*
G02*
X265205504Y-207457868I-22790424J44503117D01*
G01*
%TO.N,/1B_P*%
X258581230Y-199392361D02*
G75*
G02*
X256900614Y-199986092I-14161613J37410445D01*
G01*
%TO.N,/1A_P*%
X263159000Y-208338697D02*
G75*
G02*
X261075287Y-209127482I-18739570J46357200D01*
G01*
%TO.N,/1B_P*%
X255195216Y-200504363D02*
G75*
G02*
X253468422Y-200946145I-10775490J38522521D01*
G01*
%TO.N,/1A_P*%
X258958502Y-209822657D02*
G75*
G02*
X256812850Y-210422840I-14538930J47841179D01*
G01*
%TO.N,/1B_P*%
X251723662Y-201310564D02*
G75*
G02*
X249964400Y-201596891I-7303909J39329150D01*
G01*
%TO.N,/1A_P*%
X254642591Y-210926840D02*
G75*
G02*
X252452033Y-211333656I-10222796J48944991D01*
G01*
%TO.N,/1B_P*%
X248194129Y-201804560D02*
G75*
G02*
X246416363Y-201933159I-3774262J39823486D01*
G01*
%TO.N,/1A_P*%
X250245527Y-211642482D02*
G75*
G02*
X248027453Y-211852702I-5825516J49659424D01*
G01*
%TO.N,/1B_P*%
X244634634Y-201982433D02*
G75*
G02*
X242852478Y-201952283I-214614J40000598D01*
G01*
%TO.N,/1A_P*%
X245802216Y-211963900D02*
G75*
G02*
X243574235Y-211975855I-1382218J49981930D01*
G01*
%TO.N,/1B_P*%
X241073435Y-201842769D02*
G75*
G02*
X239301037Y-201654109I3346784J39861799D01*
G01*
%TO.N,/1A_P*%
X241347934Y-211888543D02*
G75*
G02*
X239127732Y-211702139I3072120J49906379D01*
G01*
%TO.N,/1B_P*%
X237538804Y-201386678D02*
G75*
G02*
X235790233Y-201041006I6881497J39405216D01*
G01*
%TO.N,/1A_P*%
X236918038Y-211417012D02*
G75*
G02*
X234723241Y-211033727I7501788J49432988D01*
G01*
%TO.N,/1B_P*%
X234058798Y-200617780D02*
G75*
G02*
X232347937Y-200117840I10361299J38635107D01*
G01*
%TO.N,/1A_P*%
X232547698Y-210553045D02*
G75*
G02*
X230395728Y-209975923I11872941J48572460D01*
G01*
%TO.N,/1B_P*%
X230661046Y-199542178D02*
G75*
G02*
X229001475Y-198891938I13758752J37558622D01*
G01*
%TO.N,/1A_P*%
X228271606Y-209303505D02*
G75*
G02*
X226179548Y-208537127I16148151J47319846D01*
G01*
%TO.N,/1B_P*%
X227372519Y-198168412D02*
G75*
G02*
X225777413Y-197373035I17047316J36185066D01*
G01*
%TO.N,/1A_P*%
X224123708Y-207678310D02*
G75*
G02*
X222108169Y-206728759I20295612J45693826D01*
G01*
%TO.N,/1B_P*%
X224219324Y-196507388D02*
G75*
G02*
X222701346Y-195573188I20199705J34522801D01*
G01*
%TO.N,/1A_P*%
X220136933Y-205690362D02*
G75*
G02*
X218213914Y-204565178I24282063J43705642D01*
G01*
%TO.N,/1B_P*%
X221226493Y-194572290D02*
G75*
G02*
X219797694Y-193506682I23193296J32588977D01*
G01*
%TO.N,/1A_P*%
X216342931Y-203355441D02*
G75*
G02*
X214527697Y-202063555I28078013J41373764D01*
G01*
%TO.N,/1B_P*%
X218417784Y-192378482D02*
G75*
G02*
X217089505Y-191189927I25999783J30392754D01*
G01*
%TO.N,/1A_P*%
X212771817Y-200692084D02*
G75*
G02*
X211078780Y-199243752I31646370J38706959D01*
G01*
%TO.N,/1B_P*%
X215815495Y-189943378D02*
G75*
G02*
X214598282Y-188641311I28604546J27960403D01*
G01*
%TO.N,/1A_P*%
X209451944Y-197721436D02*
G75*
G02*
X207894542Y-196128155I34968708J35739056D01*
G01*
D11*
%TO.N,/FWD1*%
X207770000Y-128290000D02*
X207770000Y-118910000D01*
X207770000Y-118910000D02*
X208160000Y-118520000D01*
%TD*%
%TA.AperFunction,Conductor*%
%TO.N,GND*%
G36*
X206920908Y-124015974D02*
G01*
X206956877Y-124065471D01*
X206961725Y-124096071D01*
X206961756Y-130117103D01*
X206961765Y-131997063D01*
X206970009Y-131997063D01*
X215748841Y-131997062D01*
X232461765Y-131997059D01*
X236915001Y-127543823D01*
X240394391Y-127543823D01*
X240395306Y-127550820D01*
X240395306Y-127550821D01*
X240404915Y-127624307D01*
X240412980Y-127685979D01*
X240415821Y-127692435D01*
X240415821Y-127692436D01*
X240423586Y-127710082D01*
X240470720Y-127817203D01*
X240510953Y-127865066D01*
X240558431Y-127921549D01*
X240558434Y-127921551D01*
X240562970Y-127926948D01*
X240568841Y-127930856D01*
X240568842Y-127930857D01*
X240581143Y-127939045D01*
X240682313Y-128006390D01*
X240782920Y-128037821D01*
X240812425Y-128047039D01*
X240812426Y-128047039D01*
X240819157Y-128049142D01*
X240890828Y-128050456D01*
X240955445Y-128051641D01*
X240955447Y-128051641D01*
X240962499Y-128051770D01*
X240969302Y-128049915D01*
X240969304Y-128049915D01*
X241093246Y-128016124D01*
X241100817Y-128014060D01*
X241222991Y-127939045D01*
X241230403Y-127930857D01*
X241314468Y-127837982D01*
X241319200Y-127832754D01*
X241381710Y-127703733D01*
X241385875Y-127678982D01*
X241404862Y-127566124D01*
X241404862Y-127566120D01*
X241405496Y-127562354D01*
X241405647Y-127550000D01*
X241397602Y-127493823D01*
X248544391Y-127493823D01*
X248545306Y-127500820D01*
X248545306Y-127500821D01*
X248560253Y-127615126D01*
X248562980Y-127635979D01*
X248565821Y-127642435D01*
X248565821Y-127642436D01*
X248606109Y-127733996D01*
X248620720Y-127767203D01*
X248662749Y-127817203D01*
X248708431Y-127871549D01*
X248708434Y-127871551D01*
X248712970Y-127876948D01*
X248718841Y-127880856D01*
X248718842Y-127880857D01*
X248731143Y-127889045D01*
X248832313Y-127956390D01*
X248929809Y-127986849D01*
X248962425Y-127997039D01*
X248962426Y-127997039D01*
X248969157Y-127999142D01*
X249040828Y-128000456D01*
X249105445Y-128001641D01*
X249105447Y-128001641D01*
X249112499Y-128001770D01*
X249119302Y-127999915D01*
X249119304Y-127999915D01*
X249194503Y-127979413D01*
X249250817Y-127964060D01*
X249372991Y-127889045D01*
X249380403Y-127880857D01*
X249464468Y-127787982D01*
X249469200Y-127782754D01*
X249531710Y-127653733D01*
X249535875Y-127628982D01*
X249554862Y-127516124D01*
X249554862Y-127516120D01*
X249555496Y-127512354D01*
X249555647Y-127500000D01*
X249535323Y-127358082D01*
X249498718Y-127277572D01*
X249478905Y-127233996D01*
X249478904Y-127233995D01*
X249475984Y-127227572D01*
X249382400Y-127118963D01*
X249262095Y-127040985D01*
X249124739Y-126999907D01*
X249041497Y-126999398D01*
X248988427Y-126999074D01*
X248988426Y-126999074D01*
X248981376Y-126999031D01*
X248974599Y-127000968D01*
X248974598Y-127000968D01*
X248850309Y-127036490D01*
X248850307Y-127036491D01*
X248843529Y-127038428D01*
X248722280Y-127114930D01*
X248717613Y-127120214D01*
X248717611Y-127120216D01*
X248632044Y-127217103D01*
X248632042Y-127217105D01*
X248627377Y-127222388D01*
X248566447Y-127352163D01*
X248565362Y-127359132D01*
X248565361Y-127359135D01*
X248556653Y-127415066D01*
X248544391Y-127493823D01*
X241397602Y-127493823D01*
X241385323Y-127408082D01*
X241325984Y-127277572D01*
X241232400Y-127168963D01*
X241112095Y-127090985D01*
X240974739Y-127049907D01*
X240891497Y-127049398D01*
X240838427Y-127049074D01*
X240838426Y-127049074D01*
X240831376Y-127049031D01*
X240824599Y-127050968D01*
X240824598Y-127050968D01*
X240700309Y-127086490D01*
X240700307Y-127086491D01*
X240693529Y-127088428D01*
X240572280Y-127164930D01*
X240567613Y-127170214D01*
X240567611Y-127170216D01*
X240482044Y-127267103D01*
X240482042Y-127267105D01*
X240477377Y-127272388D01*
X240416447Y-127402163D01*
X240394391Y-127543823D01*
X236915001Y-127543823D01*
X239932769Y-124526055D01*
X239987286Y-124498278D01*
X240002773Y-124497059D01*
X252362765Y-124497059D01*
X252420956Y-124515966D01*
X252456920Y-124565466D01*
X252461765Y-124596059D01*
X252461765Y-156398059D01*
X252442858Y-156456250D01*
X252393358Y-156492214D01*
X252362765Y-156497059D01*
X198961765Y-156497059D01*
X181500000Y-156500000D01*
X175599000Y-156500000D01*
X175540809Y-156481093D01*
X175504845Y-156431593D01*
X175500000Y-156401000D01*
X175500000Y-154793823D01*
X222794391Y-154793823D01*
X222795306Y-154800820D01*
X222795306Y-154800821D01*
X222796814Y-154812354D01*
X222812980Y-154935979D01*
X222815821Y-154942435D01*
X222815821Y-154942436D01*
X222823586Y-154960082D01*
X222870720Y-155067203D01*
X222883792Y-155082754D01*
X222958431Y-155171549D01*
X222958434Y-155171551D01*
X222962970Y-155176948D01*
X222968841Y-155180856D01*
X222968842Y-155180857D01*
X222981143Y-155189045D01*
X223082313Y-155256390D01*
X223182920Y-155287821D01*
X223212425Y-155297039D01*
X223212426Y-155297039D01*
X223219157Y-155299142D01*
X223290828Y-155300456D01*
X223355445Y-155301641D01*
X223355447Y-155301641D01*
X223362499Y-155301770D01*
X223369302Y-155299915D01*
X223369304Y-155299915D01*
X223444503Y-155279413D01*
X223500817Y-155264060D01*
X223622991Y-155189045D01*
X223630403Y-155180857D01*
X223714468Y-155087982D01*
X223719200Y-155082754D01*
X223781710Y-154953733D01*
X223785875Y-154928982D01*
X223804862Y-154816124D01*
X223804862Y-154816120D01*
X223805496Y-154812354D01*
X223805647Y-154800000D01*
X223785323Y-154658082D01*
X223725984Y-154527572D01*
X223632400Y-154418963D01*
X223512095Y-154340985D01*
X223374739Y-154299907D01*
X223291497Y-154299398D01*
X223238427Y-154299074D01*
X223238426Y-154299074D01*
X223231376Y-154299031D01*
X223224599Y-154300968D01*
X223224598Y-154300968D01*
X223100309Y-154336490D01*
X223100307Y-154336491D01*
X223093529Y-154338428D01*
X222972280Y-154414930D01*
X222967613Y-154420214D01*
X222967611Y-154420216D01*
X222882044Y-154517103D01*
X222882042Y-154517105D01*
X222877377Y-154522388D01*
X222816447Y-154652163D01*
X222794391Y-154793823D01*
X175500000Y-154793823D01*
X175500000Y-146593823D01*
X222794391Y-146593823D01*
X222795306Y-146600820D01*
X222795306Y-146600821D01*
X222796814Y-146612354D01*
X222812980Y-146735979D01*
X222815821Y-146742435D01*
X222815821Y-146742436D01*
X222823586Y-146760082D01*
X222870720Y-146867203D01*
X222883792Y-146882754D01*
X222958431Y-146971549D01*
X222958434Y-146971551D01*
X222962970Y-146976948D01*
X222968841Y-146980856D01*
X222968842Y-146980857D01*
X222981143Y-146989045D01*
X223082313Y-147056390D01*
X223182920Y-147087821D01*
X223212425Y-147097039D01*
X223212426Y-147097039D01*
X223219157Y-147099142D01*
X223290828Y-147100456D01*
X223355445Y-147101641D01*
X223355447Y-147101641D01*
X223362499Y-147101770D01*
X223369302Y-147099915D01*
X223369304Y-147099915D01*
X223444503Y-147079413D01*
X223500817Y-147064060D01*
X223622991Y-146989045D01*
X223630403Y-146980857D01*
X223714468Y-146887982D01*
X223719200Y-146882754D01*
X223781710Y-146753733D01*
X223785875Y-146728982D01*
X223804862Y-146616124D01*
X223804862Y-146616120D01*
X223805496Y-146612354D01*
X223805647Y-146600000D01*
X223785323Y-146458082D01*
X223725984Y-146327572D01*
X223632400Y-146218963D01*
X223512095Y-146140985D01*
X223374739Y-146099907D01*
X223291497Y-146099398D01*
X223238427Y-146099074D01*
X223238426Y-146099074D01*
X223231376Y-146099031D01*
X223224599Y-146100968D01*
X223224598Y-146100968D01*
X223100309Y-146136490D01*
X223100307Y-146136491D01*
X223093529Y-146138428D01*
X222972280Y-146214930D01*
X222967613Y-146220214D01*
X222967611Y-146220216D01*
X222882044Y-146317103D01*
X222882042Y-146317105D01*
X222877377Y-146322388D01*
X222816447Y-146452163D01*
X222794391Y-146593823D01*
X175500000Y-146593823D01*
X175500000Y-144603823D01*
X203024391Y-144603823D01*
X203025306Y-144610820D01*
X203025306Y-144610821D01*
X203026814Y-144622354D01*
X203042980Y-144745979D01*
X203045821Y-144752435D01*
X203045821Y-144752436D01*
X203053586Y-144770082D01*
X203100720Y-144877203D01*
X203113792Y-144892754D01*
X203188431Y-144981549D01*
X203188434Y-144981551D01*
X203192970Y-144986948D01*
X203198841Y-144990856D01*
X203198842Y-144990857D01*
X203211143Y-144999045D01*
X203312313Y-145066390D01*
X203412920Y-145097821D01*
X203442425Y-145107039D01*
X203442426Y-145107039D01*
X203449157Y-145109142D01*
X203520828Y-145110456D01*
X203585445Y-145111641D01*
X203585447Y-145111641D01*
X203592499Y-145111770D01*
X203599302Y-145109915D01*
X203599304Y-145109915D01*
X203674503Y-145089413D01*
X203730817Y-145074060D01*
X203852991Y-144999045D01*
X203860403Y-144990857D01*
X203944468Y-144897982D01*
X203949200Y-144892754D01*
X204011710Y-144763733D01*
X204015875Y-144738982D01*
X204034862Y-144626124D01*
X204034862Y-144626120D01*
X204035496Y-144622354D01*
X204035647Y-144610000D01*
X204015323Y-144468082D01*
X203955984Y-144337572D01*
X203862400Y-144228963D01*
X203800657Y-144188943D01*
X203791482Y-144182996D01*
X203752935Y-144135480D01*
X203749680Y-144074381D01*
X203782959Y-144023038D01*
X203793524Y-144015558D01*
X203852991Y-143979045D01*
X203860403Y-143970857D01*
X203944468Y-143877982D01*
X203949200Y-143872754D01*
X204000546Y-143766775D01*
X204008634Y-143750082D01*
X204011710Y-143743733D01*
X204015875Y-143718982D01*
X204033567Y-143613823D01*
X208394391Y-143613823D01*
X208395306Y-143620820D01*
X208395306Y-143620821D01*
X208396814Y-143632354D01*
X208412980Y-143755979D01*
X208415821Y-143762435D01*
X208415821Y-143762436D01*
X208466663Y-143877982D01*
X208470720Y-143887203D01*
X208483792Y-143902754D01*
X208558431Y-143991549D01*
X208558434Y-143991551D01*
X208562970Y-143996948D01*
X208568841Y-144000856D01*
X208568842Y-144000857D01*
X208630783Y-144042089D01*
X208668746Y-144090073D01*
X208671255Y-144151207D01*
X208637350Y-144202140D01*
X208628752Y-144208227D01*
X208608246Y-144221165D01*
X208608243Y-144221168D01*
X208602280Y-144224930D01*
X208597613Y-144230214D01*
X208597611Y-144230216D01*
X208512044Y-144327103D01*
X208512042Y-144327105D01*
X208507377Y-144332388D01*
X208446447Y-144462163D01*
X208424391Y-144603823D01*
X208425306Y-144610820D01*
X208425306Y-144610821D01*
X208426814Y-144622354D01*
X208442980Y-144745979D01*
X208445821Y-144752435D01*
X208445821Y-144752436D01*
X208453586Y-144770082D01*
X208500720Y-144877203D01*
X208513792Y-144892754D01*
X208588431Y-144981549D01*
X208588434Y-144981551D01*
X208592970Y-144986948D01*
X208598841Y-144990856D01*
X208598842Y-144990857D01*
X208611143Y-144999045D01*
X208712313Y-145066390D01*
X208812920Y-145097821D01*
X208842425Y-145107039D01*
X208842426Y-145107039D01*
X208849157Y-145109142D01*
X208920828Y-145110456D01*
X208985445Y-145111641D01*
X208985447Y-145111641D01*
X208992499Y-145111770D01*
X208999302Y-145109915D01*
X208999304Y-145109915D01*
X209074503Y-145089413D01*
X209130817Y-145074060D01*
X209252991Y-144999045D01*
X209260403Y-144990857D01*
X209344468Y-144897982D01*
X209349200Y-144892754D01*
X209411710Y-144763733D01*
X209415875Y-144738982D01*
X209434862Y-144626124D01*
X209434862Y-144626120D01*
X209435496Y-144622354D01*
X209435647Y-144610000D01*
X209415323Y-144468082D01*
X209355984Y-144337572D01*
X209262400Y-144228963D01*
X209200657Y-144188943D01*
X209162110Y-144141427D01*
X209158855Y-144080328D01*
X209192134Y-144028985D01*
X209202703Y-144021502D01*
X209216978Y-144012737D01*
X209222991Y-144009045D01*
X209230403Y-144000857D01*
X209314468Y-143907982D01*
X209319200Y-143902754D01*
X209381710Y-143773733D01*
X209385875Y-143748982D01*
X209404862Y-143636124D01*
X209404862Y-143636120D01*
X209405496Y-143632354D01*
X209405647Y-143620000D01*
X209385323Y-143478082D01*
X209325984Y-143347572D01*
X209232400Y-143238963D01*
X209112095Y-143160985D01*
X208974739Y-143119907D01*
X208891497Y-143119398D01*
X208838427Y-143119074D01*
X208838426Y-143119074D01*
X208831376Y-143119031D01*
X208824599Y-143120968D01*
X208824598Y-143120968D01*
X208700309Y-143156490D01*
X208700307Y-143156491D01*
X208693529Y-143158428D01*
X208572280Y-143234930D01*
X208567613Y-143240214D01*
X208567611Y-143240216D01*
X208482044Y-143337103D01*
X208482042Y-143337105D01*
X208477377Y-143342388D01*
X208416447Y-143472163D01*
X208394391Y-143613823D01*
X204033567Y-143613823D01*
X204034862Y-143606124D01*
X204034862Y-143606120D01*
X204035496Y-143602354D01*
X204035647Y-143590000D01*
X204015323Y-143448082D01*
X203967267Y-143342388D01*
X203958905Y-143323996D01*
X203958904Y-143323995D01*
X203955984Y-143317572D01*
X203892855Y-143244307D01*
X203867005Y-143214307D01*
X203867004Y-143214306D01*
X203862400Y-143208963D01*
X203742095Y-143130985D01*
X203604739Y-143089907D01*
X203521497Y-143089398D01*
X203468427Y-143089074D01*
X203468426Y-143089074D01*
X203461376Y-143089031D01*
X203454599Y-143090968D01*
X203454598Y-143090968D01*
X203330309Y-143126490D01*
X203330307Y-143126491D01*
X203323529Y-143128428D01*
X203202280Y-143204930D01*
X203197613Y-143210214D01*
X203197611Y-143210216D01*
X203112044Y-143307103D01*
X203112042Y-143307105D01*
X203107377Y-143312388D01*
X203046447Y-143442163D01*
X203045362Y-143449132D01*
X203045361Y-143449135D01*
X203039767Y-143485066D01*
X203024391Y-143583823D01*
X203025306Y-143590820D01*
X203025306Y-143590821D01*
X203026814Y-143602354D01*
X203042980Y-143725979D01*
X203045821Y-143732435D01*
X203045821Y-143732436D01*
X203060931Y-143766775D01*
X203100720Y-143857203D01*
X203143404Y-143907982D01*
X203188431Y-143961549D01*
X203188434Y-143961551D01*
X203192970Y-143966948D01*
X203198841Y-143970856D01*
X203198842Y-143970857D01*
X203269322Y-144017773D01*
X203307285Y-144065757D01*
X203309794Y-144126891D01*
X203275889Y-144177824D01*
X203267291Y-144183911D01*
X203208246Y-144221165D01*
X203208243Y-144221168D01*
X203202280Y-144224930D01*
X203197613Y-144230214D01*
X203197611Y-144230216D01*
X203112044Y-144327103D01*
X203112042Y-144327105D01*
X203107377Y-144332388D01*
X203046447Y-144462163D01*
X203024391Y-144603823D01*
X175500000Y-144603823D01*
X175500000Y-142643823D01*
X216394391Y-142643823D01*
X216395306Y-142650820D01*
X216395306Y-142650821D01*
X216396814Y-142662354D01*
X216412980Y-142785979D01*
X216415821Y-142792435D01*
X216415821Y-142792436D01*
X216423586Y-142810082D01*
X216470720Y-142917203D01*
X216483792Y-142932754D01*
X216558431Y-143021549D01*
X216558434Y-143021551D01*
X216562970Y-143026948D01*
X216568841Y-143030856D01*
X216568842Y-143030857D01*
X216581143Y-143039045D01*
X216682313Y-143106390D01*
X216754570Y-143128964D01*
X216812425Y-143147039D01*
X216812426Y-143147039D01*
X216819157Y-143149142D01*
X216890828Y-143150456D01*
X216955445Y-143151641D01*
X216955447Y-143151641D01*
X216962499Y-143151770D01*
X216969302Y-143149915D01*
X216969304Y-143149915D01*
X217048116Y-143128428D01*
X217100817Y-143114060D01*
X217222991Y-143039045D01*
X217230403Y-143030857D01*
X217314468Y-142937982D01*
X217319200Y-142932754D01*
X217381710Y-142803733D01*
X217385875Y-142778982D01*
X217404862Y-142666124D01*
X217404862Y-142666120D01*
X217405496Y-142662354D01*
X217405647Y-142650000D01*
X217385323Y-142508082D01*
X217325984Y-142377572D01*
X217232400Y-142268963D01*
X217112095Y-142190985D01*
X216974739Y-142149907D01*
X216891497Y-142149398D01*
X216838427Y-142149074D01*
X216838426Y-142149074D01*
X216831376Y-142149031D01*
X216824599Y-142150968D01*
X216824598Y-142150968D01*
X216700309Y-142186490D01*
X216700307Y-142186491D01*
X216693529Y-142188428D01*
X216572280Y-142264930D01*
X216567613Y-142270214D01*
X216567611Y-142270216D01*
X216482044Y-142367103D01*
X216482042Y-142367105D01*
X216477377Y-142372388D01*
X216416447Y-142502163D01*
X216394391Y-142643823D01*
X175500000Y-142643823D01*
X175500000Y-140793823D01*
X198594391Y-140793823D01*
X198595306Y-140800820D01*
X198595306Y-140800821D01*
X198609391Y-140908533D01*
X198612980Y-140935979D01*
X198615821Y-140942435D01*
X198615821Y-140942436D01*
X198667587Y-141060082D01*
X198670720Y-141067203D01*
X198683792Y-141082754D01*
X198758431Y-141171549D01*
X198758434Y-141171551D01*
X198762970Y-141176948D01*
X198768841Y-141180856D01*
X198768842Y-141180857D01*
X198779546Y-141187982D01*
X198882313Y-141256390D01*
X198948117Y-141276948D01*
X199012425Y-141297039D01*
X199012426Y-141297039D01*
X199019157Y-141299142D01*
X199090828Y-141300456D01*
X199155445Y-141301641D01*
X199155447Y-141301641D01*
X199162499Y-141301770D01*
X199169302Y-141299915D01*
X199169304Y-141299915D01*
X199244503Y-141279413D01*
X199300817Y-141264060D01*
X199422991Y-141189045D01*
X199430403Y-141180857D01*
X199514468Y-141087982D01*
X199519200Y-141082754D01*
X199581710Y-140953733D01*
X199585875Y-140928982D01*
X199604862Y-140816124D01*
X199604862Y-140816120D01*
X199605496Y-140812354D01*
X199605647Y-140800000D01*
X199602561Y-140778452D01*
X199613028Y-140718170D01*
X199630557Y-140694414D01*
X199646885Y-140678086D01*
X199701402Y-140650309D01*
X199761834Y-140659880D01*
X199805099Y-140703145D01*
X199814710Y-140763320D01*
X199794391Y-140893823D01*
X199795306Y-140900820D01*
X199795306Y-140900821D01*
X199800748Y-140942436D01*
X199812980Y-141035979D01*
X199815821Y-141042435D01*
X199815821Y-141042436D01*
X199833562Y-141082754D01*
X199870720Y-141167203D01*
X199898709Y-141200500D01*
X199958431Y-141271549D01*
X199958434Y-141271551D01*
X199962970Y-141276948D01*
X199968841Y-141280856D01*
X199968842Y-141280857D01*
X199981143Y-141289045D01*
X200082313Y-141356390D01*
X200182920Y-141387821D01*
X200212425Y-141397039D01*
X200212426Y-141397039D01*
X200219157Y-141399142D01*
X200290828Y-141400456D01*
X200355445Y-141401641D01*
X200355447Y-141401641D01*
X200362499Y-141401770D01*
X200369302Y-141399915D01*
X200369304Y-141399915D01*
X200444503Y-141379413D01*
X200500817Y-141364060D01*
X200622991Y-141289045D01*
X200630403Y-141280857D01*
X200673662Y-141233064D01*
X200726730Y-141202610D01*
X200747060Y-141200500D01*
X206152597Y-141200500D01*
X206210788Y-141219407D01*
X206228380Y-141235798D01*
X206258431Y-141271549D01*
X206258434Y-141271551D01*
X206262970Y-141276948D01*
X206268841Y-141280856D01*
X206268842Y-141280857D01*
X206281143Y-141289045D01*
X206382313Y-141356390D01*
X206482920Y-141387821D01*
X206512425Y-141397039D01*
X206512426Y-141397039D01*
X206519157Y-141399142D01*
X206590828Y-141400456D01*
X206655445Y-141401641D01*
X206655447Y-141401641D01*
X206662499Y-141401770D01*
X206669302Y-141399915D01*
X206669304Y-141399915D01*
X206744503Y-141379413D01*
X206800817Y-141364060D01*
X206922991Y-141289045D01*
X206930403Y-141280857D01*
X207014468Y-141187982D01*
X207019200Y-141182754D01*
X207065117Y-141087982D01*
X207078634Y-141060082D01*
X207081710Y-141053733D01*
X207085875Y-141028982D01*
X207104862Y-140916124D01*
X207104862Y-140916120D01*
X207105496Y-140912354D01*
X207105647Y-140900000D01*
X207085323Y-140758082D01*
X207048951Y-140678086D01*
X207028905Y-140633996D01*
X207028904Y-140633995D01*
X207025984Y-140627572D01*
X206932400Y-140518963D01*
X206812095Y-140440985D01*
X206674739Y-140399907D01*
X206591497Y-140399398D01*
X206538427Y-140399074D01*
X206538426Y-140399074D01*
X206531376Y-140399031D01*
X206524599Y-140400968D01*
X206524598Y-140400968D01*
X206400309Y-140436490D01*
X206400307Y-140436491D01*
X206393529Y-140438428D01*
X206272280Y-140514930D01*
X206267613Y-140520214D01*
X206267611Y-140520216D01*
X206227147Y-140566034D01*
X206174455Y-140597134D01*
X206152943Y-140599500D01*
X205046155Y-140599500D01*
X204987964Y-140580593D01*
X204952000Y-140531093D01*
X204952000Y-140469907D01*
X204972757Y-140434064D01*
X205014468Y-140387982D01*
X205019200Y-140382754D01*
X205081710Y-140253733D01*
X205105496Y-140112354D01*
X205105647Y-140100000D01*
X205085323Y-139958082D01*
X205057441Y-139896759D01*
X205028905Y-139833996D01*
X205028904Y-139833995D01*
X205025984Y-139827572D01*
X204932400Y-139718963D01*
X204812095Y-139640985D01*
X204674739Y-139599907D01*
X204591497Y-139599398D01*
X204538427Y-139599074D01*
X204538426Y-139599074D01*
X204531376Y-139599031D01*
X204524599Y-139600968D01*
X204524598Y-139600968D01*
X204400309Y-139636490D01*
X204400307Y-139636491D01*
X204393529Y-139638428D01*
X204272280Y-139714930D01*
X204267613Y-139720214D01*
X204267611Y-139720216D01*
X204227147Y-139766034D01*
X204174455Y-139797134D01*
X204152943Y-139799500D01*
X199853507Y-139799500D01*
X199849383Y-139799197D01*
X199844658Y-139797575D01*
X199803332Y-139799127D01*
X199795250Y-139799430D01*
X199791536Y-139799500D01*
X199772052Y-139799500D01*
X199767620Y-139800325D01*
X199762430Y-139800662D01*
X199732791Y-139801775D01*
X199722219Y-139806317D01*
X199701266Y-139812683D01*
X199698934Y-139813117D01*
X199698932Y-139813118D01*
X199689947Y-139814791D01*
X199667268Y-139828771D01*
X199654407Y-139835451D01*
X199629937Y-139845964D01*
X199625051Y-139849978D01*
X199620687Y-139854342D01*
X199602632Y-139868613D01*
X199594652Y-139873532D01*
X199576982Y-139896769D01*
X199568190Y-139906839D01*
X199204366Y-140270663D01*
X199149849Y-140298440D01*
X199133762Y-140299657D01*
X199054505Y-140299172D01*
X199038427Y-140299074D01*
X199038426Y-140299074D01*
X199031376Y-140299031D01*
X199024599Y-140300968D01*
X199024598Y-140300968D01*
X198900309Y-140336490D01*
X198900307Y-140336491D01*
X198893529Y-140338428D01*
X198772280Y-140414930D01*
X198767613Y-140420214D01*
X198767611Y-140420216D01*
X198682044Y-140517103D01*
X198682042Y-140517105D01*
X198677377Y-140522388D01*
X198616447Y-140652163D01*
X198615362Y-140659132D01*
X198615361Y-140659135D01*
X198608509Y-140703145D01*
X198594391Y-140793823D01*
X175500000Y-140793823D01*
X175500000Y-136193823D01*
X195544391Y-136193823D01*
X195545306Y-136200820D01*
X195545306Y-136200821D01*
X195546814Y-136212354D01*
X195562980Y-136335979D01*
X195565821Y-136342435D01*
X195565821Y-136342436D01*
X195573586Y-136360082D01*
X195620720Y-136467203D01*
X195633792Y-136482754D01*
X195708431Y-136571549D01*
X195708434Y-136571551D01*
X195712970Y-136576948D01*
X195718841Y-136580856D01*
X195718842Y-136580857D01*
X195731143Y-136589045D01*
X195832313Y-136656390D01*
X195932920Y-136687821D01*
X195962425Y-136697039D01*
X195962426Y-136697039D01*
X195969157Y-136699142D01*
X196040828Y-136700456D01*
X196105445Y-136701641D01*
X196105447Y-136701641D01*
X196112499Y-136701770D01*
X196119302Y-136699915D01*
X196119304Y-136699915D01*
X196194503Y-136679413D01*
X196250817Y-136664060D01*
X196372991Y-136589045D01*
X196380403Y-136580857D01*
X196464468Y-136487982D01*
X196469200Y-136482754D01*
X196531710Y-136353733D01*
X196535875Y-136328982D01*
X196554862Y-136216124D01*
X196554862Y-136216120D01*
X196555496Y-136212354D01*
X196555647Y-136200000D01*
X196535323Y-136058082D01*
X196475984Y-135927572D01*
X196382400Y-135818963D01*
X196262095Y-135740985D01*
X196124739Y-135699907D01*
X196041497Y-135699398D01*
X195988427Y-135699074D01*
X195988426Y-135699074D01*
X195981376Y-135699031D01*
X195974599Y-135700968D01*
X195974598Y-135700968D01*
X195850309Y-135736490D01*
X195850307Y-135736491D01*
X195843529Y-135738428D01*
X195722280Y-135814930D01*
X195717613Y-135820214D01*
X195717611Y-135820216D01*
X195632044Y-135917103D01*
X195632042Y-135917105D01*
X195627377Y-135922388D01*
X195566447Y-136052163D01*
X195544391Y-136193823D01*
X175500000Y-136193823D01*
X175500000Y-134443823D01*
X216394391Y-134443823D01*
X216395306Y-134450820D01*
X216395306Y-134450821D01*
X216396814Y-134462354D01*
X216412980Y-134585979D01*
X216415821Y-134592435D01*
X216415821Y-134592436D01*
X216423586Y-134610082D01*
X216470720Y-134717203D01*
X216483792Y-134732754D01*
X216558431Y-134821549D01*
X216558434Y-134821551D01*
X216562970Y-134826948D01*
X216568841Y-134830856D01*
X216568842Y-134830857D01*
X216581143Y-134839045D01*
X216682313Y-134906390D01*
X216782920Y-134937821D01*
X216812425Y-134947039D01*
X216812426Y-134947039D01*
X216819157Y-134949142D01*
X216890828Y-134950456D01*
X216955445Y-134951641D01*
X216955447Y-134951641D01*
X216962499Y-134951770D01*
X216969302Y-134949915D01*
X216969304Y-134949915D01*
X217044503Y-134929413D01*
X217100817Y-134914060D01*
X217222991Y-134839045D01*
X217230403Y-134830857D01*
X217314468Y-134737982D01*
X217319200Y-134732754D01*
X217381710Y-134603733D01*
X217385875Y-134578982D01*
X217404862Y-134466124D01*
X217404862Y-134466120D01*
X217405496Y-134462354D01*
X217405647Y-134450000D01*
X217385323Y-134308082D01*
X217325984Y-134177572D01*
X217232400Y-134068963D01*
X217112095Y-133990985D01*
X216974739Y-133949907D01*
X216891497Y-133949398D01*
X216838427Y-133949074D01*
X216838426Y-133949074D01*
X216831376Y-133949031D01*
X216824599Y-133950968D01*
X216824598Y-133950968D01*
X216700309Y-133986490D01*
X216700307Y-133986491D01*
X216693529Y-133988428D01*
X216572280Y-134064930D01*
X216567613Y-134070214D01*
X216567611Y-134070216D01*
X216482044Y-134167103D01*
X216482042Y-134167105D01*
X216477377Y-134172388D01*
X216416447Y-134302163D01*
X216394391Y-134443823D01*
X175500000Y-134443823D01*
X175500000Y-130393823D01*
X176694391Y-130393823D01*
X176695306Y-130400820D01*
X176695306Y-130400821D01*
X176703707Y-130465066D01*
X176712980Y-130535979D01*
X176715821Y-130542435D01*
X176715821Y-130542436D01*
X176748245Y-130616124D01*
X176770720Y-130667203D01*
X176783792Y-130682754D01*
X176858431Y-130771549D01*
X176858434Y-130771551D01*
X176862970Y-130776948D01*
X176868841Y-130780856D01*
X176868842Y-130780857D01*
X176881143Y-130789045D01*
X176982313Y-130856390D01*
X177066701Y-130882754D01*
X177112425Y-130897039D01*
X177112426Y-130897039D01*
X177119157Y-130899142D01*
X177190828Y-130900456D01*
X177255445Y-130901641D01*
X177255447Y-130901641D01*
X177262499Y-130901770D01*
X177269302Y-130899915D01*
X177269304Y-130899915D01*
X177344503Y-130879413D01*
X177400817Y-130864060D01*
X177522991Y-130789045D01*
X177530403Y-130780857D01*
X177573662Y-130733064D01*
X177626730Y-130702610D01*
X177647060Y-130700500D01*
X186452597Y-130700500D01*
X186510788Y-130719407D01*
X186528380Y-130735798D01*
X186558431Y-130771549D01*
X186558434Y-130771551D01*
X186562970Y-130776948D01*
X186568841Y-130780856D01*
X186568842Y-130780857D01*
X186581143Y-130789045D01*
X186682313Y-130856390D01*
X186766701Y-130882754D01*
X186812425Y-130897039D01*
X186812426Y-130897039D01*
X186819157Y-130899142D01*
X186890828Y-130900456D01*
X186955445Y-130901641D01*
X186955447Y-130901641D01*
X186962499Y-130901770D01*
X186969302Y-130899915D01*
X186969304Y-130899915D01*
X187044503Y-130879413D01*
X187100817Y-130864060D01*
X187222991Y-130789045D01*
X187230403Y-130780857D01*
X187314468Y-130687982D01*
X187319200Y-130682754D01*
X187362287Y-130593823D01*
X193194391Y-130593823D01*
X193195306Y-130600820D01*
X193195306Y-130600821D01*
X193210813Y-130719407D01*
X193212980Y-130735979D01*
X193215821Y-130742435D01*
X193215821Y-130742436D01*
X193264243Y-130852482D01*
X193270720Y-130867203D01*
X193299668Y-130901641D01*
X193358431Y-130971549D01*
X193358434Y-130971551D01*
X193362970Y-130976948D01*
X193368841Y-130980856D01*
X193368842Y-130980857D01*
X193381143Y-130989045D01*
X193482313Y-131056390D01*
X193582920Y-131087821D01*
X193612425Y-131097039D01*
X193612426Y-131097039D01*
X193619157Y-131099142D01*
X193690828Y-131100456D01*
X193755445Y-131101641D01*
X193755447Y-131101641D01*
X193762499Y-131101770D01*
X193769302Y-131099915D01*
X193769304Y-131099915D01*
X193844503Y-131079413D01*
X193900817Y-131064060D01*
X194022991Y-130989045D01*
X194030403Y-130980857D01*
X194114468Y-130887982D01*
X194119200Y-130882754D01*
X194181710Y-130753733D01*
X194184728Y-130735798D01*
X194204862Y-130616124D01*
X194204862Y-130616120D01*
X194205496Y-130612354D01*
X194205647Y-130600000D01*
X194185323Y-130458082D01*
X194156106Y-130393823D01*
X194128905Y-130333996D01*
X194128904Y-130333995D01*
X194125984Y-130327572D01*
X194032400Y-130218963D01*
X193912095Y-130140985D01*
X193774739Y-130099907D01*
X193691497Y-130099398D01*
X193638427Y-130099074D01*
X193638426Y-130099074D01*
X193631376Y-130099031D01*
X193624599Y-130100968D01*
X193624598Y-130100968D01*
X193500309Y-130136490D01*
X193500307Y-130136491D01*
X193493529Y-130138428D01*
X193372280Y-130214930D01*
X193367613Y-130220214D01*
X193367611Y-130220216D01*
X193282044Y-130317103D01*
X193282042Y-130317105D01*
X193277377Y-130322388D01*
X193216447Y-130452163D01*
X193215362Y-130459132D01*
X193215361Y-130459135D01*
X193203397Y-130535979D01*
X193194391Y-130593823D01*
X187362287Y-130593823D01*
X187381710Y-130553733D01*
X187385875Y-130528982D01*
X187404862Y-130416124D01*
X187404862Y-130416120D01*
X187405496Y-130412354D01*
X187405647Y-130400000D01*
X187385323Y-130258082D01*
X187332631Y-130142191D01*
X187328905Y-130133996D01*
X187328904Y-130133995D01*
X187325984Y-130127572D01*
X187232400Y-130018963D01*
X187112095Y-129940985D01*
X186974739Y-129899907D01*
X186891497Y-129899398D01*
X186838427Y-129899074D01*
X186838426Y-129899074D01*
X186831376Y-129899031D01*
X186824599Y-129900968D01*
X186824598Y-129900968D01*
X186700309Y-129936490D01*
X186700307Y-129936491D01*
X186693529Y-129938428D01*
X186572280Y-130014930D01*
X186567613Y-130020214D01*
X186567611Y-130020216D01*
X186533101Y-130059293D01*
X186527952Y-130065123D01*
X186527147Y-130066034D01*
X186474455Y-130097134D01*
X186452943Y-130099500D01*
X177647173Y-130099500D01*
X177588982Y-130080593D01*
X177572174Y-130065123D01*
X177537005Y-130024307D01*
X177537004Y-130024306D01*
X177532400Y-130018963D01*
X177412095Y-129940985D01*
X177274739Y-129899907D01*
X177191497Y-129899398D01*
X177138427Y-129899074D01*
X177138426Y-129899074D01*
X177131376Y-129899031D01*
X177124599Y-129900968D01*
X177124598Y-129900968D01*
X177000309Y-129936490D01*
X177000307Y-129936491D01*
X176993529Y-129938428D01*
X176872280Y-130014930D01*
X176867613Y-130020214D01*
X176867611Y-130020216D01*
X176782044Y-130117103D01*
X176782042Y-130117105D01*
X176777377Y-130122388D01*
X176716447Y-130252163D01*
X176694391Y-130393823D01*
X175500000Y-130393823D01*
X175500000Y-127993823D01*
X187994391Y-127993823D01*
X187995306Y-128000820D01*
X187995306Y-128000821D01*
X188001968Y-128051770D01*
X188012980Y-128135979D01*
X188015821Y-128142435D01*
X188015821Y-128142436D01*
X188023586Y-128160082D01*
X188070720Y-128267203D01*
X188116845Y-128322076D01*
X188158431Y-128371549D01*
X188158434Y-128371551D01*
X188162970Y-128376948D01*
X188168841Y-128380856D01*
X188168842Y-128380857D01*
X188181143Y-128389045D01*
X188282313Y-128456390D01*
X188382920Y-128487821D01*
X188412425Y-128497039D01*
X188412426Y-128497039D01*
X188419157Y-128499142D01*
X188490828Y-128500456D01*
X188555445Y-128501641D01*
X188555447Y-128501641D01*
X188562499Y-128501770D01*
X188569302Y-128499915D01*
X188569304Y-128499915D01*
X188644503Y-128479413D01*
X188700817Y-128464060D01*
X188822991Y-128389045D01*
X188830403Y-128380857D01*
X188914468Y-128287982D01*
X188919200Y-128282754D01*
X188981710Y-128153733D01*
X188985875Y-128128982D01*
X189004862Y-128016124D01*
X189004862Y-128016120D01*
X189005496Y-128012354D01*
X189005647Y-128000000D01*
X188985323Y-127858082D01*
X188925984Y-127727572D01*
X188862360Y-127653733D01*
X188837005Y-127624307D01*
X188837004Y-127624306D01*
X188832400Y-127618963D01*
X188712095Y-127540985D01*
X188574739Y-127499907D01*
X188491497Y-127499398D01*
X188438427Y-127499074D01*
X188438426Y-127499074D01*
X188431376Y-127499031D01*
X188424599Y-127500968D01*
X188424598Y-127500968D01*
X188300309Y-127536490D01*
X188300307Y-127536491D01*
X188293529Y-127538428D01*
X188172280Y-127614930D01*
X188167613Y-127620214D01*
X188167611Y-127620216D01*
X188082044Y-127717103D01*
X188082042Y-127717105D01*
X188077377Y-127722388D01*
X188016447Y-127852163D01*
X188015362Y-127859132D01*
X188015361Y-127859135D01*
X188003734Y-127933814D01*
X187994391Y-127993823D01*
X175500000Y-127993823D01*
X175500000Y-126043823D01*
X180544391Y-126043823D01*
X180545306Y-126050820D01*
X180545306Y-126050821D01*
X180554915Y-126124307D01*
X180562980Y-126185979D01*
X180565821Y-126192435D01*
X180565821Y-126192436D01*
X180573586Y-126210082D01*
X180620720Y-126317203D01*
X180660953Y-126365066D01*
X180708431Y-126421549D01*
X180708434Y-126421551D01*
X180712970Y-126426948D01*
X180718841Y-126430856D01*
X180718842Y-126430857D01*
X180731143Y-126439045D01*
X180832313Y-126506390D01*
X180932920Y-126537821D01*
X180962425Y-126547039D01*
X180962426Y-126547039D01*
X180969157Y-126549142D01*
X181040828Y-126550456D01*
X181105445Y-126551641D01*
X181105447Y-126551641D01*
X181112499Y-126551770D01*
X181119302Y-126549915D01*
X181119304Y-126549915D01*
X181243246Y-126516124D01*
X181250817Y-126514060D01*
X181283776Y-126493823D01*
X201994391Y-126493823D01*
X201995306Y-126500820D01*
X201995306Y-126500821D01*
X202001968Y-126551770D01*
X202012980Y-126635979D01*
X202015821Y-126642435D01*
X202015821Y-126642436D01*
X202023586Y-126660082D01*
X202070720Y-126767203D01*
X202083792Y-126782754D01*
X202158431Y-126871549D01*
X202158434Y-126871551D01*
X202162970Y-126876948D01*
X202168841Y-126880856D01*
X202168842Y-126880857D01*
X202181143Y-126889045D01*
X202282313Y-126956390D01*
X202382920Y-126987821D01*
X202412425Y-126997039D01*
X202412426Y-126997039D01*
X202419157Y-126999142D01*
X202490828Y-127000456D01*
X202555445Y-127001641D01*
X202555447Y-127001641D01*
X202562499Y-127001770D01*
X202569302Y-126999915D01*
X202569304Y-126999915D01*
X202644503Y-126979413D01*
X202700817Y-126964060D01*
X202822991Y-126889045D01*
X202830403Y-126880857D01*
X202914468Y-126787982D01*
X202919200Y-126782754D01*
X202981710Y-126653733D01*
X202985875Y-126628982D01*
X203004862Y-126516124D01*
X203004862Y-126516120D01*
X203005496Y-126512354D01*
X203005647Y-126500000D01*
X202985323Y-126358082D01*
X202925984Y-126227572D01*
X202832400Y-126118963D01*
X202712095Y-126040985D01*
X202574739Y-125999907D01*
X202491497Y-125999398D01*
X202438427Y-125999074D01*
X202438426Y-125999074D01*
X202431376Y-125999031D01*
X202424599Y-126000968D01*
X202424598Y-126000968D01*
X202300309Y-126036490D01*
X202300307Y-126036491D01*
X202293529Y-126038428D01*
X202172280Y-126114930D01*
X202167613Y-126120214D01*
X202167611Y-126120216D01*
X202082044Y-126217103D01*
X202082042Y-126217105D01*
X202077377Y-126222388D01*
X202016447Y-126352163D01*
X202015362Y-126359132D01*
X202015361Y-126359135D01*
X202003734Y-126433814D01*
X201994391Y-126493823D01*
X181283776Y-126493823D01*
X181372991Y-126439045D01*
X181380403Y-126430857D01*
X181464468Y-126337982D01*
X181469200Y-126332754D01*
X181531710Y-126203733D01*
X181535875Y-126178982D01*
X181554862Y-126066124D01*
X181554862Y-126066120D01*
X181555496Y-126062354D01*
X181555647Y-126050000D01*
X181535323Y-125908082D01*
X181475984Y-125777572D01*
X181382400Y-125668963D01*
X181262095Y-125590985D01*
X181124739Y-125549907D01*
X181041497Y-125549398D01*
X180988427Y-125549074D01*
X180988426Y-125549074D01*
X180981376Y-125549031D01*
X180974599Y-125550968D01*
X180974598Y-125550968D01*
X180850309Y-125586490D01*
X180850307Y-125586491D01*
X180843529Y-125588428D01*
X180722280Y-125664930D01*
X180717613Y-125670214D01*
X180717611Y-125670216D01*
X180632044Y-125767103D01*
X180632042Y-125767105D01*
X180627377Y-125772388D01*
X180566447Y-125902163D01*
X180544391Y-126043823D01*
X175500000Y-126043823D01*
X175500000Y-124098991D01*
X175518907Y-124040800D01*
X175568407Y-124004836D01*
X175598991Y-123999991D01*
X191176538Y-123998537D01*
X206862717Y-123997072D01*
X206920908Y-124015974D01*
G37*
%TD.AperFunction*%
%TD*%
M02*
