M48
; DRILL file {KiCad 6.0.2+dfsg-1} date Thu 03 Nov 2022 12:06:48 PM PDT
; FORMAT={-:-/ absolute / inch / decimal}
; #@! TF.CreationDate,2022-11-03T12:06:48-07:00
; #@! TF.GenerationSoftware,Kicad,Pcbnew,6.0.2+dfsg-1
; #@! TF.FileFunction,MixedPlating,1,4
FMAT,2
INCH
; #@! TA.AperFunction,Plated,PTH,ViaDrill
T1C0.0118
; #@! TA.AperFunction,NonPlated,NPTH,ComponentDrill
T2C0.1260
%
G90
G05
T1
X3.7173Y-4.9902
X3.7191Y-5.0787
X3.72Y-4.9012
X3.7253Y-5.1676
X3.7272Y-4.8129
X3.7359Y-5.2555
X3.7388Y-4.7246
X3.751Y-5.3433
X3.7547Y-4.6375
X3.7704Y-5.4297
X3.775Y-4.5508
X3.7942Y-5.5155
X3.7996Y-4.4657
X3.8221Y-5.5996
X3.8286Y-4.3815
X3.8544Y-5.6826
X3.8615Y-4.2992
X3.8906Y-5.7634
X3.8987Y-4.2183
X3.931Y-5.8428
X3.9398Y-4.1398
X3.9751Y-5.9196
X3.9849Y-4.0631
X4.0232Y-5.9945
X4.0336Y-3.9891
X4.0748Y-6.0665
X4.0862Y-3.9172
X4.1113Y-5.0267
X4.1117Y-4.9578
X4.1144Y-5.0958
X4.1155Y-4.8886
X4.1209Y-5.1644
X4.1227Y-4.8201
X4.1302Y-6.1362
X4.131Y-5.233
X4.1335Y-4.7517
X4.142Y-3.8485
X4.1443Y-5.3005
X4.1475Y-4.6842
X4.1612Y-5.3677
X4.1651Y-4.6172
X4.1813Y-5.4336
X4.1858Y-4.5515
X4.1887Y-6.2027
X4.2015Y-3.7823
X4.2047Y-5.4988
X4.21Y-4.4866
X4.2313Y-5.5623
X4.2372Y-4.4233
X4.2508Y-6.2665
X4.2612Y-5.6248
X4.2639Y-3.7195
X4.2677Y-4.3612
X4.294Y-5.6854
X4.3011Y-4.3009
X4.3157Y-6.3268
X4.3278Y-3.6611
X4.33Y-5.7446
X4.3377Y-4.2421
X4.3686Y-5.8016
X4.377Y-4.1855
X4.3839Y-6.3841
X4.3866Y-3.6088
X4.4104Y-5.8569
X4.4193Y-4.1307
X4.4458Y-3.5562
X4.4545Y-6.4376
X4.4546Y-5.9097
X4.464Y-4.0783
X4.5016Y-5.9605
X4.5046Y-3.5039
X4.5116Y-4.028
X4.5281Y-6.4877
X4.5509Y-6.0087
X4.5614Y-3.9804
X4.5637Y-3.4514
X4.6028Y-6.0545
X4.6036Y-6.5339
X4.6188Y-3.9292
X4.6226Y-3.3991
X4.6567Y-6.0975
X4.6776Y-3.8769
X4.6819Y-6.5765
X4.6862Y-3.3435
X4.7129Y-6.1379
X4.7368Y-3.8243
X4.7535Y-3.289
X4.7617Y-6.6148
X4.7708Y-6.1753
X4.7956Y-3.772
X4.8234Y-3.237
X4.8308Y-6.2099
X4.8438Y-6.6493
X4.8547Y-3.7195
X4.8921Y-6.2413
X4.8948Y-3.1881
X4.9128Y-3.6679
X4.9271Y-6.6795
X4.9552Y-6.2697
X4.9672Y-3.622
X4.9686Y-3.1419
X5.0122Y-6.7056
X5.0194Y-6.2948
X5.0232Y-3.5786
X5.0438Y-3.0989
X5.0812Y-3.5372
X5.0851Y-6.3168
X5.0981Y-6.7273
X5.121Y-3.0587
X5.1404Y-3.4983
X5.1514Y-6.3353
X5.1854Y-6.7448
X5.1994Y-3.0218
X5.2016Y-3.4617
X5.219Y-6.3506
X5.2637Y-3.4277
X5.273Y-6.7578
X5.2796Y-2.988
X5.2869Y-6.3624
X5.3276Y-3.3961
X5.3556Y-6.3708
X5.3607Y-2.9575
X5.3616Y-6.7664
X5.3923Y-3.3673
X5.4243Y-6.3758
X5.4434Y-2.9302
X5.4501Y-6.7706
X5.4585Y-3.3409
X5.4943Y-6.3773
X5.5253Y-3.3173
X5.5266Y-2.9063
X5.5337Y-6.771
X5.5731Y-6.3773
X5.5934Y-3.2963
X5.6112Y-2.8857
X5.6124Y-6.771
X5.6521Y-6.3773
X5.6619Y-3.2781
X5.6915Y-6.771
X5.6961Y-2.8686
X5.7309Y-6.3773
X5.7314Y-3.2626
X5.7702Y-6.771
X5.7821Y-2.8548
X5.8011Y-3.25
X5.81Y-6.3773
X5.8494Y-6.771
X5.8681Y-2.8445
X5.8717Y-3.2402
X5.8888Y-6.3773
X5.9134Y-4.1654
X5.9281Y-6.771
X5.9422Y-3.2332
X5.9449Y-8.2126
X5.9449Y-8.248
X5.9449Y-8.2835
X5.9449Y-8.3228
X5.9449Y-8.3622
X5.9548Y-2.8377
X5.9679Y-6.3773
X6.0073Y-6.771
X6.0132Y-3.229
X6.0315Y-8.1772
X6.0413Y-2.8344
X6.0467Y-6.3773
X6.0845Y-3.2277
X6.0861Y-6.771
X6.1181Y-8.2126
X6.1181Y-8.248
X6.1181Y-8.2874
X6.1181Y-8.3268
X6.1181Y-8.3661
X6.1243Y-2.834
X6.1258Y-6.3773
X6.1636Y-3.2277
X6.1652Y-6.771
X6.1791Y-7.9173
X6.1791Y-7.9646
X6.1791Y-8.0098
X6.203Y-2.834
X6.2046Y-6.3773
X6.2323Y-7.8622
X6.2424Y-3.2277
X6.244Y-6.771
X6.2634Y-7.8205
X6.2822Y-2.834
X6.2837Y-6.3773
X6.2953Y-7.8622
X6.3215Y-3.2277
X6.3231Y-6.771
X6.3465Y-7.9213
X6.3465Y-7.9646
X6.3465Y-8.0118
X6.3609Y-2.834
X6.3625Y-6.3773
X6.3917Y-6.2382
X6.4003Y-3.2277
X6.4019Y-6.771
X6.4051Y-4.6787
X6.4401Y-2.834
X6.4417Y-6.3773
X6.4606Y-8.2047
X6.4606Y-8.2441
X6.4606Y-8.2835
X6.4606Y-8.3228
X6.4606Y-8.3622
X6.4685Y-6.2421
X6.4794Y-3.2277
X6.481Y-6.771
X6.5188Y-2.834
X6.5204Y-6.3773
X6.5582Y-3.2277
X6.5591Y-8.1752
X6.5598Y-6.771
X6.598Y-2.834
X6.5996Y-6.3773
X6.6373Y-3.2277
X6.6389Y-6.771
X6.6535Y-8.2087
X6.6535Y-8.248
X6.6535Y-8.2874
X6.6535Y-8.3268
X6.6535Y-8.3661
X6.6767Y-2.834
X6.6823Y-6.3777
X6.7097Y-6.7723
X6.7161Y-3.2277
X6.7559Y-2.834
X6.77Y-6.3813
X6.7797Y-6.7768
X6.7953Y-3.2277
X6.8346Y-2.834
X6.8493Y-6.7844
X6.8571Y-6.3888
X6.874Y-3.2277
X6.9138Y-2.834
X6.9188Y-6.7951
X6.9295Y-4.6795
X6.9443Y-6.4003
X6.9532Y-3.2277
X6.9764Y-5.1339
X6.9874Y-6.8089
X6.9925Y-2.834
X7.0305Y-6.4156
X7.0319Y-3.2277
X7.0557Y-6.8257
X7.0717Y-2.834
X7.1111Y-3.2277
X7.1163Y-6.4347
X7.1229Y-6.8455
X7.128Y-4.9626
X7.1339Y-5.0394
X7.1504Y-2.834
X7.1894Y-6.8684
X7.1898Y-3.2277
X7.2007Y-6.4576
X7.2296Y-2.834
X7.2545Y-6.8941
X7.269Y-3.2277
X7.2845Y-6.4844
X7.3083Y-2.834
X7.3188Y-6.9228
X7.3477Y-3.2277
X7.3583Y-5.1339
X7.3666Y-6.5146
X7.3813Y-6.9542
X7.3875Y-2.834
X7.4213Y-4.9646
X7.4213Y-5.0394
X7.4252Y-4.1516
X7.4269Y-3.2277
X7.428Y-4.6732
X7.4427Y-6.9885
X7.4477Y-6.5487
X7.4662Y-2.834
X7.4764Y-5.2382
X7.5023Y-7.0253
X7.5056Y-3.2277
X7.5267Y-6.5862
X7.5276Y-4.8563
X7.5454Y-2.834
X7.5604Y-7.065
X7.5848Y-3.2277
X7.6044Y-6.6274
X7.6164Y-7.1069
X7.6241Y-2.834
X7.626Y-5.1417
X7.626Y-5.1752
X7.6635Y-3.2277
X7.6708Y-7.1516
X7.6798Y-6.6718
X7.7033Y-2.834
X7.7185Y-5.3622
X7.7228Y-7.1984
X7.7427Y-3.2277
X7.7536Y-6.7197
X7.7677Y-5.4193
X7.773Y-7.2477
X7.7736Y-4.811
X7.782Y-2.834
X7.8206Y-7.2989
X7.8209Y-4.6122
X7.8214Y-3.2277
X7.8247Y-6.7706
X7.8386Y-5.5433
X7.8612Y-2.834
X7.8698Y-7.356
X7.8858Y-5.5472
X7.8939Y-6.8249
X7.9006Y-3.2277
X7.921Y-7.4159
X7.9399Y-2.834
X7.9449Y-5.0807
X7.9603Y-6.8819
X7.9723Y-7.476
X7.9724Y-4.9803
X7.9793Y-3.2277
X8.002Y-5.0039
X8.013Y-5.6531
X8.013Y-5.6933
X8.0191Y-2.834
X8.0235Y-7.5358
X8.0243Y-6.9422
X8.0551Y-5.5157
X8.0585Y-3.2277
X8.0749Y-7.596
X8.0853Y-7.0049
X8.0979Y-2.834
X8.1261Y-7.6559
X8.1339Y-5.5472
X8.1372Y-3.2277
X8.1435Y-7.0703
X8.177Y-2.834
X8.1799Y-5.0508
X8.1847Y-7.7214
X8.1947Y-7.1301
X8.1953Y-4.6661
X8.2146Y-4.1476
X8.2164Y-3.2277
X8.2244Y-5.6543
X8.2256Y-5.6933
X8.2458Y-7.784
X8.2461Y-7.1903
X8.2558Y-2.834
X8.2951Y-3.2277
X8.2972Y-7.2501
X8.31Y-7.8441
X8.3349Y-2.834
X8.3486Y-7.3103
X8.3743Y-3.2277
X8.3765Y-7.901
X8.3998Y-7.3702
X8.4137Y-2.834
X8.4458Y-7.9551
X8.4487Y-7.4268
X8.453Y-3.2277
X8.4928Y-2.834
X8.4965Y-7.4779
X8.517Y-8.0059
X8.5322Y-3.2277
X8.5394Y-5.2933
X8.5394Y-5.6161
X8.5468Y-7.5271
X8.565Y-5.4606
X8.5716Y-2.834
X8.5909Y-8.0536
X8.5989Y-7.5738
X8.6109Y-3.2277
X8.6398Y-5.2953
X8.6507Y-2.834
X8.6534Y-7.6183
X8.6664Y-8.0978
X8.6901Y-3.2277
X8.6961Y-4.6764
X8.7095Y-7.6602
X8.7295Y-2.834
X8.7442Y-8.1388
X8.7677Y-7.6997
X8.7688Y-3.2277
X8.7913Y-5.7717
X8.7913Y-6.0945
X8.8086Y-2.834
X8.813Y-5.935
X8.8233Y-8.1761
X8.8273Y-7.7364
X8.848Y-3.2277
X8.8874Y-2.834
X8.8888Y-7.7705
X8.8917Y-5.7776
X8.9045Y-8.21
X8.9267Y-3.2277
X8.9514Y-7.8018
X8.9665Y-2.834
X8.9866Y-8.2401
X9.0059Y-3.2277
X9.0157Y-7.8304
X9.0453Y-2.834
X9.0705Y-8.2667
X9.0809Y-7.8559
X9.0846Y-3.2277
X9.1243Y-2.834
X9.1475Y-7.8786
X9.155Y-8.2894
X9.1637Y-3.2277
X9.203Y-2.834
X9.2146Y-7.8983
X9.2181Y-4.6783
X9.2408Y-8.3084
X9.2413Y-3.2277
X9.283Y-7.915
X9.2872Y-2.8347
X9.3133Y-3.2295
X9.327Y-8.3234
X9.3516Y-7.9286
X9.373Y-2.8384
X9.3847Y-3.2338
X9.4142Y-8.3347
X9.4212Y-7.9391
X9.4563Y-3.2408
X9.4591Y-2.8452
X9.4843Y-5.0217
X9.4908Y-7.9465
X9.5014Y-8.342
X9.5273Y-3.2504
X9.5444Y-2.8551
X9.561Y-7.9509
X9.5893Y-8.3455
X9.5982Y-3.2626
X9.6298Y-2.8682
X9.631Y-7.9521
X9.6417Y-5.0453
X9.6682Y-3.2773
X9.6768Y-8.345
X9.7008Y-4.1476
X9.7013Y-7.9501
X9.7141Y-2.8843
X9.7381Y-3.2946
X9.7646Y-8.3407
X9.7711Y-7.9451
X9.7983Y-2.9036
X9.8051Y-5.0197
X9.8051Y-5.1181
X9.8069Y-3.3144
X9.841Y-7.9369
X9.8517Y-8.3324
X9.8753Y-3.3367
X9.8813Y-2.9258
X9.9101Y-7.9257
X9.9388Y-8.3203
X9.9425Y-3.3615
X9.9638Y-2.9511
X9.979Y-7.9113
X10.009Y-3.3888
X10.0248Y-8.3043
X10.045Y-2.9793
X10.0468Y-7.8939
X10.0742Y-3.4183
X10.1105Y-8.2844
X10.1141Y-7.8735
X10.1254Y-3.0106
X10.1387Y-3.4504
X10.1801Y-7.8502
X10.1948Y-8.2609
X10.2015Y-3.4846
X10.2043Y-3.0447
X10.2453Y-7.8238
X10.2634Y-3.5213
X10.2783Y-8.2334
X10.2823Y-3.0817
X10.309Y-7.7947
X10.3236Y-3.56
X10.3585Y-3.1214
X10.3602Y-8.2025
X10.3716Y-7.7627
X10.3827Y-3.6011
X10.4324Y-7.728
X10.4335Y-3.1641
X10.4399Y-3.6441
X10.4409Y-8.1677
X10.492Y-7.6905
X10.4959Y-3.6894
X10.5066Y-3.2092
X10.5197Y-8.1296
X10.5495Y-7.6506
X10.5498Y-3.7364
X10.5784Y-3.2572
X10.5971Y-8.0878
X10.6023Y-3.7857
X10.6054Y-7.608
X10.648Y-3.3076
X10.6526Y-3.8365
X10.6591Y-7.5631
X10.6721Y-8.0428
X10.7014Y-3.8895
X10.711Y-7.5156
X10.7161Y-3.3607
X10.7455Y-7.9943
X10.7479Y-3.9439
X10.7605Y-7.4661
X10.7818Y-3.416
X10.7927Y-4.0002
X10.8081Y-7.4142
X10.8162Y-7.9428
X10.8351Y-4.0579
X10.8459Y-3.4739
X10.853Y-7.3606
X10.8757Y-4.1173
X10.8849Y-7.888
X10.8956Y-7.3046
X10.9074Y-3.5338
X10.9138Y-4.1779
X10.9356Y-7.2472
X10.9499Y-4.2401
X10.9508Y-7.8304
X10.967Y-3.5963
X10.9731Y-7.1876
X10.9835Y-4.3033
X11.0078Y-7.1269
X11.0144Y-7.7696
X11.015Y-4.3681
X11.0157Y-5.9567
X11.0241Y-3.6605
X11.0399Y-7.0642
X11.0439Y-4.4335
X11.069Y-7.0006
X11.0706Y-4.5004
X11.0749Y-7.7064
X11.079Y-3.7272
X11.0946Y-4.5678
X11.0954Y-6.9354
X11.1164Y-4.6364
X11.1188Y-6.8694
X11.1312Y-3.7954
X11.1328Y-7.6402
X11.1355Y-4.7054
X11.1393Y-6.8021
X11.1521Y-4.7754
X11.1566Y-6.7343
X11.1662Y-4.8456
X11.1711Y-6.6654
X11.1777Y-4.9166
X11.1811Y-3.8658
X11.1823Y-6.5964
X11.1866Y-4.9876
X11.1874Y-7.5719
X11.1906Y-6.5265
X11.1929Y-5.0593
X11.1956Y-6.4567
X11.1966Y-5.1308
X11.1976Y-6.3863
X11.1976Y-5.2034
X11.1976Y-5.2821
X11.1976Y-5.3613
X11.1976Y-5.4401
X11.1976Y-5.5192
X11.1976Y-5.598
X11.1976Y-5.6771
X11.1976Y-5.7559
X11.1976Y-5.835
X11.1976Y-5.9138
X11.1976Y-5.9929
X11.1976Y-6.0717
X11.1976Y-6.1508
X11.1976Y-6.2296
X11.1976Y-6.3086
X11.2282Y-3.9377
X11.2392Y-7.5008
X11.2728Y-4.0116
X11.2875Y-7.4279
X11.3146Y-4.0867
X11.3328Y-7.3525
X11.3537Y-4.1636
X11.3744Y-7.2755
X11.3899Y-4.2416
X11.4128Y-7.1964
X11.4233Y-4.3212
X11.4474Y-7.1161
X11.4537Y-4.4015
X11.4786Y-7.0338
X11.4812Y-4.4834
X11.5056Y-4.5657
X11.506Y-6.9507
X11.5272Y-4.6493
X11.5297Y-6.866
X11.5455Y-4.7333
X11.5495Y-6.7808
X11.5609Y-4.8182
X11.5656Y-6.6944
X11.5731Y-4.9033
X11.5778Y-6.6077
X11.5822Y-4.9891
X11.5861Y-6.5202
X11.5882Y-5.0748
X11.5906Y-6.4328
X11.5911Y-5.1608
X11.5913Y-5.2428
X11.5913Y-5.3219
X11.5913Y-5.4007
X11.5913Y-5.4798
X11.5913Y-5.5586
X11.5913Y-5.6377
X11.5913Y-5.7165
X11.5913Y-5.7957
X11.5913Y-5.8744
X11.5913Y-5.9536
X11.5913Y-6.0323
X11.5913Y-6.1115
X11.5913Y-6.1902
X11.5913Y-6.2692
X11.5913Y-6.348
X11.6437Y-5.9213
T2
X3.6417Y-2.7953
X3.6417Y-8.4055
X11.6142Y-2.7953
X11.6142Y-8.4252
T0
M30
