%TF.GenerationSoftware,KiCad,Pcbnew,6.0.2+dfsg-1*%
%TF.CreationDate,2022-11-03T12:06:55-07:00*%
%TF.ProjectId,slot_track,736c6f74-5f74-4726-9163-6b2e6b696361,rev?*%
%TF.SameCoordinates,Original*%
%TF.FileFunction,Legend,Bot*%
%TF.FilePolarity,Positive*%
%FSLAX46Y46*%
G04 Gerber Fmt 4.6, Leading zero omitted, Abs format (unit mm)*
G04 Created by KiCad (PCBNEW 6.0.2+dfsg-1) date 2022-11-03 12:06:55*
%MOMM*%
%LPD*%
G01*
G04 APERTURE LIST*
%ADD10C,0.110000*%
%ADD11C,0.120000*%
%ADD12C,0.150000*%
G04 APERTURE END LIST*
D10*
%TO.C,C3*%
X160233333Y-195085714D02*
X160271428Y-195123809D01*
X160385714Y-195161904D01*
X160461904Y-195161904D01*
X160576190Y-195123809D01*
X160652380Y-195047619D01*
X160690476Y-194971428D01*
X160728571Y-194819047D01*
X160728571Y-194704761D01*
X160690476Y-194552380D01*
X160652380Y-194476190D01*
X160576190Y-194400000D01*
X160461904Y-194361904D01*
X160385714Y-194361904D01*
X160271428Y-194400000D01*
X160233333Y-194438095D01*
X159966666Y-194361904D02*
X159471428Y-194361904D01*
X159738095Y-194666666D01*
X159623809Y-194666666D01*
X159547619Y-194704761D01*
X159509523Y-194742857D01*
X159471428Y-194819047D01*
X159471428Y-195009523D01*
X159509523Y-195085714D01*
X159547619Y-195123809D01*
X159623809Y-195161904D01*
X159852380Y-195161904D01*
X159928571Y-195123809D01*
X159966666Y-195085714D01*
%TO.C,C7*%
X205785714Y-126166666D02*
X205823809Y-126128571D01*
X205861904Y-126014285D01*
X205861904Y-125938095D01*
X205823809Y-125823809D01*
X205747619Y-125747619D01*
X205671428Y-125709523D01*
X205519047Y-125671428D01*
X205404761Y-125671428D01*
X205252380Y-125709523D01*
X205176190Y-125747619D01*
X205100000Y-125823809D01*
X205061904Y-125938095D01*
X205061904Y-126014285D01*
X205100000Y-126128571D01*
X205138095Y-126166666D01*
X205061904Y-126433333D02*
X205061904Y-126966666D01*
X205861904Y-126623809D01*
%TO.C,C5*%
X195185714Y-139166666D02*
X195223809Y-139128571D01*
X195261904Y-139014285D01*
X195261904Y-138938095D01*
X195223809Y-138823809D01*
X195147619Y-138747619D01*
X195071428Y-138709523D01*
X194919047Y-138671428D01*
X194804761Y-138671428D01*
X194652380Y-138709523D01*
X194576190Y-138747619D01*
X194500000Y-138823809D01*
X194461904Y-138938095D01*
X194461904Y-139014285D01*
X194500000Y-139128571D01*
X194538095Y-139166666D01*
X194461904Y-139890476D02*
X194461904Y-139509523D01*
X194842857Y-139471428D01*
X194804761Y-139509523D01*
X194766666Y-139585714D01*
X194766666Y-139776190D01*
X194804761Y-139852380D01*
X194842857Y-139890476D01*
X194919047Y-139928571D01*
X195109523Y-139928571D01*
X195185714Y-139890476D01*
X195223809Y-139852380D01*
X195261904Y-139776190D01*
X195261904Y-139585714D01*
X195223809Y-139509523D01*
X195185714Y-139471428D01*
%TO.C,C4*%
X191385714Y-131016666D02*
X191423809Y-130978571D01*
X191461904Y-130864285D01*
X191461904Y-130788095D01*
X191423809Y-130673809D01*
X191347619Y-130597619D01*
X191271428Y-130559523D01*
X191119047Y-130521428D01*
X191004761Y-130521428D01*
X190852380Y-130559523D01*
X190776190Y-130597619D01*
X190700000Y-130673809D01*
X190661904Y-130788095D01*
X190661904Y-130864285D01*
X190700000Y-130978571D01*
X190738095Y-131016666D01*
X190928571Y-131702380D02*
X191461904Y-131702380D01*
X190623809Y-131511904D02*
X191195238Y-131321428D01*
X191195238Y-131816666D01*
%TO.C,C1*%
X190783333Y-136015714D02*
X190821428Y-136053809D01*
X190935714Y-136091904D01*
X191011904Y-136091904D01*
X191126190Y-136053809D01*
X191202380Y-135977619D01*
X191240476Y-135901428D01*
X191278571Y-135749047D01*
X191278571Y-135634761D01*
X191240476Y-135482380D01*
X191202380Y-135406190D01*
X191126190Y-135330000D01*
X191011904Y-135291904D01*
X190935714Y-135291904D01*
X190821428Y-135330000D01*
X190783333Y-135368095D01*
X190021428Y-136091904D02*
X190478571Y-136091904D01*
X190250000Y-136091904D02*
X190250000Y-135291904D01*
X190326190Y-135406190D01*
X190402380Y-135482380D01*
X190478571Y-135520476D01*
%TO.C,J2*%
X174421904Y-135943333D02*
X174993333Y-135943333D01*
X175107619Y-135905238D01*
X175183809Y-135829047D01*
X175221904Y-135714761D01*
X175221904Y-135638571D01*
X174498095Y-136286190D02*
X174460000Y-136324285D01*
X174421904Y-136400476D01*
X174421904Y-136590952D01*
X174460000Y-136667142D01*
X174498095Y-136705238D01*
X174574285Y-136743333D01*
X174650476Y-136743333D01*
X174764761Y-136705238D01*
X175221904Y-136248095D01*
X175221904Y-136743333D01*
%TO.C,U5*%
X220411904Y-138390476D02*
X221059523Y-138390476D01*
X221135714Y-138428571D01*
X221173809Y-138466666D01*
X221211904Y-138542857D01*
X221211904Y-138695238D01*
X221173809Y-138771428D01*
X221135714Y-138809523D01*
X221059523Y-138847619D01*
X220411904Y-138847619D01*
X220411904Y-139609523D02*
X220411904Y-139228571D01*
X220792857Y-139190476D01*
X220754761Y-139228571D01*
X220716666Y-139304761D01*
X220716666Y-139495238D01*
X220754761Y-139571428D01*
X220792857Y-139609523D01*
X220869047Y-139647619D01*
X221059523Y-139647619D01*
X221135714Y-139609523D01*
X221173809Y-139571428D01*
X221211904Y-139495238D01*
X221211904Y-139304761D01*
X221173809Y-139228571D01*
X221135714Y-139190476D01*
%TO.C,U4*%
X226791904Y-150190476D02*
X227439523Y-150190476D01*
X227515714Y-150228571D01*
X227553809Y-150266666D01*
X227591904Y-150342857D01*
X227591904Y-150495238D01*
X227553809Y-150571428D01*
X227515714Y-150609523D01*
X227439523Y-150647619D01*
X226791904Y-150647619D01*
X227058571Y-151371428D02*
X227591904Y-151371428D01*
X226753809Y-151180952D02*
X227325238Y-150990476D01*
X227325238Y-151485714D01*
%TO.C,U3*%
X245459523Y-130981904D02*
X245459523Y-131629523D01*
X245421428Y-131705714D01*
X245383333Y-131743809D01*
X245307142Y-131781904D01*
X245154761Y-131781904D01*
X245078571Y-131743809D01*
X245040476Y-131705714D01*
X245002380Y-131629523D01*
X245002380Y-130981904D01*
X244697619Y-130981904D02*
X244202380Y-130981904D01*
X244469047Y-131286666D01*
X244354761Y-131286666D01*
X244278571Y-131324761D01*
X244240476Y-131362857D01*
X244202380Y-131439047D01*
X244202380Y-131629523D01*
X244240476Y-131705714D01*
X244278571Y-131743809D01*
X244354761Y-131781904D01*
X244583333Y-131781904D01*
X244659523Y-131743809D01*
X244697619Y-131705714D01*
%TO.C,R7*%
X197861904Y-120866666D02*
X197480952Y-120600000D01*
X197861904Y-120409523D02*
X197061904Y-120409523D01*
X197061904Y-120714285D01*
X197100000Y-120790476D01*
X197138095Y-120828571D01*
X197214285Y-120866666D01*
X197328571Y-120866666D01*
X197404761Y-120828571D01*
X197442857Y-120790476D01*
X197480952Y-120714285D01*
X197480952Y-120409523D01*
X197061904Y-121133333D02*
X197061904Y-121666666D01*
X197861904Y-121323809D01*
%TO.C,R6*%
X196361904Y-121766666D02*
X195980952Y-121500000D01*
X196361904Y-121309523D02*
X195561904Y-121309523D01*
X195561904Y-121614285D01*
X195600000Y-121690476D01*
X195638095Y-121728571D01*
X195714285Y-121766666D01*
X195828571Y-121766666D01*
X195904761Y-121728571D01*
X195942857Y-121690476D01*
X195980952Y-121614285D01*
X195980952Y-121309523D01*
X195561904Y-122452380D02*
X195561904Y-122300000D01*
X195600000Y-122223809D01*
X195638095Y-122185714D01*
X195752380Y-122109523D01*
X195904761Y-122071428D01*
X196209523Y-122071428D01*
X196285714Y-122109523D01*
X196323809Y-122147619D01*
X196361904Y-122223809D01*
X196361904Y-122376190D01*
X196323809Y-122452380D01*
X196285714Y-122490476D01*
X196209523Y-122528571D01*
X196019047Y-122528571D01*
X195942857Y-122490476D01*
X195904761Y-122452380D01*
X195866666Y-122376190D01*
X195866666Y-122223809D01*
X195904761Y-122147619D01*
X195942857Y-122109523D01*
X196019047Y-122071428D01*
%TO.C,R5*%
X207083333Y-131391904D02*
X207350000Y-131010952D01*
X207540476Y-131391904D02*
X207540476Y-130591904D01*
X207235714Y-130591904D01*
X207159523Y-130630000D01*
X207121428Y-130668095D01*
X207083333Y-130744285D01*
X207083333Y-130858571D01*
X207121428Y-130934761D01*
X207159523Y-130972857D01*
X207235714Y-131010952D01*
X207540476Y-131010952D01*
X206359523Y-130591904D02*
X206740476Y-130591904D01*
X206778571Y-130972857D01*
X206740476Y-130934761D01*
X206664285Y-130896666D01*
X206473809Y-130896666D01*
X206397619Y-130934761D01*
X206359523Y-130972857D01*
X206321428Y-131049047D01*
X206321428Y-131239523D01*
X206359523Y-131315714D01*
X206397619Y-131353809D01*
X206473809Y-131391904D01*
X206664285Y-131391904D01*
X206740476Y-131353809D01*
X206778571Y-131315714D01*
%TO.C,R4*%
X194191904Y-123916666D02*
X193810952Y-123650000D01*
X194191904Y-123459523D02*
X193391904Y-123459523D01*
X193391904Y-123764285D01*
X193430000Y-123840476D01*
X193468095Y-123878571D01*
X193544285Y-123916666D01*
X193658571Y-123916666D01*
X193734761Y-123878571D01*
X193772857Y-123840476D01*
X193810952Y-123764285D01*
X193810952Y-123459523D01*
X193658571Y-124602380D02*
X194191904Y-124602380D01*
X193353809Y-124411904D02*
X193925238Y-124221428D01*
X193925238Y-124716666D01*
%TO.C,R3*%
X202361904Y-121766666D02*
X201980952Y-121500000D01*
X202361904Y-121309523D02*
X201561904Y-121309523D01*
X201561904Y-121614285D01*
X201600000Y-121690476D01*
X201638095Y-121728571D01*
X201714285Y-121766666D01*
X201828571Y-121766666D01*
X201904761Y-121728571D01*
X201942857Y-121690476D01*
X201980952Y-121614285D01*
X201980952Y-121309523D01*
X201561904Y-122033333D02*
X201561904Y-122528571D01*
X201866666Y-122261904D01*
X201866666Y-122376190D01*
X201904761Y-122452380D01*
X201942857Y-122490476D01*
X202019047Y-122528571D01*
X202209523Y-122528571D01*
X202285714Y-122490476D01*
X202323809Y-122452380D01*
X202361904Y-122376190D01*
X202361904Y-122147619D01*
X202323809Y-122071428D01*
X202285714Y-122033333D01*
%TO.C,R2*%
X200861904Y-121766666D02*
X200480952Y-121500000D01*
X200861904Y-121309523D02*
X200061904Y-121309523D01*
X200061904Y-121614285D01*
X200100000Y-121690476D01*
X200138095Y-121728571D01*
X200214285Y-121766666D01*
X200328571Y-121766666D01*
X200404761Y-121728571D01*
X200442857Y-121690476D01*
X200480952Y-121614285D01*
X200480952Y-121309523D01*
X200138095Y-122071428D02*
X200100000Y-122109523D01*
X200061904Y-122185714D01*
X200061904Y-122376190D01*
X200100000Y-122452380D01*
X200138095Y-122490476D01*
X200214285Y-122528571D01*
X200290476Y-122528571D01*
X200404761Y-122490476D01*
X200861904Y-122033333D01*
X200861904Y-122528571D01*
%TO.C,R1*%
X199361904Y-121866666D02*
X198980952Y-121600000D01*
X199361904Y-121409523D02*
X198561904Y-121409523D01*
X198561904Y-121714285D01*
X198600000Y-121790476D01*
X198638095Y-121828571D01*
X198714285Y-121866666D01*
X198828571Y-121866666D01*
X198904761Y-121828571D01*
X198942857Y-121790476D01*
X198980952Y-121714285D01*
X198980952Y-121409523D01*
X199361904Y-122628571D02*
X199361904Y-122171428D01*
X199361904Y-122400000D02*
X198561904Y-122400000D01*
X198676190Y-122323809D01*
X198752380Y-122247619D01*
X198790476Y-122171428D01*
%TO.C,U2*%
X186909523Y-124186904D02*
X186909523Y-124834523D01*
X186871428Y-124910714D01*
X186833333Y-124948809D01*
X186757142Y-124986904D01*
X186604761Y-124986904D01*
X186528571Y-124948809D01*
X186490476Y-124910714D01*
X186452380Y-124834523D01*
X186452380Y-124186904D01*
X186109523Y-124263095D02*
X186071428Y-124225000D01*
X185995238Y-124186904D01*
X185804761Y-124186904D01*
X185728571Y-124225000D01*
X185690476Y-124263095D01*
X185652380Y-124339285D01*
X185652380Y-124415476D01*
X185690476Y-124529761D01*
X186147619Y-124986904D01*
X185652380Y-124986904D01*
%TO.C,L3*%
X233233333Y-148161904D02*
X233614285Y-148161904D01*
X233614285Y-147361904D01*
X233042857Y-147361904D02*
X232547619Y-147361904D01*
X232814285Y-147666666D01*
X232700000Y-147666666D01*
X232623809Y-147704761D01*
X232585714Y-147742857D01*
X232547619Y-147819047D01*
X232547619Y-148009523D01*
X232585714Y-148085714D01*
X232623809Y-148123809D01*
X232700000Y-148161904D01*
X232928571Y-148161904D01*
X233004761Y-148123809D01*
X233042857Y-148085714D01*
%TO.C,L2*%
X239833333Y-132161904D02*
X240214285Y-132161904D01*
X240214285Y-131361904D01*
X239604761Y-131438095D02*
X239566666Y-131400000D01*
X239490476Y-131361904D01*
X239300000Y-131361904D01*
X239223809Y-131400000D01*
X239185714Y-131438095D01*
X239147619Y-131514285D01*
X239147619Y-131590476D01*
X239185714Y-131704761D01*
X239642857Y-132161904D01*
X239147619Y-132161904D01*
%TO.C,L1*%
X232633333Y-131861904D02*
X233014285Y-131861904D01*
X233014285Y-131061904D01*
X231947619Y-131861904D02*
X232404761Y-131861904D01*
X232176190Y-131861904D02*
X232176190Y-131061904D01*
X232252380Y-131176190D01*
X232328571Y-131252380D01*
X232404761Y-131290476D01*
%TO.C,C10*%
X252975714Y-137835714D02*
X253013809Y-137797619D01*
X253051904Y-137683333D01*
X253051904Y-137607142D01*
X253013809Y-137492857D01*
X252937619Y-137416666D01*
X252861428Y-137378571D01*
X252709047Y-137340476D01*
X252594761Y-137340476D01*
X252442380Y-137378571D01*
X252366190Y-137416666D01*
X252290000Y-137492857D01*
X252251904Y-137607142D01*
X252251904Y-137683333D01*
X252290000Y-137797619D01*
X252328095Y-137835714D01*
X253051904Y-138597619D02*
X253051904Y-138140476D01*
X253051904Y-138369047D02*
X252251904Y-138369047D01*
X252366190Y-138292857D01*
X252442380Y-138216666D01*
X252480476Y-138140476D01*
X252251904Y-139092857D02*
X252251904Y-139169047D01*
X252290000Y-139245238D01*
X252328095Y-139283333D01*
X252404285Y-139321428D01*
X252556666Y-139359523D01*
X252747142Y-139359523D01*
X252899523Y-139321428D01*
X252975714Y-139283333D01*
X253013809Y-139245238D01*
X253051904Y-139169047D01*
X253051904Y-139092857D01*
X253013809Y-139016666D01*
X252975714Y-138978571D01*
X252899523Y-138940476D01*
X252747142Y-138902380D01*
X252556666Y-138902380D01*
X252404285Y-138940476D01*
X252328095Y-138978571D01*
X252290000Y-139016666D01*
X252251904Y-139092857D01*
%TO.C,C9*%
X246685714Y-155466666D02*
X246723809Y-155428571D01*
X246761904Y-155314285D01*
X246761904Y-155238095D01*
X246723809Y-155123809D01*
X246647619Y-155047619D01*
X246571428Y-155009523D01*
X246419047Y-154971428D01*
X246304761Y-154971428D01*
X246152380Y-155009523D01*
X246076190Y-155047619D01*
X246000000Y-155123809D01*
X245961904Y-155238095D01*
X245961904Y-155314285D01*
X246000000Y-155428571D01*
X246038095Y-155466666D01*
X246761904Y-155847619D02*
X246761904Y-156000000D01*
X246723809Y-156076190D01*
X246685714Y-156114285D01*
X246571428Y-156190476D01*
X246419047Y-156228571D01*
X246114285Y-156228571D01*
X246038095Y-156190476D01*
X246000000Y-156152380D01*
X245961904Y-156076190D01*
X245961904Y-155923809D01*
X246000000Y-155847619D01*
X246038095Y-155809523D01*
X246114285Y-155771428D01*
X246304761Y-155771428D01*
X246380952Y-155809523D01*
X246419047Y-155847619D01*
X246457142Y-155923809D01*
X246457142Y-156076190D01*
X246419047Y-156152380D01*
X246380952Y-156190476D01*
X246304761Y-156228571D01*
%TO.C,C8*%
X200285714Y-142166666D02*
X200323809Y-142128571D01*
X200361904Y-142014285D01*
X200361904Y-141938095D01*
X200323809Y-141823809D01*
X200247619Y-141747619D01*
X200171428Y-141709523D01*
X200019047Y-141671428D01*
X199904761Y-141671428D01*
X199752380Y-141709523D01*
X199676190Y-141747619D01*
X199600000Y-141823809D01*
X199561904Y-141938095D01*
X199561904Y-142014285D01*
X199600000Y-142128571D01*
X199638095Y-142166666D01*
X199904761Y-142623809D02*
X199866666Y-142547619D01*
X199828571Y-142509523D01*
X199752380Y-142471428D01*
X199714285Y-142471428D01*
X199638095Y-142509523D01*
X199600000Y-142547619D01*
X199561904Y-142623809D01*
X199561904Y-142776190D01*
X199600000Y-142852380D01*
X199638095Y-142890476D01*
X199714285Y-142928571D01*
X199752380Y-142928571D01*
X199828571Y-142890476D01*
X199866666Y-142852380D01*
X199904761Y-142776190D01*
X199904761Y-142623809D01*
X199942857Y-142547619D01*
X199980952Y-142509523D01*
X200057142Y-142471428D01*
X200209523Y-142471428D01*
X200285714Y-142509523D01*
X200323809Y-142547619D01*
X200361904Y-142623809D01*
X200361904Y-142776190D01*
X200323809Y-142852380D01*
X200285714Y-142890476D01*
X200209523Y-142928571D01*
X200057142Y-142928571D01*
X199980952Y-142890476D01*
X199942857Y-142852380D01*
X199904761Y-142776190D01*
%TO.C,C6*%
X191740714Y-126916666D02*
X191778809Y-126878571D01*
X191816904Y-126764285D01*
X191816904Y-126688095D01*
X191778809Y-126573809D01*
X191702619Y-126497619D01*
X191626428Y-126459523D01*
X191474047Y-126421428D01*
X191359761Y-126421428D01*
X191207380Y-126459523D01*
X191131190Y-126497619D01*
X191055000Y-126573809D01*
X191016904Y-126688095D01*
X191016904Y-126764285D01*
X191055000Y-126878571D01*
X191093095Y-126916666D01*
X191016904Y-127602380D02*
X191016904Y-127450000D01*
X191055000Y-127373809D01*
X191093095Y-127335714D01*
X191207380Y-127259523D01*
X191359761Y-127221428D01*
X191664523Y-127221428D01*
X191740714Y-127259523D01*
X191778809Y-127297619D01*
X191816904Y-127373809D01*
X191816904Y-127526190D01*
X191778809Y-127602380D01*
X191740714Y-127640476D01*
X191664523Y-127678571D01*
X191474047Y-127678571D01*
X191397857Y-127640476D01*
X191359761Y-127602380D01*
X191321666Y-127526190D01*
X191321666Y-127373809D01*
X191359761Y-127297619D01*
X191397857Y-127259523D01*
X191474047Y-127221428D01*
%TO.C,C2*%
X183085714Y-124366666D02*
X183123809Y-124328571D01*
X183161904Y-124214285D01*
X183161904Y-124138095D01*
X183123809Y-124023809D01*
X183047619Y-123947619D01*
X182971428Y-123909523D01*
X182819047Y-123871428D01*
X182704761Y-123871428D01*
X182552380Y-123909523D01*
X182476190Y-123947619D01*
X182400000Y-124023809D01*
X182361904Y-124138095D01*
X182361904Y-124214285D01*
X182400000Y-124328571D01*
X182438095Y-124366666D01*
X182438095Y-124671428D02*
X182400000Y-124709523D01*
X182361904Y-124785714D01*
X182361904Y-124976190D01*
X182400000Y-125052380D01*
X182438095Y-125090476D01*
X182514285Y-125128571D01*
X182590476Y-125128571D01*
X182704761Y-125090476D01*
X183161904Y-124633333D01*
X183161904Y-125128571D01*
%TO.C,U1*%
X200159523Y-137261904D02*
X200159523Y-137909523D01*
X200121428Y-137985714D01*
X200083333Y-138023809D01*
X200007142Y-138061904D01*
X199854761Y-138061904D01*
X199778571Y-138023809D01*
X199740476Y-137985714D01*
X199702380Y-137909523D01*
X199702380Y-137261904D01*
X198902380Y-138061904D02*
X199359523Y-138061904D01*
X199130952Y-138061904D02*
X199130952Y-137261904D01*
X199207142Y-137376190D01*
X199283333Y-137452380D01*
X199359523Y-137490476D01*
D11*
%TO.C,C3*%
X159778748Y-195635000D02*
X160301252Y-195635000D01*
X159778748Y-197105000D02*
X160301252Y-197105000D01*
%TO.C,C7*%
X204760000Y-126209420D02*
X204760000Y-126490580D01*
X203740000Y-126209420D02*
X203740000Y-126490580D01*
%TO.C,C5*%
X194440000Y-137240580D02*
X194440000Y-136959420D01*
X195460000Y-137240580D02*
X195460000Y-136959420D01*
%TO.C,C4*%
X191740000Y-131290580D02*
X191740000Y-131009420D01*
X192760000Y-131290580D02*
X192760000Y-131009420D01*
%TO.C,C1*%
X190509420Y-133790000D02*
X190790580Y-133790000D01*
X190509420Y-134810000D02*
X190790580Y-134810000D01*
%TO.C,J2*%
X183030000Y-133610000D02*
X183600000Y-133610000D01*
X180490000Y-133610000D02*
X181510000Y-133610000D01*
X177950000Y-138810000D02*
X178970000Y-138810000D01*
X175860000Y-138810000D02*
X176430000Y-138810000D01*
X183030000Y-138810000D02*
X183600000Y-138810000D01*
X177950000Y-133610000D02*
X178970000Y-133610000D01*
X175860000Y-133610000D02*
X176430000Y-133610000D01*
X175860000Y-133610000D02*
X175860000Y-138810000D01*
X180490000Y-138810000D02*
X181510000Y-138810000D01*
X183600000Y-133610000D02*
X183600000Y-138810000D01*
X176430000Y-132170000D02*
X176430000Y-133610000D01*
D12*
%TO.C,U5*%
X214975000Y-140775000D02*
X214975000Y-136625000D01*
X220125000Y-141875000D02*
X220125000Y-136625000D01*
%TO.C,U4*%
X221355000Y-152875000D02*
X221355000Y-148725000D01*
X226505000Y-153975000D02*
X226505000Y-148725000D01*
%TO.C,U3*%
X242775000Y-125545000D02*
X246925000Y-125545000D01*
X241675000Y-130695000D02*
X246925000Y-130695000D01*
D11*
%TO.C,R7*%
X196927500Y-124387258D02*
X196927500Y-123912742D01*
X197972500Y-124387258D02*
X197972500Y-123912742D01*
%TO.C,R6*%
X195427500Y-124387258D02*
X195427500Y-123912742D01*
X196472500Y-124387258D02*
X196472500Y-123912742D01*
%TO.C,R5*%
X206712742Y-129077500D02*
X207187258Y-129077500D01*
X206712742Y-130122500D02*
X207187258Y-130122500D01*
%TO.C,R4*%
X191877500Y-124287258D02*
X191877500Y-123812742D01*
X192922500Y-124287258D02*
X192922500Y-123812742D01*
%TO.C,R3*%
X202472500Y-123912742D02*
X202472500Y-124387258D01*
X201427500Y-123912742D02*
X201427500Y-124387258D01*
%TO.C,R2*%
X200972500Y-123912742D02*
X200972500Y-124387258D01*
X199927500Y-123912742D02*
X199927500Y-124387258D01*
%TO.C,R1*%
X199472500Y-123912742D02*
X199472500Y-124387258D01*
X198427500Y-123912742D02*
X198427500Y-124387258D01*
%TO.C,U2*%
X186300000Y-125465000D02*
X185650000Y-125465000D01*
X186300000Y-128585000D02*
X185650000Y-128585000D01*
X186300000Y-125465000D02*
X187975000Y-125465000D01*
X186300000Y-128585000D02*
X186950000Y-128585000D01*
%TO.C,L3*%
X232020000Y-148570000D02*
X234770000Y-148570000D01*
X240770000Y-161370000D02*
X243520000Y-161370000D01*
X231370000Y-149220000D02*
X231370000Y-160720000D01*
X240770000Y-148570000D02*
X243520000Y-148570000D01*
X232020000Y-161370000D02*
X234770000Y-161370000D01*
X244170000Y-160720000D02*
X244170000Y-149220000D01*
X243520000Y-161370000D02*
G75*
G03*
X244170000Y-160720000I-1J650001D01*
G01*
X231370000Y-160720000D02*
G75*
G03*
X232020000Y-161370000I650001J1D01*
G01*
X232020000Y-148570000D02*
G75*
G03*
X231370000Y-149220000I1J-650001D01*
G01*
X244170000Y-149220000D02*
G75*
G03*
X243520000Y-148570000I-650001J-1D01*
G01*
%TO.C,L2*%
X251355000Y-133230000D02*
G75*
G03*
X250705000Y-132580000I-650001J-1D01*
G01*
X239205000Y-132580000D02*
G75*
G03*
X238555000Y-133230000I1J-650001D01*
G01*
X238555000Y-144730000D02*
G75*
G03*
X239205000Y-145380000I650001J1D01*
G01*
X250705000Y-145380000D02*
G75*
G03*
X251355000Y-144730000I-1J650001D01*
G01*
X251355000Y-144730000D02*
X251355000Y-133230000D01*
X239205000Y-145380000D02*
X241955000Y-145380000D01*
X247955000Y-132580000D02*
X250705000Y-132580000D01*
X238555000Y-133230000D02*
X238555000Y-144730000D01*
X247955000Y-145380000D02*
X250705000Y-145380000D01*
X239205000Y-132580000D02*
X241955000Y-132580000D01*
%TO.C,L1*%
X222680000Y-132350000D02*
X225430000Y-132350000D01*
X231430000Y-145150000D02*
X234180000Y-145150000D01*
X222030000Y-133000000D02*
X222030000Y-144500000D01*
X231430000Y-132350000D02*
X234180000Y-132350000D01*
X222680000Y-145150000D02*
X225430000Y-145150000D01*
X234830000Y-144500000D02*
X234830000Y-133000000D01*
X234180000Y-145150000D02*
G75*
G03*
X234830000Y-144500000I-1J650001D01*
G01*
X222030000Y-144500000D02*
G75*
G03*
X222680000Y-145150000I650001J1D01*
G01*
X222680000Y-132350000D02*
G75*
G03*
X222030000Y-133000000I1J-650001D01*
G01*
X234830000Y-133000000D02*
G75*
G03*
X234180000Y-132350000I-650001J-1D01*
G01*
%TO.C,C10*%
X255105000Y-138088748D02*
X255105000Y-138611252D01*
X253635000Y-138088748D02*
X253635000Y-138611252D01*
%TO.C,C9*%
X246985000Y-158038748D02*
X246985000Y-158561252D01*
X245515000Y-158038748D02*
X245515000Y-158561252D01*
%TO.C,C8*%
X200705000Y-144448748D02*
X200705000Y-144971252D01*
X199235000Y-144448748D02*
X199235000Y-144971252D01*
%TO.C,C6*%
X190510000Y-127311252D02*
X190510000Y-126788748D01*
X189040000Y-127311252D02*
X189040000Y-126788748D01*
%TO.C,C2*%
X183485000Y-126738748D02*
X183485000Y-127261252D01*
X182015000Y-126738748D02*
X182015000Y-127261252D01*
%TO.C,U1*%
X195940000Y-135460000D02*
X195940000Y-135010000D01*
X202710000Y-128240000D02*
X203160000Y-128240000D01*
X195940000Y-135010000D02*
X194650000Y-135010000D01*
X195940000Y-128240000D02*
X195940000Y-128690000D01*
X203160000Y-128240000D02*
X203160000Y-128690000D01*
X203160000Y-135460000D02*
X203160000Y-135010000D01*
X202710000Y-135460000D02*
X203160000Y-135460000D01*
X196390000Y-128240000D02*
X195940000Y-128240000D01*
X196390000Y-135460000D02*
X195940000Y-135460000D01*
%TD*%
M02*
